<svg xmlns="http://www.w3.org/2000/svg" xmlns:xlink="http://www.w3.org/1999/xlink" width="899" height="785" viewBox="0 0 899 785">
  <defs>
    <clipPath id="clip-path">
      <rect id="Rectangle_1230" data-name="Rectangle 1230" width="899" height="785" transform="translate(933 136)" fill="#fff" stroke="#707070" stroke-width="1" opacity="0.6"/>
    </clipPath>
    <linearGradient id="linear-gradient" x1="0.5" y1="1" x2="0.5" gradientUnits="objectBoundingBox">
      <stop offset="0" stop-color="#f26522"/>
      <stop offset="1" stop-color="#ffac71"/>
    </linearGradient>
  </defs>
  <g id="banner" transform="translate(-933 -136)" clip-path="url(#clip-path)">
    <g id="Group_1544" data-name="Group 1544" transform="translate(-37)">
      <path id="Path_3434" data-name="Path 3434" d="M-17886.852,144.042c228.654-99.178,339.041-181.593,482.539-67.05s55.191,251.436,165.578,293.342,67.8,359-334.309,303.12S-18115.5,243.219-17886.852,144.042Z" transform="translate(15834.617 -9610.763) rotate(-34)" fill="#2dbfbd" opacity="0.08"/>
      <g id="Group_1543" data-name="Group 1543" transform="translate(-11303 134.941)">
        <ellipse id="Ellipse_305" data-name="Ellipse 305" cx="430.766" cy="30.39" rx="430.766" ry="30.39" transform="translate(12291.957 676.7)" fill="#2dbfbd"/>
        <ellipse id="Ellipse_426" data-name="Ellipse 426" cx="42.663" cy="11.087" rx="42.663" ry="11.087" transform="translate(12576.612 699.647)" fill="#fff" opacity="0.3"/>
        <g id="Group_1217" data-name="Group 1217" transform="translate(12703.671 204.706)">
          <rect id="Rectangle_761" data-name="Rectangle 761" width="279.636" height="160.258" transform="translate(279.636 160.259) rotate(180)" fill="#444584"/>
          <rect id="Rectangle_762" data-name="Rectangle 762" width="82.8" height="90.237" transform="translate(178.987 17.353)" fill="#04d2c8"/>
          <rect id="Rectangle_763" data-name="Rectangle 763" width="79.825" height="5.454" transform="translate(111.362 22.806) rotate(180)" fill="#f2f2f2"/>
          <rect id="Rectangle_764" data-name="Rectangle 764" width="28.261" height="5.454" transform="translate(207.248 126.927) rotate(180)" fill="#f2f2f2"/>
          <rect id="Rectangle_765" data-name="Rectangle 765" width="80.817" height="5.454" transform="translate(260.796 136.843) rotate(180)" fill="#f2f2f2"/>
          <rect id="Rectangle_766" data-name="Rectangle 766" width="115.028" height="5.454" transform="translate(146.759 42.64) rotate(180)" fill="#f2f2f2"/>
          <rect id="Rectangle_767" data-name="Rectangle 767" width="115.028" height="5.454" transform="translate(146.759 58.009) rotate(180)" fill="#f2f2f2"/>
          <rect id="Rectangle_768" data-name="Rectangle 768" width="115.028" height="5.454" transform="translate(146.759 73.38) rotate(180)" fill="#f2f2f2"/>
          <rect id="Rectangle_769" data-name="Rectangle 769" width="115.028" height="5.454" transform="translate(146.759 88.75) rotate(180)" fill="#f2f2f2"/>
          <rect id="Rectangle_770" data-name="Rectangle 770" width="115.028" height="5.454" transform="translate(146.759 104.12) rotate(180)" fill="#f2f2f2"/>
          <path id="Path_2969" data-name="Path 2969" d="M843.134,225.606a14.646,14.646,0,0,1,4.009-2.011,102.235,102.235,0,0,1,28.249-6.149c8.4-.6,17.5.112,24.065,5.391a8.275,8.275,0,0,1,2.441,2.844c.825,1.781.575,3.852.308,5.8a6.549,6.549,0,0,1-.562,2.182c-.883,1.681-3.056,2.27-4.944,2.068s-3.66-1-5.522-1.371a24.683,24.683,0,0,0-3.487-.355l-11.68-.632c-7.263-.393-14.621-.78-21.745.686a21.66,21.66,0,0,0-6.283,2.165c-1.627.914-2.723,2.224-4.233.537C841.1,233.793,839.63,228.345,843.134,225.606Z" transform="translate(-651.712 -156.726)" fill="#2f2e41"/>
          <path id="Path_2970" data-name="Path 2970" d="M869.857,236.212s15.709-7.042,21.668,1.083-3.25,4.875-3.25,4.875l-10.292,3.25-11.376-2.167Z" transform="translate(-660.336 -162.166)" fill="#f2f2f2"/>
          <path id="Path_2971" data-name="Path 2971" d="M872.741,227.4s2.167,10.292.542,13,9.209,6.5,9.209,6.5l10.292-4.334s-2.709-16.793,0-20.043Z" transform="translate(-662.408 -158.5)" fill="#ffb9b9"/>
          <path id="Path_2972" data-name="Path 2972" d="M872.741,227.4s2.167,10.292.542,13,9.209,6.5,9.209,6.5l10.292-4.334s-2.709-16.793,0-20.043Z" transform="translate(-662.408 -158.5)" opacity="0.1"/>
          <path id="Path_2973" data-name="Path 2973" d="M893.792,206.058a16.264,16.264,0,0,1-16.251,16.251,15.861,15.861,0,0,1-2.887-.26,16.25,16.25,0,1,1,19.138-15.991Z" transform="translate(-658.541 -147.451)" fill="#ffb9b9"/>
          <path id="Path_2974" data-name="Path 2974" d="M898.754,271.559H846.927l1.175-5.1,5.087-22.168,5.88-3.971,0,0,2.762-1.869,1.373-.927s.813.372,1.75.878c.273.154.55.312.828.481.005,0,.005,0,.005,0a9.7,9.7,0,0,1,1.279.888c.074.069.139.129.2.193,1.031,1.031,4.041,6.5,9.019,3.7a7.583,7.583,0,0,0,.729-.456,36.077,36.077,0,0,0,3.7-2.94c1.046-.957,1.725-1.7,2.281-2.206a3.6,3.6,0,0,1,.843-.625,1.6,1.6,0,0,1,.759-.183c1.626,0,3.793,3.248,3.793,3.248l.064.188.005.015,6.837,20.526Z" transform="translate(-653.69 -163.473)" fill="#f2f2f2"/>
          <path id="Path_2975" data-name="Path 2975" d="M842,269.822h15.707a38.224,38.224,0,0,0-.283-5.434c-.481-3.624-1.661-7.115-2.4-10.695a44.988,44.988,0,0,1-.947-9.539c0-.441.015-.887.054-1.334a6.107,6.107,0,0,1,.858-2.9c.372-.57.883-1.056,1.279-1.6a3.679,3.679,0,0,0,.362-.57v0a3.274,3.274,0,0,0,.134-.3,2.445,2.445,0,0,0,.149-.739c.089-1.636-1.393-3.213-2.995-3.887a11.2,11.2,0,0,0-7.016-.283,33.4,33.4,0,0,0-6.594,2.7c-.709.347-1.413.7-2.092,1.1a10.387,10.387,0,0,0-2.216,1.686c-1.686,1.74-2.425,4.165-3.02,6.51a13.764,13.764,0,0,0-.57,5.553c.005.059.02.124.03.183.59,3.089,3.109,5.409,4.452,8.255,1.557,3.3,1.453,7.15.833,10.749-.03.184-.064.367-.1.55H842Z" transform="translate(-648.761 -161.736)" fill="#2f2e41"/>
          <path id="Path_2976" data-name="Path 2976" d="M928.113,248.074a122.76,122.76,0,0,0-4.279,19.837H901.444q-.878-2.395-1.75-4.794a35.924,35.924,0,0,1-1.195-3.689,17.657,17.657,0,0,1-.5-4.443c0-.357.015-.719.045-1.076a.015.015,0,0,0,0-.02,17.746,17.746,0,0,1,1.294-5.489,20.494,20.494,0,0,1,1.141-2.315c1.041-1.884,2.3-3.659,3.421-5.5a25.259,25.259,0,0,0,1.82-3.53.018.018,0,0,1,.005-.015,12.671,12.671,0,0,0,1.026-4.933c-.035-2.187-3.733-6,.288-5.632,5.489.5,10.2,3.654,14.5,7.254,1.145.962,2.266,1.958,3.362,2.94,1.7,1.527,3.486,3.193,4,5.419a5.77,5.77,0,0,1,.144,1.081A14.838,14.838,0,0,1,928.113,248.074Z" transform="translate(-670.937 -159.825)" fill="#2f2e41"/>
          <path id="Path_2977" data-name="Path 2977" d="M883.409,246.563a12.108,12.108,0,0,0-2.542-4.1,9.431,9.431,0,0,0-3.883-1.967,21.238,21.238,0,0,0-5.7-.816c-2.294-.014-4.954.6-5.928,2.678-.774,1.649-.174,3.6.605,5.249a5.147,5.147,0,0,0,1.606,2.169c.989.668,2.269.647,3.442.871a15.875,15.875,0,0,1,5.087,2.305l4.018,2.429,6.9,4.172c-.182-.11-.117-4.843-.329-5.619C886.006,251.437,884.468,248.929,883.409,246.563Z" transform="translate(-659.793 -164.294)" fill="#ffb9b9"/>
          <path id="Path_2978" data-name="Path 2978" d="M890.7,193.277a4.125,4.125,0,0,0-1.789-2.335,9.466,9.466,0,0,0-.378-3.082c-.984-2.909-3.316-2.743-5.515-4.029-.954-.558-.9-1.051-1.392-1.968a7.3,7.3,0,0,0-2.815-2.872,10.126,10.126,0,0,0-4.571-1.939c-3.509-.239-6.2,3.061-9.552,4.12-1.478.467-3.066.486-4.552.927s-2.968,1.5-3.19,3.029c-.1.708.078,1.435-.026,2.143-.206,1.407-1.441,2.393-2.267,3.55-1.828,2.56-1.619,6.176-.157,8.961a12.594,12.594,0,0,0,1.054,1.649,10.146,10.146,0,0,0,1.113,3.768,18.777,18.777,0,0,0,6.6,6.6,15.591,15.591,0,0,1-.39-2.812,1.94,1.94,0,0,1,.12-.932c.293-.612,1.066-.774,1.655-1.109a4.183,4.183,0,0,0,1.735-3.633c.035-1.4-.262-2.81-.115-4.207a2.3,2.3,0,0,1,.787-1.691,2.718,2.718,0,0,1,1.484-.354c2.5-.1,5.116-.148,7.322-1.331a10.853,10.853,0,0,1,2.279-1.153c1.875-.489,3.792.825,4.873,2.434s1.62,3.523,2.617,5.185,2.72,3.144,4.648,2.947a.771.771,0,0,0,.576-.256.863.863,0,0,0,.106-.491l.108-7.37a11.138,11.138,0,0,0-.372-3.746Z" transform="translate(-655.856 -143.139)" fill="#2f2e41"/>
          <path id="Path_2979" data-name="Path 2979" d="M838.406,266.951q.528,4.351.64,8.731H825.411V264.224c.069-.278.144-.55.233-.823.853-2.628,2.643-4.829,4.194-7.115.074-.114.154-.228.228-.342a18.618,18.618,0,0,0,1.7-3.059c.223-.526.58-3.069.957-3.287,1.616-.937,2.93,3.069,3.153,3.961.793,3.178,1.483,6.386,2,9.624Q838.18,265.064,838.406,266.951Z" transform="translate(-646.424 -167.596)" fill="#2f2e41"/>
          <path id="Path_2980" data-name="Path 2980" d="M928.4,274.125H897.1c-.268-.63-.531-1.259-.808-1.884a55.084,55.084,0,0,0-7.507-12.311,3.257,3.257,0,0,1-.927-1.84,1.556,1.556,0,0,1,.2-.828c.476-.888,1.735-1.408,2.757-1.829a9.5,9.5,0,0,0,2.866-1.8,6.146,6.146,0,0,0,1.656-2.444,5.366,5.366,0,0,0,.208-.843l.436.57c.352.466.709.927,1.071,1.388,3.471,4.457,7.283,8.85,12.078,11.493a20.322,20.322,0,0,0,3.947,1.681,1.036,1.036,0,0,0,.833,0,1.008,1.008,0,0,0,.362-.664c.426-1.785.575-3.624.888-5.434a30.953,30.953,0,0,1,3.268-9.41c.887-1.651,3.773-7.685,5.6-3.882q.788,1.644,1.587,3.3c.332.7.669,1.393,1.006,2.092a13.012,13.012,0,0,1,1.631,7.288Q928.327,266.45,928.4,274.125Z" transform="translate(-667.511 -166.039)" fill="#2f2e41"/>
          <path id="Path_2981" data-name="Path 2981" d="M844.866,282.7h2.712l-1.537-5.1-2.216-7.353a24,24,0,0,1-.213,3.724,24.793,24.793,0,0,1-2.162,7.358c-.213.451-.441.907-.625,1.373h4.041Z" transform="translate(-651.63 -174.618)" opacity="0.1"/>
          <path id="Path_2982" data-name="Path 2982" d="M929.07,265.38a5.3,5.3,0,0,0,.259,3.218,32.424,32.424,0,0,1,1.182,9.409.342.342,0,0,1-.4.41c-1.25.077-2.682.085-3.53-.837Z" transform="translate(-680.59 -172.974)" opacity="0.1"/>
        </g>
        <rect id="Rectangle_780" data-name="Rectangle 780" width="150.809" height="7.15" transform="translate(12474.529 277.47)" fill="#f2f2f2"/>
        <g id="Group_1219" data-name="Group 1219" transform="translate(12381.501 218.516)">
          <rect id="Rectangle_773" data-name="Rectangle 773" width="261.564" height="145.565" transform="translate(0)" fill="#444584"/>
          <rect id="Rectangle_774" data-name="Rectangle 774" width="77.449" height="84.405" transform="translate(16.696 16.231)" fill="#04d2c8"/>
          <rect id="Rectangle_775" data-name="Rectangle 775" width="74.666" height="5.101" transform="translate(123.947 16.231)" fill="#f2f2f2"/>
          <rect id="Rectangle_776" data-name="Rectangle 776" width="26.435" height="5.101" transform="translate(17.623 111.145)" fill="#f2f2f2"/>
          <rect id="Rectangle_777" data-name="Rectangle 777" width="75.594" height="5.101" transform="translate(17.623 122.898)" fill="#f2f2f2"/>
          <rect id="Rectangle_778" data-name="Rectangle 778" width="107.594" height="5.101" transform="translate(124.29 34.783)" fill="#f2f2f2"/>
          <rect id="Rectangle_779" data-name="Rectangle 779" width="107.594" height="5.101" transform="translate(124.29 49.159)" fill="#f2f2f2"/>
          <path id="Path_2983" data-name="Path 2983" d="M203.335,274H193.267q-1.162-3.123-2.064-6.326a12.637,12.637,0,0,0-3.283-6.692,12.413,12.413,0,0,1-1.414-1.92,9.018,9.018,0,0,1-.89-5.468,14.207,14.207,0,0,1,.26-1.549c.441-1.98,1.178-3.882,1.795-5.811a2.2,2.2,0,0,1,1.8-1.489,3.569,3.569,0,0,1,1.966.227,2.442,2.442,0,0,1,.394.2,6.087,6.087,0,0,1,2.129,3.256q3.151,8.459,6.3,16.918.612,1.642,1.224,3.293c.6,1.614,1.2,3.228,1.711,4.874C203.242,273.679,203.289,273.836,203.335,274Z" transform="translate(-111.296 -172.898)" fill="#d0cde1"/>
          <path id="Path_2984" data-name="Path 2984" d="M135.419,171.339a7.709,7.709,0,0,0-5.284,5.415c-.238,1.2-.092,2.451-.292,3.659-.464,2.8-2.664,4.943-4.693,6.931s-4.124,4.3-4.272,7.135c-.162,3.106,2.091,6.016,1.7,9.1-.453,3.585-4.24,5.908-5.176,9.4a9.042,9.042,0,0,0,1.4,6.9,19.745,19.745,0,0,0,10.877,8.011,45.314,45.314,0,0,0,13.625,1.776c5.6.059,11.677-.422,15.884-4.117a12.725,12.725,0,0,0,4.224-8.284c.4-4.28-1.387-8.7-.155-12.821.775-2.592,2.72-4.959,2.43-7.649-.284-2.63-2.581-4.494-4.157-6.619a26.9,26.9,0,0,1-3.239-6.636l-2.994-7.9a9.173,9.173,0,0,0-2.546-4.207c-2.455-1.909-6.4-1.534-9.275-1.14C140.817,170.655,137.981,170.474,135.419,171.339Z" transform="translate(-85.295 -144.464)" fill="#2f2e41"/>
          <path id="Path_2985" data-name="Path 2985" d="M149.93,213.155s.293,8.791-.586,9.67,3.516,6.74,3.516,6.74l7.912-.293,4.1-3.223-3.516-4.689s-1.465-7.619-.293-9.377S149.93,213.155,149.93,213.155Z" transform="translate(-97.489 -160.237)" fill="#a0616a"/>
          <path id="Path_2986" data-name="Path 2986" d="M149.93,213.155s.293,8.791-.586,9.67,3.516,6.74,3.516,6.74l7.912-.293,4.1-3.223-3.516-4.689s-1.465-7.619-.293-9.377S149.93,213.155,149.93,213.155Z" transform="translate(-97.489 -160.237)" opacity="0.1"/>
          <circle id="Ellipse_306" data-name="Ellipse 306" cx="10.549" cy="10.549" r="10.549" transform="translate(46.726 35.19)" fill="#a0616a"/>
          <path id="Path_2987" data-name="Path 2987" d="M145.495,266.558h8.552c.32-.58.621-1.183.969-1.73v0a4.734,4.734,0,0,1,1.558-1.632,6.141,6.141,0,0,0,1.155-.691,2.979,2.979,0,0,0,.7-1.317,20.41,20.41,0,0,0,.965-5.686c.014-.649,0-1.308.037-1.957a8.229,8.229,0,0,1,.195-1.507,11.871,11.871,0,0,1,1.266-2.866q1.739-3.165,3.488-6.33a4.424,4.424,0,0,0,.237-1.855,4.572,4.572,0,0,0-.751-2.379c-.162-.292-.339-.584-.524-.867a19.262,19.262,0,0,0-2.486-3.172,20.11,20.11,0,0,0-7.077-4.791,4.107,4.107,0,0,1-.951-.464,3.946,3.946,0,0,1-.872-1.043c-.928-1.4-2.059-2.968-3.733-2.88a2.3,2.3,0,0,0-1.772-.121,2.427,2.427,0,0,0-.26.083,16.481,16.481,0,0,0-1.86.969,8.633,8.633,0,0,1-5.009.909,1.7,1.7,0,0,1-.584-.148,3,3,0,0,1-.538-.436,3.092,3.092,0,0,0-3.075-.492,2.792,2.792,0,0,0-1.224.863c-.306.385-.519.849-.858,1.21-.876.937-2.323.974-3.6.969a33.3,33.3,0,0,0-7.916.728,15.049,15.049,0,0,0-6.233,3.014l0,0c-.25.213-.482.431-.714.663a5.294,5.294,0,0,0-1.234,1.762c-.352.909-.306,1.934-.626,2.857-.352,1.034-1.136,1.878-1.452,2.917a11.73,11.73,0,0,1-.608,2.374c.019.014.032.028.051.042,1.688,1.484,3.13,3.432,4.823,4.9a9.733,9.733,0,0,1,2.449,2.736,4.518,4.518,0,0,1,.3.742,11.41,11.41,0,0,1,.25,2.7c.213,4.336,2.565,8.269,5.194,11.719.051.07.1.139.158.2Z" transform="translate(-82.812 -165.457)" fill="#d0cde1"/>
          <path id="Path_2988" data-name="Path 2988" d="M113.339,261.347q-.6,4.153-1.206,8.3a36.171,36.171,0,0,1-.825,4.4c-.241.9-.552,1.772-.77,2.667H98.461a11.568,11.568,0,0,1,.116-1.5,24.766,24.766,0,0,1,1.507-5.2q2.108-5.69,4.211-11.39c.6-1.619,1.113-3.311,1.772-4.916.116-.3.241-.594.376-.881.7-1.54,2.643-.909,4.081-.677a3.874,3.874,0,0,1,1.141.325,2.944,2.944,0,0,1,1.071,1.011c1.363,2.017,1.067,4.684.714,7.1Q113.394,260.965,113.339,261.347Z" transform="translate(-78.171 -178.089)" fill="#d0cde1"/>
          <path id="Path_2989" data-name="Path 2989" d="M176.415,289.2c.019.065.218.756.547,1.73H166.894c4.99-.858,9.521-1.734,9.521-1.734Z" transform="translate(-104.211 -189.832)" fill="#2f2e41"/>
          <ellipse id="Ellipse_307" data-name="Ellipse 307" cx="11.428" cy="6.154" rx="11.428" ry="6.154" transform="translate(46.726 33.432)" fill="#2f2e41"/>
        </g>
        <g id="Group_1220" data-name="Group 1220" transform="translate(12518.481 320.578)">
          <rect id="Rectangle_781" data-name="Rectangle 781" width="122.403" height="5.804" transform="translate(11.379 23.603)" fill="#f2f2f2"/>
          <rect id="Rectangle_785" data-name="Rectangle 785" width="297.566" height="201.543" rx="9" transform="translate(0)" fill="#04d2c8"/>
          <ellipse id="Ellipse_308" data-name="Ellipse 308" cx="24.883" cy="2.639" rx="24.883" ry="2.639" transform="translate(215.633 175.081)" fill="#454483" opacity="0.26"/>
          <rect id="Rectangle_786" data-name="Rectangle 786" width="88.109" height="96.023" transform="translate(18.994 18.466)" fill="url(#linear-gradient)"/>
          <path id="Path_2990" data-name="Path 2990" d="M399.833,309.818a1.293,1.293,0,0,0,1.516-.626c1.219-1.92-1.025-4.4-.539-6.618.389-1.78,2.412-2.836,2.825-4.611.4-1.724-.836-3.667,0-5.228.656-1.222,2.293-1.544,3.664-1.33s2.671.817,4.055.9c1.845.112,3.6-.7,5.407-1.1s4-.245,5.065,1.268c1.362,1.943-.02,4.648.455,6.973.377,1.846,1.922,3.375,1.956,5.259.012.67-1.749.13-1.655.793s-.738.079-.073,0a1.317,1.317,0,0,0,1-1.191c.079-.552,1.117-.736,1.105-1.294-.028-1.307,2.336-.426,2.725-1.674a12.66,12.66,0,0,0-.517-8.832,17.685,17.685,0,0,1-1.508-3.592c-.347-1.734.2-3.594-.374-5.267-.772-2.254-3.326-3.4-5.7-3.637s-4.781.184-7.138-.16c-2.112-.308-4.157-1.224-6.287-1.091-2.556.159-4.78,1.806-6.552,3.655s-3.275,3.976-5.287,5.56a10.37,10.37,0,0,0-1.7,1.46,5.694,5.694,0,0,0-.844,4.619c.285,1.59.906,3.107,1.168,4.7.246,1.5.17,3.029.276,4.544a7.987,7.987,0,0,0,1.333,4.289,4.048,4.048,0,0,0,3.15,1.646c.427.01.787-.373,1.217-.273C399.121,309.089,399.355,309.6,399.833,309.818Z" transform="translate(-352.467 -247.265)" fill="#2f2e41"/>
          <path id="Path_2991" data-name="Path 2991" d="M375.913,390.661c.385-5.281.675-9.228.675-9.228l2.49-6.563,7.993,15.791Z" transform="translate(-347.923 -275.645)" fill="#575a89"/>
          <path id="Path_2992" data-name="Path 2992" d="M375.913,390.661c.385-5.281.675-9.228.675-9.228l2.49-6.563,7.993,15.791Z" transform="translate(-347.923 -275.645)" fill="#e6e7e8" opacity="0.1"/>
          <path id="Path_2993" data-name="Path 2993" d="M402.2,321.663s7.453,18.972,3.162,22.585,23.941-6.1,23.941-6.1l-.678-2.484s-9.26-3.614-4.743-14S402.2,321.663,402.2,321.663Z" transform="translate(-355.684 -258.572)" fill="#a0616a"/>
          <path id="Path_2994" data-name="Path 2994" d="M402.2,321.663s7.453,18.972,3.162,22.585,23.941-6.1,23.941-6.1l-.678-2.484s-9.26-3.614-4.743-14S402.2,321.663,402.2,321.663Z" transform="translate(-355.684 -258.572)" opacity="0.1"/>
          <ellipse id="Ellipse_309" data-name="Ellipse 309" cx="15.81" cy="15.81" rx="15.81" ry="15.81" transform="translate(41.319 39.15)" fill="#a0616a"/>
          <path id="Path_2995" data-name="Path 2995" d="M443.722,354.774s-.063,1.256-.174,3.451c-.227,4.469-.633,12.842-1.039,22.5H381.223a30.386,30.386,0,0,1-3.9-6.98,7.532,7.532,0,0,1-.459-2.248c-.338-5.988,5.028-14.345,8.816-15.142,4.289-.908,12.42-9.486,12.42-9.486a1.934,1.934,0,0,0,1.034,1.562v.005a4.2,4.2,0,0,0,2.126.464c2.649,0,14.3-5.376,18.039-7.133.733-.343,1.161-.549,1.161-.549a87.658,87.658,0,0,0,13.327,4.522A14.174,14.174,0,0,1,443.722,354.774Z" transform="translate(-348.2 -265.709)" fill="#e6e7e8"/>
          <path id="Path_2996" data-name="Path 2996" d="M395.987,307.575a1.293,1.293,0,0,0,1.516-.626c1.219-1.92-1.025-4.4-.539-6.618.389-1.78,2.412-2.836,2.825-4.611.4-1.724-.836-3.668,0-5.228.656-1.222,2.293-1.544,3.664-1.33s2.671.817,4.055.9c1.845.112,3.6-.7,5.407-1.1s4-.245,5.065,1.268c1.363,1.943-.02,4.648.455,6.973.377,1.846,4.669,3.142,5.058,1.894a12.66,12.66,0,0,0-.517-8.832,17.686,17.686,0,0,1-1.508-3.592c-.347-1.734.2-3.595-.374-5.267-.772-2.254-3.326-3.4-5.7-3.637s-4.781.184-7.138-.16c-2.112-.308-4.157-1.224-6.287-1.091-2.556.159-4.78,1.806-6.552,3.655s-3.275,3.976-5.287,5.56a10.375,10.375,0,0,0-1.7,1.459,5.7,5.7,0,0,0-.844,4.619c.285,1.59.906,3.107,1.167,4.7.246,1.5.17,3.029.276,4.544a7.987,7.987,0,0,0,1.333,4.289,4.048,4.048,0,0,0,3.15,1.646c.427.01.787-.373,1.217-.274C395.275,306.845,395.509,307.356,395.987,307.575Z" transform="translate(-351.332 -246.602)" fill="#2f2e41"/>
          <path id="Path_2997" data-name="Path 2997" d="M474.321,386.4H456.436c-1.361-9.982-2.485-20.418-2.485-20.418l3.614-1.583,7.344-3.952s.538,1.277,1.4,3.45C468.159,368.55,471.509,377.3,474.321,386.4Z" transform="translate(-370.965 -271.388)" opacity="0.1"/>
          <path id="Path_2998" data-name="Path 2998" d="M474.148,385.363H453.962c-2.992-10.921-5.941-22.792-5.941-22.792l7.682-5.645,9.033,2.485S470.023,371.994,474.148,385.363Z" transform="translate(-369.214 -270.347)" fill="#e6e7e8"/>
          <rect id="Rectangle_787" data-name="Rectangle 787" width="84.943" height="5.804" transform="translate(141.712 18.466)" fill="#fff"/>
          <rect id="Rectangle_788" data-name="Rectangle 788" width="30.073" height="5.804" transform="translate(20.049 129.262)" fill="#fff"/>
          <rect id="Rectangle_789" data-name="Rectangle 789" width="85.999" height="5.804" transform="translate(20.049 139.815)" fill="#fff"/>
          <rect id="Rectangle_790" data-name="Rectangle 790" width="122.403" height="5.804" transform="translate(141.397 39.571)" fill="#f2f2f2"/>
          <rect id="Rectangle_791" data-name="Rectangle 791" width="122.403" height="5.804" transform="translate(141.397 55.926)" fill="#f2f2f2"/>
          <rect id="Rectangle_792" data-name="Rectangle 792" width="122.403" height="5.804" transform="translate(141.397 72.281)" fill="#f2f2f2"/>
          <rect id="Rectangle_793" data-name="Rectangle 793" width="122.403" height="5.804" transform="translate(141.397 88.637)" fill="#f2f2f2"/>
          <rect id="Rectangle_794" data-name="Rectangle 794" width="122.403" height="5.804" transform="translate(141.397 104.993)" fill="#f2f2f2"/>
          <path id="Path_3001" data-name="Path 3001" d="M722.049,427.922l-34.3,34.3-14.418-14.418a4.929,4.929,0,0,0-6.97,0h0a4.928,4.928,0,0,0,0,6.97l18.707,18.707a3.761,3.761,0,0,0,5.317,0l38.634-38.593a4.927,4.927,0,0,0,0-6.97h0a4.927,4.927,0,0,0-6.968,0Z" transform="translate(-447.033 -296.805)" fill="#fff"/>
        </g>
        <path id="Path_3002" data-name="Path 3002" d="M1049.714,694.887c0,46.483-64.791,32.105-144.122,32.105S762.434,741.37,762.434,694.887s64.783-56.592,144.113-56.592S1049.714,648.4,1049.714,694.887Z" transform="translate(12068.175 -18.774)" fill="#fff" opacity="0.3"/>
        <path id="Path_3003" data-name="Path 3003" d="M1049.714,684.887c0,46.483-64.791,32.105-144.122,32.105S762.434,731.37,762.434,684.887s64.783-56.592,144.113-56.592S1049.714,638.4,1049.714,684.887Z" transform="translate(12068.175 -17.457)" fill="#3f3d56"/>
        <path id="Path_3004" data-name="Path 3004" d="M775.716,525.762l-2.936,3.409s-35.7,3.352-34.248,9.147,42.979-7.727,42.979-7.727Z" transform="translate(12071.328 -3.952)" fill="#ffc1c7"/>
        <path id="Path_3005" data-name="Path 3005" d="M846.951,522.425s-38.15,13.521-58.915,7.727l9.658,19.316s49.257-1.449,57.949-10.141S846.951,522.425,846.951,522.425Z" transform="translate(12064.803 -3.513)" fill="#2dbfbd" opacity="0.9"/>
        <circle id="Ellipse_310" data-name="Ellipse 310" cx="25.594" cy="25.594" r="25.594" transform="translate(12860.323 364.14)" fill="#ffc1c7"/>
        <path id="Path_3007" data-name="Path 3007" d="M845.269,399.552a19.964,19.964,0,0,0,3.316,4.6,41.863,41.863,0,0,0,12.337,9.231,420.4,420.4,0,0,1-43.957,6.536c1.558-5.487-.493-11.355-3.249-16.349s-6.27-9.648-7.995-15.085l17.3.465c3.139.084,6.288.178,9.426.025,2.346-.115,6.253-1.52,8.442-1C845.517,389.064,843.248,395.447,845.269,399.552Z" transform="translate(12062.474 14.211)" fill="#ffc1c7"/>
        <path id="Path_3008" data-name="Path 3008" d="M889.756,538.567l14.487,17.385s24.145,56.5-28.492,62.3S784,613.9,784,613.9s-21.248-10.141-21.731-2.415-2.414,29.457-14,50.705l-10.141,23.18s-5.312,5.312-3.863,12.556-32.355,9.658-31.872,0c0,0,4.829-8.209,4.829-13.039s7.727-16.419,7.727-16.419l14-69.539s-.966-35.735,31.872-28.974,79.68-1.449,79.68-1.449l10.624-37.184Z" transform="translate(12076.084 -4.685)" fill="#2f2e41"/>
        <path id="Path_3009" data-name="Path 3009" d="M889.756,538.567l14.487,17.385s24.145,56.5-28.492,62.3S784,613.9,784,613.9s-21.248-10.141-21.731-2.415-2.414,29.457-14,50.705l-10.141,23.18s-5.312,5.312-3.863,12.556-32.355,9.658-31.872,0c0,0,4.829-8.209,4.829-13.039s7.727-16.419,7.727-16.419l14-69.539s-.966-35.735,31.872-28.974,79.68-1.449,79.68-1.449l10.624-37.184Z" transform="translate(12076.084 -4.685)" fill="#444584" opacity="0.8"/>
        <path id="Path_3010" data-name="Path 3010" d="M828.664,537.609s44.186-16.6,68.814,18.657c0,0,6.278,54.569-18.833,56.983s-57.949,1.932-65.676-6.278-56.5-31.389-56.5-31.389-24.279-12.384-29.041,3.708-5.245,19.955-5.245,19.955-25.111,18.351-35.252,21.731c0,0-6.761,9.658-10.624,9.658s-27.526,5.312-25.111-12.556l39.116-35.735,39.116-38.15s11.107-16.419,39.6-7.727a589.077,589.077,0,0,0,57.466,14Z" transform="translate(12082.848 -4.999)" fill="#444584"/>
        <path id="Path_3011" data-name="Path 3011" d="M726.981,721.87s9.175,23.18,1.449,26.077-24.145.966-24.145.966-19.316-2.415-24.145-1.932-24.628-3.38-21.731-11.107,17.868-5.795,17.868-5.795L689.8,723.8s1.449-4.829,4.829-2.9S707.665,730.079,726.981,721.87Z" transform="translate(12081.913 -29.594)" fill="#2f2e41"/>
        <path id="Path_3012" data-name="Path 3012" d="M671.083,641.5s10.141,22.7-6.278,20.765-28.974-5.312-33.8-5.795c-4.645-.465-17.78-4.95-15.765-13.888a7.95,7.95,0,0,0,.131-1.754c0-1.2,1.63-3.554,14.668-3.192,0,0,9.658,0,13.521-6.761C643.558,630.876,658.044,649.227,671.083,641.5Z" transform="translate(12087.589 -17.797)" fill="#2f2e41"/>
        <path id="Path_3013" data-name="Path 3013" d="M805.834,419.183s34.769-21.731,63.744,0S917.869,539.91,917.869,539.91l-69.426-15.04s-.6-11.52-4.458-13.451-4.346-10.141-4.346-10.141S818.872,495,820.321,470.855,805.834,419.183,805.834,419.183Z" transform="translate(12062.458 11.357)" fill="#2dbfbd"/>
        <path id="Path_3014" data-name="Path 3014" d="M819.907,421.76H802.04s-10.624,12.073-12.073,42.5l-5.8,24.146s-12.073,28.974-4.829,33.8,21.248,4.346,24.146-5.312,22.7-65.676,22.7-65.676Z" transform="translate(12066.252 9.745)" fill="#2dbfbd" opacity="0.9"/>
        <path id="Path_3015" data-name="Path 3015" d="M813.323,335a25.872,25.872,0,0,1,26.762,4.388c9.274,8.277,11.145,21.778,13.49,33.986s7.061,25.8,18.566,30.507a48.372,48.372,0,0,1-15.587-.454l17.386,15.581-29.288-9.546c-9.192-3-18.846-6.03-28.364-4.338-15.769,2.8-26.747,17.627-41.893,22.835l1.683-8.213-10.161-.078a19.9,19.9,0,0,0,5.822-6.821,5.634,5.634,0,0,0-3.887-2.034c-4.236-26.421,11.453-52.538,31.9-69.8,4.022-3.4,8.472-6.656,13.666-7.506s11.258,1.473,13.064,6.417" transform="translate(12067.716 21.428)" fill="#272727"/>
        <g id="Group_1222" data-name="Group 1222" transform="translate(12536.051 569.187)">
          <path id="Path_3016" data-name="Path 3016" d="M310.2,614.159c0,55.585,34.871,100.563,77.965,100.563" transform="translate(-310.196 -584.782)" fill="#3f3d56"/>
          <path id="Path_3017" data-name="Path 3017" d="M399.987,714.552c0-56.209,38.914-101.693,87-101.693" transform="translate(-322.022 -584.611)" fill="#6c63ff"/>
          <path id="Path_3018" data-name="Path 3018" d="M342.729,619.963c0,52.8,22.237,95.524,49.717,95.524" transform="translate(-314.481 -585.547)" fill="#6c63ff"/>
          <path id="Path_3019" data-name="Path 3019" d="M399.987,710.267c0-71.823,44.978-129.941,100.563-129.941" transform="translate(-322.022 -580.326)" fill="#3f3d56"/>
          <path id="Path_3020" data-name="Path 3020" d="M381.1,729.887s11.057-.341,14.389-2.713,17.008-5.206,17.835-1.4,16.616,18.927,4.133,19.027-29-1.944-32.331-3.97S381.1,729.887,381.1,729.887Z" transform="translate(-319.534 -599.237)" fill="#a8a8a8"/>
          <path id="Path_3021" data-name="Path 3021" d="M417.676,744.38c-12.483.1-29-1.944-32.331-3.97-2.533-1.543-3.542-7.079-3.88-9.633l-.369.014s.7,8.917,4.026,10.943,19.848,4.071,32.331,3.97c3.6-.029,4.848-1.311,4.78-3.21C421.733,743.642,420.359,744.358,417.676,744.38Z" transform="translate(-319.534 -600.141)" opacity="0.2"/>
        </g>
        <ellipse id="Ellipse_425" data-name="Ellipse 425" cx="58.329" cy="9.534" rx="58.329" ry="9.534" transform="translate(12351.202 695.251)" fill="#fff" opacity="0.3"/>
        <g id="Group_1221" data-name="Group 1221" transform="translate(12354.343 537.039)">
          <path id="Path_2963" data-name="Path 2963" d="M955.109,593.728c15.125,45.521,9.813,88.262,9.813,88.262s-29.835-31.063-44.961-76.584-9.813-88.262-9.813-88.262S939.984,548.207,955.109,593.728Z" transform="translate(-909.244 -507.777)" fill="#04d2c8"/>
          <path id="Path_2964" data-name="Path 2964" d="M1022.269,593.728c-15.125,45.521-9.813,88.262-9.813,88.262s29.835-31.063,44.961-76.584,9.813-88.262,9.813-88.262S1037.393,548.207,1022.269,593.728Z" transform="translate(-956.779 -507.777)" fill="#04d2c8"/>
          <path id="Path_2965" data-name="Path 2965" d="M1010.779,586.091c1.014,47.957-16.679,87.225-16.679,87.225s-19.336-38.486-20.35-86.443,16.679-87.226,16.679-87.226S1009.767,538.134,1010.779,586.091Z" transform="translate(-939.196 -499.648)" fill="#454483"/>
          <circle id="Ellipse_295" data-name="Ellipse 295" cx="4.695" cy="4.695" r="4.695" transform="translate(48.374 39.364)" fill="#6c63ff"/>
          <circle id="Ellipse_296" data-name="Ellipse 296" cx="2.608" cy="2.608" r="2.608" transform="translate(41.332 79.009)" fill="#6c63ff"/>
          <circle id="Ellipse_297" data-name="Ellipse 297" cx="2.608" cy="2.608" r="2.608" transform="translate(9.51 53.186)" fill="#3f3d56"/>
          <circle id="Ellipse_298" data-name="Ellipse 298" cx="2.608" cy="2.608" r="2.608" transform="translate(101.581 27.888)" fill="#3f3d56"/>
          <circle id="Ellipse_299" data-name="Ellipse 299" cx="2.608" cy="2.608" r="2.608" transform="translate(23.074 77.704)" fill="#3f3d56"/>
          <circle id="Ellipse_300" data-name="Ellipse 300" cx="2.608" cy="2.608" r="2.608" transform="translate(77.847 62.577)" fill="#3f3d56"/>
          <circle id="Ellipse_301" data-name="Ellipse 301" cx="2.608" cy="2.608" r="2.608" transform="translate(24.639 116.045)" fill="#3f3d56"/>
          <circle id="Ellipse_302" data-name="Ellipse 302" cx="2.608" cy="2.608" r="2.608" transform="translate(80.455 101.18)" fill="#3f3d56"/>
          <circle id="Ellipse_303" data-name="Ellipse 303" cx="2.608" cy="2.608" r="2.608" transform="translate(55.155 103.787)" fill="#6c63ff"/>
        </g>
      </g>
    </g>
  </g>
</svg>
