<svg xmlns="http://www.w3.org/2000/svg" xmlns:xlink="http://www.w3.org/1999/xlink" width="791.651" height="562.925" viewBox="0 0 791.651 562.925">
  <defs>
    <filter id="Rectangle_1193" x="0" y="54.653" width="663.085" height="431.646" filterUnits="userSpaceOnUse">
      <feOffset input="SourceAlpha"/>
      <feGaussianBlur stdDeviation="10" result="blur"/>
      <feFlood flood-opacity="0.251"/>
      <feComposite operator="in" in2="blur"/>
      <feComposite in="SourceGraphic"/>
    </filter>
  </defs>
  <g id="Recruiter_bg" data-name="Recruiter bg" transform="translate(2178.651 -1359)">
    <path id="Path_3700" data-name="Path 3700" d="M477.64,0,543.41,128.285H530.133V232.9h66.911l38.548,75.186L157.955,552.968,0,244.886Z" transform="translate(-2022.593 1359)" fill="#f2f2f2" opacity="0.7"/>
    <ellipse id="Ellipse_475" data-name="Ellipse 475" cx="11.831" cy="11.831" rx="11.831" ry="11.831" transform="translate(-1978.949 1852.219)" fill="#2dbfbd" opacity="0.4"/>
    <ellipse id="Ellipse_476" data-name="Ellipse 476" cx="15.567" cy="15.567" rx="15.567" ry="15.567" transform="translate(-1937.059 1890.79)" fill="#2dbfbd" opacity="0.4"/>
    <rect id="Rectangle_1192" data-name="Rectangle 1192" width="79.704" height="79.704" transform="translate(-1482.496 1502.229)" fill="#316f98" opacity="0.5"/>
    <ellipse id="Ellipse_473" data-name="Ellipse 473" cx="29.266" cy="29.266" rx="29.266" ry="29.266" transform="translate(-2176 1418.425)" fill="#2dbfbd" opacity="0.4"/>
    <g transform="matrix(1, 0, 0, 1, -2178.65, 1359)" filter="url(#Rectangle_1193)">
      <rect id="Rectangle_1193-2" data-name="Rectangle 1193" width="603.085" height="371.646" rx="4" transform="translate(30 84.65)" fill="#edf9f9"/>
    </g>
    <path id="Rectangle_1194" data-name="Rectangle 1194" d="M4,0H145.009a0,0,0,0,1,0,0V371.646a0,0,0,0,1,0,0H4a4,4,0,0,1-4-4V4A4,4,0,0,1,4,0Z" transform="translate(-2152.492 1443.653)" fill="#444584"/>
    <rect id="Rectangle_1195" data-name="Rectangle 1195" width="96.033" height="8.643" rx="4.321" transform="translate(-2134.246 1507.995)" fill="#b2b2b2" opacity="0.21"/>
    <rect id="Rectangle_1196" data-name="Rectangle 1196" width="35.532" height="11.524" rx="5.762" transform="translate(-2134.246 1460.939)" fill="#b2b2b2" opacity="0.21"/>
    <rect id="Rectangle_1197" data-name="Rectangle 1197" width="71.064" height="8.643" rx="4.321" transform="translate(-2134.246 1529.122)" fill="#b2b2b2" opacity="0.21"/>
    <rect id="Rectangle_1198" data-name="Rectangle 1198" width="93.152" height="8.643" rx="4.321" transform="translate(-2134.246 1548.328)" fill="#b2b2b2" opacity="0.21"/>
    <rect id="Rectangle_1199" data-name="Rectangle 1199" width="224.481" height="324.591" transform="translate(-1995.62 1490.709)" fill="#ebebeb"/>
    <rect id="Rectangle_1200" data-name="Rectangle 1200" width="210.648" height="324.591" transform="translate(-1772.153 1490.709)" fill="#fff"/>
    <rect id="Rectangle_1206" data-name="Rectangle 1206" width="78.149" height="17.597" rx="2" transform="translate(-1654.056 1781.373)" fill="#04d2c8" opacity="0.67"/>
    <g id="perspectico_USP_illustration_1_" data-name="perspectico USP illustration  (1)" transform="translate(-1969.604 1570.285)">
      <line id="Line_54" data-name="Line 54" x1="119.951" transform="translate(28.875 153.439)" fill="none" stroke="#0c0c0c" stroke-miterlimit="10" stroke-width="5" opacity="0.06"/>
      <path id="Path_2645" data-name="Path 2645" d="M331.133,155.257a47.757,47.757,0,0,0-20.331-2.069,29.029,29.029,0,0,0-11.992,3.523c-8.081,4.816-13.026,15-20.364,21.366-11.766,10.246-27.539,9.212-41.341,14.416-10.149,3.846-19.394,11.281-26.279,21.139C199.9,229.277,195.505,253.1,204.1,270.78c6.432,13.155,18.521,20.525,30.448,25.277a121.874,121.874,0,0,0,66.586,6.982,71.235,71.235,0,0,0,19.62-6.109c5.624-2.812,10.861-6.691,16-10.667,11.249-8.695,22.691-18.457,28.865-32.84,3.459-8.081,5.01-17.067,5.624-26.085.485-7.111,1.325-15.547-.065-22.594-2.812-14.222-11.895-28.412-21.042-37.43A51.058,51.058,0,0,0,331.133,155.257Z" transform="translate(-199.567 -152.897)" fill="#30d673" opacity="0.15"/>
      <path id="Path_2646" data-name="Path 2646" d="M516.04,387.893l-3.1.291L513,386.6l-10.6.1,1.681,35.588a2.584,2.584,0,0,0,2.715,2.263l2.424-.032a2.577,2.577,0,0,0,2.683-2.295l.808-25.762h0c.065-2.327,1.487-7.37,2-7.24s1.131,1.875,1.131,1.875l.776.129Z" transform="translate(-404.515 -311.06)" fill="#4f59a7"/>
      <path id="Path_2647" data-name="Path 2647" d="M517.431,316.566H494.159l-3.2-32.97a3.909,3.909,0,0,1,3.75-4.4h22.109a3.909,3.909,0,0,1,3.749,4.4Z" transform="translate(-396.758 -238.375)" fill="#4f59a7"/>
      <path id="Path_2648" data-name="Path 2648" d="M457.7,288.265l-19.3,17.616a4.386,4.386,0,0,1-6.174-.291h0a4.386,4.386,0,0,1,.291-6.174l19.3-17.616Z" transform="translate(-356.26 -240.134)" fill="#4f59a7"/>
      <path id="Path_2649" data-name="Path 2649" d="M565.9,283.252l6.626,20.525c.162,2.424-.226,3.976-2.263,4.622h0a3.83,3.83,0,0,1-4.816-2.457l-6.626-20.558a1.714,1.714,0,0,1,1.1-2.166l4.008-1.293A1.441,1.441,0,0,1,565.9,283.252Z" transform="translate(-442.643 -240.164)" fill="#4f59a7"/>
      <path id="Path_2650" data-name="Path 2650" d="M432.573,339.088l10.828,1.293c.873.1,1.487,1.293,1.455,2.715h0c-.065,1.422-.776,2.586-1.648,2.618l-10.893.517c-.937.032-1.648-1.2-1.616-2.715l.065-1.81C430.827,340.187,431.635,338.991,432.573,339.088Z" transform="translate(-355.988 -278.902)" fill="#4f59a7"/>
      <path id="Path_2651" data-name="Path 2651" d="M522.132,259.229h0a3.193,3.193,0,0,1-3.491-2.683L515.7,237.54l8.6-.84.776,19.2A3.231,3.231,0,0,1,522.132,259.229Z" transform="translate(-413.516 -209.612)" fill="#f9bdbd"/>
      <path id="Path_2652" data-name="Path 2652" d="M527.526,222.227h-5.915a3.9,3.9,0,0,1-3.911-3.911V207.811a3.9,3.9,0,0,1,3.911-3.911h5.915a3.9,3.9,0,0,1,3.911,3.911v10.505A3.9,3.9,0,0,1,527.526,222.227Z" transform="translate(-414.869 -187.414)" fill="#f9bdbd"/>
      <path id="Path_2653" data-name="Path 2653" d="M512.044,235.816h1.778V231h-1.778a1.738,1.738,0,0,0-1.745,1.745v1.293A1.726,1.726,0,0,0,512.044,235.816Z" transform="translate(-409.859 -205.754)" fill="#f9bdbd"/>
      <path id="Path_2654" data-name="Path 2654" d="M538.692,513.222l-1.422,1.487a2.4,2.4,0,0,1-3.3,0l-25.309-22.788c-1.39-1.261-1.681-3.2-.614-4.267l2.424-2.521c1.034-1.1,3.006-.873,4.3.453l23.79,24.339A2.408,2.408,0,0,1,538.692,513.222Z" transform="translate(-407.901 -377.27)" fill="#4f59a7"/>
      <path id="Path_2655" data-name="Path 2655" d="M554.671,454.918l-2.263.194c-1.358.129-2.618-1.713-2.909-4.137l-7.5-68.17,9.859-.905,4.881,68.428C556.933,452.785,556,454.821,554.671,454.918Z" transform="translate(-431.315 -307.879)" fill="#4f59a7"/>
      <path id="Path_2656" data-name="Path 2656" d="M532.247,312.972h-3.265a.579.579,0,0,1-.582-.582v-.808a.579.579,0,0,1,.582-.582h3.265a.579.579,0,0,1,.582.582v.808A.579.579,0,0,1,532.247,312.972Z" transform="translate(-422.111 -259.896)" fill="#f6ded8"/>
      <rect id="Rectangle_695" data-name="Rectangle 695" width="7.305" height="6.335" transform="translate(104.091 43.993)" fill="#ef804f"/>
      <path id="Path_2657" data-name="Path 2657" d="M519.676,281.735l-3.976-4.978,1.487-1.358,4.622,4.364Z" transform="translate(-413.516 -235.803)" fill="#f5e0da"/>
      <path id="Path_2658" data-name="Path 2658" d="M534.6,283.283l2.974-2.683,1.261,1.164-2.392,3.2Z" transform="translate(-426.307 -239.322)" fill="#f5e0da"/>
      <path id="Path_2659" data-name="Path 2659" d="M514.031,269.2s-3.458,4.654-2.941,6.109a2.259,2.259,0,0,0,2.36,1.455l-1.681,2.844s1.875,3.846,7.628,10.99l4.622-10.731-.97-2.651,1.939-1.778s1.358.226-3.426-5.592l-.614,8.178-2,3.168-3.782-3.652Z" transform="translate(-410.36 -231.607)" fill="#6473b6"/>
      <path id="Path_2660" data-name="Path 2660" d="M531.667,311.032l-.259,1.939h-3.426l-.582-1.81a.8.8,0,0,1,.485-.162h3.556A.48.48,0,0,1,531.667,311.032Z" transform="translate(-421.434 -259.896)" fill="#eee"/>
      <path id="Path_2661" data-name="Path 2661" d="M536.582,366.026H526.4l.711-2.489a1.825,1.825,0,0,1,1.81-.937h5.107a1.794,1.794,0,0,1,1.81.937Z" transform="translate(-420.757 -294.817)" fill="#ef804f"/>
      <path id="Path_2662" data-name="Path 2662" d="M599.961,581.987c-2.1,2.942-3.426,1.649-3.976.711a2.121,2.121,0,0,1-.291-1.067v-.388a76.517,76.517,0,0,1,1.067-9.309c4.525-1.616,2.3-4.04,2.3-4.04,4.234-.582,3.2,4.04,3.2,4.04A14.2,14.2,0,0,1,599.961,581.987Z" transform="translate(-467.652 -433.719)" fill="#ef804f"/>
      <path id="Path_2663" data-name="Path 2663" d="M525.354,194.274l-15.16-2.618a.989.989,0,0,1-.776-1.261l2.036-6.529c.323-1.034,1.713-1.648,3.2-1.39l9.632,1.648c1.487.259,2.586,1.293,2.554,2.36l-.291,6.853A1.035,1.035,0,0,1,525.354,194.274Z" transform="translate(-409.238 -172.875)" fill="#4f59a7"/>
      <path id="Path_2664" data-name="Path 2664" d="M341.344,286.5l-5.139,3.976a2.542,2.542,0,0,0-1.131,2c-.129,1.455.776,2.586.937,3.168s-.452,1.713,0,2.166.226.937,1.358.582c1.131-.323.259-.711,1.358-.711a14.48,14.48,0,0,0,2.586-.323s.711-.032.356-1.293c-.356-1.293-1.39-1.2-.194-2.069a6.763,6.763,0,0,0,1.842-2.166s-.42-.194,0-.873a13.445,13.445,0,0,0,.9-1.907Z" transform="translate(-291.265 -243.315)" fill="#724f41"/>
      <path id="Path_2665" data-name="Path 2665" d="M360.718,445.662H312.136a5.235,5.235,0,0,1-5.236-5.236v-74.99a5.235,5.235,0,0,1,5.236-5.236h48.582a5.235,5.235,0,0,1,5.236,5.236v75.022A5.249,5.249,0,0,1,360.718,445.662Z" transform="translate(-272.207 -293.193)" fill="#9b421f"/>
      <path id="Path_2666" data-name="Path 2666" d="M355.186,445.662H306.636a5.235,5.235,0,0,1-5.236-5.236v-74.99a5.235,5.235,0,0,1,5.236-5.236h48.582a5.235,5.235,0,0,1,5.236,5.236v75.022A5.277,5.277,0,0,1,355.186,445.662Z" transform="translate(-268.484 -293.193)" fill="#ef804f"/>
      <rect id="Rectangle_696" data-name="Rectangle 696" width="49.131" height="14.545" transform="translate(37.861 73.73)" fill="#eee"/>
      <rect id="Rectangle_697" data-name="Rectangle 697" width="43.442" height="12.024" transform="translate(40.705 74.991)" fill="#fccebc"/>
      <g id="Group_1187" data-name="Group 1187" transform="translate(32.916 94.837)">
        <path id="Path_2667" data-name="Path 2667" d="M356.349,503.932H305.473a4.056,4.056,0,0,1-4.073-4.073V446.3h59.022v53.559A4.076,4.076,0,0,1,356.349,503.932Z" transform="translate(-301.4 -446.3)" fill="#fff"/>
      </g>
      <path id="Path_2668" data-name="Path 2668" d="M337.111,475.613h-5.172A1.945,1.945,0,0,1,330,473.674v-4.234a1.945,1.945,0,0,1,1.939-1.939h5.172a1.945,1.945,0,0,1,1.939,1.939v4.234A1.9,1.9,0,0,1,337.111,475.613Z" transform="translate(-287.84 -365.81)" opacity="0.5"/>
      <path id="Path_2669" data-name="Path 2669" d="M337.111,513.113h-5.172A1.945,1.945,0,0,1,330,511.174v-4.234A1.945,1.945,0,0,1,331.939,505h5.172a1.945,1.945,0,0,1,1.939,1.939v4.234A1.9,1.9,0,0,1,337.111,513.113Z" transform="translate(-287.84 -391.189)" opacity="0.5"/>
      <path id="Path_2670" data-name="Path 2670" d="M337.111,550.713h-5.172A1.945,1.945,0,0,1,330,548.774v-4.234a1.945,1.945,0,0,1,1.939-1.939h5.172a1.945,1.945,0,0,1,1.939,1.939v4.234A1.9,1.9,0,0,1,337.111,550.713Z" transform="translate(-287.84 -416.636)" opacity="0.5"/>
      <path id="Path_2671" data-name="Path 2671" d="M371.711,475.313h-5.172a1.945,1.945,0,0,1-1.939-1.939v-4.234a1.945,1.945,0,0,1,1.939-1.939h5.172a1.945,1.945,0,0,1,1.939,1.939v4.234A1.9,1.9,0,0,1,371.711,475.313Z" transform="translate(-311.256 -365.607)" opacity="0.5"/>
      <path id="Path_2672" data-name="Path 2672" d="M405.311,475.313h-5.172a1.945,1.945,0,0,1-1.939-1.939v-4.234a1.945,1.945,0,0,1,1.939-1.939h5.172a1.945,1.945,0,0,1,1.939,1.939v4.234A1.9,1.9,0,0,1,405.311,475.313Z" transform="translate(-333.996 -365.607)" opacity="0.5"/>
      <path id="Path_2673" data-name="Path 2673" d="M371.711,512.913h-5.172a1.945,1.945,0,0,1-1.939-1.939v-4.234a1.945,1.945,0,0,1,1.939-1.939h5.172a1.945,1.945,0,0,1,1.939,1.939v4.234A1.9,1.9,0,0,1,371.711,512.913Z" transform="translate(-311.256 -391.054)" opacity="0.5"/>
      <path id="Path_2674" data-name="Path 2674" d="M405.311,512.913h-5.172a1.945,1.945,0,0,1-1.939-1.939v-4.234a1.945,1.945,0,0,1,1.939-1.939h5.172a1.945,1.945,0,0,1,1.939,1.939v4.234A1.9,1.9,0,0,1,405.311,512.913Z" transform="translate(-333.996 -391.054)" opacity="0.5"/>
      <path id="Path_2675" data-name="Path 2675" d="M371.711,550.413h-5.172a1.945,1.945,0,0,1-1.939-1.939v-4.234a1.945,1.945,0,0,1,1.939-1.939h5.172a1.945,1.945,0,0,1,1.939,1.939v4.234A1.9,1.9,0,0,1,371.711,550.413Z" transform="translate(-311.256 -416.432)" opacity="0.5"/>
      <path id="Path_2676" data-name="Path 2676" d="M405.311,550.413h-5.172a1.945,1.945,0,0,1-1.939-1.939v-4.234a1.945,1.945,0,0,1,1.939-1.939h5.172a1.945,1.945,0,0,1,1.939,1.939v4.234A1.9,1.9,0,0,1,405.311,550.413Z" transform="translate(-333.996 -416.432)" opacity="0.5"/>
      <path id="Path_2677" data-name="Path 2677" d="M405.311,586.213h-5.172a1.945,1.945,0,0,1-1.939-1.939v-4.234a1.945,1.945,0,0,1,1.939-1.939h5.172a1.945,1.945,0,0,1,1.939,1.939v4.234A1.9,1.9,0,0,1,405.311,586.213Z" transform="translate(-333.996 -440.661)" opacity="0.5"/>
      <path id="Path_2678" data-name="Path 2678" d="M438.911,475.613h-5.172a1.945,1.945,0,0,1-1.939-1.939v-4.234a1.945,1.945,0,0,1,1.939-1.939h5.172a1.945,1.945,0,0,1,1.939,1.939v4.234A1.9,1.9,0,0,1,438.911,475.613Z" transform="translate(-356.735 -365.81)" opacity="0.5"/>
      <path id="Path_2679" data-name="Path 2679" d="M438.911,513.113h-5.172a1.945,1.945,0,0,1-1.939-1.939v-4.234A1.945,1.945,0,0,1,433.739,505h5.172a1.945,1.945,0,0,1,1.939,1.939v4.234A1.9,1.9,0,0,1,438.911,513.113Z" transform="translate(-356.735 -391.189)" opacity="0.5"/>
      <path id="Path_2680" data-name="Path 2680" d="M438.911,550.713h-5.172a1.945,1.945,0,0,1-1.939-1.939v-4.234a1.945,1.945,0,0,1,1.939-1.939h5.172a1.945,1.945,0,0,1,1.939,1.939v4.234A1.9,1.9,0,0,1,438.911,550.713Z" transform="translate(-356.735 -416.636)" opacity="0.5"/>
      <path id="Path_2681" data-name="Path 2681" d="M348.972,586.513H332.939A1.945,1.945,0,0,1,331,584.574v-4.234a1.945,1.945,0,0,1,1.939-1.939h16.032a1.945,1.945,0,0,1,1.939,1.939v4.234A1.9,1.9,0,0,1,348.972,586.513Z" transform="translate(-288.517 -440.864)" opacity="0.5"/>
      <path id="Path_2682" data-name="Path 2682" d="M438.911,586.513h-5.172a1.945,1.945,0,0,1-1.939-1.939v-4.234a1.945,1.945,0,0,1,1.939-1.939h5.172a1.945,1.945,0,0,1,1.939,1.939v4.234A1.9,1.9,0,0,1,438.911,586.513Z" transform="translate(-356.735 -440.864)" opacity="0.5"/>
      <path id="Path_2683" data-name="Path 2683" d="M335.411,550.713h-5.172a1.945,1.945,0,0,1-1.939-1.939v-4.234a1.945,1.945,0,0,1,1.939-1.939h5.172a1.945,1.945,0,0,1,1.939,1.939v4.234A1.945,1.945,0,0,1,335.411,550.713Z" transform="translate(-286.689 -416.636)" fill="#f5cd47"/>
      <path id="Path_2684" data-name="Path 2684" d="M335.411,475.613h-5.172a1.945,1.945,0,0,1-1.939-1.939v-4.234a1.945,1.945,0,0,1,1.939-1.939h5.172a1.945,1.945,0,0,1,1.939,1.939v4.234A1.945,1.945,0,0,1,335.411,475.613Z" transform="translate(-286.689 -365.81)" fill="#f5cd47"/>
      <path id="Path_2685" data-name="Path 2685" d="M436.211,475.613h-5.172a1.945,1.945,0,0,1-1.939-1.939v-4.234a1.945,1.945,0,0,1,1.939-1.939h5.172a1.945,1.945,0,0,1,1.939,1.939v4.234A1.945,1.945,0,0,1,436.211,475.613Z" transform="translate(-354.908 -365.81)" fill="#f5cd47"/>
      <path id="Path_2686" data-name="Path 2686" d="M335.411,513.113h-5.172a1.945,1.945,0,0,1-1.939-1.939v-4.234A1.945,1.945,0,0,1,330.239,505h5.172a1.945,1.945,0,0,1,1.939,1.939v4.234A1.945,1.945,0,0,1,335.411,513.113Z" transform="translate(-286.689 -391.189)" fill="#f5cd47"/>
      <path id="Path_2687" data-name="Path 2687" d="M436.211,513.113h-5.172a1.945,1.945,0,0,1-1.939-1.939v-4.234A1.945,1.945,0,0,1,431.039,505h5.172a1.945,1.945,0,0,1,1.939,1.939v4.234A1.945,1.945,0,0,1,436.211,513.113Z" transform="translate(-354.908 -391.189)" fill="#f5cd47"/>
      <path id="Path_2688" data-name="Path 2688" d="M436.211,550.713h-5.172a1.945,1.945,0,0,1-1.939-1.939v-4.234a1.945,1.945,0,0,1,1.939-1.939h5.172a1.945,1.945,0,0,1,1.939,1.939v4.234A1.945,1.945,0,0,1,436.211,550.713Z" transform="translate(-354.908 -416.636)" fill="#f5cd47"/>
      <path id="Path_2689" data-name="Path 2689" d="M346.272,586.513H330.239a1.945,1.945,0,0,1-1.939-1.939v-4.234a1.945,1.945,0,0,1,1.939-1.939h16.032a1.945,1.945,0,0,1,1.939,1.939v4.234A1.945,1.945,0,0,1,346.272,586.513Z" transform="translate(-286.689 -440.864)" fill="#f5cd47"/>
      <path id="Path_2690" data-name="Path 2690" d="M436.211,586.513h-5.172a1.945,1.945,0,0,1-1.939-1.939v-4.234a1.945,1.945,0,0,1,1.939-1.939h5.172a1.945,1.945,0,0,1,1.939,1.939v4.234A1.945,1.945,0,0,1,436.211,586.513Z" transform="translate(-354.908 -440.864)" fill="#ef804f"/>
      <path id="Path_2691" data-name="Path 2691" d="M369.911,475.313h-5.172a1.945,1.945,0,0,1-1.939-1.939v-4.234a1.945,1.945,0,0,1,1.939-1.939h5.172a1.945,1.945,0,0,1,1.939,1.939v4.234A1.945,1.945,0,0,1,369.911,475.313Z" transform="translate(-310.038 -365.607)" fill="#f5cd47"/>
      <path id="Path_2692" data-name="Path 2692" d="M403.511,475.313h-5.172a1.945,1.945,0,0,1-1.939-1.939v-4.234a1.945,1.945,0,0,1,1.939-1.939h5.172a1.945,1.945,0,0,1,1.939,1.939v4.234A1.945,1.945,0,0,1,403.511,475.313Z" transform="translate(-332.777 -365.607)" fill="#f5cd47"/>
      <path id="Path_2693" data-name="Path 2693" d="M369.911,512.913h-5.172a1.945,1.945,0,0,1-1.939-1.939v-4.234a1.945,1.945,0,0,1,1.939-1.939h5.172a1.945,1.945,0,0,1,1.939,1.939v4.234A1.945,1.945,0,0,1,369.911,512.913Z" transform="translate(-310.038 -391.054)" fill="#f5cd47"/>
      <path id="Path_2694" data-name="Path 2694" d="M403.511,512.913h-5.172a1.945,1.945,0,0,1-1.939-1.939v-4.234a1.945,1.945,0,0,1,1.939-1.939h5.172a1.945,1.945,0,0,1,1.939,1.939v4.234A1.945,1.945,0,0,1,403.511,512.913Z" transform="translate(-332.777 -391.054)" fill="#f5cd47"/>
      <path id="Path_2695" data-name="Path 2695" d="M369.911,550.413h-5.172a1.945,1.945,0,0,1-1.939-1.939v-4.234a1.945,1.945,0,0,1,1.939-1.939h5.172a1.945,1.945,0,0,1,1.939,1.939v4.234A1.945,1.945,0,0,1,369.911,550.413Z" transform="translate(-310.038 -416.432)" fill="#f5cd47"/>
      <path id="Path_2696" data-name="Path 2696" d="M403.511,550.413h-5.172a1.945,1.945,0,0,1-1.939-1.939v-4.234a1.945,1.945,0,0,1,1.939-1.939h5.172a1.945,1.945,0,0,1,1.939,1.939v4.234A1.945,1.945,0,0,1,403.511,550.413Z" transform="translate(-332.777 -416.432)" fill="#f5cd47"/>
      <path id="Path_2697" data-name="Path 2697" d="M403.511,586.213h-5.172a1.945,1.945,0,0,1-1.939-1.939v-4.234a1.945,1.945,0,0,1,1.939-1.939h5.172a1.945,1.945,0,0,1,1.939,1.939v4.234A1.945,1.945,0,0,1,403.511,586.213Z" transform="translate(-332.777 -440.661)" fill="#f5cd47"/>
      <path id="Path_2698" data-name="Path 2698" d="M598.752,428.359l.55-2.133a.6.6,0,0,0-.453-.679h0a.566.566,0,0,0-.711.356l-.549,2.133c-.065.291.453.679.453.679h0S598.687,428.617,598.752,428.359Z" transform="translate(-468.931 -337.4)" fill="#f9bdbd"/>
      <path id="Path_2699" data-name="Path 2699" d="M484.022,359.524l-.582-2.23a.533.533,0,0,0-.614-.42h0a.556.556,0,0,0-.356.679l.582,2.23c.065.291.614.42.614.42h0C483.7,360.2,484.119,359.815,484.022,359.524Z" transform="translate(-391.017 -290.934)" fill="#f9bdbd"/>
      <path id="Path_2700" data-name="Path 2700" d="M481.169,364.889l-.905-2.036a.544.544,0,0,0-.711-.259h0a.543.543,0,0,0-.259.711l.9,2.036c.129.259.711.259.711.259h0C480.91,365.632,481.3,365.18,481.169,364.889Z" transform="translate(-388.843 -294.779)" fill="#f9bdbd"/>
      <path id="Path_2701" data-name="Path 2701" d="M474.725,366.865l-.517-1.939a.482.482,0,0,0-.582-.356h0a.482.482,0,0,0-.356.582l.517,1.939c.065.259.582.356.582.356h0C474.4,367.479,474.789,367.124,474.725,366.865Z" transform="translate(-384.791 -296.141)" fill="#f9bdbd"/>
      <path id="Path_2702" data-name="Path 2702" d="M468.728,365.879l-.453-1.2c-.065-.162-.323-.194-.614-.1h0c-.259.1-.453.323-.388.485l.453,1.2c.065.162.614.1.614.1h0S468.793,366.04,468.728,365.879Z" transform="translate(-380.734 -296.124)" fill="#f9bdbd"/>
      <path id="Path_2703" data-name="Path 2703" d="M479.563,352.979l-1.616-1.681a.523.523,0,0,0-.743-.065h0a.519.519,0,0,0,.032.743l1.616,1.681c.226.226.743.065.743.065h0S479.789,353.205,479.563,352.979Z" transform="translate(-387.367 -287.038)" fill="#f9bdbd"/>
      <path id="Path_2704" data-name="Path 2704" d="M476.9,358.543l-1.422-1.745a.556.556,0,0,0-.776-.065h0a.555.555,0,0,0-.065.776l1.422,1.746c.194.226.776.065.776.065h0C476.831,359.287,477.09,358.77,476.9,358.543Z" transform="translate(-385.637 -290.761)" fill="#f9bdbd"/>
      <path id="Path_2705" data-name="Path 2705" d="M472.649,360.931l-.711-1.907a.479.479,0,0,0-.614-.291h0a.479.479,0,0,0-.291.614l.711,1.907c.1.259.614.291.614.291h0S472.746,361.157,472.649,360.931Z" transform="translate(-383.265 -292.178)" fill="#f9bdbd"/>
      <path id="Path_2706" data-name="Path 2706" d="M467.55,361.072l-.323-1.616c-.032-.226-.291-.356-.582-.291h0c-.291.065-.485.291-.453.485l.323,1.616c.032.226.582.291.582.291h0C467.13,361.589,467.615,361.3,467.55,361.072Z" transform="translate(-380.009 -292.481)" fill="#f9bdbd"/>
      <path id="Path_2707" data-name="Path 2707" d="M461.833,348.4l-2.166-2.36c-.582-.614.614-2.651.711-2.747l.259-.226c.1-.1,2.23-1.1,2.812-.485l2.166,2.36a1.534,1.534,0,0,1-.1,2.166L464,348.5A1.564,1.564,0,0,1,461.833,348.4Z" transform="translate(-375.487 -281.138)" fill="#f9bdbd"/>
      <path id="Path_2708" data-name="Path 2708" d="M599.158,434.032l-.453-1.584c-.065-.226-.356-.323-.679-.226h0c-.323.1-.517.323-.453.549l.453,1.584c.065.226.679.226.679.226h0C598.705,434.549,599.223,434.226,599.158,434.032Z" transform="translate(-468.917 -341.91)" fill="#f9bdbd"/>
      <text id="_80" data-name="80" transform="translate(70.096 81.71)" font-size="7" font-family="Lato-LightItalic, Lato" font-weight="300" font-style="italic" opacity="0.18"><tspan x="0" y="0">80</tspan></text>
      <path id="Path_2709" data-name="Path 2709" d="M499.838,359.978l-6.5-1.455a2.193,2.193,0,0,1-1.648-2.618l2.877-12.865a2.193,2.193,0,0,1,2.618-1.648l6.5,1.455a2.193,2.193,0,0,1,1.648,2.618l-2.877,12.865A2.225,2.225,0,0,1,499.838,359.978Z" transform="translate(-397.233 -280.43)" fill="#4f59a7"/>
      <path id="Path_2710" data-name="Path 2710" d="M554.13,358.513l-1.455.259-5.107.905a2.15,2.15,0,0,1-2.521-1.778l-.065-.356-2.263-12.638a2.15,2.15,0,0,1,1.778-2.521l6.562-1.164A2.15,2.15,0,0,1,553.581,343l2.295,12.962A2.175,2.175,0,0,1,554.13,358.513Z" transform="translate(-431.777 -280.322)" fill="#4f59a7"/>
      <path id="Path_2711" data-name="Path 2711" d="M323.362,265.377s-4.59,2.812-4.848,4.2.129,4.364,1.034,5.236c0,0,1.034-3.782,2.069-4.558l4.719-3.265,3.911,3.071s1.39,1.842.582,3.588.259.453.259.453,4.816-2.424,4.008-4.234a10.526,10.526,0,0,0-4.137-4.073s4.04-.97,6.432.905c0,0-.582-2.941-4.59-4.04l4.59-1.842s-4.719-1.2-7.467-.582l-2-4.137s-3.071,3.556-2.941,4.525c0,0-8.4-1.39-9.535-.226a63.175,63.175,0,0,1,6.335,2.618s-8.986.905-7.952,2.457C313.794,265.441,322.554,264.019,323.362,265.377Z" transform="translate(-276.838 -222.741)" fill="#30d673"/>
      <path id="Path_2712" data-name="Path 2712" d="M343.681,330.861h-4.687a3.393,3.393,0,0,1-3.394-3.394V316.8h11.475v10.667A3.414,3.414,0,0,1,343.681,330.861Z" transform="translate(-291.63 -263.821)" fill="#c16246"/>
      <path id="Path_2713" data-name="Path 2713" d="M351.4,329.3l1.131,1.939H350.3Z" transform="translate(-301.578 -272.281)" fill="none" stroke="#fff" stroke-miterlimit="10" stroke-width="1"/>
      <path id="Path_2714" data-name="Path 2714" d="M351.4,340.607l1.131-1.907H350.3Z" transform="translate(-301.578 -278.642)" fill="none" stroke="#fff" stroke-miterlimit="10" stroke-width="1"/>
      <path id="Path_2715" data-name="Path 2715" d="M337.7,329.3l1.1,1.939h-2.2Z" transform="translate(-292.307 -272.281)" fill="none" stroke="#fff" stroke-miterlimit="10" stroke-width="1"/>
      <path id="Path_2716" data-name="Path 2716" d="M344.531,329.3l1.1,1.939H343.4Z" transform="translate(-296.909 -272.281)" fill="none" stroke="#fff" stroke-miterlimit="10" stroke-width="1"/>
      <path id="Path_2717" data-name="Path 2717" d="M358.3,329.3l1.1,1.939h-2.2Z" transform="translate(-306.248 -272.281)" fill="none" stroke="#fff" stroke-miterlimit="10" stroke-width="1"/>
      <path id="Path_2718" data-name="Path 2718" d="M364.734,329.3l1.034,1.939H363.7Z" transform="translate(-310.647 -272.281)" fill="none" stroke="#fff" stroke-miterlimit="10" stroke-width="1"/>
      <path id="Path_2719" data-name="Path 2719" d="M337.7,340.607l1.1-1.907h-2.2Z" transform="translate(-292.307 -278.642)" fill="none" stroke="#fff" stroke-miterlimit="10" stroke-width="1"/>
      <path id="Path_2720" data-name="Path 2720" d="M344.531,340.607l1.1-1.907H343.4Z" transform="translate(-296.909 -278.642)" fill="none" stroke="#fff" stroke-miterlimit="10" stroke-width="1"/>
      <path id="Path_2721" data-name="Path 2721" d="M358.3,340.607l1.1-1.907h-2.2Z" transform="translate(-306.248 -278.642)" fill="none" stroke="#fff" stroke-miterlimit="10" stroke-width="1"/>
      <path id="Path_2722" data-name="Path 2722" d="M364.734,340.607l1.034-1.907H363.7Z" transform="translate(-310.647 -278.642)" fill="none" stroke="#fff" stroke-miterlimit="10" stroke-width="1"/>
      <path id="Path_2723" data-name="Path 2723" d="M512.485,219.595s-1.648-3.426-1.228-5.495l2.457.549v4.945Z" transform="translate(-410.462 -194.317)" fill="#ef804f"/>
      <path id="Path_2724" data-name="Path 2724" d="M552.6,396.728l6.788-1.228.129,1.745C559.517,397.278,557.448,395.791,552.6,396.728Z" transform="translate(-438.489 -317.083)" opacity="0.5"/>
      <path id="Path_2725" data-name="Path 2725" d="M502.829,398.477,502.7,395.6l4.848.873S502.829,395.665,502.829,398.477Z" transform="translate(-404.718 -317.151)" opacity="0.5"/>
      <path id="Path_2726" data-name="Path 2726" d="M526.924,362.5,524.5,373.3s2.036-7.273,2.069-7.37C526.633,365.8,526.924,362.5,526.924,362.5Z" transform="translate(-419.471 -294.75)" opacity="0.5"/>
      <path id="Path_2727" data-name="Path 2727" d="M533.616,336,532,344.566l1.422-5.527Z" transform="translate(-424.547 -276.815)" opacity="0.5"/>
      <path id="Path_2728" data-name="Path 2728" d="M523.8,295a40.255,40.255,0,0,0,4.4,13.059A81.044,81.044,0,0,1,523.8,295Z" transform="translate(-418.998 -249.068)" opacity="0.3"/>
      <path id="Path_2729" data-name="Path 2729" d="M592.6,610.6Z" transform="translate(-465.559 -462.656)"/>
      <path id="Path_2730" data-name="Path 2730" d="M599.967,581.987c-2.1,2.942-3.426,1.649-3.976.711a2.119,2.119,0,0,1-.291-1.067v-.388h0c4.784,2.715,5.98-9.471,5.98-9.471.776-3.168-2.651-3.879-2.651-3.879,4.234-.582,3.2,4.04,3.2,4.04A14.092,14.092,0,0,1,599.967,581.987Z" transform="translate(-467.657 -433.719)" opacity="0.1"/>
      <path id="Path_2731" data-name="Path 2731" d="M528.717,254.848s-5.2-.1-6.917-2.747C521.832,252.1,523.513,255.009,528.717,254.848Z" transform="translate(-417.644 -220.034)" opacity="0.28"/>
      <path id="Path_2732" data-name="Path 2732" d="M527.174,216.683V218.2s-10.44-.226-15.774-4.2A122.873,122.873,0,0,0,527.174,216.683Z" transform="translate(-410.606 -194.249)" opacity="0.1"/>
      <path id="Path_2733" data-name="Path 2733" d="M445.525,339.911s-9.115-1.228-9.923-1.164-.226,0-.226,0l1.293-.162a6.819,6.819,0,0,1,2.295.1C441.032,339.071,445.2,339.911,445.525,339.911Z" transform="translate(-359.018 -278.528)" opacity="0.3"/>
      <path id="Path_2734" data-name="Path 2734" d="M441.7,352.4s-.42.032,1.972,2.392l-10.473.162S442.283,353.887,441.7,352.4Z" transform="translate(-357.682 -287.914)" opacity="0.5"/>
      <path id="Path_2735" data-name="Path 2735" d="M600.723,425.409l-1.551-3.071c-.42-.808,1.454-2.133,1.584-2.2l.614-.323c.129-.065,2.327-.808,2.747,0l1.551,3.071a1.644,1.644,0,0,1-.743,2.23l-2,1A1.579,1.579,0,0,1,600.723,425.409Z" transform="translate(-469.966 -333.287)" fill="#f9bdbd"/>
      <path id="Path_2736" data-name="Path 2736" d="M538.552,296.5s-.452,8.275-1.552,12.218Z" transform="translate(-427.931 -250.083)" opacity="0.1"/>
      <path id="Path_2737" data-name="Path 2737" d="M589.5,371.856l-2.78.582c-.065,0-.1.032-.162.032h0a1.291,1.291,0,0,1-1.358-.97l-5.333-20.428-.162-.679a1.313,1.313,0,0,1,1-1.616l4.913-1.034c.743-.162,1.2.42,1.293,1.131l3.62,21.463A1.325,1.325,0,0,1,589.5,371.856Z" transform="translate(-456.803 -284.744)" fill="#4f59a7"/>
      <path id="Path_2738" data-name="Path 2738" d="M586.891,379.43h0a1.291,1.291,0,0,1-1.358-.97L580.2,358.032V358Z" transform="translate(-457.167 -291.704)" opacity="0.5"/>
      <path id="Path_2739" data-name="Path 2739" d="M609.69,457.8,602.9,459.77l-16.743,4.881h0l-1.778-6.077-.388-1.261-1.293-4.461,20.267-5.915,2.263-.679.97-.259,1.293,4.364.356,1.261Z" transform="translate(-458.859 -351.26)" fill="#9b421f"/>
      <path id="Path_2740" data-name="Path 2740" d="M609.116,449.895l-1.875-6.3h0l-2.489.743-5.2,1.551-1.067.323.291.97.323,1.131a.888.888,0,0,1-.065.647.827.827,0,0,1-.517.42l-1.907.549-2.3.679a.887.887,0,0,1-.646-.065.828.828,0,0,1-.42-.517l-.614-2.1-8.824,2.618,1.778,5.947.032.1.065.226a2.024,2.024,0,0,0,1.067,1.293,1.974,1.974,0,0,0,1.648.162l12.121-3.588,7.208-2.133a2.025,2.025,0,0,0,1.293-1.067A2.376,2.376,0,0,0,609.116,449.895Zm-11.96-3.329-3.362,1,.485,1.681,3.362-1Zm8.21-9.277A2.024,2.024,0,0,0,604.3,436a1.733,1.733,0,0,0-.356-.162,2,2,0,0,0-.97-.1,1.147,1.147,0,0,0-.323.065l-4.622,1.358-.614-2.1a1.2,1.2,0,0,0-.646-.776,1.346,1.346,0,0,0-1-.1l-7.564,2.23a1.2,1.2,0,0,0-.776.646,1.346,1.346,0,0,0-.1,1l.614,2.1-4.622,1.358a2.025,2.025,0,0,0-1.293,1.067,1.974,1.974,0,0,0-.162,1.648l1.487,5.042h0l17-5.01,4.493-1.325,1.972-.582h0Zm-9.5-1.293.485,1.681-6.723,2L589.141,438Z" transform="translate(-458.221 -343.227)" fill="#ef804f"/>
      <path id="Path_2741" data-name="Path 2741" d="M616.048,437.746l-.808-1.939a.549.549,0,0,0-.743-.226h0a.573.573,0,0,0-.356.679l.808,1.939c.1.259.582,0,.582,0l.226-.1C615.789,438.1,616.177,438,616.048,437.746Z" transform="translate(-480.119 -344.17)" fill="#f9bdbd"/>
      <path id="Path_2742" data-name="Path 2742" d="M611.555,439.192l-.517-2.133a.582.582,0,0,0-.711-.388h0a.547.547,0,0,0-.453.646l.517,2.133c.065.291.646.129.646.129l.129-.032S611.62,439.482,611.555,439.192Z" transform="translate(-477.242 -344.936)" fill="#f9bdbd"/>
      <path id="Path_2743" data-name="Path 2743" d="M606.993,439.96l-.42-2.166a.549.549,0,0,0-.646-.42h0a.547.547,0,0,0-.453.646l.42,2.166c.065.291.517.226.517.226l.259-.032C606.638,440.348,607.026,440.251,606.993,439.96Z" transform="translate(-474.264 -345.413)" fill="#f9bdbd"/>
      <path id="Path_2744" data-name="Path 2744" d="M618.146,431.015l-1.293-2.424a.574.574,0,0,0-.776-.323h0a.624.624,0,0,0-.162.84l1.293,2.424a.418.418,0,0,0,.485.194c.032,0,.065-.032.1-.032l.226-.129c.032-.032.1-.1.1-.129C618.081,431.37,618.21,431.273,618.146,431.015Z" transform="translate(-481.279 -339.216)" fill="#f9bdbd"/>
      <path id="Path_2745" data-name="Path 2745" d="M619.8,436.855l.226,1.067c.032.129.291.226.582.162h0c.291-.065.485-.226.452-.356l-.226-1.067c-.032-.129-.582-.162-.582-.162h0S619.764,436.726,619.8,436.855Z" transform="translate(-483.964 -344.83)" fill="#f9bdbd"/>
      <path id="Path_2746" data-name="Path 2746" d="M570.7,305.2l2.133,14.707-1.616-14.675A.3.3,0,0,0,570.7,305.2Z" transform="translate(-450.738 -255.873)" opacity="0.5"/>
      <path id="Path_2747" data-name="Path 2747" d="M510.965,287.2a1.033,1.033,0,0,0,.032.226,2.218,2.218,0,0,0,.356.646,2.432,2.432,0,0,0,.614.582,2.318,2.318,0,0,0,.679.259,2.256,2.256,0,0,0,.711,0l-.388.646s-1.875,1.261-2.069-1.745Z" transform="translate(-410.267 -243.789)" opacity="0.3"/>
      <path id="Path_2748" data-name="Path 2748" d="M544.106,359.076,541.1,342.3S543.557,358.526,544.106,359.076Z" transform="translate(-430.706 -281.079)" opacity="0.5"/>
      <path id="Path_2749" data-name="Path 2749" d="M581.333,613.961h-10.6a1.124,1.124,0,0,1-1.131-1.131v-3.943c1.519,1.778,2.844.808,2.844.808a2.162,2.162,0,0,1,2.2-1.616c1.131-.646,2.521,1.875,2.521,1.875a3.729,3.729,0,0,1,4.137,3.3C581.333,613.67,581.333,613.961,581.333,613.961Z" transform="translate(-449.994 -460.877)" fill="#ef804f"/>
      <path id="Path_2750" data-name="Path 2750" d="M581.333,616.687h-10.6a1.124,1.124,0,0,1-1.131-1.131V612c.032,1,.259,3.62,2.133,3.943,2.327.42,9.535,0,9.535,0A5.818,5.818,0,0,1,581.333,616.687Z" transform="translate(-449.994 -463.603)" opacity="0.1"/>
      <ellipse id="Ellipse_233" data-name="Ellipse 233" cx="1.648" cy="15.386" rx="1.648" ry="15.386" transform="translate(93.225 19.119) rotate(-80.962)" fill="#4f59a7"/>
      <path id="Path_2751" data-name="Path 2751" d="M526.561,192.7s-.129,5.98-17.261,4.331c0,0,6.5,2.715,17.164,2.715l.259-6.368A2.252,2.252,0,0,0,526.561,192.7Z" transform="translate(-409.185 -179.834)" opacity="0.3"/>
      <path id="Path_2752" data-name="Path 2752" d="M537.541,271.2s-.679,3.943-2.941,5.721l2.683-2.457Z" transform="translate(-426.307 -232.961)" opacity="0.1"/>
      <path id="Path_2753" data-name="Path 2753" d="M600.829,451.376l1.681-.517-.129-.259-1.681.388Z" transform="translate(-471.041 -354.373)" opacity="0.3"/>
      <path id="Path_2754" data-name="Path 2754" d="M626.729,443.476l1.681-.485-.129-.291-1.681.388Z" transform="translate(-488.57 -349.026)" opacity="0.3"/>
      <path id="Path_2755" data-name="Path 2755" d="M645.8,445.589h0l-2,.582L639.3,447.5a28.264,28.264,0,0,0,1.972-5.366,30.714,30.714,0,0,0,.646-3.168,1.96,1.96,0,0,1,.97.1,1.734,1.734,0,0,1,.356.162,2.125,2.125,0,0,1,1.067,1.293Z" transform="translate(-497.165 -346.485)" opacity="0.3"/>
      <path id="Path_2756" data-name="Path 2756" d="M616.8,471.419a2.237,2.237,0,0,1-1.293,1.067l-7.208,2.133-12.089,3.588a2.234,2.234,0,0,1-1.648-.162,2.125,2.125,0,0,1-1.067-1.293l-.065-.226-.032-.1a21.7,21.7,0,0,0,11.055-6.562,28.12,28.12,0,0,0,2.166-2.78c.291-.42.549-.84.808-1.293l5.2-1.552,2.489-.743h0L617,469.8A2.034,2.034,0,0,1,616.8,471.419Z" transform="translate(-466.101 -363.103)" opacity="0.3"/>
      <path id="Path_2757" data-name="Path 2757" d="M648,455.109a2.237,2.237,0,0,1-1.293,1.067l-7.208,2.133a25.082,25.082,0,0,0,1.842-3.006,21.822,21.822,0,0,0,2.456-7.4c.065-.485.129-.97.162-1.422a19.314,19.314,0,0,0-.259-4.687,14.726,14.726,0,0,0-.647-2.392,1.728,1.728,0,0,1,.356.162,2.125,2.125,0,0,1,1.067,1.293l1.487,5.042h0l.388,1.261h0l1.875,6.3A2.25,2.25,0,0,1,648,455.109Z" transform="translate(-497.3 -346.793)" opacity="0.1"/>
      <path id="Path_2758" data-name="Path 2758" d="M550.433,288l-2.133,1.939s1.648-.808,1.939-.9S550.433,288,550.433,288Z" transform="translate(-435.579 -244.33)" opacity="0.3"/>
      <path id="Path_2759" data-name="Path 2759" d="M477.322,316.719l-7.822,7.143s7.014-6.659,7.337-8.663Z" transform="translate(-382.249 -262.738)" opacity="0.5"/>
      <ellipse id="Ellipse_234" data-name="Ellipse 234" cx="0.453" cy="0.453" rx="0.453" ry="0.453" transform="translate(111.719 63.775)" opacity="0.5"/>
      <ellipse id="Ellipse_235" data-name="Ellipse 235" cx="0.453" cy="0.453" rx="0.453" ry="0.453" transform="translate(112.721 69.108)" opacity="0.5"/>
      <ellipse id="Ellipse_236" data-name="Ellipse 236" cx="0.453" cy="0.453" rx="0.453" ry="0.453" transform="translate(112.625 69.011)" fill="#7c8ed1"/>
      <line id="Line_55" data-name="Line 55" x2="5.721" transform="translate(113.4 54.336)" fill="none" stroke="#000" stroke-miterlimit="10" stroke-width="1" opacity="0.3"/>
      <ellipse id="Ellipse_237" data-name="Ellipse 237" cx="0.453" cy="0.453" rx="0.453" ry="0.453" transform="translate(111.655 63.678)" fill="#7c8ed1"/>
      <path id="Path_2760" data-name="Path 2760" d="M584.1,543.1l.743,10.376.84.743.55-8.921Z" transform="translate(-459.807 -416.974)" opacity="0.5"/>
      <path id="Path_2761" data-name="Path 2761" d="M555.317,513.717l1.293,11.959-.259-.259L554.8,513.2Z" transform="translate(-439.977 -396.738)" opacity="0.1"/>
    </g>
    <ellipse id="Ellipse_474" data-name="Ellipse 474" cx="10.641" cy="10.641" rx="10.641" ry="10.641" transform="translate(-1587.818 1454.771)" fill="#d5d5d5"/>
    <text id="Save_continue" data-name="Save &amp; continue" transform="translate(-1646.345 1792.715)" fill="#fff" font-size="7" font-family="Montserrat-SemiBold, Montserrat" font-weight="600"><tspan x="0" y="0">Save &amp; continue</tspan></text>
  </g>
</svg>
