<svg xmlns="http://www.w3.org/2000/svg" xmlns:xlink="http://www.w3.org/1999/xlink" width="747.452" height="529.001" viewBox="0 0 747.452 529.001">
  <defs>
    <filter id="Path_3516" x="0" y="36.551" width="630.741" height="409.25" filterUnits="userSpaceOnUse">
      <feOffset input="SourceAlpha"/>
      <feGaussianBlur stdDeviation="10" result="blur"/>
      <feFlood flood-opacity="0.251"/>
      <feComposite operator="in" in2="blur"/>
      <feComposite in="SourceGraphic"/>
    </filter>
    <filter id="Rectangle_1090" x="161.272" y="167.785" width="481.788" height="294.563" filterUnits="userSpaceOnUse">
      <feOffset dy="1" input="SourceAlpha"/>
      <feGaussianBlur stdDeviation="7.5" result="blur-2"/>
      <feFlood flood-opacity="0.102"/>
      <feComposite operator="in" in2="blur-2"/>
      <feComposite in="SourceGraphic"/>
    </filter>
    <clipPath id="clip-path">
      <rect width="389.515" height="211" fill="none"/>
    </clipPath>
    <filter id="Path_3528" x="187" y="149" width="29" height="29" filterUnits="userSpaceOnUse">
      <feOffset input="SourceAlpha"/>
      <feGaussianBlur stdDeviation="3" result="blur-3"/>
      <feFlood flood-opacity="0.161"/>
      <feComposite operator="in" in2="blur-3"/>
      <feComposite in="SourceGraphic"/>
    </filter>
  </defs>
  <g id="Group_1580" data-name="Group 1580" transform="translate(-12854 -2580)">
    <path id="Path_3531" data-name="Path 3531" d="M448.856,0l61.807,120.554H498.186v98.307h62.879l36.225,70.655L148.436,519.645,0,230.128Z" transform="translate(13004.162 2580)" fill="#f2f2f2" opacity="0.7"/>
    <ellipse id="Ellipse_447" data-name="Ellipse 447" cx="11.118" cy="11.118" rx="11.118" ry="11.118" transform="translate(13045.176 3043.496)" fill="#2dbfbd" opacity="0.4"/>
    <ellipse id="Ellipse_448" data-name="Ellipse 448" cx="14.629" cy="14.629" rx="14.629" ry="14.629" transform="translate(13084.541 3079.743)" fill="#2dbfbd" opacity="0.4"/>
    <rect id="Rectangle_1144" data-name="Rectangle 1144" width="74.901" height="74.901" transform="translate(13511.711 2714.598)" fill="#316f98" opacity="0.5"/>
    <ellipse id="Ellipse_446" data-name="Ellipse 446" cx="27.503" cy="27.503" rx="27.503" ry="27.503" transform="translate(12860 2635.844)" fill="#2dbfbd" opacity="0.4"/>
    <g id="Group_1579" data-name="Group 1579" transform="translate(283 -596)">
      <rect id="Rectangle_1092" data-name="Rectangle 1092" width="129.051" height="83.928" rx="4" transform="translate(13028.217 3507.873)" fill="#fff" opacity="0.77"/>
      <rect id="Rectangle_1093" data-name="Rectangle 1093" width="129.953" height="70.391" rx="4" transform="translate(13027.314 3286.771)" fill="#fff" opacity="0.9"/>
      <rect id="Rectangle_1101" data-name="Rectangle 1101" width="20.756" height="8.122" rx="4.061" transform="translate(13004.752 3407.7)" fill="#b2b2b2" opacity="0.14"/>
      <rect id="Rectangle_1102" data-name="Rectangle 1102" width="20.756" height="8.122" rx="4.061" transform="translate(13146.438 3407.7)" fill="#b2b2b2" opacity="0.14"/>
      <rect id="Rectangle_1103" data-name="Rectangle 1103" width="54.147" height="8.122" rx="4.061" transform="translate(13067.021 3407.7)" fill="#b2b2b2" opacity="0.14"/>
      <rect id="Rectangle_1104" data-name="Rectangle 1104" width="38.806" height="8.122" rx="4.061" transform="translate(12953.313 3478.994)" fill="#b2b2b2" opacity="0.21"/>
      <rect id="Rectangle_1105" data-name="Rectangle 1105" width="73.44" height="13.537" rx="2" transform="translate(13094 3377.919)" fill="#04d2c8" opacity="0.67"/>
      <path id="Path_3519" data-name="Path 3519" d="M-17891,331.158h107.779" transform="translate(30931.461 3220.484)" fill="none" stroke="#e6e7e8" stroke-width="1" opacity="0.39"/>
      <path id="Path_3520" data-name="Path 3520" d="M-17891,331.158h107.779" transform="translate(30931.461 3236.728)" fill="none" stroke="#e6e7e8" stroke-width="1" opacity="0.39"/>
      <path id="Path_3521" data-name="Path 3521" d="M-17891,331.158h107.779" transform="translate(30931.461 3252.07)" fill="none" stroke="#e6e7e8" stroke-width="1" opacity="0.39"/>
      <text id="Create_Process" data-name="Create Process" transform="translate(13105 3387)" fill="#fff" font-size="6.5" font-family="Montserrat-SemiBold, Montserrat" font-weight="600"><tspan x="0" y="0">Create Process</tspan></text>
      <g transform="matrix(1, 0, 0, 1, 12571, 3176)" filter="url(#Path_3516)">
        <path id="Path_3516-2" data-name="Path 3516" d="M4,0H566.741a4,4,0,0,1,4,4V345.25a4,4,0,0,1-4,4H4a4,4,0,0,1-4-4V4A4,4,0,0,1,4,0Z" transform="translate(30 66.55)" fill="#edf9f9"/>
      </g>
      <path id="Rectangle_1087" data-name="Rectangle 1087" d="M4,0H136.271a0,0,0,0,1,0,0V349.25a0,0,0,0,1,0,0H4a4,4,0,0,1-4-4V4A4,4,0,0,1,4,0Z" transform="translate(12601 3242.551)" fill="#444584"/>
      <rect id="Rectangle_1088" data-name="Rectangle 1088" width="249.953" height="70.391" rx="4" transform="translate(12755 3286.771)" fill="#fff" opacity="0.9"/>
      <rect id="Rectangle_1106" data-name="Rectangle 1106" width="141.953" height="70.391" rx="4" transform="translate(13015 3286.771)" fill="#fff" opacity="0.9"/>
      <g transform="matrix(1, 0, 0, 1, 12571, 3176)" filter="url(#Rectangle_1090)">
        <rect id="Rectangle_1090-2" data-name="Rectangle 1090" width="436.788" height="249.563" rx="4" transform="translate(183.77 189.29)" fill="#fff"/>
      </g>
      <rect id="Rectangle_1094" data-name="Rectangle 1094" width="90.245" height="8.122" rx="4.061" transform="translate(12618.502 3303.016)" fill="#b2b2b2" opacity="0.21"/>
      <rect id="Rectangle_1095" data-name="Rectangle 1095" width="33.391" height="10.829" rx="5.415" transform="translate(12618.502 3258.795)" fill="#b2b2b2" opacity="0.21"/>
      <rect id="Rectangle_1096" data-name="Rectangle 1096" width="66.782" height="8.122" rx="4.061" transform="translate(12618.502 3322.87)" fill="#b2b2b2" opacity="0.21"/>
      <rect id="Rectangle_1097" data-name="Rectangle 1097" width="87.538" height="8.122" rx="4.061" transform="translate(12618.502 3340.919)" fill="#b2b2b2" opacity="0.21"/>
      <g id="Repeat_Grid_5" data-name="Repeat Grid 5" transform="translate(12775.139 3404)" clip-path="url(#clip-path)">
        <g id="Group_1561" data-name="Group 1561" transform="translate(-12820.109 -2139)">
          <rect id="Rectangle_1098" data-name="Rectangle 1098" width="16" height="16" rx="8" transform="translate(12820.109 2139)" fill="#b2b2b2" opacity="0.14"/>
          <rect id="Rectangle_1099" data-name="Rectangle 1099" width="31.903" height="4.122" rx="2.061" transform="translate(12864.721 2145)" fill="#b2b2b2" opacity="0.14"/>
          <rect id="Rectangle_1112" data-name="Rectangle 1112" width="31.903" height="4.122" rx="2.061" transform="translate(13022.721 2145)" fill="#b2b2b2" opacity="0.14"/>
          <rect id="Rectangle_1113" data-name="Rectangle 1113" width="31.903" height="4.122" rx="2.061" transform="translate(13100.721 2145)" fill="#b2b2b2" opacity="0.14"/>
          <rect id="Rectangle_1114" data-name="Rectangle 1114" width="31.903" height="4.122" rx="2.061" transform="translate(13177.721 2145)" fill="#b2b2b2" opacity="0.14"/>
        </g>
        <g id="Group_1561-2" data-name="Group 1561" transform="translate(-12820.109 -2103)">
          <rect id="Rectangle_1098-2" data-name="Rectangle 1098" width="16" height="16" rx="8" transform="translate(12820.109 2139)" fill="#b2b2b2" opacity="0.14"/>
          <rect id="Rectangle_1099-2" data-name="Rectangle 1099" width="31.903" height="4.122" rx="2.061" transform="translate(12864.721 2145)" fill="#b2b2b2" opacity="0.14"/>
          <rect id="Rectangle_1112-2" data-name="Rectangle 1112" width="31.903" height="4.122" rx="2.061" transform="translate(13022.721 2145)" fill="#b2b2b2" opacity="0.14"/>
          <rect id="Rectangle_1113-2" data-name="Rectangle 1113" width="31.903" height="4.122" rx="2.061" transform="translate(13100.721 2145)" fill="#b2b2b2" opacity="0.14"/>
          <rect id="Rectangle_1114-2" data-name="Rectangle 1114" width="31.903" height="4.122" rx="2.061" transform="translate(13177.721 2145)" fill="#b2b2b2" opacity="0.14"/>
        </g>
        <g id="Group_1561-3" data-name="Group 1561" transform="translate(-12820.109 -2067)">
          <rect id="Rectangle_1098-3" data-name="Rectangle 1098" width="16" height="16" rx="8" transform="translate(12820.109 2139)" fill="#b2b2b2" opacity="0.14"/>
          <rect id="Rectangle_1099-3" data-name="Rectangle 1099" width="31.903" height="4.122" rx="2.061" transform="translate(12864.721 2145)" fill="#b2b2b2" opacity="0.14"/>
          <rect id="Rectangle_1112-3" data-name="Rectangle 1112" width="31.903" height="4.122" rx="2.061" transform="translate(13022.721 2145)" fill="#b2b2b2" opacity="0.14"/>
          <rect id="Rectangle_1113-3" data-name="Rectangle 1113" width="31.903" height="4.122" rx="2.061" transform="translate(13100.721 2145)" fill="#b2b2b2" opacity="0.14"/>
          <rect id="Rectangle_1114-3" data-name="Rectangle 1114" width="31.903" height="4.122" rx="2.061" transform="translate(13177.721 2145)" fill="#b2b2b2" opacity="0.14"/>
        </g>
        <g id="Group_1561-4" data-name="Group 1561" transform="translate(-12820.109 -2031)">
          <rect id="Rectangle_1098-4" data-name="Rectangle 1098" width="16" height="16" rx="8" transform="translate(12820.109 2139)" fill="#b2b2b2" opacity="0.14"/>
          <rect id="Rectangle_1099-4" data-name="Rectangle 1099" width="31.903" height="4.122" rx="2.061" transform="translate(12864.721 2145)" fill="#b2b2b2" opacity="0.14"/>
          <rect id="Rectangle_1112-4" data-name="Rectangle 1112" width="31.903" height="4.122" rx="2.061" transform="translate(13022.721 2145)" fill="#b2b2b2" opacity="0.14"/>
          <rect id="Rectangle_1113-4" data-name="Rectangle 1113" width="31.903" height="4.122" rx="2.061" transform="translate(13100.721 2145)" fill="#b2b2b2" opacity="0.14"/>
          <rect id="Rectangle_1114-4" data-name="Rectangle 1114" width="31.903" height="4.122" rx="2.061" transform="translate(13177.721 2145)" fill="#b2b2b2" opacity="0.14"/>
        </g>
        <g id="Group_1561-5" data-name="Group 1561" transform="translate(-12820.109 -1995)">
          <rect id="Rectangle_1098-5" data-name="Rectangle 1098" width="16" height="16" rx="8" transform="translate(12820.109 2139)" fill="#b2b2b2" opacity="0.14"/>
          <rect id="Rectangle_1099-5" data-name="Rectangle 1099" width="31.903" height="4.122" rx="2.061" transform="translate(12864.721 2145)" fill="#b2b2b2" opacity="0.14"/>
          <rect id="Rectangle_1112-5" data-name="Rectangle 1112" width="31.903" height="4.122" rx="2.061" transform="translate(13022.721 2145)" fill="#b2b2b2" opacity="0.14"/>
          <rect id="Rectangle_1113-5" data-name="Rectangle 1113" width="31.903" height="4.122" rx="2.061" transform="translate(13100.721 2145)" fill="#b2b2b2" opacity="0.14"/>
          <rect id="Rectangle_1114-5" data-name="Rectangle 1114" width="31.903" height="4.122" rx="2.061" transform="translate(13177.721 2145)" fill="#b2b2b2" opacity="0.14"/>
        </g>
        <g id="Group_1561-6" data-name="Group 1561" transform="translate(-12820.109 -1959)">
          <rect id="Rectangle_1098-6" data-name="Rectangle 1098" width="16" height="16" rx="8" transform="translate(12820.109 2139)" fill="#b2b2b2" opacity="0.14"/>
          <rect id="Rectangle_1099-6" data-name="Rectangle 1099" width="31.903" height="4.122" rx="2.061" transform="translate(12864.721 2145)" fill="#b2b2b2" opacity="0.14"/>
          <rect id="Rectangle_1112-6" data-name="Rectangle 1112" width="31.903" height="4.122" rx="2.061" transform="translate(13022.721 2145)" fill="#b2b2b2" opacity="0.14"/>
          <rect id="Rectangle_1113-6" data-name="Rectangle 1113" width="31.903" height="4.122" rx="2.061" transform="translate(13100.721 2145)" fill="#b2b2b2" opacity="0.14"/>
          <rect id="Rectangle_1114-6" data-name="Rectangle 1114" width="31.903" height="4.122" rx="2.061" transform="translate(13177.721 2145)" fill="#b2b2b2" opacity="0.14"/>
        </g>
      </g>
      <rect id="Rectangle_1107" data-name="Rectangle 1107" width="37.903" height="8.122" rx="4.061" transform="translate(12818 3380)" fill="#b2b2b2" opacity="0.2"/>
      <rect id="Rectangle_1131" data-name="Rectangle 1131" width="52.903" height="8.122" rx="4.061" transform="translate(12767.029 3314)" fill="#b2b2b2" opacity="0.2"/>
      <rect id="Rectangle_1108" data-name="Rectangle 1108" width="37.903" height="8.122" rx="4.061" transform="translate(12975 3380)" fill="#b2b2b2" opacity="0.2"/>
      <rect id="Rectangle_1110" data-name="Rectangle 1110" width="37.903" height="8.122" rx="4.061" transform="translate(13053.029 3380)" fill="#b2b2b2" opacity="0.2"/>
      <rect id="Rectangle_1109" data-name="Rectangle 1109" width="37.903" height="8.122" rx="4.061" transform="translate(13130.029 3380)" fill="#b2b2b2" opacity="0.2"/>
      <path id="Path_3517" data-name="Path 3517" d="M-17891,331.158h388.506" transform="translate(30669.752 3096.043)" fill="none" stroke="#e6e7e8" stroke-width="1" opacity="0.39"/>
      <path id="Path_3518" data-name="Path 3518" d="M-17891,331.158h388.506" transform="translate(30669.752 3174.702)" fill="none" stroke="#e6e7e8" stroke-width="1" opacity="0.39"/>
      <path id="Path_3522" data-name="Path 3522" d="M-17891,331.158h388.506" transform="translate(30669.752 3138.361)" fill="none" stroke="#e6e7e8" stroke-width="1" opacity="0.39"/>
      <text id="My_Job_Process" data-name="My Job Process" transform="translate(12767.029 3305)" font-size="8.5" font-family="Montserrat-Bold, Montserrat" font-weight="700"><tspan x="0" y="0">My Job Process</tspan></text>
      <text id="Perspectico_Score" data-name="Perspectico Score" transform="translate(12880 3386)" font-size="7.5" font-family="Montserrat-Bold, Montserrat" font-weight="700"><tspan x="0" y="0">Perspectico Score</tspan></text>
      <path id="Path_3523" data-name="Path 3523" d="M-17891,331.158h388.506" transform="translate(30669.752 3207.043)" fill="none" stroke="#e6e7e8" stroke-width="1" opacity="0.39"/>
      <g id="Group_1570" data-name="Group 1570" transform="translate(-1446.347 328.801)">
        <path id="Intersection_14" data-name="Intersection 14" d="M0,25.935V0C5.595,10.738,10.7,24.03,24.979,25.935Z" transform="translate(14565.086 2992.807)" fill="#04d2c8" opacity="0.64"/>
        <path id="Subtraction_13" data-name="Subtraction 13" d="M43.794,40.372h0L0,40.333v-21.3l.126-.158c3.6-4.52,7.328-9.194,11.56-12.795a28.314,28.314,0,0,1,6.734-4.392,19.715,19.715,0,0,1,3.7-1.247A17.852,17.852,0,0,1,26.062,0a19.368,19.368,0,0,1,4.9.651,12.714,12.714,0,0,1,4.012,1.861,17.517,17.517,0,0,1,3.343,3.08,46.794,46.794,0,0,1,5.479,8.657V40.372Z" transform="translate(14521.292 2978.276)" fill="#04d2c8" opacity="0.17"/>
        <path id="Intersection_15" data-name="Intersection 15" d="M0,21.147c4.291-.711,27.028-4.876,35.771-14.639C37.54,4.533,39.324,2.3,41.158,0V21.147Z" transform="translate(14480.134 2997.595)" fill="#04d2c8" opacity="0.17"/>
        <path id="Path_3525" data-name="Path 3525" d="M-4713.993-10815.48h-115.66" transform="translate(19304 13834.229)" fill="none" stroke="#e6e7e8" stroke-width="1"/>
        <g id="Group_1569" data-name="Group 1569" transform="translate(14563.931 3017.471)">
          <path id="Path_2307" data-name="Path 2307" d="M-4805.451-10815.48h-24.2" transform="translate(4830.914 10816.758)" fill="none" stroke="#04d2c8" stroke-width="1"/>
          <g id="Ellipse_149" data-name="Ellipse 149" transform="translate(24.733 0)" fill="#fff" stroke="#04d2c8" stroke-width="1">
            <circle cx="1.13" cy="1.13" r="1.13" stroke="none"/>
            <circle cx="1.13" cy="1.13" r="0.63" fill="none"/>
          </g>
          <g id="Ellipse_150" data-name="Ellipse 150" transform="translate(0 0)" fill="#fff" stroke="#04d2c8" stroke-width="1">
            <circle cx="1.13" cy="1.13" r="1.13" stroke="none"/>
            <circle cx="1.13" cy="1.13" r="0.63" fill="none"/>
          </g>
        </g>
      </g>
      <g id="Group_1571" data-name="Group 1571" transform="translate(12712 3159)">
        <path id="Path_2311" data-name="Path 2311" d="M-11691.294-19308.605h215.724" transform="translate(11751.156 19489.102)" fill="none"/>
        <path id="Path_2312" data-name="Path 2312" d="M-11691.3-19308.605h210.8" transform="translate(11751.157 19489.102)" fill="none" stroke="#04d2c8" stroke-linecap="round" stroke-width="2"/>
        <g id="Ellipse_152" data-name="Ellipse 152" transform="translate(98 175)" fill="#fff" stroke="#04d2c8" stroke-width="3">
          <circle cx="5.5" cy="5.5" r="5.5" stroke="none"/>
          <circle cx="5.5" cy="5.5" r="4" fill="none"/>
        </g>
        <g transform="matrix(1, 0, 0, 1, -141, 17)" filter="url(#Path_3528)">
          <g id="Path_3528-2" data-name="Path 3528" transform="translate(196 158)" fill="#fff">
            <path d="M 5.5 9.5 C 3.294389963150024 9.5 1.5 7.705609798431396 1.5 5.5 C 1.5 3.294389963150024 3.294389963150024 1.5 5.5 1.5 C 7.705609798431396 1.5 9.5 3.294389963150024 9.5 5.5 C 9.5 7.705609798431396 7.705609798431396 9.5 5.5 9.5 Z" stroke="none"/>
            <path d="M 5.5 3 C 4.121500015258789 3 3 4.121500015258789 3 5.5 C 3 6.878499984741211 4.121500015258789 8 5.5 8 C 6.878499984741211 8 8 6.878499984741211 8 5.5 C 8 4.121500015258789 6.878499984741211 3 5.5 3 M 5.5 0 C 8.537569999694824 0 11 2.462430000305176 11 5.5 C 11 8.537569999694824 8.537569999694824 11 5.5 11 C 2.462430000305176 11 0 8.537569999694824 0 5.5 C 0 2.462430000305176 2.462430000305176 0 5.5 0 Z" stroke="none" fill="#04d2c8"/>
          </g>
        </g>
        <g id="Ellipse_153" data-name="Ellipse 153" transform="translate(140 175)" fill="#fff" stroke="#04d2c8" stroke-width="3">
          <circle cx="5.5" cy="5.5" r="5.5" stroke="none"/>
          <circle cx="5.5" cy="5.5" r="4" fill="none"/>
        </g>
        <g id="Ellipse_155" data-name="Ellipse 155" transform="translate(183 175)" fill="#fff" stroke="#e6e7e8" stroke-width="2">
          <circle cx="5.5" cy="5.5" r="5.5" stroke="none"/>
          <circle cx="5.5" cy="5.5" r="4.5" fill="none"/>
        </g>
        <g id="Ellipse_156" data-name="Ellipse 156" transform="translate(226 175)" fill="#fff" stroke="#e6e7e8" stroke-width="2">
          <circle cx="5.5" cy="5.5" r="5.5" stroke="none"/>
          <circle cx="5.5" cy="5.5" r="4.5" fill="none"/>
        </g>
        <g id="Ellipse_157" data-name="Ellipse 157" transform="translate(269 175)" fill="#fff" stroke="#e6e7e8" stroke-width="2">
          <circle cx="5.5" cy="5.5" r="5.5" stroke="none"/>
          <circle cx="5.5" cy="5.5" r="4.5" fill="none"/>
        </g>
        <g id="Ellipse_159" data-name="Ellipse 159" transform="translate(183 175)" fill="#fff" stroke="#04d2c8" stroke-width="3">
          <circle cx="5.5" cy="5.5" r="5.5" stroke="none"/>
          <circle cx="5.5" cy="5.5" r="4" fill="none"/>
        </g>
        <g id="Ellipse_160" data-name="Ellipse 160" transform="translate(226 175)" fill="#fff" stroke="#04d2c8" stroke-width="3">
          <circle cx="5.5" cy="5.5" r="5.5" stroke="none"/>
          <circle cx="5.5" cy="5.5" r="4" fill="none"/>
        </g>
        <g id="Ellipse_161" data-name="Ellipse 161" transform="translate(269 175)" fill="#fff" stroke="#04d2c8" stroke-width="3">
          <circle cx="5.5" cy="5.5" r="5.5" stroke="none"/>
          <circle cx="5.5" cy="5.5" r="4" fill="none"/>
        </g>
      </g>
      <g id="Group_1573" data-name="Group 1573" transform="translate(-1965)">
        <text id="_67" data-name="67" transform="translate(14852 3416.258)" fill="#04d2c8" font-size="10" font-family="Lato-Bold, Lato" font-weight="700"><tspan x="0" y="0">92</tspan></text>
        <g id="Group_1572" data-name="Group 1572" transform="translate(-6.682 -1.596)">
          <path id="Path_3529" data-name="Path 3529" d="M2362.156,427.758h41.859" transform="translate(12512.627 2986.096)" fill="none" stroke="#dbdbdb" stroke-linecap="round" stroke-width="3"/>
          <path id="Path_3530" data-name="Path 3530" d="M2362.156,427.758H2399.7" transform="translate(12512.627 2986.096)" fill="none" stroke="#04d2c8" stroke-linecap="round" stroke-width="3"/>
        </g>
      </g>
      <g id="Group_1574" data-name="Group 1574" transform="translate(-1965 35)">
        <text id="_67-2" data-name="67" transform="translate(14852 3416.258)" fill="#04d2c8" font-size="10" font-family="Lato-Bold, Lato" font-weight="700"><tspan x="0" y="0">50</tspan></text>
        <g id="Group_1572-2" data-name="Group 1572" transform="translate(-6.682 -1.596)">
          <path id="Path_3529-2" data-name="Path 3529" d="M2362.156,427.758h41.859" transform="translate(12512.627 2986.096)" fill="none" stroke="#dbdbdb" stroke-linecap="round" stroke-width="3"/>
          <path id="Path_3530-2" data-name="Path 3530" d="M2362.156,427.758h20.031" transform="translate(12512.627 2986.096)" fill="none" stroke="#04d2c8" stroke-linecap="round" stroke-width="3"/>
        </g>
      </g>
      <g id="Group_1575" data-name="Group 1575" transform="translate(-1965 72)">
        <text id="_67-3" data-name="67" transform="translate(14852 3416.258)" fill="#04d2c8" font-size="10" font-family="Lato-Bold, Lato" font-weight="700"><tspan x="0" y="0">75</tspan></text>
        <g id="Group_1572-3" data-name="Group 1572" transform="translate(-6.682 -1.596)">
          <path id="Path_3529-3" data-name="Path 3529" d="M2362.156,427.758h41.859" transform="translate(12512.627 2986.096)" fill="none" stroke="#dbdbdb" stroke-linecap="round" stroke-width="3"/>
          <path id="Path_3530-3" data-name="Path 3530" d="M2362.156,427.758h26.311" transform="translate(12512.627 2986.096)" fill="none" stroke="#04d2c8" stroke-linecap="round" stroke-width="3"/>
        </g>
      </g>
      <g id="Group_1576" data-name="Group 1576" transform="translate(-1965 109)">
        <text id="_67-4" data-name="67" transform="translate(14852 3416.258)" fill="#04d2c8" font-size="10" font-family="Lato-Bold, Lato" font-weight="700"><tspan x="0" y="0">80</tspan></text>
        <g id="Group_1572-4" data-name="Group 1572" transform="translate(-6.682 -1.596)">
          <path id="Path_3529-4" data-name="Path 3529" d="M2362.156,427.758h41.859" transform="translate(12512.627 2986.096)" fill="none" stroke="#dbdbdb" stroke-linecap="round" stroke-width="3"/>
          <path id="Path_3530-4" data-name="Path 3530" d="M2362.156,427.758h28.727" transform="translate(12512.627 2986.096)" fill="none" stroke="#04d2c8" stroke-linecap="round" stroke-width="3"/>
        </g>
      </g>
      <g id="Group_1577" data-name="Group 1577" transform="translate(-1965 143)">
        <text id="_67-5" data-name="67" transform="translate(14852 3416.258)" fill="#04d2c8" font-size="10" font-family="Lato-Bold, Lato" font-weight="700"><tspan x="0" y="0">92</tspan></text>
        <g id="Group_1572-5" data-name="Group 1572" transform="translate(-6.682 -1.596)">
          <path id="Path_3529-5" data-name="Path 3529" d="M2362.156,427.758h41.859" transform="translate(12512.627 2986.096)" fill="none" stroke="#dbdbdb" stroke-linecap="round" stroke-width="3"/>
          <path id="Path_3530-5" data-name="Path 3530" d="M2362.156,427.758H2399.7" transform="translate(12512.627 2986.096)" fill="none" stroke="#04d2c8" stroke-linecap="round" stroke-width="3"/>
        </g>
      </g>
      <g id="Group_1578" data-name="Group 1578" transform="translate(-1965 180)">
        <text id="_67-6" data-name="67" transform="translate(14852 3416.258)" fill="#04d2c8" font-size="10" font-family="Lato-Bold, Lato" font-weight="700"><tspan x="0" y="0">65</tspan></text>
        <g id="Group_1572-6" data-name="Group 1572" transform="translate(-6.682 -1.596)">
          <path id="Path_3529-6" data-name="Path 3529" d="M2362.156,427.758h41.859" transform="translate(12512.627 2986.096)" fill="none" stroke="#dbdbdb" stroke-linecap="round" stroke-width="3"/>
          <path id="Path_3530-6" data-name="Path 3530" d="M2362.156,427.758h24.554" transform="translate(12512.627 2986.096)" fill="none" stroke="#04d2c8" stroke-linecap="round" stroke-width="3"/>
        </g>
      </g>
    </g>
  </g>
</svg>
