<svg xmlns="http://www.w3.org/2000/svg" xmlns:xlink="http://www.w3.org/1999/xlink" width="748.761" height="525.271" viewBox="0 0 748.761 525.271">
  <defs>
    <filter id="Rectangle_581" x="121" y="43.996" width="622.747" height="406.788" filterUnits="userSpaceOnUse">
      <feOffset input="SourceAlpha"/>
      <feGaussianBlur stdDeviation="10" result="blur"/>
      <feFlood flood-opacity="0.251"/>
      <feComposite operator="in" in2="blur"/>
      <feComposite in="SourceGraphic"/>
    </filter>
    <filter id="Rectangle_1126" x="462.118" y="137.405" width="286.643" height="355.363" filterUnits="userSpaceOnUse">
      <feOffset dy="1" input="SourceAlpha"/>
      <feGaussianBlur stdDeviation="7.5" result="blur-2"/>
      <feFlood flood-opacity="0.102"/>
      <feComposite operator="in" in2="blur-2"/>
      <feComposite in="SourceGraphic"/>
    </filter>
  </defs>
  <g id="Group_1646" data-name="Group 1646" transform="translate(-986 -2407)">
    <g id="Group_1568" data-name="Group 1568" transform="translate(-13406 -109)">
      <path id="Path_3418" data-name="Path 3418" d="M147.388,0,86.017,119.7H98.406v97.614H35.97L0,287.475,445.691,515.981,593.08,228.506Z" transform="translate(14392 2516)" fill="#f2f2f2" opacity="0.7"/>
      <ellipse id="Ellipse_388" data-name="Ellipse 388" cx="11.04" cy="11.04" rx="11.04" ry="11.04" transform="translate(14922.275 2976.228)" fill="#2dbfbd" opacity="0.4"/>
      <ellipse id="Ellipse_389" data-name="Ellipse 389" cx="14.526" cy="14.526" rx="14.526" ry="14.526" transform="translate(14876.215 3012.219)" fill="#2dbfbd" opacity="0.4"/>
      <rect id="Rectangle_927" data-name="Rectangle 927" width="74.373" height="74.373" transform="translate(14406.736 2649.649)" fill="#316f98" opacity="0.5"/>
      <ellipse id="Ellipse_387" data-name="Ellipse 387" cx="27.309" cy="27.309" rx="27.309" ry="27.309" transform="translate(15073.608 2571.45)" fill="#2dbfbd" opacity="0.4"/>
      <g transform="matrix(1, 0, 0, 1, 14392, 2516)" filter="url(#Rectangle_581)">
        <rect id="Rectangle_581-2" data-name="Rectangle 581" width="562.747" height="346.788" rx="4" transform="translate(151 74)" fill="#edf9f9"/>
      </g>
      <path id="Rectangle_582" data-name="Rectangle 582" d="M4,0H135.31a0,0,0,0,1,0,0V346.788a0,0,0,0,1,0,0H4a4,4,0,0,1-4-4V4A4,4,0,0,1,4,0Z" transform="translate(14543 2589.996)" fill="#444584"/>
      <rect id="Rectangle_588" data-name="Rectangle 588" width="89.609" height="8.065" rx="4.032" transform="translate(14560.307 2650.034)" fill="#b2b2b2" opacity="0.21"/>
      <rect id="Rectangle_1118" data-name="Rectangle 1118" width="414.432" height="307.895" rx="4" transform="translate(14686.618 2628.905)" fill="#fff"/>
      <rect id="Rectangle_591" data-name="Rectangle 591" width="33.155" height="10.753" rx="5.377" transform="translate(14560.307 2606.126)" fill="#b2b2b2" opacity="0.21"/>
      <rect id="Rectangle_589" data-name="Rectangle 589" width="66.311" height="8.065" rx="4.032" transform="translate(14560.307 2669.748)" fill="#b2b2b2" opacity="0.21"/>
      <rect id="Rectangle_590" data-name="Rectangle 590" width="86.921" height="8.065" rx="4.032" transform="translate(14560.307 2687.67)" fill="#b2b2b2" opacity="0.21"/>
      <g id="Rectangle_583" data-name="Rectangle 583" transform="translate(14695.618 2652.905)" fill="#fff" stroke="rgba(225,225,225,0.43)" stroke-width="1" opacity="0.77">
        <rect width="164.432" height="276.895" rx="4" stroke="none"/>
        <rect x="0.5" y="0.5" width="163.432" height="275.895" rx="3.5" fill="none"/>
      </g>
      <rect id="Rectangle_592" data-name="Rectangle 592" width="38.532" height="8.065" rx="4.032" transform="translate(14702.417 2686.536)" fill="#e9e9e9" opacity="0.99"/>
      <rect id="Rectangle_824" data-name="Rectangle 824" width="60.377" height="8.065" rx="4.032" transform="translate(14702 2700.452)" fill="#e9e9e9" opacity="0.6"/>
      <rect id="Rectangle_1121" data-name="Rectangle 1121" width="150.377" height="8.065" rx="4.032" transform="translate(14702 2745.452)" fill="#e9e9e9" opacity="0.6"/>
      <rect id="Rectangle_1122" data-name="Rectangle 1122" width="150.377" height="8.065" rx="4.032" transform="translate(14702 2759.452)" fill="#e9e9e9" opacity="0.6"/>
      <rect id="Rectangle_1123" data-name="Rectangle 1123" width="101.377" height="8.065" rx="4.032" transform="translate(14702 2773.452)" fill="#e9e9e9" opacity="0.6"/>
      <g id="Rectangle_1116" data-name="Rectangle 1116" transform="translate(14877 2653)" fill="#fff" stroke="rgba(112,112,112,0.1)" stroke-width="1">
        <rect width="60.377" height="14.436" rx="2" stroke="none"/>
        <rect x="0.5" y="0.5" width="59.377" height="13.436" rx="1.5" fill="none"/>
      </g>
      <g id="Rectangle_1119" data-name="Rectangle 1119" transform="translate(14949 2653)" fill="#fff" stroke="rgba(112,112,112,0.1)" stroke-width="1">
        <rect width="60.377" height="14.436" rx="2" stroke="none"/>
        <rect x="0.5" y="0.5" width="59.377" height="13.436" rx="1.5" fill="none"/>
      </g>
      <g id="Rectangle_1120" data-name="Rectangle 1120" transform="translate(15021 2653)" fill="#fff" stroke="rgba(112,112,112,0.1)" stroke-width="1">
        <rect width="60.377" height="14.436" rx="2" stroke="none"/>
        <rect x="0.5" y="0.5" width="59.377" height="13.436" rx="1.5" fill="none"/>
      </g>
      <g id="Group_1567" data-name="Group 1567" transform="translate(5)">
        <g transform="matrix(1, 0, 0, 1, 14387, 2516)" filter="url(#Rectangle_1126)">
          <g id="Rectangle_1126-2" data-name="Rectangle 1126" transform="translate(484.62 158.9)" fill="#fff" stroke="rgba(225,225,225,0.43)" stroke-width="1">
            <rect width="241.643" height="310.363" rx="4" stroke="none"/>
            <rect x="0.5" y="0.5" width="240.643" height="309.363" rx="3.5" fill="none"/>
          </g>
        </g>
        <g id="Group_1563" data-name="Group 1563" transform="translate(14891.81 2712.685)" opacity="0.7">
          <rect id="Rectangle_595" data-name="Rectangle 595" width="43.625" height="6.866" rx="3.433" transform="translate(69.701 4.187)" fill="#04d2c8" opacity="0.55"/>
          <rect id="Rectangle_844" data-name="Rectangle 844" width="43.625" height="6.866" rx="3.433" transform="translate(0 23.298)" fill="#e6e7e8" opacity="0.87"/>
          <rect id="Rectangle_832" data-name="Rectangle 832" width="133.216" height="6.866" rx="3.433" transform="translate(69.757 23.271)" fill="#0fbde9" opacity="0.14"/>
          <rect id="Rectangle_1124" data-name="Rectangle 1124" width="133.216" height="6.866" rx="3.433" transform="translate(69.757 36.857)" fill="#0fbde9" opacity="0.14"/>
          <rect id="Rectangle_1125" data-name="Rectangle 1125" width="66.417" height="6.866" rx="3.433" transform="translate(69.757 50.443)" fill="#0fbde9" opacity="0.14"/>
          <circle id="Ellipse_314" data-name="Ellipse 314" cx="8.994" cy="8.994" r="8.994" transform="translate(0.338)" fill="#238ca5" opacity="0.4"/>
        </g>
        <g id="Group_1564" data-name="Group 1564" transform="translate(14891.81 2784.859)" opacity="0.7">
          <rect id="Rectangle_595-2" data-name="Rectangle 595" width="43.625" height="6.866" rx="3.433" transform="translate(69.701 4.187)" fill="#04d2c8" opacity="0.55"/>
          <rect id="Rectangle_844-2" data-name="Rectangle 844" width="43.625" height="6.866" rx="3.433" transform="translate(0 23.298)" fill="#e6e7e8" opacity="0.87"/>
          <rect id="Rectangle_832-2" data-name="Rectangle 832" width="133.216" height="6.866" rx="3.433" transform="translate(69.757 23.271)" fill="#0fbde9" opacity="0.14"/>
          <rect id="Rectangle_1124-2" data-name="Rectangle 1124" width="133.216" height="6.866" rx="3.433" transform="translate(69.757 36.857)" fill="#0fbde9" opacity="0.14"/>
          <rect id="Rectangle_1125-2" data-name="Rectangle 1125" width="92.457" height="6.866" rx="3.433" transform="translate(69.757 50.443)" fill="#0fbde9" opacity="0.14"/>
          <circle id="Ellipse_314-2" data-name="Ellipse 314" cx="8.994" cy="8.994" r="8.994" transform="translate(0.338)" fill="#238ca5" opacity="0.44"/>
        </g>
        <g id="Group_1565" data-name="Group 1565" transform="translate(14891.81 2857.032)" opacity="0.7">
          <rect id="Rectangle_595-3" data-name="Rectangle 595" width="43.625" height="6.866" rx="3.433" transform="translate(69.701 4.187)" fill="#04d2c8" opacity="0.55"/>
          <rect id="Rectangle_844-3" data-name="Rectangle 844" width="43.625" height="6.866" rx="3.433" transform="translate(0 23.298)" fill="#e6e7e8" opacity="0.87"/>
          <rect id="Rectangle_832-3" data-name="Rectangle 832" width="133.216" height="6.866" rx="3.433" transform="translate(69.757 23.271)" fill="#0fbde9" opacity="0.14"/>
          <rect id="Rectangle_1124-3" data-name="Rectangle 1124" width="133.216" height="6.866" rx="3.433" transform="translate(69.757 36.857)" fill="#0fbde9" opacity="0.14"/>
          <rect id="Rectangle_1125-3" data-name="Rectangle 1125" width="92.457" height="6.866" rx="3.433" transform="translate(69.757 50.443)" fill="#0fbde9" opacity="0.14"/>
          <circle id="Ellipse_314-3" data-name="Ellipse 314" cx="8.994" cy="8.994" r="8.994" transform="translate(0.338)" fill="#238ca5" opacity="0.44"/>
        </g>
        <g id="Group_1566" data-name="Group 1566" transform="translate(14891.81 2930.24)" opacity="0.7">
          <rect id="Rectangle_595-4" data-name="Rectangle 595" width="43.625" height="6.866" rx="3.433" transform="translate(69.701 4.187)" fill="#04d2c8" opacity="0.55"/>
          <rect id="Rectangle_844-4" data-name="Rectangle 844" width="43.625" height="6.866" rx="3.433" transform="translate(0 23.298)" fill="#e6e7e8" opacity="0.87"/>
          <rect id="Rectangle_832-4" data-name="Rectangle 832" width="133.216" height="6.866" rx="3.433" transform="translate(69.757 23.271)" fill="#0fbde9" opacity="0.14"/>
          <rect id="Rectangle_1124-4" data-name="Rectangle 1124" width="133.216" height="6.866" rx="3.433" transform="translate(69.757 36.857)" fill="#0fbde9" opacity="0.14"/>
          <circle id="Ellipse_314-4" data-name="Ellipse 314" cx="8.994" cy="8.994" r="8.994" transform="translate(0.338)" fill="#238ca5" opacity="0.44"/>
        </g>
        <text id="Share_with_colleges" data-name="Share with colleges" transform="translate(14872 2646)" font-size="7.5" font-family="Montserrat-Bold, Montserrat" font-weight="700" opacity="0.8"><tspan x="0" y="0">Share with colleges</tspan></text>
      </g>
      <circle id="Ellipse_444" data-name="Ellipse 444" cx="7.944" cy="7.944" r="7.944" transform="translate(15081.751 2606.427)" opacity="0.5"/>
      <circle id="Ellipse_445" data-name="Ellipse 445" cx="7.944" cy="7.944" r="7.944" transform="translate(14702.751 2664.427)" opacity="0.5"/>
      <text id="Nikhil_Chainani" data-name="Nikhil Chainani" transform="translate(15015 2617)" font-size="7.5" font-family="Montserrat-Bold, Montserrat" font-weight="700" opacity="0.8"><tspan x="0" y="0">Nikhil Chainani</tspan></text>
      <text id="Your_Job" data-name="Your Job" transform="translate(14696 2646)" font-size="7.5" font-family="Montserrat-Bold, Montserrat" font-weight="700" opacity="0.8"><tspan x="0" y="0">Your Job</tspan></text>
      <text id="List_of_colleges" data-name="List of colleges" transform="translate(14896 2695)" font-size="7.5" font-family="Montserrat-Bold, Montserrat" font-weight="700" opacity="0.8"><tspan x="0" y="0">List of colleges</tspan></text>
      <text id="_" data-name="

" transform="translate(14896 2548)" font-size="7.5" font-family="Montserrat-Bold, Montserrat" font-weight="700"><tspan x="0" y="0"></tspan><tspan x="0" y="9"></tspan><tspan x="0" y="18"></tspan></text>
    </g>
  </g>
</svg>
