<svg xmlns="http://www.w3.org/2000/svg" width="401.863" height="426.822" viewBox="0 0 401.863 426.822">
  <g id="Experience" transform="translate(4555.301 -1501.97)">
    <path id="Path_3048" data-name="Path 3048" d="M-22193.3,6180.376h339.863" transform="translate(17700 -4580.03)" fill="none" stroke="#707070" stroke-width="1" opacity="0.1"/>
    <path id="Path_3709" data-name="Path 3709" d="M-22193.3,6180.376h339.863" transform="translate(17700 -4466.03)" fill="none" stroke="#707070" stroke-width="1" opacity="0.1"/>
    <path id="Path_3710" data-name="Path 3710" d="M-22193.3,6180.376h339.863" transform="translate(17700 -4350.03)" fill="none" stroke="#707070" stroke-width="1" opacity="0.1"/>
    <g id="Group_1636" data-name="Group 1636">
      <rect id="Rectangle_844" data-name="Rectangle 844" width="38.806" height="8.122" rx="4.061" transform="translate(-4555.301 1522.694)" fill="#e6e7e8" opacity="0.87"/>
      <rect id="Rectangle_832" data-name="Rectangle 832" width="175.903" height="8.122" rx="4.061" transform="translate(-4493 1522.67)" fill="#0fbde9" opacity="0.14"/>
      <rect id="Rectangle_838" data-name="Rectangle 838" width="220.903" height="8.122" rx="4.061" transform="translate(-4493.25 1572.67)" fill="#0fbde9" opacity="0.14"/>
      <rect id="Rectangle_833" data-name="Rectangle 833" width="112.903" height="8.122" rx="4.061" transform="translate(-4493.25 1536.67)" fill="#0fbde9" opacity="0.14"/>
      <rect id="Rectangle_837" data-name="Rectangle 837" width="112.903" height="8.122" rx="4.061" transform="translate(-4493.25 1558.67)" fill="#0fbde9" opacity="0.14"/>
      <circle id="Ellipse_314" data-name="Ellipse 314" cx="8" cy="8" r="8" transform="translate(-4555 1501.97)" fill="#238ca5"/>
      <text id="Education" transform="translate(-4493 1512)" font-size="7" font-family="Montserrat-SemiBold, Montserrat" font-weight="600" opacity="0.8"><tspan x="0" y="0">Education</tspan></text>
    </g>
    <g id="Group_1637" data-name="Group 1637">
      <rect id="Rectangle_845" data-name="Rectangle 845" width="38.806" height="8.122" rx="4.061" transform="translate(-4555.301 1639.694)" fill="#e6e7e8" opacity="0.87"/>
      <rect id="Rectangle_847" data-name="Rectangle 847" width="175.903" height="8.122" rx="4.061" transform="translate(-4493.25 1639.67)" fill="#0fbde9" opacity="0.14"/>
      <rect id="Rectangle_850" data-name="Rectangle 850" width="220.903" height="8.122" rx="4.061" transform="translate(-4493.25 1689.67)" fill="#0fbde9" opacity="0.14"/>
      <rect id="Rectangle_848" data-name="Rectangle 848" width="112.903" height="8.122" rx="4.061" transform="translate(-4493.25 1653.67)" fill="#0fbde9" opacity="0.14"/>
      <rect id="Rectangle_849" data-name="Rectangle 849" width="112.903" height="8.122" rx="4.061" transform="translate(-4493.25 1675.67)" fill="#0fbde9" opacity="0.14"/>
      <circle id="Ellipse_315" data-name="Ellipse 315" cx="8" cy="8" r="8" transform="translate(-4555 1618.97)" fill="#238ca5"/>
      <text id="Work_Experience" data-name="Work Experience" transform="translate(-4493 1629)" font-size="7" font-family="Montserrat-SemiBold, Montserrat" font-weight="600" opacity="0.8"><tspan x="0" y="0">Work Experience</tspan></text>
    </g>
    <g id="Group_1638" data-name="Group 1638" transform="translate(0 114)">
      <rect id="Rectangle_845-2" data-name="Rectangle 845" width="38.806" height="8.122" rx="4.061" transform="translate(-4555.301 1639.694)" fill="#e6e7e8" opacity="0.87"/>
      <rect id="Rectangle_847-2" data-name="Rectangle 847" width="175.903" height="8.122" rx="4.061" transform="translate(-4493.25 1639.67)" fill="#0fbde9" opacity="0.14"/>
      <rect id="Rectangle_850-2" data-name="Rectangle 850" width="220.903" height="8.122" rx="4.061" transform="translate(-4493.25 1689.67)" fill="#0fbde9" opacity="0.14"/>
      <rect id="Rectangle_848-2" data-name="Rectangle 848" width="112.903" height="8.122" rx="4.061" transform="translate(-4493.25 1653.67)" fill="#0fbde9" opacity="0.14"/>
      <rect id="Rectangle_849-2" data-name="Rectangle 849" width="112.903" height="8.122" rx="4.061" transform="translate(-4493.25 1675.67)" fill="#0fbde9" opacity="0.14"/>
      <circle id="Ellipse_315-2" data-name="Ellipse 315" cx="8" cy="8" r="8" transform="translate(-4555 1618.97)" fill="#238ca5"/>
      <text id="Certification" transform="translate(-4493 1629)" font-size="7" font-family="Montserrat-SemiBold, Montserrat" font-weight="600" opacity="0.8"><tspan x="0" y="0">Certification</tspan></text>
    </g>
    <g id="Group_1639" data-name="Group 1639" transform="translate(0 231)">
      <rect id="Rectangle_845-3" data-name="Rectangle 845" width="38.806" height="8.122" rx="4.061" transform="translate(-4555.301 1639.694)" fill="#e6e7e8" opacity="0.87"/>
      <rect id="Rectangle_847-3" data-name="Rectangle 847" width="175.903" height="8.122" rx="4.061" transform="translate(-4493.25 1639.67)" fill="#0fbde9" opacity="0.14"/>
      <rect id="Rectangle_850-3" data-name="Rectangle 850" width="220.903" height="8.122" rx="4.061" transform="translate(-4493.25 1689.67)" fill="#0fbde9" opacity="0.14"/>
      <rect id="Rectangle_848-3" data-name="Rectangle 848" width="112.903" height="8.122" rx="4.061" transform="translate(-4493.25 1653.67)" fill="#0fbde9" opacity="0.14"/>
      <rect id="Rectangle_849-3" data-name="Rectangle 849" width="112.903" height="8.122" rx="4.061" transform="translate(-4493.25 1675.67)" fill="#0fbde9" opacity="0.14"/>
      <circle id="Ellipse_315-3" data-name="Ellipse 315" cx="8" cy="8" r="8" transform="translate(-4555 1618.97)" fill="#238ca5"/>
      <text id="Awards_" data-name="Awards " transform="translate(-4493 1629)" font-size="7" font-family="Montserrat-SemiBold, Montserrat" font-weight="600" opacity="0.8"><tspan x="0" y="0">Awards </tspan></text>
    </g>
  </g>
</svg>
