<svg xmlns="http://www.w3.org/2000/svg" xmlns:xlink="http://www.w3.org/1999/xlink" width="764.035" height="529" viewBox="0 0 764.035 529">
  <defs>
    <filter id="Path_3452" x="118" y="44.551" width="630.741" height="409.25" filterUnits="userSpaceOnUse">
      <feOffset input="SourceAlpha"/>
      <feGaussianBlur stdDeviation="10" result="blur"/>
      <feFlood flood-opacity="0.251"/>
      <feComposite operator="in" in2="blur"/>
      <feComposite in="SourceGraphic"/>
    </filter>
    <filter id="Rectangle_586" x="276.5" y="175.23" width="487.535" height="293.037" filterUnits="userSpaceOnUse">
      <feOffset dy="1" input="SourceAlpha"/>
      <feGaussianBlur stdDeviation="7.5" result="blur-2"/>
      <feFlood flood-opacity="0.102"/>
      <feComposite operator="in" in2="blur-2"/>
      <feComposite in="SourceGraphic"/>
    </filter>
  </defs>
  <g id="Group_1650" data-name="Group 1650" transform="translate(-986 -4662)">
    <path id="Path_3451" data-name="Path 3451" d="M148.435,0,86.627,120.554H99.1v98.307H36.225L0,289.516,448.855,519.644,597.29,230.128Z" transform="translate(986 4662)" fill="#f2f2f2" opacity="0.7"/>
    <ellipse id="Ellipse_422" data-name="Ellipse 422" cx="11.118" cy="11.118" rx="11.118" ry="11.118" transform="translate(1520.04 5125.495)" fill="#2dbfbd" opacity="0.4"/>
    <ellipse id="Ellipse_423" data-name="Ellipse 423" cx="14.629" cy="14.629" rx="14.629" ry="14.629" transform="translate(1473.652 5161.742)" fill="#2dbfbd" opacity="0.4"/>
    <rect id="Rectangle_1037" data-name="Rectangle 1037" width="74.901" height="74.901" transform="translate(1000.841 4796.598)" fill="#316f98" opacity="0.5"/>
    <ellipse id="Ellipse_424" data-name="Ellipse 424" cx="27.503" cy="27.503" rx="27.503" ry="27.503" transform="translate(1672.447 4717.844)" fill="#2dbfbd" opacity="0.4"/>
    <g transform="matrix(1, 0, 0, 1, 986, 4662)" filter="url(#Path_3452)">
      <path id="Path_3452-2" data-name="Path 3452" d="M4,0H566.741a4,4,0,0,1,4,4V345.25a4,4,0,0,1-4,4H4a4,4,0,0,1-4-4V4A4,4,0,0,1,4,0Z" transform="translate(148 74.55)" fill="#edf9f9"/>
    </g>
    <path id="Rectangle_1038" data-name="Rectangle 1038" d="M4,0H136.271a0,0,0,0,1,0,0V349.25a0,0,0,0,1,0,0H4a4,4,0,0,1-4-4V4A4,4,0,0,1,4,0Z" transform="translate(1134 4736.551)" fill="#444584"/>
    <rect id="Rectangle_1039" data-name="Rectangle 1039" width="129.953" height="70.391" rx="4" transform="translate(1287.772 4780.771)" fill="#fff" opacity="0.9"/>
    <rect id="Rectangle_1040" data-name="Rectangle 1040" width="129.953" height="70.391" rx="4" transform="translate(1424.043 4780.771)" fill="#fff" opacity="0.9"/>
    <rect id="Rectangle_1044" data-name="Rectangle 1044" width="129.953" height="70.391" rx="4" transform="translate(1560.314 4780.771)" fill="#fff" opacity="0.9"/>
    <rect id="Rectangle_1045" data-name="Rectangle 1045" width="90.245" height="8.122" rx="4.061" transform="translate(1151.502 4797.016)" fill="#b2b2b2" opacity="0.21"/>
    <rect id="Rectangle_1046" data-name="Rectangle 1046" width="33.391" height="10.829" rx="5.415" transform="translate(1151.502 4752.795)" fill="#b2b2b2" opacity="0.21"/>
    <rect id="Rectangle_1047" data-name="Rectangle 1047" width="66.782" height="8.122" rx="4.061" transform="translate(1151.502 4816.87)" fill="#b2b2b2" opacity="0.21"/>
    <rect id="Rectangle_1048" data-name="Rectangle 1048" width="87.538" height="8.122" rx="4.061" transform="translate(1151.502 4834.919)" fill="#b2b2b2" opacity="0.21"/>
    <path id="Path_3457" data-name="Path 3457" d="M-17891,331.158h107.779" transform="translate(19464.463 4746.07)" fill="none" stroke="#e6e7e8" stroke-width="1" opacity="0.39"/>
    <g id="Group_1541" data-name="Group 1541" transform="translate(-24 2115)" opacity="0.6">
      <text id="Profile" transform="translate(1332 2683)" font-size="8.5" font-family="Montserrat-Bold, Montserrat" font-weight="700"><tspan x="0" y="0">Profile</tspan></text>
      <text id="Process" transform="translate(1468 2683)" font-size="8.5" font-family="Montserrat-Bold, Montserrat" font-weight="700"><tspan x="0" y="0">Process</tspan></text>
      <text id="Database" transform="translate(1605 2683)" font-size="8.5" font-family="Montserrat-Bold, Montserrat" font-weight="700"><tspan x="0" y="0">Database</tspan></text>
    </g>
    <g transform="matrix(1, 0, 0, 1, 986, 4662)" filter="url(#Rectangle_586)">
      <rect id="Rectangle_586-2" data-name="Rectangle 586" width="442.535" height="248.037" rx="4" transform="translate(299 196.73)" fill="#fff"/>
    </g>
    <g id="Group_1618" data-name="Group 1618" transform="translate(180.442 118.332)">
      <g id="Icons" transform="translate(1459.559 4910.141)" opacity="0.7">
        <g id="Group_1617" data-name="Group 1617" transform="translate(0 0)">
          <path id="Path_3537" data-name="Path 3537" d="M14.648,24.64h-.013a.754.754,0,0,0-.742.766,15.253,15.253,0,0,0,.274,2.625.756.756,0,0,0,.74.61.842.842,0,0,0,.144-.013.755.755,0,0,0,.6-.884,13.6,13.6,0,0,1-.246-2.364A.754.754,0,0,0,14.648,24.64Z" transform="translate(-8.879 7.724)" fill="none"/>
          <path id="Path_3538" data-name="Path 3538" d="M20.133,19.14a15.369,15.369,0,0,0-2.983,2.772A15.531,15.531,0,0,0,14.137,27.8a.754.754,0,0,0,1.459.383A13.912,13.912,0,0,1,21,20.369a.753.753,0,1,0-.871-1.229Z" transform="translate(-8.625 1.205)" fill="none"/>
          <path id="Path_3539" data-name="Path 3539" d="M28.1,15.5l.345,1.33,2.216-1.207h.049V26.8h1.674V14H30.9Z" transform="translate(7.532 -4.574)" fill="none"/>
          <path id="Path_3540" data-name="Path 3540" d="M21.184,19.319a.749.749,0,0,0-1.051-.179,15.368,15.368,0,0,0-2.983,2.772A15.531,15.531,0,0,0,14.137,27.8a.754.754,0,0,0,1.459.383A13.912,13.912,0,0,1,21,20.369.753.753,0,0,0,21.184,19.319Z" transform="translate(-8.625 1.205)" fill="none"/>
          <path id="Path_3541" data-name="Path 3541" d="M14.648,24.64h-.013a.754.754,0,0,0-.742.766,15.253,15.253,0,0,0,.274,2.625.756.756,0,0,0,.74.61.842.842,0,0,0,.144-.013.755.755,0,0,0,.6-.884,13.6,13.6,0,0,1-.246-2.364A.754.754,0,0,0,14.648,24.64Z" transform="translate(-8.879 7.724)" fill="none"/>
          <path id="Path_3542" data-name="Path 3542" d="M28.1,15.5l.345,1.33,2.216-1.207h.049V26.8h1.674V14H30.9Z" transform="translate(7.532 -4.574)" fill="none"/>
          <path id="Path_3543" data-name="Path 3543" d="M47.914,9.625H27.234a5.492,5.492,0,0,0-5.486,5.485V35.79c0,3.949,2.462,5.485,5.486,5.485h20.68A5.492,5.492,0,0,0,53.4,35.79V15.11A5.492,5.492,0,0,0,47.914,9.625Zm-8.2,13.14v9.087H38.042V20.672h-.049l-2.216,1.207-.345-1.33,2.807-1.5h1.477Z" transform="translate(0.197 -9.625)" fill="#2dbfbd"/>
          <path id="Path_3544" data-name="Path 3544" d="M57.762,45.83a5.047,5.047,0,0,0-.992-1.553A4.851,4.851,0,0,0,55,43.144a12.253,12.253,0,0,1-4.787-5.767h-13c-2.71,0-5.829-2.519-5.829-5.228l.045-14.282-.076-.01a11.577,11.577,0,0,0-3.156-.021l-.05-.129a5.013,5.013,0,0,0-9.358,3.6l.042.108a18.263,18.263,0,0,0-6.044,21.121l2.852,7.447s0,.006,0,.009a13.654,13.654,0,0,1,.38,8.045,4.564,4.564,0,0,0-.369,3.993l.013.033A3.2,3.2,0,0,0,19.8,63.707L55.928,49.92a3.2,3.2,0,0,0,1.835-4.09ZM17.738,40.355a.842.842,0,0,1-.144.013.756.756,0,0,1-.74-.61,15.251,15.251,0,0,1-.274-2.625.754.754,0,0,1,.742-.766h.013a.754.754,0,0,1,.755.741,13.6,13.6,0,0,0,.246,2.364A.755.755,0,0,1,17.738,40.355Zm6.207-14.778a13.912,13.912,0,0,0-5.408,7.817.754.754,0,1,1-1.459-.383,15.531,15.531,0,0,1,3.013-5.891,15.369,15.369,0,0,1,2.983-2.772.753.753,0,1,1,.871,1.229Z" transform="translate(-11.566 -4.002)" fill="#2dbfbd"/>
          <path id="Path_3545" data-name="Path 3545" d="M30.082,34.857l-1.408.542L19.905,38.77l-1.425.548a5.974,5.974,0,0,0,7.4,2.72l.541-.208a5.981,5.981,0,0,0,3.318-3.14A5.87,5.87,0,0,0,30.082,34.857Z" transform="translate(-3.579 19.528)" fill="#2dbfbd"/>
        </g>
      </g>
      <text id="Get_Notification" data-name="Get Notification" transform="translate(1452.559 4896.668)" font-size="8" font-family="Montserrat-Bold, Montserrat" font-weight="700" opacity="0.8"><tspan x="0" y="0">Get Notification</tspan></text>
    </g>
    <path id="Path_2422" data-name="Path 2422" d="M-17891,331.158h387.949" transform="translate(19203.523 4562.342)" fill="none" stroke="#e6e7e8" stroke-width="1" opacity="0.4"/>
    <path id="Path_2423" data-name="Path 2423" d="M-17891,331.158h387.949" transform="translate(19203.523 4585.342)" fill="none" stroke="#e6e7e8" stroke-width="1" opacity="0.4"/>
    <path id="Path_2424" data-name="Path 2424" d="M-17891,331.158h387.949" transform="translate(19203.523 4608.342)" fill="none" stroke="#e6e7e8" stroke-width="1" opacity="0.4"/>
    <path id="Path_2424-2" data-name="Path 2424" d="M-17891,331.158h387.949" transform="translate(19203.5 4631.342)" fill="none" stroke="#e6e7e8" stroke-width="1" opacity="0.4"/>
    <path id="Path_2424-3" data-name="Path 2424" d="M-17891,331.158h387.949" transform="translate(19203.5 4654.342)" fill="none" stroke="#e6e7e8" stroke-width="1" opacity="0.4"/>
    <path id="Path_2424-4" data-name="Path 2424" d="M-17891,331.158h294.5" transform="translate(19203.5 4677.342)" fill="none" stroke="#e6e7e8" stroke-width="1" opacity="0.4"/>
    <path id="Path_2424-5" data-name="Path 2424" d="M-17891,331.158h294.5" transform="translate(19203.5 4700.342)" fill="none" stroke="#e6e7e8" stroke-width="1" opacity="0.4"/>
    <path id="Path_2424-6" data-name="Path 2424" d="M-17891,331.158h294.5" transform="translate(19203.5 4723.342)" fill="none" stroke="#e6e7e8" stroke-width="1" opacity="0.4"/>
    <path id="Path_2424-7" data-name="Path 2424" d="M-17891,331.158h294.5" transform="translate(19203.5 4746.342)" fill="none" stroke="#e6e7e8" stroke-width="1" opacity="0.4"/>
    <rect id="Rectangle_1163" data-name="Rectangle 1163" width="29" height="6" rx="3" transform="translate(1354 4876)" fill="#f6f6f6" opacity="0.7"/>
    <rect id="Rectangle_1164" data-name="Rectangle 1164" width="16" height="6" rx="3" transform="translate(1315 4876)" fill="#f6f6f6" opacity="0.7"/>
    <rect id="Rectangle_1165" data-name="Rectangle 1165" width="29" height="6" rx="3" transform="translate(1437 4876)" fill="#f6f6f6" opacity="0.7"/>
    <rect id="Rectangle_1166" data-name="Rectangle 1166" width="50" height="6" rx="3" transform="translate(1505 4876)" fill="#f6f6f6" opacity="0.7"/>
    <rect id="Rectangle_1167" data-name="Rectangle 1167" width="28" height="6" rx="3" transform="translate(1593 4876)" fill="#f6f6f6" opacity="0.7"/>
    <rect id="Rectangle_1168" data-name="Rectangle 1168" width="37" height="6" rx="3" transform="translate(1664 4876)" fill="#f6f6f6" opacity="0.7"/>
  </g>
</svg>
