<svg xmlns="http://www.w3.org/2000/svg" xmlns:xlink="http://www.w3.org/1999/xlink" width="741.452" height="529.001" viewBox="0 0 741.452 529.001">
  <defs>
    <filter id="Rectangle_581" x="18.816" y="58.551" width="561.418" height="352.877" filterUnits="userSpaceOnUse">
      <feOffset dy="1" input="SourceAlpha"/>
      <feGaussianBlur stdDeviation="3" result="blur"/>
      <feFlood flood-opacity="0.161"/>
      <feComposite operator="in" in2="blur"/>
      <feComposite in="SourceGraphic"/>
    </filter>
    <filter id="Rectangle_900" x="148.96" y="140.681" width="498.331" height="309.223" filterUnits="userSpaceOnUse">
      <feOffset dy="1" input="SourceAlpha"/>
      <feGaussianBlur stdDeviation="7.5" result="blur-2"/>
      <feFlood flood-opacity="0.102"/>
      <feComposite operator="in" in2="blur-2"/>
      <feComposite in="SourceGraphic"/>
    </filter>
    <filter id="XMLID_2_" x="510.7" y="112.323" width="28.145" height="41.29" filterUnits="userSpaceOnUse">
      <feOffset dy="2" input="SourceAlpha"/>
      <feGaussianBlur stdDeviation="2" result="blur-3"/>
      <feFlood flood-opacity="0.161"/>
      <feComposite operator="in" in2="blur-3"/>
      <feComposite in="SourceGraphic"/>
    </filter>
  </defs>
  <g id="Group_1649" data-name="Group 1649" transform="translate(-196 -4111)">
    <path id="Path_3418" data-name="Path 3418" d="M448.856,0l61.807,120.554H498.186v98.307h62.879l36.225,70.655L148.436,519.645,0,230.128Z" transform="translate(340.162 4111)" fill="#f2f2f2" opacity="0.7"/>
    <ellipse id="Ellipse_388" data-name="Ellipse 388" cx="11.118" cy="11.118" rx="11.118" ry="11.118" transform="translate(381.176 4574.496)" fill="#2dbfbd" opacity="0.4"/>
    <ellipse id="Ellipse_389" data-name="Ellipse 389" cx="14.629" cy="14.629" rx="14.629" ry="14.629" transform="translate(420.541 4610.743)" fill="#2dbfbd" opacity="0.4"/>
    <rect id="Rectangle_927" data-name="Rectangle 927" width="74.901" height="74.901" transform="translate(847.711 4245.598)" fill="#316f98" opacity="0.5"/>
    <ellipse id="Ellipse_387" data-name="Ellipse 387" cx="27.503" cy="27.503" rx="27.503" ry="27.503" transform="translate(196 4149.844)" fill="#2dbfbd" opacity="0.4"/>
    <g id="Group_1616" data-name="Group 1616" transform="translate(-14250 -38)">
      <g transform="matrix(1, 0, 0, 1, 14446, 4149)" filter="url(#Rectangle_581)">
        <rect id="Rectangle_581-2" data-name="Rectangle 581" width="543.418" height="334.877" rx="4" transform="translate(27.82 66.55)" fill="#edf9f9"/>
      </g>
      <path id="Rectangle_582" data-name="Rectangle 582" d="M4,0H130.663a0,0,0,0,1,0,0V334.877a0,0,0,0,1,0,0H4a4,4,0,0,1-4-4V4A4,4,0,0,1,4,0Z" transform="translate(14470.355 4215.551)" fill="#444584"/>
      <rect id="Rectangle_583" data-name="Rectangle 583" width="386.371" height="47.359" rx="4" transform="translate(14617.46 4256.034)" fill="#fff" opacity="0.77"/>
      <rect id="Rectangle_588" data-name="Rectangle 588" width="86.532" height="7.788" rx="3.894" transform="translate(14486.796 4273.527)" fill="#b2b2b2" opacity="0.21"/>
      <rect id="Rectangle_591" data-name="Rectangle 591" width="32.017" height="10.384" rx="5.192" transform="translate(14486.796 4231.127)" fill="#b2b2b2" opacity="0.21"/>
      <rect id="Rectangle_589" data-name="Rectangle 589" width="64.033" height="7.788" rx="3.894" transform="translate(14486.796 4292.565)" fill="#b2b2b2" opacity="0.21"/>
      <rect id="Rectangle_590" data-name="Rectangle 590" width="83.936" height="7.788" rx="3.894" transform="translate(14486.796 4309.871)" fill="#b2b2b2" opacity="0.21"/>
      <g transform="matrix(1, 0, 0, 1, 14446, 4149)" filter="url(#Rectangle_900)">
        <rect id="Rectangle_900-2" data-name="Rectangle 900" width="453.331" height="264.223" rx="4" transform="translate(171.46 162.18)" fill="#fff"/>
      </g>
      <g id="Group_1267" data-name="Group 1267" transform="translate(14951.055 4266.823)">
        <ellipse id="XMLID_1_" cx="13.145" cy="13.145" rx="13.145" ry="13.145" transform="translate(0 0)" fill="none" stroke="#e6e7e8" stroke-miterlimit="10" stroke-width="2"/>
        <g transform="matrix(1, 0, 0, 1, -505.05, -117.82)" filter="url(#XMLID_2_)">
          <path id="XMLID_2_2" data-name="XMLID_2_" d="M200.5,223a13.145,13.145,0,1,1,0,26.29" transform="translate(317.7 -105.18)" fill="none" stroke="#04d2c8" stroke-linecap="round" stroke-miterlimit="10" stroke-width="3"/>
        </g>
        <text id="_53" data-name="53" transform="translate(9.427 15.115)" fill="#04d2c8" font-size="6" font-family="Lato-Bold, Lato" font-weight="700"><tspan x="0" y="0">53</tspan></text>
      </g>
      <rect id="Rectangle_902" data-name="Rectangle 902" width="124.39" height="7.788" rx="3.894" transform="translate(14626.978 4278.042)" fill="#b2b2b2" opacity="0.2"/>
      <rect id="Rectangle_905" data-name="Rectangle 905" width="124.39" height="7.788" rx="3.894" transform="translate(14784.228 4278.042)" fill="#b2b2b2" opacity="0.2"/>
      <rect id="Rectangle_903" data-name="Rectangle 903" width="124.39" height="7.788" rx="3.894" transform="translate(14626.978 4289.549)" fill="#b2b2b2" opacity="0.2"/>
      <rect id="Rectangle_906" data-name="Rectangle 906" width="15.081" height="7.788" rx="3.894" transform="translate(14630.142 4330.779)" fill="#b2b2b2" opacity="0.2"/>
      <rect id="Rectangle_908" data-name="Rectangle 908" width="45.764" height="7.788" rx="3.894" transform="translate(14766.298 4330.779)" fill="#b2b2b2" opacity="0.2"/>
      <rect id="Rectangle_922" data-name="Rectangle 922" width="99.46" height="7.788" rx="3.894" transform="translate(14933.138 4355.709)" fill="#b2b2b2" opacity="0.2"/>
      <rect id="Rectangle_923" data-name="Rectangle 923" width="99.46" height="7.788" rx="3.894" transform="translate(14933.138 4375.845)" fill="#b2b2b2" opacity="0.2"/>
      <rect id="Rectangle_924" data-name="Rectangle 924" width="99.46" height="7.788" rx="3.894" transform="translate(14933.138 4395.98)" fill="#b2b2b2" opacity="0.2"/>
      <rect id="Rectangle_925" data-name="Rectangle 925" width="99.46" height="7.788" rx="3.894" transform="translate(14933.138 4415.158)" fill="#b2b2b2" opacity="0.2"/>
      <rect id="Rectangle_926" data-name="Rectangle 926" width="99.46" height="7.788" rx="3.894" transform="translate(14933.138 4436.252)" fill="#b2b2b2" opacity="0.2"/>
      <rect id="Rectangle_927-2" data-name="Rectangle 927" width="99.46" height="7.788" rx="3.894" transform="translate(14933.138 4457.347)" fill="#b2b2b2" opacity="0.2"/>
      <rect id="Rectangle_928" data-name="Rectangle 928" width="99.46" height="7.788" rx="3.894" transform="translate(14933.138 4476.524)" fill="#b2b2b2" opacity="0.2"/>
      <rect id="Rectangle_929" data-name="Rectangle 929" width="99.46" height="7.788" rx="3.894" transform="translate(14933.138 4497.618)" fill="#b2b2b2" opacity="0.2"/>
      <rect id="Rectangle_930" data-name="Rectangle 930" width="99.46" height="7.788" rx="3.894" transform="translate(14933.138 4516.795)" fill="#b2b2b2" opacity="0.2"/>
      <rect id="Rectangle_931" data-name="Rectangle 931" width="99.46" height="7.788" rx="3.894" transform="translate(14933.138 4536.931)" fill="#b2b2b2" opacity="0.2"/>
      <rect id="Rectangle_932" data-name="Rectangle 932" width="99.46" height="7.788" rx="3.894" transform="translate(14933.138 4557.067)" fill="#b2b2b2" opacity="0.2"/>
      <rect id="Rectangle_904" data-name="Rectangle 904" width="72.612" height="7.788" rx="3.894" transform="translate(14784.228 4289.549)" fill="#b2b2b2" opacity="0.2"/>
      <line id="Line_56" data-name="Line 56" x2="10.883" transform="translate(14683.358 4360.288)" fill="none" stroke="#e13f6b" stroke-width="4"/>
      <line id="Line_76" data-name="Line 76" x2="10.883" transform="translate(14683.358 4400.56)" fill="none" stroke="#4ccb70" stroke-width="4"/>
      <line id="Line_80" data-name="Line 80" x2="10.883" transform="translate(14683.358 4439.872)" fill="none" stroke="#2680eb" stroke-width="4"/>
      <line id="Line_82" data-name="Line 82" x2="10.883" transform="translate(14683.358 4460.008)" fill="none" stroke="#e13f6b" stroke-width="4"/>
      <line id="Line_88" data-name="Line 88" x2="10.883" transform="translate(14683.358 4521.374)" fill="none" stroke="#e76079" stroke-width="4"/>
      <line id="Line_90" data-name="Line 90" x2="10.883" transform="translate(14683.358 4542.469)" fill="none" stroke="#e13f6b" stroke-width="4"/>
      <line id="Line_57" data-name="Line 57" x2="46.922" transform="translate(14693.854 4360.288)" fill="none" stroke="#e6e7e8" stroke-width="4"/>
      <line id="Line_75" data-name="Line 75" x2="46.922" transform="translate(14693.854 4379.465)" fill="none" stroke="#e6e7e8" stroke-width="4"/>
      <line id="Line_77" data-name="Line 77" x2="46.922" transform="translate(14693.854 4400.56)" fill="none" stroke="#e6e7e8" stroke-width="4"/>
      <line id="Line_79" data-name="Line 79" x2="46.922" transform="translate(14693.854 4420.695)" fill="none" stroke="#e6e7e8" stroke-width="4"/>
      <line id="Line_81" data-name="Line 81" x2="46.922" transform="translate(14693.854 4439.872)" fill="none" stroke="#e6e7e8" stroke-width="4"/>
      <line id="Line_83" data-name="Line 83" x2="46.922" transform="translate(14693.854 4460.008)" fill="none" stroke="#e6e7e8" stroke-width="4"/>
      <line id="Line_85" data-name="Line 85" x2="46.922" transform="translate(14693.854 4482.062)" fill="none" stroke="#e6e7e8" stroke-width="4"/>
      <line id="Line_87" data-name="Line 87" x2="46.922" transform="translate(14693.854 4502.197)" fill="none" stroke="#e6e7e8" stroke-width="4"/>
      <line id="Line_89" data-name="Line 89" x2="46.922" transform="translate(14693.854 4521.374)" fill="none" stroke="#e6e7e8" stroke-width="4"/>
      <line id="Line_91" data-name="Line 91" x2="46.922" transform="translate(14693.854 4542.469)" fill="none" stroke="#e6e7e8" stroke-width="4"/>
      <line id="Line_93" data-name="Line 93" x2="46.922" transform="translate(14693.854 4562.604)" fill="none" stroke="#e6e7e8" stroke-width="4"/>
      <g id="Group_1277" data-name="Group 1277" transform="translate(14630.863 4349.741)">
        <path id="Path_2422" data-name="Path 2422" d="M-17891,331.158h426.154" transform="translate(17891 -331.158)" fill="none" stroke="#e6e7e8" stroke-width="1" opacity="0.39"/>
        <path id="Path_3070" data-name="Path 3070" d="M-17891,331.158h426.154" transform="translate(17891 -210.343)" fill="none" stroke="#e6e7e8" stroke-width="1" opacity="0.39"/>
        <path id="Path_3067" data-name="Path 3067" d="M-17891,331.158h426.154" transform="translate(17891 -270.75)" fill="none" stroke="#e6e7e8" stroke-width="1" opacity="0.39"/>
        <path id="Path_3073" data-name="Path 3073" d="M-17891,331.158h426.154" transform="translate(17891 -148.977)" fill="none" stroke="#e6e7e8" stroke-width="1" opacity="0.39"/>
        <path id="Path_2423" data-name="Path 2423" d="M-17891,331.158h426.154" transform="translate(17891 -311.022)" fill="none" stroke="#e6e7e8" stroke-width="1" opacity="0.39"/>
        <path id="Path_3071" data-name="Path 3071" d="M-17891,331.158h426.154" transform="translate(17891 -189.248)" fill="none" stroke="#e6e7e8" stroke-width="1" opacity="0.39"/>
        <path id="Path_3068" data-name="Path 3068" d="M-17891,331.158h426.154" transform="translate(17891 -250.615)" fill="none" stroke="#e6e7e8" stroke-width="1" opacity="0.39"/>
        <path id="Path_3074" data-name="Path 3074" d="M-17891,331.158h426.154" transform="translate(17891 -128.841)" fill="none" stroke="#e6e7e8" stroke-width="1" opacity="0.39"/>
        <path id="Path_2424" data-name="Path 2424" d="M-17891,331.158h426.154" transform="translate(17891 -290.886)" fill="none" stroke="#e6e7e8" stroke-width="1" opacity="0.39"/>
        <path id="Path_3072" data-name="Path 3072" d="M-17891,331.158h426.154" transform="translate(17891 -169.113)" fill="none" stroke="#e6e7e8" stroke-width="1" opacity="0.39"/>
        <path id="Path_3069" data-name="Path 3069" d="M-17891,331.158h426.154" transform="translate(17891 -230.479)" fill="none" stroke="#e6e7e8" stroke-width="1" opacity="0.39"/>
        <path id="Path_3075" data-name="Path 3075" d="M-17891,331.158h426.154" transform="translate(17891 -108.705)" fill="none" stroke="#e6e7e8" stroke-width="1" opacity="0.39"/>
      </g>
      <rect id="Rectangle_911" data-name="Rectangle 911" width="39.735" height="10.103" rx="2" transform="translate(14854.512 4354.938)" fill="#04d2c8" opacity="0.67"/>
      <rect id="Rectangle_916" data-name="Rectangle 916" width="39.735" height="10.103" rx="2" transform="translate(14854.512 4455.616)" fill="#04d2c8" opacity="0.67"/>
      <rect id="Rectangle_912" data-name="Rectangle 912" width="39.735" height="10.103" rx="2" transform="translate(14854.512 4375.073)" fill="#04d2c8" opacity="0.67"/>
      <rect id="Rectangle_917" data-name="Rectangle 917" width="39.735" height="10.103" rx="2" transform="translate(14854.512 4475.752)" fill="#04d2c8" opacity="0.67"/>
      <rect id="Rectangle_913" data-name="Rectangle 913" width="39.735" height="10.103" rx="2" transform="translate(14854.512 4395.209)" fill="#04d2c8" opacity="0.67"/>
      <rect id="Rectangle_918" data-name="Rectangle 918" width="39.735" height="10.103" rx="2" transform="translate(14854.512 4495.888)" fill="#04d2c8" opacity="0.67"/>
      <rect id="Rectangle_914" data-name="Rectangle 914" width="39.735" height="10.103" rx="2" transform="translate(14854.512 4415.345)" fill="#04d2c8" opacity="0.67"/>
      <rect id="Rectangle_919" data-name="Rectangle 919" width="39.735" height="10.103" rx="2" transform="translate(14854.512 4516.024)" fill="#04d2c8" opacity="0.67"/>
      <rect id="Rectangle_915" data-name="Rectangle 915" width="39.735" height="10.103" rx="2" transform="translate(14854.512 4435.48)" fill="#04d2c8" opacity="0.67"/>
      <rect id="Rectangle_920" data-name="Rectangle 920" width="39.735" height="10.103" rx="2" transform="translate(14854.512 4536.16)" fill="#04d2c8" opacity="0.67"/>
      <rect id="Rectangle_921" data-name="Rectangle 921" width="39.735" height="10.103" rx="2" transform="translate(14854.512 4556.295)" fill="#04d2c8" opacity="0.67"/>
      <path id="Path_3076" data-name="Path 3076" d="M0,0H34.685" transform="translate(14683.358 4379.465)" fill="none" stroke="#2680eb" stroke-width="4"/>
      <line id="Line_78" data-name="Line 78" x2="26.848" transform="translate(14683.358 4420.695)" fill="none" stroke="#ffb129" stroke-width="4"/>
      <line id="Line_84" data-name="Line 84" x2="17.259" transform="translate(14683.358 4482.062)" fill="none" stroke="#e13f6b" stroke-width="4"/>
      <line id="Line_86" data-name="Line 86" x2="52.737" transform="translate(14683.358 4502.197)" fill="none" stroke="#04d2c8" stroke-width="4"/>
      <line id="Line_92" data-name="Line 92" x2="17.259" transform="translate(14683.358 4562.604)" fill="none" stroke="#e13f6b" stroke-width="4"/>
      <text id="Score" transform="translate(14684 4336)" fill="#272727" font-size="7" font-family="Montserrat-Bold, Montserrat" font-weight="700" opacity="0.8"><tspan x="0" y="0">Score</tspan></text>
      <text id="Suggestions" transform="translate(14850 4336)" fill="#272727" font-size="7" font-family="Montserrat-Bold, Montserrat" font-weight="700" opacity="0.8"><tspan x="0" y="0">Suggestions</tspan></text>
      <text id="Feedbacks" transform="translate(14933 4336)" fill="#272727" font-size="7" font-family="Montserrat-Bold, Montserrat" font-weight="700" opacity="0.8"><tspan x="0" y="0">Feedbacks</tspan></text>
      <circle id="Ellipse_451" data-name="Ellipse 451" cx="7.617" cy="7.617" r="7.617" transform="translate(14988.512 4227.368)" opacity="0.5"/>
      <text id="Nikhil_Chainani" data-name="Nikhil Chainani" transform="translate(14924.508 4236.794)" font-size="6" font-family="Montserrat-Bold, Montserrat" font-weight="700" opacity="0.8"><tspan x="0" y="0">Nikhil Chainani</tspan></text>
      <text id="Hi_Nikhil_Chainani" data-name="Hi, Nikhil Chainani" transform="translate(14618 4247)" fill="#04d2c8" font-size="9" font-family="Lato-Bold, Lato" font-weight="700"><tspan x="0" y="0">Hi, Nikhil Chainani</tspan></text>
    </g>
  </g>
</svg>
