<svg xmlns="http://www.w3.org/2000/svg" width="402.495" height="123.077" viewBox="0 0 402.495 123.077">
  <g id="_1" data-name="1" transform="translate(4163.257 -1426.285)">
    <rect id="Rectangle_1207" data-name="Rectangle 1207" width="402.495" height="123.077" rx="4" transform="translate(-4163.257 1426.285)" fill="#fff"/>
    <rect id="Rectangle_1220" data-name="Rectangle 1220" width="9.979" height="7.484" rx="3.742" transform="translate(-4140.804 1465.37)" fill="#b2b2b2" opacity="0.14"/>
    <rect id="Rectangle_1219" data-name="Rectangle 1219" width="34.927" height="7.484" rx="3.742" transform="translate(-4103.381 1465.37)" fill="#b2b2b2" opacity="0.14"/>
    <rect id="Rectangle_1214" data-name="Rectangle 1214" width="40.749" height="7.484" rx="3.742" transform="translate(-4011.905 1465.37)" fill="#b2b2b2" opacity="0.14"/>
    <rect id="Rectangle_1209" data-name="Rectangle 1209" width="19.127" height="7.484" rx="3.742" transform="translate(-3932.903 1465.37)" fill="#b2b2b2" opacity="0.14"/>
    <rect id="Rectangle_1210" data-name="Rectangle 1210" width="19.127" height="7.484" rx="3.742" transform="translate(-3802.342 1465.37)" fill="#b2b2b2" opacity="0.14"/>
    <rect id="Rectangle_1211" data-name="Rectangle 1211" width="49.896" height="7.484" rx="3.742" transform="translate(-3875.523 1465.37)" fill="#b2b2b2" opacity="0.14"/>
    <rect id="Rectangle_1215" data-name="Rectangle 1215" width="35.759" height="7.484" rx="3.742" transform="translate(-3980.304 1531.067)" fill="#b2b2b2" opacity="0.21"/>
    <rect id="Rectangle_1212" data-name="Rectangle 1212" width="67.674" height="12.474" rx="2" transform="translate(-3850.662 1437.927)" fill="#04d2c8" opacity="0.67"/>
    <path id="Path_3703" data-name="Path 3703" d="M-17891,331.158h358" transform="translate(13749.84 1151.26)" fill="none" stroke="#e6e7e8" stroke-width="1" opacity="0.39"/>
    <path id="Path_3704" data-name="Path 3704" d="M-17891,331.158h358" transform="translate(13749.84 1171.219)" fill="none" stroke="#e6e7e8" stroke-width="1" opacity="0.39"/>
    <path id="Path_3705" data-name="Path 3705" d="M-17891,331.158h358" transform="translate(13749.84 1191.177)" fill="none" stroke="#e6e7e8" stroke-width="1" opacity="0.39"/>
    <text id="Ongoing_Process" data-name="Ongoing Process" transform="translate(-4144.617 1445.923)" font-size="7" font-family="Montserrat-Bold, Montserrat" font-weight="700" opacity="0.6"><tspan x="0" y="0">Ongoing Process</tspan></text>
    <text id="Create_Process" data-name="Create Process" transform="translate(-3840.526 1445.766)" fill="#fff" font-size="5" font-family="Montserrat-SemiBold, Montserrat" font-weight="600"><tspan x="0" y="0">Create Process</tspan></text>
  </g>
</svg>
