<svg xmlns="http://www.w3.org/2000/svg" xmlns:xlink="http://www.w3.org/1999/xlink" width="849" height="784" viewBox="0 0 849 784">
  <defs>
    <clipPath id="clip-path">
      <rect id="Rectangle_1246" data-name="Rectangle 1246" width="849" height="784" transform="translate(980 122)" fill="#816767" stroke="#707070" stroke-width="1"/>
    </clipPath>
    <clipPath id="clip-path-2">
      <rect id="Rectangle_1245" data-name="Rectangle 1245" width="849" height="688" transform="translate(948 124)" fill="#fff" stroke="#707070" stroke-width="1"/>
    </clipPath>
  </defs>
  <g id="Mask_Group_57" data-name="Mask Group 57" transform="translate(-980 -122)" clip-path="url(#clip-path)">
    <g id="Mask_Group_56" data-name="Mask Group 56" transform="translate(32 46)" clip-path="url(#clip-path-2)">
      <path id="Path_3725" data-name="Path 3725" d="M111.768,125C344.753,23.94,457.232-60.036,603.447,56.676s56.237,256.2,168.714,298.9,69.09,365.795-340.639,308.862S-121.214,226.052,111.768,125Z" transform="translate(870.632 269.178) rotate(-17)" fill="#2dbfbd" opacity="0.08"/>
      <g id="undraw_career_development_oqcb" transform="translate(960.227 282.131)">
        <path id="Path_3708" data-name="Path 3708" d="M167.337,725.128c10.352,19.2,32.323,27.44,32.323,27.44s5.187-22.886-5.165-42.084-32.323-27.44-32.323-27.44S156.986,705.929,167.337,725.128Z" transform="translate(-132.659 -223.824)" fill="#444584"/>
        <path id="Path_3709" data-name="Path 3709" d="M168.795,724.406c18.69,11.245,25.888,33.579,25.888,33.579s-23.1,4.1-41.794-7.141S127,717.265,127,717.265,150.1,713.161,168.795,724.406Z" transform="translate(-127 -229.419)" fill="#2dbfbd"/>
        <rect id="Rectangle_1209" data-name="Rectangle 1209" width="757.151" height="1.666" transform="translate(22.49 528.546)" fill="#3f3d56"/>
        <rect id="Rectangle_1210" data-name="Rectangle 1210" width="62.857" height="12.325" transform="translate(381.66 145.491)" fill="#2dbfbd"/>
        <rect id="Rectangle_1211" data-name="Rectangle 1211" width="62.857" height="12.325" transform="translate(330.681 196.47)" fill="#2dbfbd"/>
        <rect id="Rectangle_1212" data-name="Rectangle 1212" width="31.634" height="12.325" transform="translate(447.392 288.871)" fill="#444584"/>
        <rect id="Rectangle_1213" data-name="Rectangle 1213" width="31.634" height="12.325" transform="translate(556.262 288.871)" fill="#444584"/>
        <rect id="Rectangle_1214" data-name="Rectangle 1214" width="31.634" height="12.325" transform="translate(613.367 288.871)" fill="#444584"/>
        <rect id="Rectangle_1215" data-name="Rectangle 1215" width="31.634" height="12.325" transform="translate(584.61 382.54)" fill="#444584"/>
        <rect id="Rectangle_1216" data-name="Rectangle 1216" width="31.634" height="12.325" transform="translate(698.82 382.54)" fill="#444584"/>
        <rect id="Rectangle_1217" data-name="Rectangle 1217" width="31.634" height="12.325" transform="translate(670.473 288.871)" fill="#444584"/>
        <rect id="Rectangle_1218" data-name="Rectangle 1218" width="31.634" height="12.325" transform="translate(727.578 288.871)" fill="#444584"/>
        <path id="Path_3710" data-name="Path 3710" d="M870.693,256.274h-375.5v-53h.822v52.175H870.693Z" transform="translate(-82.722 -33.957)" fill="#3f3d56"/>
        <path id="Path_3711" data-name="Path 3711" d="M861.52,361.548H618.589V266.594h.822v94.132H861.52Z" transform="translate(-103.336 -44.535)" fill="#3f3d56"/>
        <rect id="Rectangle_1219" data-name="Rectangle 1219" width="0.822" height="52.945" transform="translate(462.798 222.111)" fill="#3f3d56"/>
        <rect id="Rectangle_1220" data-name="Rectangle 1220" width="0.822" height="52.945" transform="translate(571.668 222.111)" fill="#3f3d56"/>
        <rect id="Rectangle_1221" data-name="Rectangle 1221" width="0.822" height="52.945" transform="translate(628.774 222.111)" fill="#3f3d56"/>
        <rect id="Rectangle_1222" data-name="Rectangle 1222" width="0.822" height="52.945" transform="translate(685.879 222.111)" fill="#3f3d56"/>
        <rect id="Rectangle_1223" data-name="Rectangle 1223" width="0.822" height="52.945" transform="translate(742.984 222.111)" fill="#3f3d56"/>
        <rect id="Rectangle_1224" data-name="Rectangle 1224" width="0.822" height="52.945" transform="translate(600.016 316.603)" fill="#3f3d56"/>
        <rect id="Rectangle_1225" data-name="Rectangle 1225" width="0.822" height="52.945" transform="translate(714.226 316.603)" fill="#3f3d56"/>
        <rect id="Rectangle_1226" data-name="Rectangle 1226" width="62.857" height="12.325" transform="translate(381.66 249.574)" fill="#2dbfbd"/>
        <rect id="Rectangle_1227" data-name="Rectangle 1227" width="31.634" height="12.325" transform="translate(447.392 106.195)" fill="#444584"/>
        <rect id="Rectangle_1228" data-name="Rectangle 1228" width="31.634" height="12.325" transform="translate(556.262 106.195)" fill="#444584"/>
        <rect id="Rectangle_1229" data-name="Rectangle 1229" width="31.634" height="12.325" transform="translate(613.367 106.195)" fill="#444584"/>
        <rect id="Rectangle_1230" data-name="Rectangle 1230" width="31.634" height="12.325" transform="translate(584.61 12.526)" fill="#444584"/>
        <rect id="Rectangle_1231" data-name="Rectangle 1231" width="31.634" height="12.325" transform="translate(698.82 12.526)" fill="#444584"/>
        <rect id="Rectangle_1232" data-name="Rectangle 1232" width="31.634" height="12.325" transform="translate(670.473 106.195)" fill="#444584"/>
        <rect id="Rectangle_1233" data-name="Rectangle 1233" width="31.634" height="12.325" transform="translate(727.578 106.195)" fill="#444584"/>
        <path id="Path_3712" data-name="Path 3712" d="M870.693,222.191h-375.5v53h.822V223.013H870.693Z" transform="translate(-82.722 -37.117)" fill="#3f3d56"/>
        <path id="Path_3713" data-name="Path 3713" d="M861.52,108.5H618.589v94.954h.822V109.325H861.52Z" transform="translate(-103.336 -18.125)" fill="#3f3d56"/>
        <rect id="Rectangle_1234" data-name="Rectangle 1234" width="0.822" height="52.945" transform="translate(462.798 132.334)" fill="#3f3d56"/>
        <rect id="Rectangle_1235" data-name="Rectangle 1235" width="0.822" height="52.945" transform="translate(571.668 132.334)" fill="#3f3d56"/>
        <rect id="Rectangle_1236" data-name="Rectangle 1236" width="0.822" height="52.945" transform="translate(628.774 132.334)" fill="#3f3d56"/>
        <rect id="Rectangle_1237" data-name="Rectangle 1237" width="0.822" height="52.945" transform="translate(685.879 132.334)" fill="#3f3d56"/>
        <rect id="Rectangle_1238" data-name="Rectangle 1238" width="0.822" height="52.945" transform="translate(742.984 132.334)" fill="#3f3d56"/>
        <rect id="Rectangle_1239" data-name="Rectangle 1239" width="0.822" height="52.945" transform="translate(600.016 37.843)" fill="#3f3d56"/>
        <rect id="Rectangle_1240" data-name="Rectangle 1240" width="0.822" height="52.945" transform="translate(714.226 37.843)" fill="#3f3d56"/>
        <path id="Path_3714" data-name="Path 3714" d="M410.788,149.321c-9.914-16.751-29.527-17.532-29.527-17.532s-19.112-2.444-31.373,23.068c-11.428,23.779-27.2,46.739-2.539,52.305L351.8,193.3l2.759,14.9a96.493,96.493,0,0,0,10.551.18c26.409-.853,51.559.249,50.75-9.227C414.786,186.551,420.327,165.44,410.788,149.321Z" transform="translate(-161.628 -131.726)" fill="#2f2e41"/>
        <path id="Path_3715" data-name="Path 3715" d="M379.529,216.84a10.459,10.459,0,0,1-.9,5.511c-1.857,3.245-6.392,3.731-9.119,6.288-2.868,2.69-3.193,7.055-3.33,10.985-.143,4.108-.264,8.352,1.235,12.179a29.605,29.605,0,0,0,3.459,5.943q2.5,3.6,5.042,7.169a30.936,30.936,0,0,0,3.019,3.789c3.037,3.094,7.2,4.807,11.363,6.028,2.688.789,5.59,1.4,8.256.547a15.807,15.807,0,0,0,4.8-2.952,25.728,25.728,0,0,0,5.435-5.268c2.239-3.248,2.859-7.315,3.323-11.233a242.392,242.392,0,0,0,1.6-34.918,8.558,8.558,0,0,0-.667-3.71c-1.381-2.7-5.08-3.272-7.029-5.592-1.666-1.983-1.734-4.814-1.72-7.4l.036-6.594a2.763,2.763,0,0,0-.32-1.607,2.722,2.722,0,0,0-1.892-.883,63.764,63.764,0,0,0-12.406-.83c-3.367.1-9.827-.179-12.738,1.7-2.642,1.7.666,6.4,1.278,9.044a58.912,58.912,0,0,1,1.278,11.812Z" transform="translate(-166.941 -142.172)" fill="#ffb8b8"/>
        <path id="Path_3716" data-name="Path 3716" d="M316.344,746.363c-.856,2.911-1.253,6.306.525,8.766a8.852,8.852,0,0,0,3.747,2.744,26.693,26.693,0,0,0,11.905,1.747A5.622,5.622,0,0,0,336.733,758a51.883,51.883,0,0,0,17.948-30.617,2.9,2.9,0,0,0-.1-1.879,2.977,2.977,0,0,0-1.25-1.06,28.1,28.1,0,0,0-6.7-3.061C333.724,718.055,319.543,735.482,316.344,746.363Z" transform="translate(-158.509 -230.16)" fill="#444584"/>
        <path id="Path_3717" data-name="Path 3717" d="M476.885,695.564a19.01,19.01,0,0,0,6.275,4.779,8.809,8.809,0,0,0,7.669-.131c3.551-2.022,4.557-6.719,4.274-10.8-.524-7.54-4.126-14.334-8.265-20.493-1.31-1.949-4.208-7.748-6.752-7.82-1.209-.034-5.728,4.348-6.956,5.182-4.487,3.047-7.595,5.227-6.661,11.076C467.51,683.885,472.5,690.867,476.885,695.564Z" transform="translate(-183.681 -220.159)" fill="#444584"/>
        <circle id="Ellipse_478" data-name="Ellipse 478" cx="26.654" cy="26.654" r="26.654" transform="translate(193.661 10.035)" fill="#ffb8b8"/>
        <path id="Path_3718" data-name="Path 3718" d="M373.356,251.4a38.992,38.992,0,0,1-4.157-8.074,13.109,13.109,0,0,1-.072-8.916c-2.88-1.671-6.791-.318-8.888,2.269s-2.74,6.053-2.924,9.378.011,6.7-.712,9.949c-1.6,7.191-7.541,13.1-7.983,20.458-.435,7.235,4.527,13.538,6.967,20.362a33.958,33.958,0,0,1,1.819,13.254c-.079,1.451-.17,3.1.854,4.136a4.718,4.718,0,0,0,1.845.994c11.778,4.144,24.5,4.5,36.98,4.818l20.615.522a6.571,6.571,0,0,0,3.64-.61c1.849-1.134,2.1-3.676,2.128-5.845.271-18.683-.524-37.363-1.318-56.031-.288-6.766-.581-13.572-2.016-20.19-.365-1.685-.964-3.56-2.52-4.3-1.317-.63-2.879-.222-4.249.284a33.83,33.83,0,0,0-15.844,12.2c-4.23,6.02-6.311,13.242-10.45,19.308-3,4.4-4.742.566-6.743-2.676Q376.843,257.037,373.356,251.4Z" transform="translate(-164.017 -148.685)" fill="#2dbfbd"/>
        <path id="Path_3719" data-name="Path 3719" d="M362.279,225.088c-1.586.78-3.377,1.119-4.887,2.038a14.6,14.6,0,0,0-4.207,4.68l-6.318,9.5a29.467,29.467,0,0,0-3.621,6.612,30.618,30.618,0,0,0-1.146,9.031q-.385,12.706-1.579,25.371a91.171,91.171,0,0,1-1.755,12.109c-.753,3.238-1.817,6.393-2.88,9.543l-11.707,34.7a13.112,13.112,0,0,0-1.008,5.465c.194,1.858,1.423,3.746,3.261,4.077a6.4,6.4,0,0,0,3.515-.711c4.469-1.866,8.905-4.075,12.347-7.484,5.656-5.6,7.931-13.677,9.989-21.367,1.092-4.08,2.192-8.218,2.187-12.441-.01-9.587-5.672-18.467-5.822-28.053a49.115,49.115,0,0,1,.7-7.771c1.009-6.982,2.056-14.017,4.475-20.643s6.334-12.9,12.094-16.971c2.761-1.953,10.175-5.863,7.28-10.353S365.1,223.7,362.279,225.088Z" transform="translate(-159.77 -146.598)" fill="#444584"/>
        <path id="Path_3720" data-name="Path 3720" d="M408.23,328.351q-28.652-2.222-57.355-3.695c-1.608-.083-3.437-.079-4.54,1.093a5.606,5.606,0,0,0-1.04,1.957l-4.088,11.024c-1.811,4.883-2.636,9.493-6.251,13.242s-7.916,6.79-11.485,10.583a39.033,39.033,0,0,0-10.057,20.521c-.995,6.311-.429,12.85-2.06,19.028-2.01,7.613,1.215,15.541,1.165,23.415-.075,11.727-1.684,23.383-3.29,35-4.655,33.68-9.311,67.361-14.368,100.982-4.152,27.6-8.24,57.4,4.724,82.124,3.1,5.909,7.319,11.52,13.246,14.584a40.169,40.169,0,0,0,10.333,3.244,237.5,237.5,0,0,0,27.809,4.119c3.79.334,8.207.328,10.638-2.6,1.63-1.964,1.858-4.7,2.015-7.247l1.022-16.637c1.322-21.529.837-43.849-3.966-64.877-1.62-7.09-3.657-14.086-5.012-21.231a113.813,113.813,0,0,1-1.992-20.585,65.62,65.62,0,0,1,1.358-14.749c3.514-15.636,15.156-29.735,13.463-45.671,10.728,15.734,14.284,33.747,17.64,52.492,2.448,13.673,5.1,27.376,9.733,40.47,5.04,14.235,12.523,28.368,11.458,43.432a56.81,56.81,0,0,1-1.558,9.306c-3.048,12.643,9.831,23.456,21.707,18.154l.243-.11c10.976-5.056,16.519-18.369,27.715-22.917,5.2-2.111,11.673-2.41,13.779-8.793a11.205,11.205,0,0,0,.461-4.569c-.492-5.162-3.434-9.339-5.724-13.776-4.994-9.679-6.888-20.613-8.684-31.356q-2.677-16.01-5.256-32.036c-1.124-6.985-2.244-14.013-4.54-20.7-1.005-2.929-2.233-5.787-3.039-8.777-3.009-11.173.1-23.076-1.155-34.578a351.713,351.713,0,0,0-6.86-38.487c-3.686-16.452-4.439-33.4-5.031-50.252-.235-6.693-.481-13.55-3-19.753C422.831,340.971,415.811,333.984,408.23,328.351Z" transform="translate(-154.364 -163.95)" fill="#2dbfbd"/>
        <path id="Path_3721" data-name="Path 3721" d="M283.5,17.149,264.127,7l-26.759,4.152L231.832,35.6l13.782-.531,3.85-8.983v8.835l6.359-.244,3.692-14.3L261.821,35.6l22.607-.461Z" transform="translate(-38.728 -1.169)" fill="#2f2e41"/>
        <path id="Path_3722" data-name="Path 3722" d="M408.623,236.119A10.821,10.821,0,0,1,414.3,233.3a2.929,2.929,0,0,0,2-.806,2.518,2.518,0,0,0,.341-1.488A72.347,72.347,0,0,0,415.48,217a14.09,14.09,0,0,1,5.708-.775l17.942.05c3.608.01,7.343.047,10.626,1.543a16.905,16.905,0,0,1,7.676,7.86,45.365,45.365,0,0,1,3.47,10.612c2.133,9.208-5.522,18.475-6.207,27.9-.2,2.719.031,5.458-.219,8.172-.263,2.858-1.055,5.661-1.119,8.531a29.269,29.269,0,0,0,2.146,10.366c3.641,10.214,8.826,19.8,13.033,29.794a24.87,24.87,0,0,1,2.147,7.205,9.308,9.308,0,0,1-1.979,7.065c-1.754,1.969-4.425,2.772-6.889,3.712a45.1,45.1,0,0,0-8.811,4.527,18.532,18.532,0,0,1-3.589,2.08,22.833,22.833,0,0,1-3.818.844,77.03,77.03,0,0,0-9.676,3.038,3.967,3.967,0,0,1-3.238.084,3.9,3.9,0,0,1-1.251-1.489c-6.157-10.661-8.331-23.12-9.742-35.351s-2.19-24.658-5.934-36.386c-1.138-3.566-2.551-7.067-3.2-10.754-.935-5.33-.235-10.848-1.2-16.174C410.508,244.733,408.3,240.905,408.623,236.119Z" transform="translate(-174.04 -145.835)" fill="#444584"/>
        <path id="Path_3723" data-name="Path 3723" d="M455.06,359.25a36.48,36.48,0,0,0-13.144,11.337c-.757,1,.258,2.863,2.527,2.832,2.111-.028,3.372-2.735,5.482-2.763a91.665,91.665,0,0,0,3.489,16.637c4.211-3.7,6.733-8.9,9.145-13.962l4.769-10c1.751-3.671,3.5-7.343,5.08-11.092a8,8,0,0,0,.782-2.8c.208-6.451-6.152-6.49-8.895-2.453C461.3,351.407,460.363,356.713,455.06,359.25Z" transform="translate(-179.566 -167.225)" fill="#ffb8b8"/>
        <path id="Path_3724" data-name="Path 3724" d="M457.55,229.123c4.077,4.237,8.184,8.51,11.349,13.465s5.364,10.7,5.217,16.579a15.817,15.817,0,0,0,.162,4.464,12.723,12.723,0,0,0,2.031,3.758,71.585,71.585,0,0,1,9.2,19.066,16.736,16.736,0,0,0,1.506,3.839c.6.985,1.423,1.818,2.087,2.763a10.592,10.592,0,0,1,.181,11.607,3.891,3.891,0,0,0-.718,1.416c-.274,1.619,1.759,2.594,2.506,4.056a3.882,3.882,0,0,1-1.224,4.47,11.353,11.353,0,0,1-4.522,2.022c2.1,3.01-.449,7.242-1.305,10.813-.6,2.5-.591,5.1-.983,7.64s-1.274,5.151-3.23,6.817a2.024,2.024,0,0,1-.89.5c-1.085.212-1.824-1.043-2.2-2.082-1.183-3.232-2.376-6.528-4.462-9.266s-5.245-4.883-8.687-4.873a4.635,4.635,0,0,1,.337-4.23c.69-1.3,1.7-2.4,2.461-3.664a16.862,16.862,0,0,0,1.936-5.534,36.314,36.314,0,0,0-4.795-25.9,24.805,24.805,0,0,0-4-5c-1.681-1.575-3.647-2.841-5.2-4.543a17.763,17.763,0,0,1-4.137-10.037,52.932,52.932,0,0,1,.292-11.012c.7-7.244,1.595-14.5,2.63-21.7a8.1,8.1,0,0,1,.718-2.71C454.62,230.326,455.995,229.854,457.55,229.123Z" transform="translate(-180.959 -147.996)" fill="#444584"/>
      </g>
      <ellipse id="Ellipse_479" data-name="Ellipse 479" cx="59.434" cy="4.619" rx="59.434" ry="4.619" transform="translate(1597.065 801.792)" fill="#2dbfbd" opacity="0.3"/>
      <g id="Group_1633" data-name="Group 1633" transform="translate(1609.292 659.372)">
        <path id="Path_2960" data-name="Path 2960" d="M121.917,482.661c12.913,38.863,8.378,75.352,8.378,75.352s-25.471-26.519-38.384-65.382-8.378-75.352-8.378-75.352S109,443.8,121.917,482.661Z" transform="translate(-82.76 -409.282)" fill="#04d2c8"/>
        <path id="Path_2961" data-name="Path 2961" d="M216.337,482.661c-12.913,38.863-8.378,75.352-8.378,75.352s25.471-26.519,38.384-65.382,8.378-75.352,8.378-75.352S229.251,443.8,216.337,482.661Z" transform="translate(-160.425 -409.282)" fill="#04d2c8"/>
        <path id="Path_2962" data-name="Path 2962" d="M192.811,469.8c.866,40.943-14.239,74.468-14.239,74.468s-16.508-32.857-17.373-73.8S175.437,396,175.437,396,191.945,428.857,192.811,469.8Z" transform="translate(-131.698 -396)" fill="#454483"/>
        <circle id="Ellipse_285" data-name="Ellipse 285" cx="4.008" cy="4.008" r="4.008" transform="translate(41.299 33.607)" fill="#6c63ff"/>
        <circle id="Ellipse_286" data-name="Ellipse 286" cx="2.227" cy="2.227" r="2.227" transform="translate(35.287 67.454)" fill="#6c63ff"/>
        <circle id="Ellipse_287" data-name="Ellipse 287" cx="2.227" cy="2.227" r="2.227" transform="translate(8.121 45.409)" fill="#3f3d56"/>
        <circle id="Ellipse_288" data-name="Ellipse 288" cx="2.227" cy="2.227" r="2.227" transform="translate(86.724 23.81)" fill="#3f3d56"/>
        <circle id="Ellipse_289" data-name="Ellipse 289" cx="2.227" cy="2.227" r="2.227" transform="translate(19.7 66.34)" fill="#3f3d56"/>
        <circle id="Ellipse_290" data-name="Ellipse 290" cx="2.227" cy="2.227" r="2.227" transform="translate(66.461 53.425)" fill="#3f3d56"/>
        <circle id="Ellipse_291" data-name="Ellipse 291" cx="2.227" cy="2.227" r="2.227" transform="translate(21.036 99.073)" fill="#3f3d56"/>
        <circle id="Ellipse_292" data-name="Ellipse 292" cx="2.227" cy="2.227" r="2.227" transform="translate(68.688 86.38)" fill="#3f3d56"/>
        <circle id="Ellipse_293" data-name="Ellipse 293" cx="2.227" cy="2.227" r="2.227" transform="translate(47.088 88.607)" fill="#6c63ff"/>
      </g>
    </g>
  </g>
</svg>
