<svg xmlns="http://www.w3.org/2000/svg" xmlns:xlink="http://www.w3.org/1999/xlink" width="413" height="413" viewBox="0 0 413 413">
  <defs>
    <filter id="Rectangle_890" x="0" y="0" width="413" height="413" filterUnits="userSpaceOnUse">
      <feOffset dy="3" input="SourceAlpha"/>
      <feGaussianBlur stdDeviation="10" result="blur"/>
      <feFlood flood-opacity="0.188"/>
      <feComposite operator="in" in2="blur"/>
      <feComposite in="SourceGraphic"/>
    </filter>
    <clipPath id="clip-path">
      <rect id="Rectangle_889" data-name="Rectangle 889" width="353" height="353" rx="10" transform="translate(-8727 18414)" fill="#f1645b"/>
    </clipPath>
  </defs>
  <g id="Group_1455" data-name="Group 1455" transform="translate(-461 -1157.414)">
    <rect id="Rectangle_884" data-name="Rectangle 884" width="346" height="345" rx="6" transform="translate(469 1211.414)" fill="#e6e6e6"/>
    <g id="Group_1327" data-name="Group 1327" transform="translate(8790.742 -16936.891)" opacity="0.6">
      <path id="Path_478" data-name="Path 478" d="M-1082.147-1441.115a2.864,2.864,0,0,1,3.114-2.936,2.751,2.751,0,0,1,2.978,2.8,2.806,2.806,0,0,1-2.912,3.24C-1080.861-1437.954-1082.008-1439.014-1082.147-1441.115Z" transform="translate(-7128.915 19539.941)" fill="#444584"/>
      <path id="Path_478-2" data-name="Path 478" d="M-1082.147-1441.115a2.864,2.864,0,0,1,3.114-2.936,2.751,2.751,0,0,1,2.978,2.8,2.806,2.806,0,0,1-2.912,3.24C-1080.861-1437.954-1082.008-1439.014-1082.147-1441.115Z" transform="translate(-7110.983 19539.941)" fill="#444584"/>
      <path id="Path_478-3" data-name="Path 478" d="M-1082.147-1441.115a2.864,2.864,0,0,1,3.114-2.936,2.751,2.751,0,0,1,2.978,2.8,2.806,2.806,0,0,1-2.912,3.24C-1080.861-1437.954-1082.008-1439.014-1082.147-1441.115Z" transform="translate(-7093.052 19539.941)" fill="#444584"/>
      <path id="Path_478-4" data-name="Path 478" d="M-1082.147-1441.115a2.864,2.864,0,0,1,3.114-2.936,2.751,2.751,0,0,1,2.978,2.8,2.806,2.806,0,0,1-2.912,3.24C-1080.861-1437.954-1082.008-1439.014-1082.147-1441.115Z" transform="translate(-7075.121 19539.941)" fill="#444584"/>
      <path id="Path_478-5" data-name="Path 478" d="M-1082.147-1441.115a2.864,2.864,0,0,1,3.114-2.936,2.751,2.751,0,0,1,2.978,2.8,2.806,2.806,0,0,1-2.912,3.24C-1080.861-1437.954-1082.008-1439.014-1082.147-1441.115Z" transform="translate(-7057.19 19539.941)" fill="#444584"/>
      <path id="Path_478-6" data-name="Path 478" d="M-1082.147-1441.115a2.864,2.864,0,0,1,3.114-2.936,2.751,2.751,0,0,1,2.978,2.8,2.806,2.806,0,0,1-2.912,3.24C-1080.861-1437.954-1082.008-1439.014-1082.147-1441.115Z" transform="translate(-7039.259 19539.941)" fill="#444584"/>
      <path id="Path_478-7" data-name="Path 478" d="M-1082.147-1441.115a2.864,2.864,0,0,1,3.114-2.936,2.751,2.751,0,0,1,2.978,2.8,2.806,2.806,0,0,1-2.912,3.24C-1080.861-1437.954-1082.008-1439.014-1082.147-1441.115Z" transform="translate(-7021.328 19539.941)" fill="#444584"/>
      <path id="Path_478-8" data-name="Path 478" d="M-1082.147-1441.115a2.864,2.864,0,0,1,3.114-2.936,2.751,2.751,0,0,1,2.978,2.8,2.806,2.806,0,0,1-2.912,3.24C-1080.861-1437.954-1082.008-1439.014-1082.147-1441.115Z" transform="translate(-7003.396 19539.941)" fill="#444584"/>
      <path id="Path_478-9" data-name="Path 478" d="M-1082.147-1441.115a2.864,2.864,0,0,1,3.114-2.936,2.751,2.751,0,0,1,2.978,2.8,2.806,2.806,0,0,1-2.912,3.24C-1080.861-1437.954-1082.008-1439.014-1082.147-1441.115Z" transform="translate(-6985.465 19539.941)" fill="#444584"/>
      <path id="Path_478-10" data-name="Path 478" d="M-1082.147-1441.115a2.864,2.864,0,0,1,3.114-2.936,2.751,2.751,0,0,1,2.978,2.8,2.806,2.806,0,0,1-2.912,3.24C-1080.861-1437.954-1082.008-1439.014-1082.147-1441.115Z" transform="translate(-6967.534 19539.941)" fill="#444584"/>
      <path id="Path_478-11" data-name="Path 478" d="M-1082.147-1441.115a2.864,2.864,0,0,1,3.114-2.936,2.751,2.751,0,0,1,2.978,2.8,2.806,2.806,0,0,1-2.912,3.24C-1080.861-1437.954-1082.008-1439.014-1082.147-1441.115Z" transform="translate(-6949.603 19539.941)" fill="#444584"/>
      <path id="Path_478-12" data-name="Path 478" d="M-1082.147-1441.115a2.864,2.864,0,0,1,3.114-2.936,2.751,2.751,0,0,1,2.978,2.8,2.806,2.806,0,0,1-2.912,3.24C-1080.861-1437.954-1082.008-1439.014-1082.147-1441.115Z" transform="translate(-6931.671 19539.941)" fill="#444584"/>
      <path id="Path_478-13" data-name="Path 478" d="M-1082.147-1441.115a2.864,2.864,0,0,1,3.114-2.936,2.751,2.751,0,0,1,2.978,2.8,2.806,2.806,0,0,1-2.912,3.24C-1080.861-1437.954-1082.008-1439.014-1082.147-1441.115Z" transform="translate(-6913.74 19539.941)" fill="#444584"/>
      <path id="Path_478-14" data-name="Path 478" d="M-1082.147-1441.115a2.864,2.864,0,0,1,3.114-2.936,2.751,2.751,0,0,1,2.978,2.8,2.806,2.806,0,0,1-2.912,3.24C-1080.861-1437.954-1082.008-1439.014-1082.147-1441.115Z" transform="translate(-6895.809 19539.941)" fill="#444584"/>
      <path id="Path_478-15" data-name="Path 478" d="M-1082.147-1441.115a2.864,2.864,0,0,1,3.114-2.936,2.751,2.751,0,0,1,2.978,2.8,2.806,2.806,0,0,1-2.912,3.24C-1080.861-1437.954-1082.008-1439.014-1082.147-1441.115Z" transform="translate(-6877.877 19539.941)" fill="#444584"/>
      <path id="Path_478-16" data-name="Path 478" d="M-1082.147-1441.115a2.864,2.864,0,0,1,3.114-2.936,2.751,2.751,0,0,1,2.978,2.8,2.806,2.806,0,0,1-2.912,3.24C-1080.861-1437.954-1082.008-1439.014-1082.147-1441.115Z" transform="translate(-6859.946 19539.941)" fill="#444584"/>
      <path id="Path_478-17" data-name="Path 478" d="M-1082.147-1441.115a2.864,2.864,0,0,1,3.114-2.936,2.751,2.751,0,0,1,2.978,2.8,2.806,2.806,0,0,1-2.912,3.24C-1080.861-1437.954-1082.008-1439.014-1082.147-1441.115Z" transform="translate(-6842.015 19539.941)" fill="#444584"/>
      <path id="Path_478-18" data-name="Path 478" d="M-1082.147-1441.115a2.864,2.864,0,0,1,3.114-2.936,2.751,2.751,0,0,1,2.978,2.8,2.806,2.806,0,0,1-2.912,3.24C-1080.861-1437.954-1082.008-1439.014-1082.147-1441.115Z" transform="translate(-7128.915 19557.873)" fill="#444584"/>
      <path id="Path_478-19" data-name="Path 478" d="M-1082.147-1441.115a2.864,2.864,0,0,1,3.114-2.936,2.751,2.751,0,0,1,2.978,2.8,2.806,2.806,0,0,1-2.912,3.24C-1080.861-1437.954-1082.008-1439.014-1082.147-1441.115Z" transform="translate(-7110.983 19557.873)" fill="#444584"/>
      <path id="Path_478-20" data-name="Path 478" d="M-1082.147-1441.115a2.864,2.864,0,0,1,3.114-2.936,2.751,2.751,0,0,1,2.978,2.8,2.806,2.806,0,0,1-2.912,3.24C-1080.861-1437.954-1082.008-1439.014-1082.147-1441.115Z" transform="translate(-7093.052 19557.873)" fill="#444584"/>
      <path id="Path_478-21" data-name="Path 478" d="M-1082.147-1441.115a2.864,2.864,0,0,1,3.114-2.936,2.751,2.751,0,0,1,2.978,2.8,2.806,2.806,0,0,1-2.912,3.24C-1080.861-1437.954-1082.008-1439.014-1082.147-1441.115Z" transform="translate(-7075.121 19557.873)" fill="#444584"/>
      <path id="Path_478-22" data-name="Path 478" d="M-1082.147-1441.115a2.864,2.864,0,0,1,3.114-2.936,2.751,2.751,0,0,1,2.978,2.8,2.806,2.806,0,0,1-2.912,3.24C-1080.861-1437.954-1082.008-1439.014-1082.147-1441.115Z" transform="translate(-7057.19 19557.873)" fill="#444584"/>
      <path id="Path_478-23" data-name="Path 478" d="M-1082.147-1441.115a2.864,2.864,0,0,1,3.114-2.936,2.751,2.751,0,0,1,2.978,2.8,2.806,2.806,0,0,1-2.912,3.24C-1080.861-1437.954-1082.008-1439.014-1082.147-1441.115Z" transform="translate(-7039.259 19557.873)" fill="#444584"/>
      <path id="Path_478-24" data-name="Path 478" d="M-1082.147-1441.115a2.864,2.864,0,0,1,3.114-2.936,2.751,2.751,0,0,1,2.978,2.8,2.806,2.806,0,0,1-2.912,3.24C-1080.861-1437.954-1082.008-1439.014-1082.147-1441.115Z" transform="translate(-7021.328 19557.873)" fill="#444584"/>
      <path id="Path_478-25" data-name="Path 478" d="M-1082.147-1441.115a2.864,2.864,0,0,1,3.114-2.936,2.751,2.751,0,0,1,2.978,2.8,2.806,2.806,0,0,1-2.912,3.24C-1080.861-1437.954-1082.008-1439.014-1082.147-1441.115Z" transform="translate(-7003.396 19557.873)" fill="#444584"/>
      <path id="Path_478-26" data-name="Path 478" d="M-1082.147-1441.115a2.864,2.864,0,0,1,3.114-2.936,2.751,2.751,0,0,1,2.978,2.8,2.806,2.806,0,0,1-2.912,3.24C-1080.861-1437.954-1082.008-1439.014-1082.147-1441.115Z" transform="translate(-6985.465 19557.873)" fill="#444584"/>
      <path id="Path_478-27" data-name="Path 478" d="M-1082.147-1441.115a2.864,2.864,0,0,1,3.114-2.936,2.751,2.751,0,0,1,2.978,2.8,2.806,2.806,0,0,1-2.912,3.24C-1080.861-1437.954-1082.008-1439.014-1082.147-1441.115Z" transform="translate(-6967.534 19557.873)" fill="#444584"/>
      <path id="Path_478-28" data-name="Path 478" d="M-1082.147-1441.115a2.864,2.864,0,0,1,3.114-2.936,2.751,2.751,0,0,1,2.978,2.8,2.806,2.806,0,0,1-2.912,3.24C-1080.861-1437.954-1082.008-1439.014-1082.147-1441.115Z" transform="translate(-6949.603 19557.873)" fill="#444584"/>
      <path id="Path_478-29" data-name="Path 478" d="M-1082.147-1441.115a2.864,2.864,0,0,1,3.114-2.936,2.751,2.751,0,0,1,2.978,2.8,2.806,2.806,0,0,1-2.912,3.24C-1080.861-1437.954-1082.008-1439.014-1082.147-1441.115Z" transform="translate(-6931.671 19557.873)" fill="#444584"/>
      <path id="Path_478-30" data-name="Path 478" d="M-1082.147-1441.115a2.864,2.864,0,0,1,3.114-2.936,2.751,2.751,0,0,1,2.978,2.8,2.806,2.806,0,0,1-2.912,3.24C-1080.861-1437.954-1082.008-1439.014-1082.147-1441.115Z" transform="translate(-6913.74 19557.873)" fill="#444584"/>
      <path id="Path_478-31" data-name="Path 478" d="M-1082.147-1441.115a2.864,2.864,0,0,1,3.114-2.936,2.751,2.751,0,0,1,2.978,2.8,2.806,2.806,0,0,1-2.912,3.24C-1080.861-1437.954-1082.008-1439.014-1082.147-1441.115Z" transform="translate(-6895.809 19557.873)" fill="#444584"/>
      <path id="Path_478-32" data-name="Path 478" d="M-1082.147-1441.115a2.864,2.864,0,0,1,3.114-2.936,2.751,2.751,0,0,1,2.978,2.8,2.806,2.806,0,0,1-2.912,3.24C-1080.861-1437.954-1082.008-1439.014-1082.147-1441.115Z" transform="translate(-6877.877 19557.873)" fill="#444584"/>
      <path id="Path_478-33" data-name="Path 478" d="M-1082.147-1441.115a2.864,2.864,0,0,1,3.114-2.936,2.751,2.751,0,0,1,2.978,2.8,2.806,2.806,0,0,1-2.912,3.24C-1080.861-1437.954-1082.008-1439.014-1082.147-1441.115Z" transform="translate(-6859.946 19557.873)" fill="#444584"/>
      <path id="Path_478-34" data-name="Path 478" d="M-1082.147-1441.115a2.864,2.864,0,0,1,3.114-2.936,2.751,2.751,0,0,1,2.978,2.8,2.806,2.806,0,0,1-2.912,3.24C-1080.861-1437.954-1082.008-1439.014-1082.147-1441.115Z" transform="translate(-6842.015 19557.873)" fill="#444584"/>
      <path id="Path_478-35" data-name="Path 478" d="M-1082.147-1441.115a2.864,2.864,0,0,1,3.114-2.936,2.751,2.751,0,0,1,2.978,2.8,2.806,2.806,0,0,1-2.912,3.24C-1080.861-1437.954-1082.008-1439.014-1082.147-1441.115Z" transform="translate(-7128.915 19575.805)" fill="#444584"/>
      <path id="Path_478-36" data-name="Path 478" d="M-1082.147-1441.115a2.864,2.864,0,0,1,3.114-2.936,2.751,2.751,0,0,1,2.978,2.8,2.806,2.806,0,0,1-2.912,3.24C-1080.861-1437.954-1082.008-1439.014-1082.147-1441.115Z" transform="translate(-7110.983 19575.805)" fill="#444584"/>
      <path id="Path_478-37" data-name="Path 478" d="M-1082.147-1441.115a2.864,2.864,0,0,1,3.114-2.936,2.751,2.751,0,0,1,2.978,2.8,2.806,2.806,0,0,1-2.912,3.24C-1080.861-1437.954-1082.008-1439.014-1082.147-1441.115Z" transform="translate(-7093.052 19575.805)" fill="#444584"/>
      <path id="Path_478-38" data-name="Path 478" d="M-1082.147-1441.115a2.864,2.864,0,0,1,3.114-2.936,2.751,2.751,0,0,1,2.978,2.8,2.806,2.806,0,0,1-2.912,3.24C-1080.861-1437.954-1082.008-1439.014-1082.147-1441.115Z" transform="translate(-7075.121 19575.805)" fill="#444584"/>
      <path id="Path_478-39" data-name="Path 478" d="M-1082.147-1441.115a2.864,2.864,0,0,1,3.114-2.936,2.751,2.751,0,0,1,2.978,2.8,2.806,2.806,0,0,1-2.912,3.24C-1080.861-1437.954-1082.008-1439.014-1082.147-1441.115Z" transform="translate(-7057.19 19575.805)" fill="#444584"/>
      <path id="Path_478-40" data-name="Path 478" d="M-1082.147-1441.115a2.864,2.864,0,0,1,3.114-2.936,2.751,2.751,0,0,1,2.978,2.8,2.806,2.806,0,0,1-2.912,3.24C-1080.861-1437.954-1082.008-1439.014-1082.147-1441.115Z" transform="translate(-7039.259 19575.805)" fill="#444584"/>
      <path id="Path_478-41" data-name="Path 478" d="M-1082.147-1441.115a2.864,2.864,0,0,1,3.114-2.936,2.751,2.751,0,0,1,2.978,2.8,2.806,2.806,0,0,1-2.912,3.24C-1080.861-1437.954-1082.008-1439.014-1082.147-1441.115Z" transform="translate(-7021.328 19575.805)" fill="#444584"/>
      <path id="Path_478-42" data-name="Path 478" d="M-1082.147-1441.115a2.864,2.864,0,0,1,3.114-2.936,2.751,2.751,0,0,1,2.978,2.8,2.806,2.806,0,0,1-2.912,3.24C-1080.861-1437.954-1082.008-1439.014-1082.147-1441.115Z" transform="translate(-7003.396 19575.805)" fill="#444584"/>
      <path id="Path_478-43" data-name="Path 478" d="M-1082.147-1441.115a2.864,2.864,0,0,1,3.114-2.936,2.751,2.751,0,0,1,2.978,2.8,2.806,2.806,0,0,1-2.912,3.24C-1080.861-1437.954-1082.008-1439.014-1082.147-1441.115Z" transform="translate(-6985.465 19575.805)" fill="#444584"/>
      <path id="Path_478-44" data-name="Path 478" d="M-1082.147-1441.115a2.864,2.864,0,0,1,3.114-2.936,2.751,2.751,0,0,1,2.978,2.8,2.806,2.806,0,0,1-2.912,3.24C-1080.861-1437.954-1082.008-1439.014-1082.147-1441.115Z" transform="translate(-6967.534 19575.805)" fill="#444584"/>
      <path id="Path_478-45" data-name="Path 478" d="M-1082.147-1441.115a2.864,2.864,0,0,1,3.114-2.936,2.751,2.751,0,0,1,2.978,2.8,2.806,2.806,0,0,1-2.912,3.24C-1080.861-1437.954-1082.008-1439.014-1082.147-1441.115Z" transform="translate(-6949.603 19575.805)" fill="#444584"/>
      <path id="Path_478-46" data-name="Path 478" d="M-1082.147-1441.115a2.864,2.864,0,0,1,3.114-2.936,2.751,2.751,0,0,1,2.978,2.8,2.806,2.806,0,0,1-2.912,3.24C-1080.861-1437.954-1082.008-1439.014-1082.147-1441.115Z" transform="translate(-6931.671 19575.805)" fill="#444584"/>
      <path id="Path_478-47" data-name="Path 478" d="M-1082.147-1441.115a2.864,2.864,0,0,1,3.114-2.936,2.751,2.751,0,0,1,2.978,2.8,2.806,2.806,0,0,1-2.912,3.24C-1080.861-1437.954-1082.008-1439.014-1082.147-1441.115Z" transform="translate(-6913.74 19575.805)" fill="#444584"/>
      <path id="Path_478-48" data-name="Path 478" d="M-1082.147-1441.115a2.864,2.864,0,0,1,3.114-2.936,2.751,2.751,0,0,1,2.978,2.8,2.806,2.806,0,0,1-2.912,3.24C-1080.861-1437.954-1082.008-1439.014-1082.147-1441.115Z" transform="translate(-6895.809 19575.805)" fill="#444584"/>
      <path id="Path_478-49" data-name="Path 478" d="M-1082.147-1441.115a2.864,2.864,0,0,1,3.114-2.936,2.751,2.751,0,0,1,2.978,2.8,2.806,2.806,0,0,1-2.912,3.24C-1080.861-1437.954-1082.008-1439.014-1082.147-1441.115Z" transform="translate(-6877.877 19575.805)" fill="#444584"/>
      <path id="Path_478-50" data-name="Path 478" d="M-1082.147-1441.115a2.864,2.864,0,0,1,3.114-2.936,2.751,2.751,0,0,1,2.978,2.8,2.806,2.806,0,0,1-2.912,3.24C-1080.861-1437.954-1082.008-1439.014-1082.147-1441.115Z" transform="translate(-6859.946 19575.805)" fill="#444584"/>
      <path id="Path_478-51" data-name="Path 478" d="M-1082.147-1441.115a2.864,2.864,0,0,1,3.114-2.936,2.751,2.751,0,0,1,2.978,2.8,2.806,2.806,0,0,1-2.912,3.24C-1080.861-1437.954-1082.008-1439.014-1082.147-1441.115Z" transform="translate(-6842.015 19575.805)" fill="#444584"/>
      <path id="Path_478-52" data-name="Path 478" d="M-1082.147-1441.115a2.864,2.864,0,0,1,3.114-2.936,2.751,2.751,0,0,1,2.978,2.8,2.806,2.806,0,0,1-2.912,3.24C-1080.861-1437.954-1082.008-1439.014-1082.147-1441.115Z" transform="translate(-7128.915 19593.734)" fill="#444584"/>
      <path id="Path_478-53" data-name="Path 478" d="M-1082.147-1441.115a2.864,2.864,0,0,1,3.114-2.936,2.751,2.751,0,0,1,2.978,2.8,2.806,2.806,0,0,1-2.912,3.24C-1080.861-1437.954-1082.008-1439.014-1082.147-1441.115Z" transform="translate(-7110.983 19593.734)" fill="#444584"/>
      <path id="Path_478-54" data-name="Path 478" d="M-1082.147-1441.115a2.864,2.864,0,0,1,3.114-2.936,2.751,2.751,0,0,1,2.978,2.8,2.806,2.806,0,0,1-2.912,3.24C-1080.861-1437.954-1082.008-1439.014-1082.147-1441.115Z" transform="translate(-7093.052 19593.734)" fill="#444584"/>
      <path id="Path_478-55" data-name="Path 478" d="M-1082.147-1441.115a2.864,2.864,0,0,1,3.114-2.936,2.751,2.751,0,0,1,2.978,2.8,2.806,2.806,0,0,1-2.912,3.24C-1080.861-1437.954-1082.008-1439.014-1082.147-1441.115Z" transform="translate(-7075.121 19593.734)" fill="#444584"/>
      <path id="Path_478-56" data-name="Path 478" d="M-1082.147-1441.115a2.864,2.864,0,0,1,3.114-2.936,2.751,2.751,0,0,1,2.978,2.8,2.806,2.806,0,0,1-2.912,3.24C-1080.861-1437.954-1082.008-1439.014-1082.147-1441.115Z" transform="translate(-7057.19 19593.734)" fill="#444584"/>
      <path id="Path_478-57" data-name="Path 478" d="M-1082.147-1441.115a2.864,2.864,0,0,1,3.114-2.936,2.751,2.751,0,0,1,2.978,2.8,2.806,2.806,0,0,1-2.912,3.24C-1080.861-1437.954-1082.008-1439.014-1082.147-1441.115Z" transform="translate(-7039.259 19593.734)" fill="#444584"/>
      <path id="Path_478-58" data-name="Path 478" d="M-1082.147-1441.115a2.864,2.864,0,0,1,3.114-2.936,2.751,2.751,0,0,1,2.978,2.8,2.806,2.806,0,0,1-2.912,3.24C-1080.861-1437.954-1082.008-1439.014-1082.147-1441.115Z" transform="translate(-7021.328 19593.734)" fill="#444584"/>
      <path id="Path_478-59" data-name="Path 478" d="M-1082.147-1441.115a2.864,2.864,0,0,1,3.114-2.936,2.751,2.751,0,0,1,2.978,2.8,2.806,2.806,0,0,1-2.912,3.24C-1080.861-1437.954-1082.008-1439.014-1082.147-1441.115Z" transform="translate(-7003.396 19593.734)" fill="#444584"/>
      <path id="Path_478-60" data-name="Path 478" d="M-1082.147-1441.115a2.864,2.864,0,0,1,3.114-2.936,2.751,2.751,0,0,1,2.978,2.8,2.806,2.806,0,0,1-2.912,3.24C-1080.861-1437.954-1082.008-1439.014-1082.147-1441.115Z" transform="translate(-6985.465 19593.734)" fill="#444584"/>
      <path id="Path_478-61" data-name="Path 478" d="M-1082.147-1441.115a2.864,2.864,0,0,1,3.114-2.936,2.751,2.751,0,0,1,2.978,2.8,2.806,2.806,0,0,1-2.912,3.24C-1080.861-1437.954-1082.008-1439.014-1082.147-1441.115Z" transform="translate(-6967.534 19593.734)" fill="#444584"/>
      <path id="Path_478-62" data-name="Path 478" d="M-1082.147-1441.115a2.864,2.864,0,0,1,3.114-2.936,2.751,2.751,0,0,1,2.978,2.8,2.806,2.806,0,0,1-2.912,3.24C-1080.861-1437.954-1082.008-1439.014-1082.147-1441.115Z" transform="translate(-6949.603 19593.734)" fill="#444584"/>
      <path id="Path_478-63" data-name="Path 478" d="M-1082.147-1441.115a2.864,2.864,0,0,1,3.114-2.936,2.751,2.751,0,0,1,2.978,2.8,2.806,2.806,0,0,1-2.912,3.24C-1080.861-1437.954-1082.008-1439.014-1082.147-1441.115Z" transform="translate(-6931.671 19593.734)" fill="#444584"/>
      <path id="Path_478-64" data-name="Path 478" d="M-1082.147-1441.115a2.864,2.864,0,0,1,3.114-2.936,2.751,2.751,0,0,1,2.978,2.8,2.806,2.806,0,0,1-2.912,3.24C-1080.861-1437.954-1082.008-1439.014-1082.147-1441.115Z" transform="translate(-6913.74 19593.734)" fill="#444584"/>
      <path id="Path_478-65" data-name="Path 478" d="M-1082.147-1441.115a2.864,2.864,0,0,1,3.114-2.936,2.751,2.751,0,0,1,2.978,2.8,2.806,2.806,0,0,1-2.912,3.24C-1080.861-1437.954-1082.008-1439.014-1082.147-1441.115Z" transform="translate(-6895.809 19593.734)" fill="#444584"/>
      <path id="Path_478-66" data-name="Path 478" d="M-1082.147-1441.115a2.864,2.864,0,0,1,3.114-2.936,2.751,2.751,0,0,1,2.978,2.8,2.806,2.806,0,0,1-2.912,3.24C-1080.861-1437.954-1082.008-1439.014-1082.147-1441.115Z" transform="translate(-6877.877 19593.734)" fill="#444584"/>
      <path id="Path_478-67" data-name="Path 478" d="M-1082.147-1441.115a2.864,2.864,0,0,1,3.114-2.936,2.751,2.751,0,0,1,2.978,2.8,2.806,2.806,0,0,1-2.912,3.24C-1080.861-1437.954-1082.008-1439.014-1082.147-1441.115Z" transform="translate(-6859.946 19593.734)" fill="#444584"/>
      <path id="Path_478-68" data-name="Path 478" d="M-1082.147-1441.115a2.864,2.864,0,0,1,3.114-2.936,2.751,2.751,0,0,1,2.978,2.8,2.806,2.806,0,0,1-2.912,3.24C-1080.861-1437.954-1082.008-1439.014-1082.147-1441.115Z" transform="translate(-6842.015 19593.734)" fill="#444584"/>
      <path id="Path_478-69" data-name="Path 478" d="M-1082.147-1441.115a2.864,2.864,0,0,1,3.114-2.936,2.751,2.751,0,0,1,2.978,2.8,2.806,2.806,0,0,1-2.912,3.24C-1080.861-1437.954-1082.008-1439.014-1082.147-1441.115Z" transform="translate(-7128.915 19611.666)" fill="#444584"/>
      <path id="Path_478-70" data-name="Path 478" d="M-1082.147-1441.115a2.864,2.864,0,0,1,3.114-2.936,2.751,2.751,0,0,1,2.978,2.8,2.806,2.806,0,0,1-2.912,3.24C-1080.861-1437.954-1082.008-1439.014-1082.147-1441.115Z" transform="translate(-7110.983 19611.666)" fill="#444584"/>
      <path id="Path_478-71" data-name="Path 478" d="M-1082.147-1441.115a2.864,2.864,0,0,1,3.114-2.936,2.751,2.751,0,0,1,2.978,2.8,2.806,2.806,0,0,1-2.912,3.24C-1080.861-1437.954-1082.008-1439.014-1082.147-1441.115Z" transform="translate(-7093.052 19611.666)" fill="#444584"/>
      <path id="Path_478-72" data-name="Path 478" d="M-1082.147-1441.115a2.864,2.864,0,0,1,3.114-2.936,2.751,2.751,0,0,1,2.978,2.8,2.806,2.806,0,0,1-2.912,3.24C-1080.861-1437.954-1082.008-1439.014-1082.147-1441.115Z" transform="translate(-7075.121 19611.666)" fill="#444584"/>
      <path id="Path_478-73" data-name="Path 478" d="M-1082.147-1441.115a2.864,2.864,0,0,1,3.114-2.936,2.751,2.751,0,0,1,2.978,2.8,2.806,2.806,0,0,1-2.912,3.24C-1080.861-1437.954-1082.008-1439.014-1082.147-1441.115Z" transform="translate(-7057.19 19611.666)" fill="#444584"/>
      <path id="Path_478-74" data-name="Path 478" d="M-1082.147-1441.115a2.864,2.864,0,0,1,3.114-2.936,2.751,2.751,0,0,1,2.978,2.8,2.806,2.806,0,0,1-2.912,3.24C-1080.861-1437.954-1082.008-1439.014-1082.147-1441.115Z" transform="translate(-7039.259 19611.666)" fill="#444584"/>
      <path id="Path_478-75" data-name="Path 478" d="M-1082.147-1441.115a2.864,2.864,0,0,1,3.114-2.936,2.751,2.751,0,0,1,2.978,2.8,2.806,2.806,0,0,1-2.912,3.24C-1080.861-1437.954-1082.008-1439.014-1082.147-1441.115Z" transform="translate(-7021.328 19611.666)" fill="#444584"/>
      <path id="Path_478-76" data-name="Path 478" d="M-1082.147-1441.115a2.864,2.864,0,0,1,3.114-2.936,2.751,2.751,0,0,1,2.978,2.8,2.806,2.806,0,0,1-2.912,3.24C-1080.861-1437.954-1082.008-1439.014-1082.147-1441.115Z" transform="translate(-7003.396 19611.666)" fill="#444584"/>
      <path id="Path_478-77" data-name="Path 478" d="M-1082.147-1441.115a2.864,2.864,0,0,1,3.114-2.936,2.751,2.751,0,0,1,2.978,2.8,2.806,2.806,0,0,1-2.912,3.24C-1080.861-1437.954-1082.008-1439.014-1082.147-1441.115Z" transform="translate(-6985.465 19611.666)" fill="#444584"/>
      <path id="Path_478-78" data-name="Path 478" d="M-1082.147-1441.115a2.864,2.864,0,0,1,3.114-2.936,2.751,2.751,0,0,1,2.978,2.8,2.806,2.806,0,0,1-2.912,3.24C-1080.861-1437.954-1082.008-1439.014-1082.147-1441.115Z" transform="translate(-6967.534 19611.666)" fill="#444584"/>
      <path id="Path_478-79" data-name="Path 478" d="M-1082.147-1441.115a2.864,2.864,0,0,1,3.114-2.936,2.751,2.751,0,0,1,2.978,2.8,2.806,2.806,0,0,1-2.912,3.24C-1080.861-1437.954-1082.008-1439.014-1082.147-1441.115Z" transform="translate(-6949.603 19611.666)" fill="#444584"/>
      <path id="Path_478-80" data-name="Path 478" d="M-1082.147-1441.115a2.864,2.864,0,0,1,3.114-2.936,2.751,2.751,0,0,1,2.978,2.8,2.806,2.806,0,0,1-2.912,3.24C-1080.861-1437.954-1082.008-1439.014-1082.147-1441.115Z" transform="translate(-6931.671 19611.666)" fill="#444584"/>
      <path id="Path_478-81" data-name="Path 478" d="M-1082.147-1441.115a2.864,2.864,0,0,1,3.114-2.936,2.751,2.751,0,0,1,2.978,2.8,2.806,2.806,0,0,1-2.912,3.24C-1080.861-1437.954-1082.008-1439.014-1082.147-1441.115Z" transform="translate(-6913.74 19611.666)" fill="#444584"/>
      <path id="Path_478-82" data-name="Path 478" d="M-1082.147-1441.115a2.864,2.864,0,0,1,3.114-2.936,2.751,2.751,0,0,1,2.978,2.8,2.806,2.806,0,0,1-2.912,3.24C-1080.861-1437.954-1082.008-1439.014-1082.147-1441.115Z" transform="translate(-6895.809 19611.666)" fill="#444584"/>
      <path id="Path_478-83" data-name="Path 478" d="M-1082.147-1441.115a2.864,2.864,0,0,1,3.114-2.936,2.751,2.751,0,0,1,2.978,2.8,2.806,2.806,0,0,1-2.912,3.24C-1080.861-1437.954-1082.008-1439.014-1082.147-1441.115Z" transform="translate(-6877.877 19611.666)" fill="#444584"/>
      <path id="Path_478-84" data-name="Path 478" d="M-1082.147-1441.115a2.864,2.864,0,0,1,3.114-2.936,2.751,2.751,0,0,1,2.978,2.8,2.806,2.806,0,0,1-2.912,3.24C-1080.861-1437.954-1082.008-1439.014-1082.147-1441.115Z" transform="translate(-6859.946 19611.666)" fill="#444584"/>
      <path id="Path_478-85" data-name="Path 478" d="M-1082.147-1441.115a2.864,2.864,0,0,1,3.114-2.936,2.751,2.751,0,0,1,2.978,2.8,2.806,2.806,0,0,1-2.912,3.24C-1080.861-1437.954-1082.008-1439.014-1082.147-1441.115Z" transform="translate(-6842.015 19611.666)" fill="#444584"/>
      <path id="Path_478-86" data-name="Path 478" d="M-1082.147-1441.115a2.864,2.864,0,0,1,3.114-2.936,2.751,2.751,0,0,1,2.978,2.8,2.806,2.806,0,0,1-2.912,3.24C-1080.861-1437.954-1082.008-1439.014-1082.147-1441.115Z" transform="translate(-7128.915 19629.598)" fill="#444584"/>
      <path id="Path_478-87" data-name="Path 478" d="M-1082.147-1441.115a2.864,2.864,0,0,1,3.114-2.936,2.751,2.751,0,0,1,2.978,2.8,2.806,2.806,0,0,1-2.912,3.24C-1080.861-1437.954-1082.008-1439.014-1082.147-1441.115Z" transform="translate(-7110.983 19629.598)" fill="#444584"/>
      <path id="Path_478-88" data-name="Path 478" d="M-1082.147-1441.115a2.864,2.864,0,0,1,3.114-2.936,2.751,2.751,0,0,1,2.978,2.8,2.806,2.806,0,0,1-2.912,3.24C-1080.861-1437.954-1082.008-1439.014-1082.147-1441.115Z" transform="translate(-7093.052 19629.598)" fill="#444584"/>
      <path id="Path_478-89" data-name="Path 478" d="M-1082.147-1441.115a2.864,2.864,0,0,1,3.114-2.936,2.751,2.751,0,0,1,2.978,2.8,2.806,2.806,0,0,1-2.912,3.24C-1080.861-1437.954-1082.008-1439.014-1082.147-1441.115Z" transform="translate(-7075.121 19629.598)" fill="#444584"/>
      <path id="Path_478-90" data-name="Path 478" d="M-1082.147-1441.115a2.864,2.864,0,0,1,3.114-2.936,2.751,2.751,0,0,1,2.978,2.8,2.806,2.806,0,0,1-2.912,3.24C-1080.861-1437.954-1082.008-1439.014-1082.147-1441.115Z" transform="translate(-7057.19 19629.598)" fill="#444584"/>
      <path id="Path_478-91" data-name="Path 478" d="M-1082.147-1441.115a2.864,2.864,0,0,1,3.114-2.936,2.751,2.751,0,0,1,2.978,2.8,2.806,2.806,0,0,1-2.912,3.24C-1080.861-1437.954-1082.008-1439.014-1082.147-1441.115Z" transform="translate(-7039.259 19629.598)" fill="#444584"/>
      <path id="Path_478-92" data-name="Path 478" d="M-1082.147-1441.115a2.864,2.864,0,0,1,3.114-2.936,2.751,2.751,0,0,1,2.978,2.8,2.806,2.806,0,0,1-2.912,3.24C-1080.861-1437.954-1082.008-1439.014-1082.147-1441.115Z" transform="translate(-7021.328 19629.598)" fill="#444584"/>
      <path id="Path_478-93" data-name="Path 478" d="M-1082.147-1441.115a2.864,2.864,0,0,1,3.114-2.936,2.751,2.751,0,0,1,2.978,2.8,2.806,2.806,0,0,1-2.912,3.24C-1080.861-1437.954-1082.008-1439.014-1082.147-1441.115Z" transform="translate(-7003.396 19629.598)" fill="#444584"/>
      <path id="Path_478-94" data-name="Path 478" d="M-1082.147-1441.115a2.864,2.864,0,0,1,3.114-2.936,2.751,2.751,0,0,1,2.978,2.8,2.806,2.806,0,0,1-2.912,3.24C-1080.861-1437.954-1082.008-1439.014-1082.147-1441.115Z" transform="translate(-6985.465 19629.598)" fill="#444584"/>
      <path id="Path_478-95" data-name="Path 478" d="M-1082.147-1441.115a2.864,2.864,0,0,1,3.114-2.936,2.751,2.751,0,0,1,2.978,2.8,2.806,2.806,0,0,1-2.912,3.24C-1080.861-1437.954-1082.008-1439.014-1082.147-1441.115Z" transform="translate(-6967.534 19629.598)" fill="#444584"/>
      <path id="Path_478-96" data-name="Path 478" d="M-1082.147-1441.115a2.864,2.864,0,0,1,3.114-2.936,2.751,2.751,0,0,1,2.978,2.8,2.806,2.806,0,0,1-2.912,3.24C-1080.861-1437.954-1082.008-1439.014-1082.147-1441.115Z" transform="translate(-6949.603 19629.598)" fill="#444584"/>
      <path id="Path_478-97" data-name="Path 478" d="M-1082.147-1441.115a2.864,2.864,0,0,1,3.114-2.936,2.751,2.751,0,0,1,2.978,2.8,2.806,2.806,0,0,1-2.912,3.24C-1080.861-1437.954-1082.008-1439.014-1082.147-1441.115Z" transform="translate(-6931.671 19629.598)" fill="#444584"/>
      <path id="Path_478-98" data-name="Path 478" d="M-1082.147-1441.115a2.864,2.864,0,0,1,3.114-2.936,2.751,2.751,0,0,1,2.978,2.8,2.806,2.806,0,0,1-2.912,3.24C-1080.861-1437.954-1082.008-1439.014-1082.147-1441.115Z" transform="translate(-6913.74 19629.598)" fill="#444584"/>
      <path id="Path_478-99" data-name="Path 478" d="M-1082.147-1441.115a2.864,2.864,0,0,1,3.114-2.936,2.751,2.751,0,0,1,2.978,2.8,2.806,2.806,0,0,1-2.912,3.24C-1080.861-1437.954-1082.008-1439.014-1082.147-1441.115Z" transform="translate(-6895.809 19629.598)" fill="#444584"/>
      <path id="Path_478-100" data-name="Path 478" d="M-1082.147-1441.115a2.864,2.864,0,0,1,3.114-2.936,2.751,2.751,0,0,1,2.978,2.8,2.806,2.806,0,0,1-2.912,3.24C-1080.861-1437.954-1082.008-1439.014-1082.147-1441.115Z" transform="translate(-6877.877 19629.598)" fill="#444584"/>
      <path id="Path_478-101" data-name="Path 478" d="M-1082.147-1441.115a2.864,2.864,0,0,1,3.114-2.936,2.751,2.751,0,0,1,2.978,2.8,2.806,2.806,0,0,1-2.912,3.24C-1080.861-1437.954-1082.008-1439.014-1082.147-1441.115Z" transform="translate(-6859.946 19629.598)" fill="#444584"/>
      <path id="Path_478-102" data-name="Path 478" d="M-1082.147-1441.115a2.864,2.864,0,0,1,3.114-2.936,2.751,2.751,0,0,1,2.978,2.8,2.806,2.806,0,0,1-2.912,3.24C-1080.861-1437.954-1082.008-1439.014-1082.147-1441.115Z" transform="translate(-6842.015 19629.598)" fill="#444584"/>
      <path id="Path_478-103" data-name="Path 478" d="M-1082.147-1441.115a2.864,2.864,0,0,1,3.114-2.936,2.751,2.751,0,0,1,2.978,2.8,2.806,2.806,0,0,1-2.912,3.24C-1080.861-1437.954-1082.008-1439.014-1082.147-1441.115Z" transform="translate(-7128.915 19647.529)" fill="#444584"/>
      <path id="Path_478-104" data-name="Path 478" d="M-1082.147-1441.115a2.864,2.864,0,0,1,3.114-2.936,2.751,2.751,0,0,1,2.978,2.8,2.806,2.806,0,0,1-2.912,3.24C-1080.861-1437.954-1082.008-1439.014-1082.147-1441.115Z" transform="translate(-7110.983 19647.529)" fill="#444584"/>
      <path id="Path_478-105" data-name="Path 478" d="M-1082.147-1441.115a2.864,2.864,0,0,1,3.114-2.936,2.751,2.751,0,0,1,2.978,2.8,2.806,2.806,0,0,1-2.912,3.24C-1080.861-1437.954-1082.008-1439.014-1082.147-1441.115Z" transform="translate(-7093.052 19647.529)" fill="#444584"/>
      <path id="Path_478-106" data-name="Path 478" d="M-1082.147-1441.115a2.864,2.864,0,0,1,3.114-2.936,2.751,2.751,0,0,1,2.978,2.8,2.806,2.806,0,0,1-2.912,3.24C-1080.861-1437.954-1082.008-1439.014-1082.147-1441.115Z" transform="translate(-7075.121 19647.529)" fill="#444584"/>
      <path id="Path_478-107" data-name="Path 478" d="M-1082.147-1441.115a2.864,2.864,0,0,1,3.114-2.936,2.751,2.751,0,0,1,2.978,2.8,2.806,2.806,0,0,1-2.912,3.24C-1080.861-1437.954-1082.008-1439.014-1082.147-1441.115Z" transform="translate(-7057.19 19647.529)" fill="#444584"/>
      <path id="Path_478-108" data-name="Path 478" d="M-1082.147-1441.115a2.864,2.864,0,0,1,3.114-2.936,2.751,2.751,0,0,1,2.978,2.8,2.806,2.806,0,0,1-2.912,3.24C-1080.861-1437.954-1082.008-1439.014-1082.147-1441.115Z" transform="translate(-7039.259 19647.529)" fill="#444584"/>
      <path id="Path_478-109" data-name="Path 478" d="M-1082.147-1441.115a2.864,2.864,0,0,1,3.114-2.936,2.751,2.751,0,0,1,2.978,2.8,2.806,2.806,0,0,1-2.912,3.24C-1080.861-1437.954-1082.008-1439.014-1082.147-1441.115Z" transform="translate(-7021.328 19647.529)" fill="#444584"/>
      <path id="Path_478-110" data-name="Path 478" d="M-1082.147-1441.115a2.864,2.864,0,0,1,3.114-2.936,2.751,2.751,0,0,1,2.978,2.8,2.806,2.806,0,0,1-2.912,3.24C-1080.861-1437.954-1082.008-1439.014-1082.147-1441.115Z" transform="translate(-7003.396 19647.529)" fill="#444584"/>
      <path id="Path_478-111" data-name="Path 478" d="M-1082.147-1441.115a2.864,2.864,0,0,1,3.114-2.936,2.751,2.751,0,0,1,2.978,2.8,2.806,2.806,0,0,1-2.912,3.24C-1080.861-1437.954-1082.008-1439.014-1082.147-1441.115Z" transform="translate(-6985.465 19647.529)" fill="#444584"/>
      <path id="Path_478-112" data-name="Path 478" d="M-1082.147-1441.115a2.864,2.864,0,0,1,3.114-2.936,2.751,2.751,0,0,1,2.978,2.8,2.806,2.806,0,0,1-2.912,3.24C-1080.861-1437.954-1082.008-1439.014-1082.147-1441.115Z" transform="translate(-6967.534 19647.529)" fill="#444584"/>
      <path id="Path_478-113" data-name="Path 478" d="M-1082.147-1441.115a2.864,2.864,0,0,1,3.114-2.936,2.751,2.751,0,0,1,2.978,2.8,2.806,2.806,0,0,1-2.912,3.24C-1080.861-1437.954-1082.008-1439.014-1082.147-1441.115Z" transform="translate(-6949.603 19647.529)" fill="#444584"/>
      <path id="Path_478-114" data-name="Path 478" d="M-1082.147-1441.115a2.864,2.864,0,0,1,3.114-2.936,2.751,2.751,0,0,1,2.978,2.8,2.806,2.806,0,0,1-2.912,3.24C-1080.861-1437.954-1082.008-1439.014-1082.147-1441.115Z" transform="translate(-6931.671 19647.529)" fill="#444584"/>
      <path id="Path_478-115" data-name="Path 478" d="M-1082.147-1441.115a2.864,2.864,0,0,1,3.114-2.936,2.751,2.751,0,0,1,2.978,2.8,2.806,2.806,0,0,1-2.912,3.24C-1080.861-1437.954-1082.008-1439.014-1082.147-1441.115Z" transform="translate(-6913.74 19647.529)" fill="#444584"/>
      <path id="Path_478-116" data-name="Path 478" d="M-1082.147-1441.115a2.864,2.864,0,0,1,3.114-2.936,2.751,2.751,0,0,1,2.978,2.8,2.806,2.806,0,0,1-2.912,3.24C-1080.861-1437.954-1082.008-1439.014-1082.147-1441.115Z" transform="translate(-6895.809 19647.529)" fill="#444584"/>
      <path id="Path_478-117" data-name="Path 478" d="M-1082.147-1441.115a2.864,2.864,0,0,1,3.114-2.936,2.751,2.751,0,0,1,2.978,2.8,2.806,2.806,0,0,1-2.912,3.24C-1080.861-1437.954-1082.008-1439.014-1082.147-1441.115Z" transform="translate(-6877.877 19647.529)" fill="#444584"/>
      <path id="Path_478-118" data-name="Path 478" d="M-1082.147-1441.115a2.864,2.864,0,0,1,3.114-2.936,2.751,2.751,0,0,1,2.978,2.8,2.806,2.806,0,0,1-2.912,3.24C-1080.861-1437.954-1082.008-1439.014-1082.147-1441.115Z" transform="translate(-6859.946 19647.529)" fill="#444584"/>
      <path id="Path_478-119" data-name="Path 478" d="M-1082.147-1441.115a2.864,2.864,0,0,1,3.114-2.936,2.751,2.751,0,0,1,2.978,2.8,2.806,2.806,0,0,1-2.912,3.24C-1080.861-1437.954-1082.008-1439.014-1082.147-1441.115Z" transform="translate(-6842.015 19647.529)" fill="#444584"/>
      <path id="Path_478-120" data-name="Path 478" d="M-1082.147-1441.115a2.864,2.864,0,0,1,3.114-2.936,2.751,2.751,0,0,1,2.978,2.8,2.806,2.806,0,0,1-2.912,3.24C-1080.861-1437.954-1082.008-1439.014-1082.147-1441.115Z" transform="translate(-7128.915 19665.459)" fill="#444584"/>
      <path id="Path_478-121" data-name="Path 478" d="M-1082.147-1441.115a2.864,2.864,0,0,1,3.114-2.936,2.751,2.751,0,0,1,2.978,2.8,2.806,2.806,0,0,1-2.912,3.24C-1080.861-1437.954-1082.008-1439.014-1082.147-1441.115Z" transform="translate(-7110.983 19665.459)" fill="#444584"/>
      <path id="Path_478-122" data-name="Path 478" d="M-1082.147-1441.115a2.864,2.864,0,0,1,3.114-2.936,2.751,2.751,0,0,1,2.978,2.8,2.806,2.806,0,0,1-2.912,3.24C-1080.861-1437.954-1082.008-1439.014-1082.147-1441.115Z" transform="translate(-7093.052 19665.459)" fill="#444584"/>
      <path id="Path_478-123" data-name="Path 478" d="M-1082.147-1441.115a2.864,2.864,0,0,1,3.114-2.936,2.751,2.751,0,0,1,2.978,2.8,2.806,2.806,0,0,1-2.912,3.24C-1080.861-1437.954-1082.008-1439.014-1082.147-1441.115Z" transform="translate(-7075.121 19665.459)" fill="#444584"/>
      <path id="Path_478-124" data-name="Path 478" d="M-1082.147-1441.115a2.864,2.864,0,0,1,3.114-2.936,2.751,2.751,0,0,1,2.978,2.8,2.806,2.806,0,0,1-2.912,3.24C-1080.861-1437.954-1082.008-1439.014-1082.147-1441.115Z" transform="translate(-7057.19 19665.459)" fill="#444584"/>
      <path id="Path_478-125" data-name="Path 478" d="M-1082.147-1441.115a2.864,2.864,0,0,1,3.114-2.936,2.751,2.751,0,0,1,2.978,2.8,2.806,2.806,0,0,1-2.912,3.24C-1080.861-1437.954-1082.008-1439.014-1082.147-1441.115Z" transform="translate(-7039.259 19665.459)" fill="#444584"/>
      <path id="Path_478-126" data-name="Path 478" d="M-1082.147-1441.115a2.864,2.864,0,0,1,3.114-2.936,2.751,2.751,0,0,1,2.978,2.8,2.806,2.806,0,0,1-2.912,3.24C-1080.861-1437.954-1082.008-1439.014-1082.147-1441.115Z" transform="translate(-7021.328 19665.459)" fill="#444584"/>
      <path id="Path_478-127" data-name="Path 478" d="M-1082.147-1441.115a2.864,2.864,0,0,1,3.114-2.936,2.751,2.751,0,0,1,2.978,2.8,2.806,2.806,0,0,1-2.912,3.24C-1080.861-1437.954-1082.008-1439.014-1082.147-1441.115Z" transform="translate(-7003.396 19665.459)" fill="#444584"/>
      <path id="Path_478-128" data-name="Path 478" d="M-1082.147-1441.115a2.864,2.864,0,0,1,3.114-2.936,2.751,2.751,0,0,1,2.978,2.8,2.806,2.806,0,0,1-2.912,3.24C-1080.861-1437.954-1082.008-1439.014-1082.147-1441.115Z" transform="translate(-6985.465 19665.459)" fill="#444584"/>
      <path id="Path_478-129" data-name="Path 478" d="M-1082.147-1441.115a2.864,2.864,0,0,1,3.114-2.936,2.751,2.751,0,0,1,2.978,2.8,2.806,2.806,0,0,1-2.912,3.24C-1080.861-1437.954-1082.008-1439.014-1082.147-1441.115Z" transform="translate(-6967.534 19665.459)" fill="#444584"/>
      <path id="Path_478-130" data-name="Path 478" d="M-1082.147-1441.115a2.864,2.864,0,0,1,3.114-2.936,2.751,2.751,0,0,1,2.978,2.8,2.806,2.806,0,0,1-2.912,3.24C-1080.861-1437.954-1082.008-1439.014-1082.147-1441.115Z" transform="translate(-6949.603 19665.459)" fill="#444584"/>
      <path id="Path_478-131" data-name="Path 478" d="M-1082.147-1441.115a2.864,2.864,0,0,1,3.114-2.936,2.751,2.751,0,0,1,2.978,2.8,2.806,2.806,0,0,1-2.912,3.24C-1080.861-1437.954-1082.008-1439.014-1082.147-1441.115Z" transform="translate(-6931.671 19665.459)" fill="#444584"/>
      <path id="Path_478-132" data-name="Path 478" d="M-1082.147-1441.115a2.864,2.864,0,0,1,3.114-2.936,2.751,2.751,0,0,1,2.978,2.8,2.806,2.806,0,0,1-2.912,3.24C-1080.861-1437.954-1082.008-1439.014-1082.147-1441.115Z" transform="translate(-6913.74 19665.459)" fill="#444584"/>
      <path id="Path_478-133" data-name="Path 478" d="M-1082.147-1441.115a2.864,2.864,0,0,1,3.114-2.936,2.751,2.751,0,0,1,2.978,2.8,2.806,2.806,0,0,1-2.912,3.24C-1080.861-1437.954-1082.008-1439.014-1082.147-1441.115Z" transform="translate(-6895.809 19665.459)" fill="#444584"/>
      <path id="Path_478-134" data-name="Path 478" d="M-1082.147-1441.115a2.864,2.864,0,0,1,3.114-2.936,2.751,2.751,0,0,1,2.978,2.8,2.806,2.806,0,0,1-2.912,3.24C-1080.861-1437.954-1082.008-1439.014-1082.147-1441.115Z" transform="translate(-6877.877 19665.459)" fill="#444584"/>
      <path id="Path_478-135" data-name="Path 478" d="M-1082.147-1441.115a2.864,2.864,0,0,1,3.114-2.936,2.751,2.751,0,0,1,2.978,2.8,2.806,2.806,0,0,1-2.912,3.24C-1080.861-1437.954-1082.008-1439.014-1082.147-1441.115Z" transform="translate(-6859.946 19665.459)" fill="#444584"/>
      <path id="Path_478-136" data-name="Path 478" d="M-1082.147-1441.115a2.864,2.864,0,0,1,3.114-2.936,2.751,2.751,0,0,1,2.978,2.8,2.806,2.806,0,0,1-2.912,3.24C-1080.861-1437.954-1082.008-1439.014-1082.147-1441.115Z" transform="translate(-6842.015 19665.459)" fill="#444584"/>
      <path id="Path_478-137" data-name="Path 478" d="M-1082.147-1441.115a2.864,2.864,0,0,1,3.114-2.936,2.751,2.751,0,0,1,2.978,2.8,2.806,2.806,0,0,1-2.912,3.24C-1080.861-1437.954-1082.008-1439.014-1082.147-1441.115Z" transform="translate(-7128.915 19683.391)" fill="#444584"/>
      <path id="Path_478-138" data-name="Path 478" d="M-1082.147-1441.115a2.864,2.864,0,0,1,3.114-2.936,2.751,2.751,0,0,1,2.978,2.8,2.806,2.806,0,0,1-2.912,3.24C-1080.861-1437.954-1082.008-1439.014-1082.147-1441.115Z" transform="translate(-7110.983 19683.391)" fill="#444584"/>
      <path id="Path_478-139" data-name="Path 478" d="M-1082.147-1441.115a2.864,2.864,0,0,1,3.114-2.936,2.751,2.751,0,0,1,2.978,2.8,2.806,2.806,0,0,1-2.912,3.24C-1080.861-1437.954-1082.008-1439.014-1082.147-1441.115Z" transform="translate(-7093.052 19683.391)" fill="#444584"/>
      <path id="Path_478-140" data-name="Path 478" d="M-1082.147-1441.115a2.864,2.864,0,0,1,3.114-2.936,2.751,2.751,0,0,1,2.978,2.8,2.806,2.806,0,0,1-2.912,3.24C-1080.861-1437.954-1082.008-1439.014-1082.147-1441.115Z" transform="translate(-7075.121 19683.391)" fill="#444584"/>
      <path id="Path_478-141" data-name="Path 478" d="M-1082.147-1441.115a2.864,2.864,0,0,1,3.114-2.936,2.751,2.751,0,0,1,2.978,2.8,2.806,2.806,0,0,1-2.912,3.24C-1080.861-1437.954-1082.008-1439.014-1082.147-1441.115Z" transform="translate(-7057.19 19683.391)" fill="#444584"/>
      <path id="Path_478-142" data-name="Path 478" d="M-1082.147-1441.115a2.864,2.864,0,0,1,3.114-2.936,2.751,2.751,0,0,1,2.978,2.8,2.806,2.806,0,0,1-2.912,3.24C-1080.861-1437.954-1082.008-1439.014-1082.147-1441.115Z" transform="translate(-7039.259 19683.391)" fill="#444584"/>
      <path id="Path_478-143" data-name="Path 478" d="M-1082.147-1441.115a2.864,2.864,0,0,1,3.114-2.936,2.751,2.751,0,0,1,2.978,2.8,2.806,2.806,0,0,1-2.912,3.24C-1080.861-1437.954-1082.008-1439.014-1082.147-1441.115Z" transform="translate(-7021.328 19683.391)" fill="#444584"/>
      <path id="Path_478-144" data-name="Path 478" d="M-1082.147-1441.115a2.864,2.864,0,0,1,3.114-2.936,2.751,2.751,0,0,1,2.978,2.8,2.806,2.806,0,0,1-2.912,3.24C-1080.861-1437.954-1082.008-1439.014-1082.147-1441.115Z" transform="translate(-7003.396 19683.391)" fill="#444584"/>
      <path id="Path_478-145" data-name="Path 478" d="M-1082.147-1441.115a2.864,2.864,0,0,1,3.114-2.936,2.751,2.751,0,0,1,2.978,2.8,2.806,2.806,0,0,1-2.912,3.24C-1080.861-1437.954-1082.008-1439.014-1082.147-1441.115Z" transform="translate(-6985.465 19683.391)" fill="#444584"/>
      <path id="Path_478-146" data-name="Path 478" d="M-1082.147-1441.115a2.864,2.864,0,0,1,3.114-2.936,2.751,2.751,0,0,1,2.978,2.8,2.806,2.806,0,0,1-2.912,3.24C-1080.861-1437.954-1082.008-1439.014-1082.147-1441.115Z" transform="translate(-6967.534 19683.391)" fill="#444584"/>
      <path id="Path_478-147" data-name="Path 478" d="M-1082.147-1441.115a2.864,2.864,0,0,1,3.114-2.936,2.751,2.751,0,0,1,2.978,2.8,2.806,2.806,0,0,1-2.912,3.24C-1080.861-1437.954-1082.008-1439.014-1082.147-1441.115Z" transform="translate(-6949.603 19683.391)" fill="#444584"/>
      <path id="Path_478-148" data-name="Path 478" d="M-1082.147-1441.115a2.864,2.864,0,0,1,3.114-2.936,2.751,2.751,0,0,1,2.978,2.8,2.806,2.806,0,0,1-2.912,3.24C-1080.861-1437.954-1082.008-1439.014-1082.147-1441.115Z" transform="translate(-6931.671 19683.391)" fill="#444584"/>
      <path id="Path_478-149" data-name="Path 478" d="M-1082.147-1441.115a2.864,2.864,0,0,1,3.114-2.936,2.751,2.751,0,0,1,2.978,2.8,2.806,2.806,0,0,1-2.912,3.24C-1080.861-1437.954-1082.008-1439.014-1082.147-1441.115Z" transform="translate(-6913.74 19683.391)" fill="#444584"/>
      <path id="Path_478-150" data-name="Path 478" d="M-1082.147-1441.115a2.864,2.864,0,0,1,3.114-2.936,2.751,2.751,0,0,1,2.978,2.8,2.806,2.806,0,0,1-2.912,3.24C-1080.861-1437.954-1082.008-1439.014-1082.147-1441.115Z" transform="translate(-6895.809 19683.391)" fill="#444584"/>
      <path id="Path_478-151" data-name="Path 478" d="M-1082.147-1441.115a2.864,2.864,0,0,1,3.114-2.936,2.751,2.751,0,0,1,2.978,2.8,2.806,2.806,0,0,1-2.912,3.24C-1080.861-1437.954-1082.008-1439.014-1082.147-1441.115Z" transform="translate(-6877.877 19683.391)" fill="#444584"/>
      <path id="Path_478-152" data-name="Path 478" d="M-1082.147-1441.115a2.864,2.864,0,0,1,3.114-2.936,2.751,2.751,0,0,1,2.978,2.8,2.806,2.806,0,0,1-2.912,3.24C-1080.861-1437.954-1082.008-1439.014-1082.147-1441.115Z" transform="translate(-6859.946 19683.391)" fill="#444584"/>
      <path id="Path_478-153" data-name="Path 478" d="M-1082.147-1441.115a2.864,2.864,0,0,1,3.114-2.936,2.751,2.751,0,0,1,2.978,2.8,2.806,2.806,0,0,1-2.912,3.24C-1080.861-1437.954-1082.008-1439.014-1082.147-1441.115Z" transform="translate(-6842.015 19683.391)" fill="#444584"/>
      <path id="Path_478-154" data-name="Path 478" d="M-1082.147-1441.115a2.864,2.864,0,0,1,3.114-2.936,2.751,2.751,0,0,1,2.978,2.8,2.806,2.806,0,0,1-2.912,3.24C-1080.861-1437.954-1082.008-1439.014-1082.147-1441.115Z" transform="translate(-7128.915 19701.322)" fill="#444584"/>
      <path id="Path_478-155" data-name="Path 478" d="M-1082.147-1441.115a2.864,2.864,0,0,1,3.114-2.936,2.751,2.751,0,0,1,2.978,2.8,2.806,2.806,0,0,1-2.912,3.24C-1080.861-1437.954-1082.008-1439.014-1082.147-1441.115Z" transform="translate(-7110.983 19701.322)" fill="#444584"/>
      <path id="Path_478-156" data-name="Path 478" d="M-1082.147-1441.115a2.864,2.864,0,0,1,3.114-2.936,2.751,2.751,0,0,1,2.978,2.8,2.806,2.806,0,0,1-2.912,3.24C-1080.861-1437.954-1082.008-1439.014-1082.147-1441.115Z" transform="translate(-7093.052 19701.322)" fill="#444584"/>
      <path id="Path_478-157" data-name="Path 478" d="M-1082.147-1441.115a2.864,2.864,0,0,1,3.114-2.936,2.751,2.751,0,0,1,2.978,2.8,2.806,2.806,0,0,1-2.912,3.24C-1080.861-1437.954-1082.008-1439.014-1082.147-1441.115Z" transform="translate(-7075.121 19701.322)" fill="#444584"/>
      <path id="Path_478-158" data-name="Path 478" d="M-1082.147-1441.115a2.864,2.864,0,0,1,3.114-2.936,2.751,2.751,0,0,1,2.978,2.8,2.806,2.806,0,0,1-2.912,3.24C-1080.861-1437.954-1082.008-1439.014-1082.147-1441.115Z" transform="translate(-7057.19 19701.322)" fill="#444584"/>
      <path id="Path_478-159" data-name="Path 478" d="M-1082.147-1441.115a2.864,2.864,0,0,1,3.114-2.936,2.751,2.751,0,0,1,2.978,2.8,2.806,2.806,0,0,1-2.912,3.24C-1080.861-1437.954-1082.008-1439.014-1082.147-1441.115Z" transform="translate(-7039.259 19701.322)" fill="#444584"/>
      <path id="Path_478-160" data-name="Path 478" d="M-1082.147-1441.115a2.864,2.864,0,0,1,3.114-2.936,2.751,2.751,0,0,1,2.978,2.8,2.806,2.806,0,0,1-2.912,3.24C-1080.861-1437.954-1082.008-1439.014-1082.147-1441.115Z" transform="translate(-7021.328 19701.322)" fill="#444584"/>
      <path id="Path_478-161" data-name="Path 478" d="M-1082.147-1441.115a2.864,2.864,0,0,1,3.114-2.936,2.751,2.751,0,0,1,2.978,2.8,2.806,2.806,0,0,1-2.912,3.24C-1080.861-1437.954-1082.008-1439.014-1082.147-1441.115Z" transform="translate(-7003.396 19701.322)" fill="#444584"/>
      <path id="Path_478-162" data-name="Path 478" d="M-1082.147-1441.115a2.864,2.864,0,0,1,3.114-2.936,2.751,2.751,0,0,1,2.978,2.8,2.806,2.806,0,0,1-2.912,3.24C-1080.861-1437.954-1082.008-1439.014-1082.147-1441.115Z" transform="translate(-6985.465 19701.322)" fill="#444584"/>
      <path id="Path_478-163" data-name="Path 478" d="M-1082.147-1441.115a2.864,2.864,0,0,1,3.114-2.936,2.751,2.751,0,0,1,2.978,2.8,2.806,2.806,0,0,1-2.912,3.24C-1080.861-1437.954-1082.008-1439.014-1082.147-1441.115Z" transform="translate(-6967.534 19701.322)" fill="#444584"/>
      <path id="Path_478-164" data-name="Path 478" d="M-1082.147-1441.115a2.864,2.864,0,0,1,3.114-2.936,2.751,2.751,0,0,1,2.978,2.8,2.806,2.806,0,0,1-2.912,3.24C-1080.861-1437.954-1082.008-1439.014-1082.147-1441.115Z" transform="translate(-6949.603 19701.322)" fill="#444584"/>
      <path id="Path_478-165" data-name="Path 478" d="M-1082.147-1441.115a2.864,2.864,0,0,1,3.114-2.936,2.751,2.751,0,0,1,2.978,2.8,2.806,2.806,0,0,1-2.912,3.24C-1080.861-1437.954-1082.008-1439.014-1082.147-1441.115Z" transform="translate(-6931.671 19701.322)" fill="#444584"/>
      <path id="Path_478-166" data-name="Path 478" d="M-1082.147-1441.115a2.864,2.864,0,0,1,3.114-2.936,2.751,2.751,0,0,1,2.978,2.8,2.806,2.806,0,0,1-2.912,3.24C-1080.861-1437.954-1082.008-1439.014-1082.147-1441.115Z" transform="translate(-6913.74 19701.322)" fill="#444584"/>
      <path id="Path_478-167" data-name="Path 478" d="M-1082.147-1441.115a2.864,2.864,0,0,1,3.114-2.936,2.751,2.751,0,0,1,2.978,2.8,2.806,2.806,0,0,1-2.912,3.24C-1080.861-1437.954-1082.008-1439.014-1082.147-1441.115Z" transform="translate(-6895.809 19701.322)" fill="#444584"/>
      <path id="Path_478-168" data-name="Path 478" d="M-1082.147-1441.115a2.864,2.864,0,0,1,3.114-2.936,2.751,2.751,0,0,1,2.978,2.8,2.806,2.806,0,0,1-2.912,3.24C-1080.861-1437.954-1082.008-1439.014-1082.147-1441.115Z" transform="translate(-6877.877 19701.322)" fill="#444584"/>
      <path id="Path_478-169" data-name="Path 478" d="M-1082.147-1441.115a2.864,2.864,0,0,1,3.114-2.936,2.751,2.751,0,0,1,2.978,2.8,2.806,2.806,0,0,1-2.912,3.24C-1080.861-1437.954-1082.008-1439.014-1082.147-1441.115Z" transform="translate(-6859.946 19701.322)" fill="#444584"/>
      <path id="Path_478-170" data-name="Path 478" d="M-1082.147-1441.115a2.864,2.864,0,0,1,3.114-2.936,2.751,2.751,0,0,1,2.978,2.8,2.806,2.806,0,0,1-2.912,3.24C-1080.861-1437.954-1082.008-1439.014-1082.147-1441.115Z" transform="translate(-6842.015 19701.322)" fill="#444584"/>
      <path id="Path_478-171" data-name="Path 478" d="M-1082.147-1441.115a2.864,2.864,0,0,1,3.114-2.936,2.751,2.751,0,0,1,2.978,2.8,2.806,2.806,0,0,1-2.912,3.24C-1080.861-1437.954-1082.008-1439.014-1082.147-1441.115Z" transform="translate(-7128.915 19719.254)" fill="#444584"/>
      <path id="Path_478-172" data-name="Path 478" d="M-1082.147-1441.115a2.864,2.864,0,0,1,3.114-2.936,2.751,2.751,0,0,1,2.978,2.8,2.806,2.806,0,0,1-2.912,3.24C-1080.861-1437.954-1082.008-1439.014-1082.147-1441.115Z" transform="translate(-7110.983 19719.254)" fill="#444584"/>
      <path id="Path_478-173" data-name="Path 478" d="M-1082.147-1441.115a2.864,2.864,0,0,1,3.114-2.936,2.751,2.751,0,0,1,2.978,2.8,2.806,2.806,0,0,1-2.912,3.24C-1080.861-1437.954-1082.008-1439.014-1082.147-1441.115Z" transform="translate(-7093.052 19719.254)" fill="#444584"/>
      <path id="Path_478-174" data-name="Path 478" d="M-1082.147-1441.115a2.864,2.864,0,0,1,3.114-2.936,2.751,2.751,0,0,1,2.978,2.8,2.806,2.806,0,0,1-2.912,3.24C-1080.861-1437.954-1082.008-1439.014-1082.147-1441.115Z" transform="translate(-7075.121 19719.254)" fill="#444584"/>
      <path id="Path_478-175" data-name="Path 478" d="M-1082.147-1441.115a2.864,2.864,0,0,1,3.114-2.936,2.751,2.751,0,0,1,2.978,2.8,2.806,2.806,0,0,1-2.912,3.24C-1080.861-1437.954-1082.008-1439.014-1082.147-1441.115Z" transform="translate(-7057.19 19719.254)" fill="#444584"/>
      <path id="Path_478-176" data-name="Path 478" d="M-1082.147-1441.115a2.864,2.864,0,0,1,3.114-2.936,2.751,2.751,0,0,1,2.978,2.8,2.806,2.806,0,0,1-2.912,3.24C-1080.861-1437.954-1082.008-1439.014-1082.147-1441.115Z" transform="translate(-7039.259 19719.254)" fill="#444584"/>
      <path id="Path_478-177" data-name="Path 478" d="M-1082.147-1441.115a2.864,2.864,0,0,1,3.114-2.936,2.751,2.751,0,0,1,2.978,2.8,2.806,2.806,0,0,1-2.912,3.24C-1080.861-1437.954-1082.008-1439.014-1082.147-1441.115Z" transform="translate(-7021.328 19719.254)" fill="#444584"/>
      <path id="Path_478-178" data-name="Path 478" d="M-1082.147-1441.115a2.864,2.864,0,0,1,3.114-2.936,2.751,2.751,0,0,1,2.978,2.8,2.806,2.806,0,0,1-2.912,3.24C-1080.861-1437.954-1082.008-1439.014-1082.147-1441.115Z" transform="translate(-7003.396 19719.254)" fill="#444584"/>
      <path id="Path_478-179" data-name="Path 478" d="M-1082.147-1441.115a2.864,2.864,0,0,1,3.114-2.936,2.751,2.751,0,0,1,2.978,2.8,2.806,2.806,0,0,1-2.912,3.24C-1080.861-1437.954-1082.008-1439.014-1082.147-1441.115Z" transform="translate(-6985.465 19719.254)" fill="#444584"/>
      <path id="Path_478-180" data-name="Path 478" d="M-1082.147-1441.115a2.864,2.864,0,0,1,3.114-2.936,2.751,2.751,0,0,1,2.978,2.8,2.806,2.806,0,0,1-2.912,3.24C-1080.861-1437.954-1082.008-1439.014-1082.147-1441.115Z" transform="translate(-6967.534 19719.254)" fill="#444584"/>
      <path id="Path_478-181" data-name="Path 478" d="M-1082.147-1441.115a2.864,2.864,0,0,1,3.114-2.936,2.751,2.751,0,0,1,2.978,2.8,2.806,2.806,0,0,1-2.912,3.24C-1080.861-1437.954-1082.008-1439.014-1082.147-1441.115Z" transform="translate(-6949.603 19719.254)" fill="#444584"/>
      <path id="Path_478-182" data-name="Path 478" d="M-1082.147-1441.115a2.864,2.864,0,0,1,3.114-2.936,2.751,2.751,0,0,1,2.978,2.8,2.806,2.806,0,0,1-2.912,3.24C-1080.861-1437.954-1082.008-1439.014-1082.147-1441.115Z" transform="translate(-6931.671 19719.254)" fill="#444584"/>
      <path id="Path_478-183" data-name="Path 478" d="M-1082.147-1441.115a2.864,2.864,0,0,1,3.114-2.936,2.751,2.751,0,0,1,2.978,2.8,2.806,2.806,0,0,1-2.912,3.24C-1080.861-1437.954-1082.008-1439.014-1082.147-1441.115Z" transform="translate(-6913.74 19719.254)" fill="#444584"/>
      <path id="Path_478-184" data-name="Path 478" d="M-1082.147-1441.115a2.864,2.864,0,0,1,3.114-2.936,2.751,2.751,0,0,1,2.978,2.8,2.806,2.806,0,0,1-2.912,3.24C-1080.861-1437.954-1082.008-1439.014-1082.147-1441.115Z" transform="translate(-6895.809 19719.254)" fill="#444584"/>
      <path id="Path_478-185" data-name="Path 478" d="M-1082.147-1441.115a2.864,2.864,0,0,1,3.114-2.936,2.751,2.751,0,0,1,2.978,2.8,2.806,2.806,0,0,1-2.912,3.24C-1080.861-1437.954-1082.008-1439.014-1082.147-1441.115Z" transform="translate(-6877.877 19719.254)" fill="#444584"/>
      <path id="Path_478-186" data-name="Path 478" d="M-1082.147-1441.115a2.864,2.864,0,0,1,3.114-2.936,2.751,2.751,0,0,1,2.978,2.8,2.806,2.806,0,0,1-2.912,3.24C-1080.861-1437.954-1082.008-1439.014-1082.147-1441.115Z" transform="translate(-6859.946 19719.254)" fill="#444584"/>
      <path id="Path_478-187" data-name="Path 478" d="M-1082.147-1441.115a2.864,2.864,0,0,1,3.114-2.936,2.751,2.751,0,0,1,2.978,2.8,2.806,2.806,0,0,1-2.912,3.24C-1080.861-1437.954-1082.008-1439.014-1082.147-1441.115Z" transform="translate(-6842.015 19719.254)" fill="#444584"/>
      <path id="Path_478-188" data-name="Path 478" d="M-1082.147-1441.115a2.864,2.864,0,0,1,3.114-2.936,2.751,2.751,0,0,1,2.978,2.8,2.806,2.806,0,0,1-2.912,3.24C-1080.861-1437.954-1082.008-1439.014-1082.147-1441.115Z" transform="translate(-7128.915 19737.186)" fill="#444584"/>
      <path id="Path_478-189" data-name="Path 478" d="M-1082.147-1441.115a2.864,2.864,0,0,1,3.114-2.936,2.751,2.751,0,0,1,2.978,2.8,2.806,2.806,0,0,1-2.912,3.24C-1080.861-1437.954-1082.008-1439.014-1082.147-1441.115Z" transform="translate(-7110.983 19737.186)" fill="#444584"/>
      <path id="Path_478-190" data-name="Path 478" d="M-1082.147-1441.115a2.864,2.864,0,0,1,3.114-2.936,2.751,2.751,0,0,1,2.978,2.8,2.806,2.806,0,0,1-2.912,3.24C-1080.861-1437.954-1082.008-1439.014-1082.147-1441.115Z" transform="translate(-7093.052 19737.186)" fill="#444584"/>
      <path id="Path_478-191" data-name="Path 478" d="M-1082.147-1441.115a2.864,2.864,0,0,1,3.114-2.936,2.751,2.751,0,0,1,2.978,2.8,2.806,2.806,0,0,1-2.912,3.24C-1080.861-1437.954-1082.008-1439.014-1082.147-1441.115Z" transform="translate(-7075.121 19737.186)" fill="#444584"/>
      <path id="Path_478-192" data-name="Path 478" d="M-1082.147-1441.115a2.864,2.864,0,0,1,3.114-2.936,2.751,2.751,0,0,1,2.978,2.8,2.806,2.806,0,0,1-2.912,3.24C-1080.861-1437.954-1082.008-1439.014-1082.147-1441.115Z" transform="translate(-7057.19 19737.186)" fill="#444584"/>
      <path id="Path_478-193" data-name="Path 478" d="M-1082.147-1441.115a2.864,2.864,0,0,1,3.114-2.936,2.751,2.751,0,0,1,2.978,2.8,2.806,2.806,0,0,1-2.912,3.24C-1080.861-1437.954-1082.008-1439.014-1082.147-1441.115Z" transform="translate(-7039.259 19737.186)" fill="#444584"/>
      <path id="Path_478-194" data-name="Path 478" d="M-1082.147-1441.115a2.864,2.864,0,0,1,3.114-2.936,2.751,2.751,0,0,1,2.978,2.8,2.806,2.806,0,0,1-2.912,3.24C-1080.861-1437.954-1082.008-1439.014-1082.147-1441.115Z" transform="translate(-7021.328 19737.186)" fill="#444584"/>
      <path id="Path_478-195" data-name="Path 478" d="M-1082.147-1441.115a2.864,2.864,0,0,1,3.114-2.936,2.751,2.751,0,0,1,2.978,2.8,2.806,2.806,0,0,1-2.912,3.24C-1080.861-1437.954-1082.008-1439.014-1082.147-1441.115Z" transform="translate(-7003.396 19737.186)" fill="#444584"/>
      <path id="Path_478-196" data-name="Path 478" d="M-1082.147-1441.115a2.864,2.864,0,0,1,3.114-2.936,2.751,2.751,0,0,1,2.978,2.8,2.806,2.806,0,0,1-2.912,3.24C-1080.861-1437.954-1082.008-1439.014-1082.147-1441.115Z" transform="translate(-6985.465 19737.186)" fill="#444584"/>
      <path id="Path_478-197" data-name="Path 478" d="M-1082.147-1441.115a2.864,2.864,0,0,1,3.114-2.936,2.751,2.751,0,0,1,2.978,2.8,2.806,2.806,0,0,1-2.912,3.24C-1080.861-1437.954-1082.008-1439.014-1082.147-1441.115Z" transform="translate(-6967.534 19737.186)" fill="#444584"/>
      <path id="Path_478-198" data-name="Path 478" d="M-1082.147-1441.115a2.864,2.864,0,0,1,3.114-2.936,2.751,2.751,0,0,1,2.978,2.8,2.806,2.806,0,0,1-2.912,3.24C-1080.861-1437.954-1082.008-1439.014-1082.147-1441.115Z" transform="translate(-6949.603 19737.186)" fill="#444584"/>
      <path id="Path_478-199" data-name="Path 478" d="M-1082.147-1441.115a2.864,2.864,0,0,1,3.114-2.936,2.751,2.751,0,0,1,2.978,2.8,2.806,2.806,0,0,1-2.912,3.24C-1080.861-1437.954-1082.008-1439.014-1082.147-1441.115Z" transform="translate(-6931.671 19737.186)" fill="#444584"/>
      <path id="Path_478-200" data-name="Path 478" d="M-1082.147-1441.115a2.864,2.864,0,0,1,3.114-2.936,2.751,2.751,0,0,1,2.978,2.8,2.806,2.806,0,0,1-2.912,3.24C-1080.861-1437.954-1082.008-1439.014-1082.147-1441.115Z" transform="translate(-6913.74 19737.186)" fill="#444584"/>
      <path id="Path_478-201" data-name="Path 478" d="M-1082.147-1441.115a2.864,2.864,0,0,1,3.114-2.936,2.751,2.751,0,0,1,2.978,2.8,2.806,2.806,0,0,1-2.912,3.24C-1080.861-1437.954-1082.008-1439.014-1082.147-1441.115Z" transform="translate(-6895.809 19737.186)" fill="#444584"/>
      <path id="Path_478-202" data-name="Path 478" d="M-1082.147-1441.115a2.864,2.864,0,0,1,3.114-2.936,2.751,2.751,0,0,1,2.978,2.8,2.806,2.806,0,0,1-2.912,3.24C-1080.861-1437.954-1082.008-1439.014-1082.147-1441.115Z" transform="translate(-6877.877 19737.186)" fill="#444584"/>
      <path id="Path_478-203" data-name="Path 478" d="M-1082.147-1441.115a2.864,2.864,0,0,1,3.114-2.936,2.751,2.751,0,0,1,2.978,2.8,2.806,2.806,0,0,1-2.912,3.24C-1080.861-1437.954-1082.008-1439.014-1082.147-1441.115Z" transform="translate(-6859.946 19737.186)" fill="#444584"/>
      <path id="Path_478-204" data-name="Path 478" d="M-1082.147-1441.115a2.864,2.864,0,0,1,3.114-2.936,2.751,2.751,0,0,1,2.978,2.8,2.806,2.806,0,0,1-2.912,3.24C-1080.861-1437.954-1082.008-1439.014-1082.147-1441.115Z" transform="translate(-6842.015 19737.186)" fill="#444584"/>
      <path id="Path_478-205" data-name="Path 478" d="M-1082.147-1441.115a2.864,2.864,0,0,1,3.114-2.936,2.751,2.751,0,0,1,2.978,2.8,2.806,2.806,0,0,1-2.912,3.24C-1080.861-1437.954-1082.008-1439.014-1082.147-1441.115Z" transform="translate(-7128.915 19755.115)" fill="#444584"/>
      <path id="Path_478-206" data-name="Path 478" d="M-1082.147-1441.115a2.864,2.864,0,0,1,3.114-2.936,2.751,2.751,0,0,1,2.978,2.8,2.806,2.806,0,0,1-2.912,3.24C-1080.861-1437.954-1082.008-1439.014-1082.147-1441.115Z" transform="translate(-7110.983 19755.115)" fill="#444584"/>
      <path id="Path_478-207" data-name="Path 478" d="M-1082.147-1441.115a2.864,2.864,0,0,1,3.114-2.936,2.751,2.751,0,0,1,2.978,2.8,2.806,2.806,0,0,1-2.912,3.24C-1080.861-1437.954-1082.008-1439.014-1082.147-1441.115Z" transform="translate(-7093.052 19755.115)" fill="#444584"/>
      <path id="Path_478-208" data-name="Path 478" d="M-1082.147-1441.115a2.864,2.864,0,0,1,3.114-2.936,2.751,2.751,0,0,1,2.978,2.8,2.806,2.806,0,0,1-2.912,3.24C-1080.861-1437.954-1082.008-1439.014-1082.147-1441.115Z" transform="translate(-7075.121 19755.115)" fill="#444584"/>
      <path id="Path_478-209" data-name="Path 478" d="M-1082.147-1441.115a2.864,2.864,0,0,1,3.114-2.936,2.751,2.751,0,0,1,2.978,2.8,2.806,2.806,0,0,1-2.912,3.24C-1080.861-1437.954-1082.008-1439.014-1082.147-1441.115Z" transform="translate(-7057.19 19755.115)" fill="#444584"/>
      <path id="Path_478-210" data-name="Path 478" d="M-1082.147-1441.115a2.864,2.864,0,0,1,3.114-2.936,2.751,2.751,0,0,1,2.978,2.8,2.806,2.806,0,0,1-2.912,3.24C-1080.861-1437.954-1082.008-1439.014-1082.147-1441.115Z" transform="translate(-7039.259 19755.115)" fill="#444584"/>
      <path id="Path_478-211" data-name="Path 478" d="M-1082.147-1441.115a2.864,2.864,0,0,1,3.114-2.936,2.751,2.751,0,0,1,2.978,2.8,2.806,2.806,0,0,1-2.912,3.24C-1080.861-1437.954-1082.008-1439.014-1082.147-1441.115Z" transform="translate(-7021.328 19755.115)" fill="#444584"/>
      <path id="Path_478-212" data-name="Path 478" d="M-1082.147-1441.115a2.864,2.864,0,0,1,3.114-2.936,2.751,2.751,0,0,1,2.978,2.8,2.806,2.806,0,0,1-2.912,3.24C-1080.861-1437.954-1082.008-1439.014-1082.147-1441.115Z" transform="translate(-7003.396 19755.115)" fill="#444584"/>
      <path id="Path_478-213" data-name="Path 478" d="M-1082.147-1441.115a2.864,2.864,0,0,1,3.114-2.936,2.751,2.751,0,0,1,2.978,2.8,2.806,2.806,0,0,1-2.912,3.24C-1080.861-1437.954-1082.008-1439.014-1082.147-1441.115Z" transform="translate(-6985.465 19755.115)" fill="#444584"/>
      <path id="Path_478-214" data-name="Path 478" d="M-1082.147-1441.115a2.864,2.864,0,0,1,3.114-2.936,2.751,2.751,0,0,1,2.978,2.8,2.806,2.806,0,0,1-2.912,3.24C-1080.861-1437.954-1082.008-1439.014-1082.147-1441.115Z" transform="translate(-6967.534 19755.115)" fill="#444584"/>
      <path id="Path_478-215" data-name="Path 478" d="M-1082.147-1441.115a2.864,2.864,0,0,1,3.114-2.936,2.751,2.751,0,0,1,2.978,2.8,2.806,2.806,0,0,1-2.912,3.24C-1080.861-1437.954-1082.008-1439.014-1082.147-1441.115Z" transform="translate(-6949.603 19755.115)" fill="#444584"/>
      <path id="Path_478-216" data-name="Path 478" d="M-1082.147-1441.115a2.864,2.864,0,0,1,3.114-2.936,2.751,2.751,0,0,1,2.978,2.8,2.806,2.806,0,0,1-2.912,3.24C-1080.861-1437.954-1082.008-1439.014-1082.147-1441.115Z" transform="translate(-6931.671 19755.115)" fill="#444584"/>
      <path id="Path_478-217" data-name="Path 478" d="M-1082.147-1441.115a2.864,2.864,0,0,1,3.114-2.936,2.751,2.751,0,0,1,2.978,2.8,2.806,2.806,0,0,1-2.912,3.24C-1080.861-1437.954-1082.008-1439.014-1082.147-1441.115Z" transform="translate(-6913.74 19755.115)" fill="#444584"/>
      <path id="Path_478-218" data-name="Path 478" d="M-1082.147-1441.115a2.864,2.864,0,0,1,3.114-2.936,2.751,2.751,0,0,1,2.978,2.8,2.806,2.806,0,0,1-2.912,3.24C-1080.861-1437.954-1082.008-1439.014-1082.147-1441.115Z" transform="translate(-6895.809 19755.115)" fill="#444584"/>
      <path id="Path_478-219" data-name="Path 478" d="M-1082.147-1441.115a2.864,2.864,0,0,1,3.114-2.936,2.751,2.751,0,0,1,2.978,2.8,2.806,2.806,0,0,1-2.912,3.24C-1080.861-1437.954-1082.008-1439.014-1082.147-1441.115Z" transform="translate(-6877.877 19755.115)" fill="#444584"/>
      <path id="Path_478-220" data-name="Path 478" d="M-1082.147-1441.115a2.864,2.864,0,0,1,3.114-2.936,2.751,2.751,0,0,1,2.978,2.8,2.806,2.806,0,0,1-2.912,3.24C-1080.861-1437.954-1082.008-1439.014-1082.147-1441.115Z" transform="translate(-6859.946 19755.115)" fill="#444584"/>
      <path id="Path_478-221" data-name="Path 478" d="M-1082.147-1441.115a2.864,2.864,0,0,1,3.114-2.936,2.751,2.751,0,0,1,2.978,2.8,2.806,2.806,0,0,1-2.912,3.24C-1080.861-1437.954-1082.008-1439.014-1082.147-1441.115Z" transform="translate(-6842.015 19755.115)" fill="#444584"/>
      <path id="Path_478-222" data-name="Path 478" d="M-1082.147-1441.115a2.864,2.864,0,0,1,3.114-2.936,2.751,2.751,0,0,1,2.978,2.8,2.806,2.806,0,0,1-2.912,3.24C-1080.861-1437.954-1082.008-1439.014-1082.147-1441.115Z" transform="translate(-7128.915 19773.047)" fill="#444584"/>
      <path id="Path_478-223" data-name="Path 478" d="M-1082.147-1441.115a2.864,2.864,0,0,1,3.114-2.936,2.751,2.751,0,0,1,2.978,2.8,2.806,2.806,0,0,1-2.912,3.24C-1080.861-1437.954-1082.008-1439.014-1082.147-1441.115Z" transform="translate(-7110.983 19773.047)" fill="#444584"/>
      <path id="Path_478-224" data-name="Path 478" d="M-1082.147-1441.115a2.864,2.864,0,0,1,3.114-2.936,2.751,2.751,0,0,1,2.978,2.8,2.806,2.806,0,0,1-2.912,3.24C-1080.861-1437.954-1082.008-1439.014-1082.147-1441.115Z" transform="translate(-7093.052 19773.047)" fill="#444584"/>
      <path id="Path_478-225" data-name="Path 478" d="M-1082.147-1441.115a2.864,2.864,0,0,1,3.114-2.936,2.751,2.751,0,0,1,2.978,2.8,2.806,2.806,0,0,1-2.912,3.24C-1080.861-1437.954-1082.008-1439.014-1082.147-1441.115Z" transform="translate(-7075.121 19773.047)" fill="#444584"/>
      <path id="Path_478-226" data-name="Path 478" d="M-1082.147-1441.115a2.864,2.864,0,0,1,3.114-2.936,2.751,2.751,0,0,1,2.978,2.8,2.806,2.806,0,0,1-2.912,3.24C-1080.861-1437.954-1082.008-1439.014-1082.147-1441.115Z" transform="translate(-7057.19 19773.047)" fill="#444584"/>
      <path id="Path_478-227" data-name="Path 478" d="M-1082.147-1441.115a2.864,2.864,0,0,1,3.114-2.936,2.751,2.751,0,0,1,2.978,2.8,2.806,2.806,0,0,1-2.912,3.24C-1080.861-1437.954-1082.008-1439.014-1082.147-1441.115Z" transform="translate(-7039.259 19773.047)" fill="#444584"/>
      <path id="Path_478-228" data-name="Path 478" d="M-1082.147-1441.115a2.864,2.864,0,0,1,3.114-2.936,2.751,2.751,0,0,1,2.978,2.8,2.806,2.806,0,0,1-2.912,3.24C-1080.861-1437.954-1082.008-1439.014-1082.147-1441.115Z" transform="translate(-7021.328 19773.047)" fill="#444584"/>
      <path id="Path_478-229" data-name="Path 478" d="M-1082.147-1441.115a2.864,2.864,0,0,1,3.114-2.936,2.751,2.751,0,0,1,2.978,2.8,2.806,2.806,0,0,1-2.912,3.24C-1080.861-1437.954-1082.008-1439.014-1082.147-1441.115Z" transform="translate(-7003.396 19773.047)" fill="#444584"/>
      <path id="Path_478-230" data-name="Path 478" d="M-1082.147-1441.115a2.864,2.864,0,0,1,3.114-2.936,2.751,2.751,0,0,1,2.978,2.8,2.806,2.806,0,0,1-2.912,3.24C-1080.861-1437.954-1082.008-1439.014-1082.147-1441.115Z" transform="translate(-6985.465 19773.047)" fill="#444584"/>
      <path id="Path_478-231" data-name="Path 478" d="M-1082.147-1441.115a2.864,2.864,0,0,1,3.114-2.936,2.751,2.751,0,0,1,2.978,2.8,2.806,2.806,0,0,1-2.912,3.24C-1080.861-1437.954-1082.008-1439.014-1082.147-1441.115Z" transform="translate(-6967.534 19773.047)" fill="#444584"/>
      <path id="Path_478-232" data-name="Path 478" d="M-1082.147-1441.115a2.864,2.864,0,0,1,3.114-2.936,2.751,2.751,0,0,1,2.978,2.8,2.806,2.806,0,0,1-2.912,3.24C-1080.861-1437.954-1082.008-1439.014-1082.147-1441.115Z" transform="translate(-6949.603 19773.047)" fill="#444584"/>
      <path id="Path_478-233" data-name="Path 478" d="M-1082.147-1441.115a2.864,2.864,0,0,1,3.114-2.936,2.751,2.751,0,0,1,2.978,2.8,2.806,2.806,0,0,1-2.912,3.24C-1080.861-1437.954-1082.008-1439.014-1082.147-1441.115Z" transform="translate(-6931.671 19773.047)" fill="#444584"/>
      <path id="Path_478-234" data-name="Path 478" d="M-1082.147-1441.115a2.864,2.864,0,0,1,3.114-2.936,2.751,2.751,0,0,1,2.978,2.8,2.806,2.806,0,0,1-2.912,3.24C-1080.861-1437.954-1082.008-1439.014-1082.147-1441.115Z" transform="translate(-6913.74 19773.047)" fill="#444584"/>
      <path id="Path_478-235" data-name="Path 478" d="M-1082.147-1441.115a2.864,2.864,0,0,1,3.114-2.936,2.751,2.751,0,0,1,2.978,2.8,2.806,2.806,0,0,1-2.912,3.24C-1080.861-1437.954-1082.008-1439.014-1082.147-1441.115Z" transform="translate(-6895.809 19773.047)" fill="#444584"/>
      <path id="Path_478-236" data-name="Path 478" d="M-1082.147-1441.115a2.864,2.864,0,0,1,3.114-2.936,2.751,2.751,0,0,1,2.978,2.8,2.806,2.806,0,0,1-2.912,3.24C-1080.861-1437.954-1082.008-1439.014-1082.147-1441.115Z" transform="translate(-6877.877 19773.047)" fill="#444584"/>
      <path id="Path_478-237" data-name="Path 478" d="M-1082.147-1441.115a2.864,2.864,0,0,1,3.114-2.936,2.751,2.751,0,0,1,2.978,2.8,2.806,2.806,0,0,1-2.912,3.24C-1080.861-1437.954-1082.008-1439.014-1082.147-1441.115Z" transform="translate(-6859.946 19773.047)" fill="#444584"/>
      <path id="Path_478-238" data-name="Path 478" d="M-1082.147-1441.115a2.864,2.864,0,0,1,3.114-2.936,2.751,2.751,0,0,1,2.978,2.8,2.806,2.806,0,0,1-2.912,3.24C-1080.861-1437.954-1082.008-1439.014-1082.147-1441.115Z" transform="translate(-6842.015 19773.047)" fill="#444584"/>
      <path id="Path_478-239" data-name="Path 478" d="M-1082.147-1441.115a2.864,2.864,0,0,1,3.114-2.936,2.751,2.751,0,0,1,2.978,2.8,2.806,2.806,0,0,1-2.912,3.24C-1080.861-1437.954-1082.008-1439.014-1082.147-1441.115Z" transform="translate(-7128.915 19790.979)" fill="#444584"/>
      <path id="Path_478-240" data-name="Path 478" d="M-1082.147-1441.115a2.864,2.864,0,0,1,3.114-2.936,2.751,2.751,0,0,1,2.978,2.8,2.806,2.806,0,0,1-2.912,3.24C-1080.861-1437.954-1082.008-1439.014-1082.147-1441.115Z" transform="translate(-7110.983 19790.979)" fill="#444584"/>
      <path id="Path_478-241" data-name="Path 478" d="M-1082.147-1441.115a2.864,2.864,0,0,1,3.114-2.936,2.751,2.751,0,0,1,2.978,2.8,2.806,2.806,0,0,1-2.912,3.24C-1080.861-1437.954-1082.008-1439.014-1082.147-1441.115Z" transform="translate(-7093.052 19790.979)" fill="#444584"/>
      <path id="Path_478-242" data-name="Path 478" d="M-1082.147-1441.115a2.864,2.864,0,0,1,3.114-2.936,2.751,2.751,0,0,1,2.978,2.8,2.806,2.806,0,0,1-2.912,3.24C-1080.861-1437.954-1082.008-1439.014-1082.147-1441.115Z" transform="translate(-7075.121 19790.979)" fill="#444584"/>
      <path id="Path_478-243" data-name="Path 478" d="M-1082.147-1441.115a2.864,2.864,0,0,1,3.114-2.936,2.751,2.751,0,0,1,2.978,2.8,2.806,2.806,0,0,1-2.912,3.24C-1080.861-1437.954-1082.008-1439.014-1082.147-1441.115Z" transform="translate(-7057.19 19790.979)" fill="#444584"/>
      <path id="Path_478-244" data-name="Path 478" d="M-1082.147-1441.115a2.864,2.864,0,0,1,3.114-2.936,2.751,2.751,0,0,1,2.978,2.8,2.806,2.806,0,0,1-2.912,3.24C-1080.861-1437.954-1082.008-1439.014-1082.147-1441.115Z" transform="translate(-7039.259 19790.979)" fill="#444584"/>
      <path id="Path_478-245" data-name="Path 478" d="M-1082.147-1441.115a2.864,2.864,0,0,1,3.114-2.936,2.751,2.751,0,0,1,2.978,2.8,2.806,2.806,0,0,1-2.912,3.24C-1080.861-1437.954-1082.008-1439.014-1082.147-1441.115Z" transform="translate(-7021.328 19790.979)" fill="#444584"/>
      <path id="Path_478-246" data-name="Path 478" d="M-1082.147-1441.115a2.864,2.864,0,0,1,3.114-2.936,2.751,2.751,0,0,1,2.978,2.8,2.806,2.806,0,0,1-2.912,3.24C-1080.861-1437.954-1082.008-1439.014-1082.147-1441.115Z" transform="translate(-7003.396 19790.979)" fill="#444584"/>
      <path id="Path_478-247" data-name="Path 478" d="M-1082.147-1441.115a2.864,2.864,0,0,1,3.114-2.936,2.751,2.751,0,0,1,2.978,2.8,2.806,2.806,0,0,1-2.912,3.24C-1080.861-1437.954-1082.008-1439.014-1082.147-1441.115Z" transform="translate(-6985.465 19790.979)" fill="#444584"/>
      <path id="Path_478-248" data-name="Path 478" d="M-1082.147-1441.115a2.864,2.864,0,0,1,3.114-2.936,2.751,2.751,0,0,1,2.978,2.8,2.806,2.806,0,0,1-2.912,3.24C-1080.861-1437.954-1082.008-1439.014-1082.147-1441.115Z" transform="translate(-6967.534 19790.979)" fill="#444584"/>
      <path id="Path_478-249" data-name="Path 478" d="M-1082.147-1441.115a2.864,2.864,0,0,1,3.114-2.936,2.751,2.751,0,0,1,2.978,2.8,2.806,2.806,0,0,1-2.912,3.24C-1080.861-1437.954-1082.008-1439.014-1082.147-1441.115Z" transform="translate(-6949.603 19790.979)" fill="#444584"/>
      <path id="Path_478-250" data-name="Path 478" d="M-1082.147-1441.115a2.864,2.864,0,0,1,3.114-2.936,2.751,2.751,0,0,1,2.978,2.8,2.806,2.806,0,0,1-2.912,3.24C-1080.861-1437.954-1082.008-1439.014-1082.147-1441.115Z" transform="translate(-6931.671 19790.979)" fill="#444584"/>
      <path id="Path_478-251" data-name="Path 478" d="M-1082.147-1441.115a2.864,2.864,0,0,1,3.114-2.936,2.751,2.751,0,0,1,2.978,2.8,2.806,2.806,0,0,1-2.912,3.24C-1080.861-1437.954-1082.008-1439.014-1082.147-1441.115Z" transform="translate(-6913.74 19790.979)" fill="#444584"/>
      <path id="Path_478-252" data-name="Path 478" d="M-1082.147-1441.115a2.864,2.864,0,0,1,3.114-2.936,2.751,2.751,0,0,1,2.978,2.8,2.806,2.806,0,0,1-2.912,3.24C-1080.861-1437.954-1082.008-1439.014-1082.147-1441.115Z" transform="translate(-6895.809 19790.979)" fill="#444584"/>
      <path id="Path_478-253" data-name="Path 478" d="M-1082.147-1441.115a2.864,2.864,0,0,1,3.114-2.936,2.751,2.751,0,0,1,2.978,2.8,2.806,2.806,0,0,1-2.912,3.24C-1080.861-1437.954-1082.008-1439.014-1082.147-1441.115Z" transform="translate(-6877.877 19790.979)" fill="#444584"/>
      <path id="Path_478-254" data-name="Path 478" d="M-1082.147-1441.115a2.864,2.864,0,0,1,3.114-2.936,2.751,2.751,0,0,1,2.978,2.8,2.806,2.806,0,0,1-2.912,3.24C-1080.861-1437.954-1082.008-1439.014-1082.147-1441.115Z" transform="translate(-6859.946 19790.979)" fill="#444584"/>
      <path id="Path_478-255" data-name="Path 478" d="M-1082.147-1441.115a2.864,2.864,0,0,1,3.114-2.936,2.751,2.751,0,0,1,2.978,2.8,2.806,2.806,0,0,1-2.912,3.24C-1080.861-1437.954-1082.008-1439.014-1082.147-1441.115Z" transform="translate(-6842.015 19790.979)" fill="#444584"/>
      <path id="Path_478-256" data-name="Path 478" d="M-1082.147-1441.115a2.864,2.864,0,0,1,3.114-2.936,2.751,2.751,0,0,1,2.978,2.8,2.806,2.806,0,0,1-2.912,3.24C-1080.861-1437.954-1082.008-1439.014-1082.147-1441.115Z" transform="translate(-7128.915 19808.91)" fill="#444584"/>
      <path id="Path_478-257" data-name="Path 478" d="M-1082.147-1441.115a2.864,2.864,0,0,1,3.114-2.936,2.751,2.751,0,0,1,2.978,2.8,2.806,2.806,0,0,1-2.912,3.24C-1080.861-1437.954-1082.008-1439.014-1082.147-1441.115Z" transform="translate(-7110.983 19808.91)" fill="#444584"/>
      <path id="Path_478-258" data-name="Path 478" d="M-1082.147-1441.115a2.864,2.864,0,0,1,3.114-2.936,2.751,2.751,0,0,1,2.978,2.8,2.806,2.806,0,0,1-2.912,3.24C-1080.861-1437.954-1082.008-1439.014-1082.147-1441.115Z" transform="translate(-7093.052 19808.91)" fill="#444584"/>
      <path id="Path_478-259" data-name="Path 478" d="M-1082.147-1441.115a2.864,2.864,0,0,1,3.114-2.936,2.751,2.751,0,0,1,2.978,2.8,2.806,2.806,0,0,1-2.912,3.24C-1080.861-1437.954-1082.008-1439.014-1082.147-1441.115Z" transform="translate(-7075.121 19808.91)" fill="#444584"/>
      <path id="Path_478-260" data-name="Path 478" d="M-1082.147-1441.115a2.864,2.864,0,0,1,3.114-2.936,2.751,2.751,0,0,1,2.978,2.8,2.806,2.806,0,0,1-2.912,3.24C-1080.861-1437.954-1082.008-1439.014-1082.147-1441.115Z" transform="translate(-7057.19 19808.91)" fill="#444584"/>
      <path id="Path_478-261" data-name="Path 478" d="M-1082.147-1441.115a2.864,2.864,0,0,1,3.114-2.936,2.751,2.751,0,0,1,2.978,2.8,2.806,2.806,0,0,1-2.912,3.24C-1080.861-1437.954-1082.008-1439.014-1082.147-1441.115Z" transform="translate(-7039.259 19808.91)" fill="#444584"/>
      <path id="Path_478-262" data-name="Path 478" d="M-1082.147-1441.115a2.864,2.864,0,0,1,3.114-2.936,2.751,2.751,0,0,1,2.978,2.8,2.806,2.806,0,0,1-2.912,3.24C-1080.861-1437.954-1082.008-1439.014-1082.147-1441.115Z" transform="translate(-7021.328 19808.91)" fill="#444584"/>
      <path id="Path_478-263" data-name="Path 478" d="M-1082.147-1441.115a2.864,2.864,0,0,1,3.114-2.936,2.751,2.751,0,0,1,2.978,2.8,2.806,2.806,0,0,1-2.912,3.24C-1080.861-1437.954-1082.008-1439.014-1082.147-1441.115Z" transform="translate(-7003.396 19808.91)" fill="#444584"/>
      <path id="Path_478-264" data-name="Path 478" d="M-1082.147-1441.115a2.864,2.864,0,0,1,3.114-2.936,2.751,2.751,0,0,1,2.978,2.8,2.806,2.806,0,0,1-2.912,3.24C-1080.861-1437.954-1082.008-1439.014-1082.147-1441.115Z" transform="translate(-6985.465 19808.91)" fill="#444584"/>
      <path id="Path_478-265" data-name="Path 478" d="M-1082.147-1441.115a2.864,2.864,0,0,1,3.114-2.936,2.751,2.751,0,0,1,2.978,2.8,2.806,2.806,0,0,1-2.912,3.24C-1080.861-1437.954-1082.008-1439.014-1082.147-1441.115Z" transform="translate(-6967.534 19808.91)" fill="#444584"/>
      <path id="Path_478-266" data-name="Path 478" d="M-1082.147-1441.115a2.864,2.864,0,0,1,3.114-2.936,2.751,2.751,0,0,1,2.978,2.8,2.806,2.806,0,0,1-2.912,3.24C-1080.861-1437.954-1082.008-1439.014-1082.147-1441.115Z" transform="translate(-6949.603 19808.91)" fill="#444584"/>
      <path id="Path_478-267" data-name="Path 478" d="M-1082.147-1441.115a2.864,2.864,0,0,1,3.114-2.936,2.751,2.751,0,0,1,2.978,2.8,2.806,2.806,0,0,1-2.912,3.24C-1080.861-1437.954-1082.008-1439.014-1082.147-1441.115Z" transform="translate(-6931.671 19808.91)" fill="#444584"/>
      <path id="Path_478-268" data-name="Path 478" d="M-1082.147-1441.115a2.864,2.864,0,0,1,3.114-2.936,2.751,2.751,0,0,1,2.978,2.8,2.806,2.806,0,0,1-2.912,3.24C-1080.861-1437.954-1082.008-1439.014-1082.147-1441.115Z" transform="translate(-6913.74 19808.91)" fill="#444584"/>
      <path id="Path_478-269" data-name="Path 478" d="M-1082.147-1441.115a2.864,2.864,0,0,1,3.114-2.936,2.751,2.751,0,0,1,2.978,2.8,2.806,2.806,0,0,1-2.912,3.24C-1080.861-1437.954-1082.008-1439.014-1082.147-1441.115Z" transform="translate(-6895.809 19808.91)" fill="#444584"/>
      <path id="Path_478-270" data-name="Path 478" d="M-1082.147-1441.115a2.864,2.864,0,0,1,3.114-2.936,2.751,2.751,0,0,1,2.978,2.8,2.806,2.806,0,0,1-2.912,3.24C-1080.861-1437.954-1082.008-1439.014-1082.147-1441.115Z" transform="translate(-6877.877 19808.91)" fill="#444584"/>
      <path id="Path_478-271" data-name="Path 478" d="M-1082.147-1441.115a2.864,2.864,0,0,1,3.114-2.936,2.751,2.751,0,0,1,2.978,2.8,2.806,2.806,0,0,1-2.912,3.24C-1080.861-1437.954-1082.008-1439.014-1082.147-1441.115Z" transform="translate(-6859.946 19808.91)" fill="#444584"/>
      <path id="Path_478-272" data-name="Path 478" d="M-1082.147-1441.115a2.864,2.864,0,0,1,3.114-2.936,2.751,2.751,0,0,1,2.978,2.8,2.806,2.806,0,0,1-2.912,3.24C-1080.861-1437.954-1082.008-1439.014-1082.147-1441.115Z" transform="translate(-6842.015 19808.91)" fill="#444584"/>
    </g>
    <g id="Group_1326" data-name="Group 1326" transform="translate(0 -79.586)">
      <g transform="matrix(1, 0, 0, 1, 461, 1237)" filter="url(#Rectangle_890)">
        <rect id="Rectangle_890-2" data-name="Rectangle 890" width="353" height="353" rx="10" transform="translate(30 27)" fill="#f1645b"/>
      </g>
      <g id="Mask_Group_9" data-name="Mask Group 9" transform="translate(9218 -17150)" clip-path="url(#clip-path)">
        <rect id="Rectangle_888" data-name="Rectangle 888" width="353" height="353" rx="10" transform="translate(-8727 18414)" fill="#f1645b"/>
        <circle id="Ellipse_360" data-name="Ellipse 360" cx="114.5" cy="114.5" r="114.5" transform="translate(-8495 18365)" opacity="0.05"/>
        <circle id="Ellipse_361" data-name="Ellipse 361" cx="31.5" cy="31.5" r="31.5" transform="translate(-8575 18435)" opacity="0.05"/>
        <g id="Group_1324" data-name="Group 1324" transform="translate(505.539 -92.223)">
          <path id="Path_3201" data-name="Path 3201" d="M-20.075,289.916a9.534,9.534,0,0,0-4.014-2.562,15.014,15.014,0,0,0-5.125-.854,12.966,12.966,0,0,0-6.235,1.537,12.754,12.754,0,0,0-4.185,3.5l-.512-4.356H-49.2v36.556h9.993V298.03a7.385,7.385,0,0,1,2.477-2.391,7.352,7.352,0,0,1,3.758-.854,14.137,14.137,0,0,1,2.733.256,4.43,4.43,0,0,1,3.246,2.989,8.953,8.953,0,0,1,.427,3.331v22.292h9.993V301.191a20.155,20.155,0,0,0-.94-6.747,12.1,12.1,0,0,0-2.562-4.527" transform="translate(-9073.052 18346.461)" fill="#fff"/>
          <path id="Path_3202" data-name="Path 3202" d="M22.677,291.552a14.839,14.839,0,0,0-5.21-3.673,18.012,18.012,0,0,0-7.089-1.281,18.683,18.683,0,0,0-7.089,1.367,16.969,16.969,0,0,0-5.637,3.843,16.663,16.663,0,0,0-3.673,5.979,21.233,21.233,0,0,0-1.281,7.6v1.367a17.54,17.54,0,0,0,1.367,6.918,16.734,16.734,0,0,0,3.758,5.637,18.717,18.717,0,0,0,5.893,3.758,19.61,19.61,0,0,0,7.6,1.367,19.852,19.852,0,0,0,5.039-.6,17.528,17.528,0,0,0,4.185-1.537,17.006,17.006,0,0,0,3.331-2.135,15.856,15.856,0,0,0,2.306-2.477l.171-.256-5.125-5.552-.256.342a8.513,8.513,0,0,1-1.794,1.708,8.016,8.016,0,0,1-2.221,1.2,11.93,11.93,0,0,1-2.477.769,10.991,10.991,0,0,1-5.979-.342,8.251,8.251,0,0,1-4.7-4.1,10.359,10.359,0,0,1-.94-2.733H26.948v-4.27a23.948,23.948,0,0,0-1.11-7.345,15.807,15.807,0,0,0-3.16-5.552M7.56,295.31a7.289,7.289,0,0,1,2.648-.512,8.317,8.317,0,0,1,2.9.512,7.016,7.016,0,0,1,2.135,1.367,6.115,6.115,0,0,1,1.367,2.135,6.854,6.854,0,0,1,.512,2.562v.342H3.033a15.031,15.031,0,0,1,.854-2.562,14.224,14.224,0,0,1,1.537-2.392A8.6,8.6,0,0,1,7.56,295.31" transform="translate(-9079.164 18346.449)" fill="#fff"/>
          <path id="Path_3203" data-name="Path 3203" d="M-57.722,287.3H-67.8v36.556h10.164V316l-.085-.427Z" transform="translate(-9070.339 18346.344)" fill="#fff"/>
          <path id="Path_3204" data-name="Path 3204" d="M-90.5,270.2v17.167a12.161,12.161,0,0,0-3.246-2.221,11.712,11.712,0,0,0-5.125-1.025,14.042,14.042,0,0,0-6.15,1.367,13.118,13.118,0,0,0-4.527,3.843,18.767,18.767,0,0,0-2.819,5.893,27.9,27.9,0,0,0-.94,7.516v.683a30.383,30.383,0,0,0,.94,7.345,17.488,17.488,0,0,0,2.819,5.808,13.36,13.36,0,0,0,4.527,3.929,13.5,13.5,0,0,0,6.064,1.452,12.147,12.147,0,0,0,5.466-1.2,13.065,13.065,0,0,0,3.5-2.648l.427,3.16H-80.5V270.2Zm0,40.057A6.681,6.681,0,0,1-92.8,312.82a6.342,6.342,0,0,1-3.758.94,6.317,6.317,0,0,1-3.075-.769,6.136,6.136,0,0,1-2.05-2.135,9.347,9.347,0,0,1-1.2-3.246,22.139,22.139,0,0,1-.342-4.1v-.683a16.729,16.729,0,0,1,.427-4.1,11.079,11.079,0,0,1,1.2-3.331,7.245,7.245,0,0,1,2.05-2.221,6.65,6.65,0,0,1,3.16-.769,6.234,6.234,0,0,1,3.673.94,7.357,7.357,0,0,1,2.306,2.562Z" transform="translate(-9063.7 18348.84)" fill="#fff"/>
          <path id="Path_3205" data-name="Path 3205" d="M113.312,287.3h-9.993v25.367a6.273,6.273,0,0,1-2.391,2.562,8.241,8.241,0,0,1-4.271.939,9.4,9.4,0,0,1-2.648-.342,3.252,3.252,0,0,1-1.623-1.2,7.247,7.247,0,0,1-.94-2.221,17.016,17.016,0,0,1-.342-3.587V287.3H81.2v21.523a22.189,22.189,0,0,0,.94,7.089,12.879,12.879,0,0,0,2.648,4.868,10.4,10.4,0,0,0,4.1,2.819,15.5,15.5,0,0,0,5.21.854,11.588,11.588,0,0,0,5.808-1.537,13.973,13.973,0,0,0,3.929-3.5l.427,4.356h9.053V287.3" transform="translate(-9092.075 18346.344)" fill="#fff"/>
          <path id="Path_3206" data-name="Path 3206" d="M147.352,292.407v-7.6H136.676v-5.381h0V270.2h-9.993v5.808h0v8.8H121.9v7.6h4.783v15.886a17.292,17.292,0,0,0,.94,6.235,11.816,11.816,0,0,0,2.733,4.271,10.239,10.239,0,0,0,4.271,2.477,16.932,16.932,0,0,0,5.466.769c1.025,0,2.05-.085,3.16-.171,1.025-.085,2.05-.256,3.075-.427l1.11-.256v-7.943l-.6.085-2.05.256a13.869,13.869,0,0,1-4.612-.256,4.072,4.072,0,0,1-1.879-1.025,5.07,5.07,0,0,1-1.2-1.964,9.75,9.75,0,0,1-.427-3.16V292.236h10.676Z" transform="translate(-9098.016 18348.84)" fill="#fff"/>
          <path id="Path_3207" data-name="Path 3207" d="M-62.878,269.8a7.2,7.2,0,0,0-2.306.342,4.878,4.878,0,0,0-1.794,1.11,4.765,4.765,0,0,0-1.2,1.708,5.947,5.947,0,0,0-.427,2.135,5.947,5.947,0,0,0,.427,2.135,4.766,4.766,0,0,0,1.2,1.708h0a4.878,4.878,0,0,0,1.794,1.11,5.422,5.422,0,0,0,2.306.342,5.793,5.793,0,0,0,4.185-1.537,5.467,5.467,0,0,0,0-7.6,6.109,6.109,0,0,0-4.185-1.452" transform="translate(-9070.222 18348.9)" fill="#fff"/>
          <path id="Path_3208" data-name="Path 3208" d="M66.592,291.888a15.7,15.7,0,0,0-5.466-3.929,19.625,19.625,0,0,0-14.605,0,15.384,15.384,0,0,0-5.381,3.929,16.2,16.2,0,0,0-3.331,5.893,21.618,21.618,0,0,0-1.11,7.345v.683a23.563,23.563,0,0,0,1.11,7.345,17.537,17.537,0,0,0,3.331,5.893,15.7,15.7,0,0,0,5.466,3.929,18.1,18.1,0,0,0,7.345,1.367,19.228,19.228,0,0,0,7.26-1.367,15.4,15.4,0,0,0,5.466-3.929,17.537,17.537,0,0,0,3.331-5.893,21.618,21.618,0,0,0,1.11-7.345v-.683a23.947,23.947,0,0,0-1.11-7.345,19.359,19.359,0,0,0-3.416-5.893m-9.4,23.573a5.544,5.544,0,0,1-3.246.769,6.259,6.259,0,0,1-5.637-2.989,11.238,11.238,0,0,1-1.281-3.331,22.269,22.269,0,0,1-.427-4.1v-.683a22.141,22.141,0,0,1,.342-4.1,11.238,11.238,0,0,1,1.281-3.331,6.889,6.889,0,0,1,2.221-2.221,6.514,6.514,0,0,1,8.883,2.221,11.238,11.238,0,0,1,1.281,3.331,21.368,21.368,0,0,1,.427,4.014v.683a22.268,22.268,0,0,1-.427,4.1,11.237,11.237,0,0,1-1.281,3.331,6.187,6.187,0,0,1-2.135,2.306" transform="translate(-9085.583 18346.455)" fill="#fff"/>
          <path id="Path_3209" data-name="Path 3209" d="M42.5,331.8v11.1l12.726-5.979Z" transform="translate(-9086.432 18339.854)" fill="#fff"/>
          <path id="Path_3210" data-name="Path 3210" d="M68.826,331.8v11.1L56.1,336.925Z" transform="translate(-9088.416 18339.854)" fill="#fff"/>
          <path id="Path_3211" data-name="Path 3211" d="M66.592,291.888a15.7,15.7,0,0,0-5.466-3.929,19.625,19.625,0,0,0-14.605,0,15.384,15.384,0,0,0-5.381,3.929,16.2,16.2,0,0,0-3.331,5.893,21.618,21.618,0,0,0-1.11,7.345v.683a23.563,23.563,0,0,0,1.11,7.345,17.537,17.537,0,0,0,3.331,5.893,15.7,15.7,0,0,0,5.466,3.929,18.1,18.1,0,0,0,7.345,1.367,19.228,19.228,0,0,0,7.26-1.367,15.4,15.4,0,0,0,5.466-3.929,17.537,17.537,0,0,0,3.331-5.893,21.618,21.618,0,0,0,1.11-7.345v-.683a23.947,23.947,0,0,0-1.11-7.345,19.359,19.359,0,0,0-3.416-5.893m-9.4,23.573a5.544,5.544,0,0,1-3.246.769,6.259,6.259,0,0,1-5.637-2.989,11.238,11.238,0,0,1-1.281-3.331,22.269,22.269,0,0,1-.427-4.1v-.683a22.141,22.141,0,0,1,.342-4.1,11.238,11.238,0,0,1,1.281-3.331,6.889,6.889,0,0,1,2.221-2.221,6.514,6.514,0,0,1,8.883,2.221,11.238,11.238,0,0,1,1.281,3.331,21.368,21.368,0,0,1,.427,4.014v.683a22.268,22.268,0,0,1-.427,4.1,11.237,11.237,0,0,1-1.281,3.331,6.187,6.187,0,0,1-2.135,2.306" transform="translate(-9085.583 18346.455)" fill="#fff"/>
          <path id="Path_3212" data-name="Path 3212" d="M42.5,331.8v11.1l12.726-5.979Z" transform="translate(-9086.432 18339.854)" fill="#fff"/>
          <path id="Path_3213" data-name="Path 3213" d="M68.826,331.8v11.1L56.1,336.925Z" transform="translate(-9088.416 18339.854)" fill="#fff"/>
          <g id="Group_1323" data-name="Group 1323" transform="translate(-9055.633 18622.371)">
            <g id="Group_1322" data-name="Group 1322">
              <g id="Group_1321" data-name="Group 1321">
                <path id="Path_3214" data-name="Path 3214" d="M62.11,291.182a.822.822,0,0,1-.6-.854,19.333,19.333,0,0,0,.085-2.135,5.851,5.851,0,0,1-1.281-1.2,1.943,1.943,0,0,1,.085-2.135c.085-.171.256-.513.171-.683-.769-2.733-.94-3.246-1.794-5.979,0-.085-.085-.171-.171-.256-1.452.854-2.819,1.708-4.185,2.562-2.05,1.2-4.014,2.477-6.064,3.673a3.2,3.2,0,0,1-1.537.427c-5.637.171-11.36.256-17,.427a3.034,3.034,0,0,1-.854-.171c-.085-.171-.085-.342-.171-.513a3.947,3.947,0,0,1,.6-.6l4.1-2.562c3.587-2.135,7.174-4.356,10.762-6.491.427-.085.854-.256,1.281-.342.085,0,.085.085.171.085,5.637-.085,11.274-.256,17-.342a3.028,3.028,0,0,1,.94.256c0,.085.085.256.085.342a3.947,3.947,0,0,1-.6.6,32.377,32.377,0,0,1-2.9,1.708c-.427.256-.512.427-.342.854.854,2.648,1.025,3.246,1.794,5.893.085.342.256.342.6.427a1.547,1.547,0,0,1,1.367,1.452,11.009,11.009,0,0,1-.256,2.135,18.679,18.679,0,0,1,1.2,1.708.7.7,0,0,1,0,1.025C63.818,290.755,62.964,290.926,62.11,291.182Z" transform="translate(-28.8 -274.1)"/>
                <path id="Path_3215" data-name="Path 3215" d="M59.677,280.2c.427,1.367.769,2.562,1.11,3.843a2.4,2.4,0,0,1-.512,1.964,9.058,9.058,0,0,1-3.416,2.818,28.658,28.658,0,0,1-14.007,3.758,12.183,12.183,0,0,1-2.989-.513,2.4,2.4,0,0,1-1.537-1.708c-.342-1.11-.683-2.306-1.025-3.5a7.817,7.817,0,0,0,1.452-.085c3.331-.171,6.662-.256,9.993-.512a6.706,6.706,0,0,0,2.648-1.2C54.211,283.531,56.859,281.908,59.677,280.2Z" transform="translate(-30.04 -274.99)"/>
              </g>
            </g>
          </g>
        </g>
        <text id="Fellowship_2019" data-name="Fellowship
2019" transform="translate(-8550 18646)" fill="#fff" font-size="28" font-family="Montserrat-Regular, Montserrat"><tspan x="-74.97" y="0">Fellowship</tspan><tspan x="-30.716" y="34">2019</tspan></text>
      </g>
    </g>
  </g>
</svg>
