<svg xmlns="http://www.w3.org/2000/svg" xmlns:xlink="http://www.w3.org/1999/xlink" width="238.802" height="431.425" viewBox="0 0 238.802 431.425">
  <defs>
    <linearGradient id="linear-gradient" x1="-7.624" y1="0.094" x2="-7.624" y2="1.105" gradientUnits="objectBoundingBox">
      <stop offset="0" stop-color="gray" stop-opacity="0.251"/>
      <stop offset="0.54" stop-color="gray" stop-opacity="0.122"/>
      <stop offset="1" stop-color="gray" stop-opacity="0.102"/>
    </linearGradient>
  </defs>
  <g id="Group_1402" data-name="Group 1402" transform="translate(-5767.08 1025.568)">
    <path id="Path_3219" data-name="Path 3219" d="M992.07,373.278s-11.2-7.388-22.294-2.14c0,0,3.417,6.586,17.465,5.958Z" transform="translate(4982.823 -1017.894)" fill="#6c63ff"/>
    <path id="Path_3220" data-name="Path 3220" d="M987.352,372.014s3.407,12.973-5.129,21.8c0,0-5.138-5.348-.045-18.449Z" transform="translate(4988.915 -1016.237)" fill="#6c63ff"/>
    <path id="Path_3221" data-name="Path 3221" d="M1002.952,367.278s-.829-11.034-25.746-7.38c0,0-.109,7.124,8.636,10.5S998.588,370.922,1002.952,367.278Z" transform="translate(4987.282 -1023.954)" fill="#6c63ff"/>
    <path id="Path_3222" data-name="Path 3222" d="M996.991,364.186s10.531,3.38,1.139,26.748c0,0-6.942-1.549-8.2-10.849S992.427,367.566,996.991,364.186Z" transform="translate(4994.773 -1020.936)" fill="#6c63ff"/>
    <path id="Path_3223" data-name="Path 3223" d="M1012.093,360.561s1.431-18.158-24.032-16.29c0,0-1.823,16.4,19.54,20.662Z" transform="translate(4993.774 -1032.971)" fill="#6c63ff"/>
    <path id="Path_3299" data-name="Path 3299" d="M1010.057,136.775v51.018c0,1.522-2.842,2.733-6.377,2.733H869.066c-3.517,0-6.377-1.231-6.377-2.733V136.775c0-1.52,2.842-3.069,6.377-3.069H1003.7C1007.214,133.733,1010.057,135.255,1010.057,136.775Z" transform="translate(4918.547 -1159.274)" fill="#fff"/>
    <path id="Path_3304" data-name="Path 3304" d="M1058.011,541.661c-1.256-4.556-2.077-8.545-2.077-8.545s.054-5-2.332-8.664l-.046-1.248h0l-.363-9.256a31.088,31.088,0,0,1,2.149-4.921c1.549-2.96-.519-13.528-.519-13.528s-6.742-14.749-5.6-24.306-14.275-41.716-14.275-41.716a41.97,41.97,0,0,1,.974-9.366,7.374,7.374,0,0,0,.1-1.967,1.966,1.966,0,0,0,0-.237v.072c-.456-6.258-5.858-17.81-5.858-17.81l-.2-22.421s2.661-13.328-3.188-30.847c-2.042-6.113-3.381-11.022-4.255-14.813-.1-.427-.2-.837-.283-1.239,10.56-2.023,18.612-3.644,18.612-3.644s-7.142-25.509-11.478-29.882-8.2-18.393-8.2-18.393-2.86-18.121.429-23.568,3.417-14.722,3.417-14.722,7.761-6.113,8.664-8.728,2.341-8.483,2.223-11.534-1.221-5.767-.91-7.388-2.634-7.643-1.413-10.6a7.827,7.827,0,0,0,.429-2.815v-.118a39.367,39.367,0,0,0-.994-7.526,21.448,21.448,0,0,0-8.072-3.925l-.2-.683-.52-1.823a9.071,9.071,0,0,0-.8-.437v-.656l-.173-2.615,1.021-5.93c2.068-10.323-11.643-11.325-11.643-11.325a7.126,7.126,0,0,0-3.989-3.234c-2.789-.911.126,15.405,1.456,16.4.994.746,4.173,5.758,5.7,8.2h0l.256.4a6.265,6.265,0,0,0-.6.683l.656,3.525.1.547a14.242,14.242,0,0,0-2.032,3.789s2.6,2.642,2.213,5.721a17.581,17.581,0,0,0,1.1,7.052c-.155-.165-1.986-2-3.717-1.458s-6.586,2.186-6.586,2.186-3.644.784-3.271,1.576-2.322,4.445-2.322,4.445l-10.2-8.945c-.109-.274-.218-.547-.319-.829a23.405,23.405,0,0,1-1.011-4.055,22.268,22.268,0,0,0,3.108-1.12,6.8,6.8,0,0,0,2.66-1.823c.911-1.211,1.075-2.823,1.421-4.3.666-2.9,2.242-5.511,3.335-8.281a26.492,26.492,0,0,0,1.339-14.631,9.706,9.706,0,0,0-1.677-4.218c-1.695-2.149-4.637-2.943-6.823-4.618s-3.644-4.319-6.177-5.548c-2.277-1.112-4.993-.912-7.489-.355a39.934,39.934,0,0,0-13.755,5.6c-1.394.911-2.933,1.949-4.556,1.712a6.208,6.208,0,0,1-3.453-2.341.973.973,0,0,1,0-.136l-.118-.118a17.4,17.4,0,0,0-1.239,7.415,5.106,5.106,0,0,0,.091,1.175v.41a2.087,2.087,0,0,1,0,.347h0a2.088,2.088,0,0,1-.054.528,3.791,3.791,0,0,1-.911,1.357,8.31,8.31,0,0,0-.766,1.13,1.416,1.416,0,0,1,.118-.41,5.769,5.769,0,0,0-.911,3.143,3.1,3.1,0,0,0,.821,2.2,10.675,10.675,0,0,0,1.658,1.231,17.692,17.692,0,0,0-.173,3.279,19.045,19.045,0,0,0,9.893,15.879c.128.274.246.547.375.829a23.6,23.6,0,0,1,2.2,10.659,5.485,5.485,0,0,1-.091.784c-.037.254-.237.283-.338.429h0s-16.244.783-20.2-2.533-9.328,8.828-9.328,8.828-5.777,1.357-6.988.272-8,.146-8,.146a14.657,14.657,0,0,0-10.285-3.316,30.176,30.176,0,0,0-7.615-3.853h0l-.192-.054h0a8.342,8.342,0,0,0-3.644-.328s-8.246-6.3-10.714-9.749-14.068-16.17-14.122-16.234l-.064-.629-.2-1.912a6.894,6.894,0,0,1-.992.126l-.246-.656a35.084,35.084,0,0,0-2.57-5.319s-.091-2.424.592-3.053-.655-9.456-.655-9.456-7.844-16.553-13.811-3.735c0,0-11.843,8.6-1.285,17.665,0,0,4.164,1.821,4.8,3.37.419,1,1.914,3.791,2.916,5.639.165.31.318.584.447.829l-.109.1.21,1.576.082.61c-1.877,1.167-3.143,2.306-2.8,3.116a17.614,17.614,0,0,1,1.33,4.3s14.832,17.172,16.954,24.679c0,0,38.81,21.091,51.354,22.221l-1.639,11.333a89.54,89.54,0,0,0-.146,9.2c.254,2.415-.984,13.429-.984,13.429s-1.549,16.188-3.288,18.521-1.048,11.971-1.048,11.971a81.345,81.345,0,0,1-1.968,13.792c-1.594,6.186,0,13.711,0,13.711s-5.767,14.741,9,4.327c0,0,7.415-.746,15.961-1.367v.858c0,1.1.054,2.295.091,3.552.2,8.308.592,19.751,1.3,28.4,1.267,15.279,7.089,45.342,7.089,45.342l.583,15.215a20.845,20.845,0,0,0-.264,4.364,28.255,28.255,0,0,0,4.645,15.114l1.559,10.094s2.988,6.586,3.2,10.576a5.524,5.524,0,0,1-.082.974,6.781,6.781,0,0,0-.074,1.559c0,4.61,3.226,15.533,3.226,15.533s.592,11.106,2.277,11.688c1.448.491-1.65,6.478-2.578,8.2a3.149,3.149,0,0,1-.074-.318c-.118.227-.19.346-.19.346a7.927,7.927,0,0,0-.411,2.832,4.03,4.03,0,0,0,2,3.836c3.234,1.823,4.993,3.352,2.341,4.1a28.036,28.036,0,0,0-2.914.738c0-.126-.11-.254-.155-.373a1.823,1.823,0,0,0-1.021,1.986,8.373,8.373,0,0,0,1.139,3.735c2.9,5.858,4.828,8.044,4.828,8.044l1.267-.19a6.688,6.688,0,0,1-.683,1.4,5.4,5.4,0,0,1-1.823,1.741,5.741,5.741,0,0,1-2.242.911,6.377,6.377,0,0,0-4.628,2.479c-1.576,2.2-2.5,5.174.912,7.615l12.061,3.644s20.571,1.877,19.3-2.679-2.077-8.545-2.077-8.545a18.231,18.231,0,0,0-1.976-8.08,9.818,9.818,0,0,0-.767-1.176l.72-.109s1.1-10.2,3.024-12.218c.446-.454.538-.8.419-1.066.182-.565-.346-.911-1.029-1.019a1.43,1.43,0,0,1-.128.4,10.294,10.294,0,0,0-2-.146s-.911-5.284,1.221-7.287a2.04,2.04,0,0,0,.355-1.6,8.567,8.567,0,0,0-.309-2.149.52.52,0,0,0-.064.126c-1.285-4.781-5.266-12.307-5.266-12.307s-.346-4.828.911-6.806-1.184-26.255-1.184-26.255.054-11.781-1.658-17.191,1.376-11.989,1.376-11.989a1.705,1.705,0,0,0-.054-.355v-.083s-.1-.719-.264-1.821a.737.737,0,0,1,0,.118c-.446-3.1-1.3-8.71-1.823-11.306-.811-3.645-.656-21.429-.656-21.429l2.733-7.689,5.831,12.847,6.33,17.182s2.943,3.562,3.153,7.287v.547a10.107,10.107,0,0,0,0,1.167,10.371,10.371,0,0,0,1.959,6.121s1.823,8.2,4.228,10.168,2.568,6.031,2.568,6.031,3.29,11.843,4.7,13.856c1.184,1.722,1.431,6.569,1.475,8.054h0v.437s.565,4.245.683,7.825v1.186a12.924,12.924,0,0,1-.237,2.906v-.429a30.639,30.639,0,0,0-.565,7.452c.091,4.292.912,9.339,3.644,12.218,4.692,4.983,7.5,4.226,7.5,4.226s-1.914,6.522-4.556,7.916a1.986,1.986,0,0,0-.282.192,2.464,2.464,0,0,0-.074-.365,3.115,3.115,0,0,0-.691,2.424c-.083,2.842,1.885,7.379,3.644,9.428a5.3,5.3,0,0,0,2.3,1.221,4.631,4.631,0,0,1-.4.282,8.865,8.865,0,0,1-.911.466,4.463,4.463,0,0,1-1.349.4,6.423,6.423,0,0,0-4.628,2.479c-1.567,2.2-2.506,5.165.911,7.615l12.062,3.644S1059.313,546.217,1058.011,541.661Z" transform="translate(4913.237 -1146.837)" fill="url(#linear-gradient)"/>
    <path id="Path_3305" data-name="Path 3305" d="M973.06,406.734l-11.67-3.645c-3.28-2.44-2.378-5.41-.858-7.606a6.086,6.086,0,0,1,4.474-2.469,4.556,4.556,0,0,0,1.3-.41,7.514,7.514,0,0,0,.911-.466c3.162-1.895,2.906-6.239,2.906-6.239s12.509-4.191,16.108-.621a8.941,8.941,0,0,1,1.275,1.6c2.314,3.644,2.268,8.673,2.268,8.673s.8,4.009,2.023,8.553S973.06,406.734,973.06,406.734Z" transform="translate(4976.451 -1009.141)" fill="#3f3d56"/>
    <path id="Path_3400" data-name="Path 3400" d="M973.06,406.734l-11.67-3.645c-3.28-2.44-2.378-5.41-.858-7.606a6.086,6.086,0,0,1,4.474-2.469,4.556,4.556,0,0,0,1.3-.41,7.514,7.514,0,0,0,.911-.466c3.162-1.895,2.906-6.239,2.906-6.239s12.509-4.191,16.108-.621a8.941,8.941,0,0,1,1.275,1.6c2.314,3.644,2.268,8.673,2.268,8.673s.8,4.009,2.023,8.553S973.06,406.734,973.06,406.734Z" transform="translate(4920.451 -1002.141)" fill="#3f3d56"/>
    <path id="Path_3306" data-name="Path 3306" d="M984.781,386.861l.138,3.554c-2.733,4.973-17.055,4.455-21.291,2.176a7.273,7.273,0,0,0,.911-.464c3.162-1.895,2.906-6.241,2.906-6.241s12.509-4.191,16.108-.619A8.852,8.852,0,0,1,984.781,386.861Z" transform="translate(4979.133 -1009.147)" opacity="0.1" style="isolation: isolate"/>
    <path id="Path_3307" data-name="Path 3307" d="M1016.51,446.372a31.289,31.289,0,0,0-2.067,4.921l.483,12.754c-3.016,5.466-19.833,4.319-22.2,1.5s-5.074-10.285-2.541-11.678,4.373-7.908,4.373-7.908-2.733.747-7.289-4.236-3.7-16.471-3-19.241-.464-11.925-.464-11.925-.082-6.451-1.448-8.491-4.556-13.858-4.556-13.858-.155-4.026-2.487-6.039-4.1-10.168-4.1-10.168a10.563,10.563,0,0,1-1.877-6.86c.328-4.044-3.061-8.272-3.061-8.272l-6.15-17.182-5.657-12.855-2.6,7.7s-.126,17.746.666,21.427,2.131,13.464,2.131,13.464-2.978,6.569-1.312,11.989,1.632,17.2,1.632,17.2,2.376,24.261,1.165,26.247-.91,6.806-.91,6.806,7.151,13.92,5.129,15.933-1.175,7.287-1.175,7.287,4.554-.173,2.66,1.823-2.924,12.216-2.924,12.216l-19.387,3.007s-1.877-2.186-4.684-8.054.283-5.329,2.852-6.076.912-2.287-2.267-4.108-1.531-6.233-1.531-6.233,4.364-8.071,2.733-8.654-2.223-11.688-2.223-11.688-3.725-13.083-3.061-16.663-3.042-11.981-3.042-11.981l-1.512-10.1a27.919,27.919,0,0,1-4.282-19.031l-.565-15.679s-5.676-30.063-6.905-45.387c-.794-9.784-1.194-23.158-1.376-31.513-.1-4.682-.138-7.788-.138-7.788l69.3-9.921a57.814,57.814,0,0,0,1.658,10.286c.856,3.789,2.159,8.7,4.146,14.813,5.674,17.527,3.124,30.855,3.124,30.855l.219,22.411s6.7,14.741,5.6,19.952a43.272,43.272,0,0,0-.911,9.393s14.949,32.168,13.866,41.724,5.466,24.315,5.466,24.315S1018.014,443.412,1016.51,446.372Z" transform="translate(4949.072 -1084.036)" fill="#2dbfbd"/>
    <path id="Path_3308" data-name="Path 3308" d="M951.006,325.992l21.072-3.645S960.555,335.066,951.006,325.992Z" transform="translate(4971.557 -1046.049)" opacity="0.05" style="isolation: isolate"/>
    <path id="Path_3309" data-name="Path 3309" d="M963.051,309.492s1.011,7.462-3.471,10.459C959.607,319.951,967.779,318.348,963.051,309.492Z" transform="translate(4976.703 -1053.765)" opacity="0.1" style="isolation: isolate"/>
    <path id="Path_3310" data-name="Path 3310" d="M969.615,294.628s-17.146,15.26-23.686,14.3S969.615,294.628,969.615,294.628Z" transform="translate(4967.953 -1062.686)" opacity="0.1" style="isolation: isolate"/>
    <path id="Path_3311" data-name="Path 3311" d="M939.836,329.566s-13.328,3.572-13.52,8.984S939.836,329.566,939.836,329.566Z" transform="translate(4956.736 -1041.716)" opacity="0.1" style="isolation: isolate"/>
    <path id="Path_3312" data-name="Path 3312" d="M943.624,371.439s-18.849,4.273-13.383,6.478,14.421,3.809,14.421,3.809S950.793,381.807,943.624,371.439Z" transform="translate(4958.496 -1016.582)" opacity="0.05" style="isolation: isolate"/>
    <g id="Group_1343" data-name="Group 1343" transform="translate(5862.59 -815.531)" opacity="0.05">
      <path id="Path_3313" data-name="Path 3313" d="M928.5,378.966a3.781,3.781,0,0,1-1.821-2.688c-.11.219-.182.347-.182.347s-1.6,4.409,1.53,6.231c.365.21.7.41,1.021.61.565-.126,1.167-.227,1.749-.4C933.288,382.364,931.584,380.789,928.5,378.966Z" transform="translate(-905.993 -198.146)"/>
      <path id="Path_3314" data-name="Path 3314" d="M943.163,377.83c.5-.5.437-1.741.054-3.316a8.937,8.937,0,0,0-.911,4.7A3.714,3.714,0,0,1,943.163,377.83Z" transform="translate(-896.271 -199.205)"/>
      <path id="Path_3315" data-name="Path 3315" d="M939.469,326.577a21.9,21.9,0,0,0-1.056,5.977,23.206,23.206,0,0,1,1.322-4.127S939.634,327.716,939.469,326.577Z" transform="translate(-898.592 -227.978)"/>
      <path id="Path_3316" data-name="Path 3316" d="M966.175,320.91a7.2,7.2,0,0,0,.109-1.768c-.192,1.211-.318,2.333-.4,3.317C965.973,321.957,966.064,321.438,966.175,320.91Z" transform="translate(-882.104 -232.44)"/>
      <path id="Path_3317" data-name="Path 3317" d="M940.323,363.716a10.25,10.25,0,0,0,.336-3.589,12.147,12.147,0,0,0-.747,4.556A4.336,4.336,0,0,1,940.323,363.716Z" transform="translate(-897.695 -207.84)"/>
      <path id="Path_3318" data-name="Path 3318" d="M953.7,381.26a63.371,63.371,0,0,0-1.823,10.021l-19.387,3.007s-1.867-2.186-4.673-8.044c-.246-.518-.447-.984-.611-1.4-1.147.584-1.557,1.823.11,5.294,2.805,5.858,4.682,8.044,4.682,8.044l19.387-3.007s1.056-10.2,2.916-12.206C955.205,381.934,954.576,381.442,953.7,381.26Z" transform="translate(-905.918 -195.156)"/>
      <path id="Path_3319" data-name="Path 3319" d="M934.464,423.124s.592,11.115,2.223,11.7h0c.747-1.867,1.221-3.644.493-3.89-1.64-.583-2.223-11.7-2.223-11.7s-3.737-13.082-3.061-16.654-3.044-11.979-3.044-11.979l-1.522-10.1a27.91,27.91,0,0,1-4.281-19.031l-.6-15.625s-5.676-30.063-6.9-45.387c-.794-9.784-1.194-23.168-1.376-31.512,0-1.514-.054-2.852-.082-3.981l-.557.082s0,3.1.146,7.79c.182,8.344.584,21.728,1.367,31.512,1.24,15.277,6.916,45.387,6.916,45.387l.6,15.625a27.92,27.92,0,0,0,4.282,19.031l1.512,10.1s3.717,8.4,3.044,11.979S934.464,423.124,934.464,423.124Z" transform="translate(-913.528 -264.961)"/>
      <path id="Path_3320" data-name="Path 3320" d="M964.844,388.182a18.83,18.83,0,0,1-3.37-7.526c-1.923,1.823.629,8.747,2.879,11.416,2.368,2.815,19.185,3.945,22.2-1.495l-.118-3.069C982.255,392.008,967.086,390.861,964.844,388.182Z" transform="translate(-885.157 -195.519)"/>
      <path id="Path_3321" data-name="Path 3321" d="M978.966,373.45a31.14,31.14,0,0,0-2.067,4.921l.082,2.26c.336-.839.819-1.959,1.495-3.29a9.768,9.768,0,0,0,.546-4.017Z" transform="translate(-875.492 -199.919)"/>
      <path id="Path_3322" data-name="Path 3322" d="M967.283,384.367a30.3,30.3,0,0,0,1.439-3.89s-2.732.747-7.287-4.236c-3.308-3.644-3.762-10.706-3.489-15.351-.7,2.733-1.549,14.258,3,19.241C963.94,383.392,966.126,384.194,967.283,384.367Z" transform="translate(-887.203 -207.382)"/>
      <path id="Path_3323" data-name="Path 3323" d="M969.265,386.305a87.478,87.478,0,0,1,.693,9.529,11.435,11.435,0,0,1,.274-1.5c.7-2.733-.466-11.917-.466-11.917s-.091-6.449-1.458-8.5-4.554-13.858-4.554-13.858-.155-4.026-2.5-6.03-4.1-10.168-4.1-10.168a10.61,10.61,0,0,1-1.877-6.87c.328-4.044-3.061-8.262-3.061-8.262l-6.158-17.191L940.4,298.693l-2.605,7.68v2.45l2.124-6.241,5.657,12.847,6.14,17.182s3.389,4.218,3.061,8.264a10.547,10.547,0,0,0,1.877,6.868s1.759,8.2,4.1,10.168,2.487,6.031,2.487,6.031,3.2,11.843,4.556,13.856S969.265,386.305,969.265,386.305Z" transform="translate(-898.961 -244.714)"/>
    </g>
    <path id="Path_3324" data-name="Path 3324" d="M964.9,173.4l-.984,5.932.173,2.615.128,1.931-6.7.911-.81-1.367h0c-1.485-2.469-4.556-7.489-5.54-8.2-1.275-.994-4.127-17.263-1.431-16.4a7.067,7.067,0,0,1,3.882,3.244S966.9,163.089,964.9,173.4Z" transform="translate(4970.121 -1144.218)" fill="#ffcdd3"/>
    <path id="Path_3325" data-name="Path 3325" d="M961.178,175.464l-6.7.911-.81-1.367h0a5.938,5.938,0,0,1,7.379-1.512Z" transform="translate(4973.156 -1135.803)" opacity="0.1" style="isolation: isolate"/>
    <path id="Path_3326" data-name="Path 3326" d="M963.094,178.338l-8.782,2.4-.237-1.312-.639-3.535a6.1,6.1,0,0,1,8.537-1.495l.509,1.823Z" transform="translate(4973.016 -1135.553)" fill="#dce6f2"/>
    <path id="Path_3327" data-name="Path 3327" d="M877.692,182.2l-9.265,5.466s-.39-.728-.911-1.749c-.974-1.823-2.423-4.645-2.832-5.649-.621-1.539-4.647-3.37-4.647-3.37-10.267-9.11,1.221-17.665,1.221-17.665,5.758-12.81,13.365,3.753,13.365,3.753s1.312,8.828.646,9.457-.565,3.042-.565,3.042a35.777,35.777,0,0,1,2.487,5.33C877.519,181.656,877.692,182.2,877.692,182.2Z" transform="translate(4914.394 -1146.869)" fill="#ffcdd3"/>
    <path id="Path_3328" data-name="Path 3328" d="M873.286,172.274l-9.265,5.466s-.39-.728-.911-1.749c1.285-1.167,5.876-5.193,7.435-5.074a11.908,11.908,0,0,0,2.24,0C873.113,171.728,873.286,172.274,873.286,172.274Z" transform="translate(4918.8 -1136.941)" opacity="0.1" style="isolation: isolate"/>
    <path id="Path_3329" data-name="Path 3329" d="M874.245,174.916l-10.432,5.649-.3-2.277-.21-1.576s5.958-5.513,7.788-5.385a9.841,9.841,0,0,0,2.733-.109l.2,1.9Z" transform="translate(4918.916 -1136.759)" fill="#dce6f2"/>
    <path id="Path_3330" data-name="Path 3330" d="M958.121,206.272s-46.152,7.015-37.6,3.873c5.958-2.205,8.2-6.132,8.545-10.4a24.34,24.34,0,0,0-2.141-10.669,46.472,46.472,0,0,0-4.465-8.2s34.683-20.854,28.242-2.861a28.193,28.193,0,0,0-1.685,8.473,23.675,23.675,0,0,0,1.239,8.462A25.329,25.329,0,0,0,958.121,206.272Z" transform="translate(4952.626 -1137.067)" fill="#ffcdd3"/>
    <path id="Path_3331" data-name="Path 3331" d="M949.618,178.025a28.185,28.185,0,0,0-1.685,8.472c-3.226,2.933-6.9,2.888-11.6,3.071-3.644.136-7.579,1.167-10.531-.466a46.474,46.474,0,0,0-4.465-8.2S956.022,160.04,949.618,178.025Z" transform="translate(4953.75 -1137.061)" opacity="0.1" style="isolation: isolate"/>
    <circle id="Ellipse_365" data-name="Ellipse 365" cx="19.186" cy="19.186" r="19.186" transform="translate(5869.587 -984.591)" fill="#ffcdd3"/>
    <path id="Path_3332" data-name="Path 3332" d="M958.121,197.834s-46.152,7.015-37.6,3.873c5.958-2.205,8.2-6.132,8.545-10.4,2.213-2.6,6.779-4.556,9.72-5.649a13.84,13.84,0,0,1,8.391-.454A11.726,11.726,0,0,1,950.3,186.5,25.313,25.313,0,0,0,958.121,197.834Z" transform="translate(4952.626 -1128.629)" opacity="0.1" style="isolation: isolate"/>
    <path id="Path_3333" data-name="Path 3333" d="M962.855,177.318l-8.782,2.4-.237-1.312a7.85,7.85,0,0,1,8.408-3.244Z" transform="translate(4973.255 -1134.532)" opacity="0.1" style="isolation: isolate"/>
    <path id="Path_3334" data-name="Path 3334" d="M874.166,174.185l-10.432,5.649-.3-2.277a77.262,77.262,0,0,1,10.549-5.121Z" transform="translate(4918.995 -1136.028)" opacity="0.1" style="isolation: isolate"/>
    <path id="Path_3335" data-name="Path 3335" d="M984.515,269.365c-17.838,3.527-43.246,8.2-47.373,7.116-3.407-.912-14.14-.374-23.477.309-.1-4.682-.138-7.788-.138-7.788l69.3-9.921A57.941,57.941,0,0,0,984.515,269.365Z" transform="translate(4949.062 -1084.022)" opacity="0.1" style="isolation: isolate"/>
    <path id="Path_3336" data-name="Path 3336" d="M1033.317,316.247s-58.723,12.418-65.146,10.733-38.909,1.658-38.909,1.658c-14.277,10.385-8.719-4.346-8.719-4.346s-1.576-7.515,0-13.711a84.262,84.262,0,0,0,1.887-13.783s-.693-9.648.992-11.971,3.162-18.513,3.162-18.513,1.184-11.014.911-13.427a87.624,87.624,0,0,1,.136-9.193l1.64-11.35c-12.144-1.149-49.733-22.285-49.733-22.285-2.068-7.5-16.4-24.688-16.4-24.688a18.507,18.507,0,0,0-1.295-4.309c-1.066-2.541,13.239-8.254,13.239-8.254s11.3,12.754,13.664,16.253,10.377,9.766,10.377,9.766a7.733,7.733,0,0,1,3.562.318l.182.054h0a28.857,28.857,0,0,1,7.369,3.863,14,14,0,0,1,9.968,3.325s6.567-1.221,7.734-.136,6.769-.256,6.769-.256,5.175-12.144,9.011-8.819,19.559,2.551,19.559,2.551c1.986-2.86,7.006-5.055,10.158-6.2a13.836,13.836,0,0,1,8.39-.464,10.8,10.8,0,0,1,3.38,1.475l9.894,8.974s2.605-3.644,2.25-4.445,3.17-1.568,3.17-1.568,4.61-1.631,6.377-2.186,3.444,1.312,3.6,1.467a18.668,18.668,0,0,1-1.075-7.052c.355-3-2.159-5.721-2.159-5.721,5.111-14.066,18.276-2.96,18.276-2.96s1.749,7.516.563,10.467,1.64,8.964,1.376,10.585.811,4.329.911,7.39-1.266,8.918-2.132,11.533-8.38,8.71-8.38,8.71-.128,9.2-3.308,14.648-.382,23.568-.382,23.568,3.772,14.048,7.971,18.4S1033.317,316.247,1033.317,316.247Z" transform="translate(4918.006 -1135.806)" fill="#2f2e41"/>
    <path id="Path_3337" data-name="Path 3337" d="M915.726,201.885s-1.978-5.247-3.645-5.666a38.651,38.651,0,0,1-4.746-1.914l.912-2.023s6.113,1.421,7.151,3.162S915.726,201.885,915.726,201.885Z" transform="translate(4945.344 -1124.116)" opacity="0.1" style="isolation: isolate"/>
    <path id="Path_3338" data-name="Path 3338" d="M897.532,193.179c-.264,1.621-14.576,3.644-14.576,3.644l6.971-7.551h0l.181.054h0A28.817,28.817,0,0,1,897.532,193.179Z" transform="translate(4930.712 -1125.924)" opacity="0.1" style="isolation: isolate"/>
    <circle id="Ellipse_366" data-name="Ellipse 366" cx="1.294" cy="1.294" r="1.294" transform="translate(5784.625 -954.554)" fill="#575988"/>
    <circle id="Ellipse_367" data-name="Ellipse 367" cx="1.294" cy="1.294" r="1.294" transform="translate(5786.373 -952.04)" fill="#575988"/>
    <circle id="Ellipse_368" data-name="Ellipse 368" cx="1.294" cy="1.294" r="1.294" transform="translate(5788.077 -949.727)" fill="#575988"/>
    <circle id="Ellipse_369" data-name="Ellipse 369" cx="1.294" cy="1.294" r="1.294" transform="translate(5789.863 -947.212)" fill="#575988"/>
    <circle id="Ellipse_370" data-name="Ellipse 370" cx="1.048" cy="1.048" r="1.048" transform="translate(5941.94 -952.951)" fill="#575988"/>
    <circle id="Ellipse_371" data-name="Ellipse 371" cx="1.048" cy="1.048" r="1.048" transform="translate(5942.195 -950.583)" fill="#575988"/>
    <circle id="Ellipse_372" data-name="Ellipse 372" cx="1.048" cy="1.048" r="1.048" transform="translate(5942.423 -948.214)" fill="#575988"/>
    <path id="Path_3339" data-name="Path 3339" d="M913.676,225.559c-.154-.182,37.917,44.275,65.094,16.689C978.77,242.248,934.457,250,913.676,225.559Z" transform="translate(4949.15 -1104.143)" opacity="0.1" style="isolation: isolate"/>
    <path id="Path_3340" data-name="Path 3340" d="M901.214,240.96s21.755-.246,24.271,5.911l.245,6.5a4.142,4.142,0,0,1-4.044.155c-2.232-1.093-15.625-7.287-20.134-3.873Z" transform="translate(4941.671 -1094.899)" opacity="0.1" style="isolation: isolate"/>
    <path id="Path_3341" data-name="Path 3341" d="M901.47,240.948s20.8-.237,23.2,5.639l.237,6.2a3.991,3.991,0,0,1-3.873.146c-2.131-1.047-14.941-6.923-19.249-3.689Z" transform="translate(4941.824 -1094.907)" fill="#656691"/>
    <path id="Path_3342" data-name="Path 3342" d="M907.494,211.189a69.854,69.854,0,0,0,8.982,14.13,56.692,56.692,0,0,0,13.666,12.226S907.968,214.159,907.494,211.189Z" transform="translate(4945.439 -1112.768)" opacity="0.1" style="isolation: isolate"/>
    <path id="Path_3343" data-name="Path 3343" d="M902.444,195.584s4.228,15.489,13.775,20.462Z" transform="translate(4942.409 -1122.134)" opacity="0.1" style="isolation: isolate"/>
    <path id="Path_3344" data-name="Path 3344" d="M899.1,196.708c-.109-.291-2.733,12.5,12.754,18.913C911.879,215.621,905.312,213.67,899.1,196.708Z" transform="translate(4940.261 -1121.463)" opacity="0.1" style="isolation: isolate"/>
    <path id="Path_3345" data-name="Path 3345" d="M958.045,187.873c-.237,0,7.726,4.657,9.921,6.879C967.966,194.753,962.628,187.372,958.045,187.873Z" transform="translate(4975.778 -1126.777)" opacity="0.1" style="isolation: isolate"/>
    <path id="Path_3346" data-name="Path 3346" d="M933.424,198.685a3.015,3.015,0,0,0,3.132,2.895,2.86,2.86,0,0,0,.285-.026c5.857.138,11.952.165,17.309-2.295a6.526,6.526,0,0,0,2.559-1.823c.912-1.211,1.039-2.815,1.376-4.3.646-2.888,2.159-5.466,3.224-8.272a27.4,27.4,0,0,0,1.295-14.695,9.787,9.787,0,0,0-1.623-4.218c-1.639-2.16-4.5-2.943-6.614-4.628s-3.545-4.329-5.985-5.558c-2.205-1.112-4.837-.911-7.289-.365a38.042,38.042,0,0,0-13.3,5.594c-1.357.911-2.842,1.939-4.455,1.7-1.411-.21-2.469-1.347-3.416-2.413a17.853,17.853,0,0,0-1.111,8.408,3.688,3.688,0,0,1,0,1.258,3.834,3.834,0,0,1-.848,1.357c-1.375,1.731-2.176,4.42-.683,6.05.648.719,1.613,1.083,2.252,1.821,1.13,1.3.837,3.253.91,4.975a2.526,2.526,0,0,0,.491,1.685,2.487,2.487,0,0,0,2.387.474,6.439,6.439,0,0,1,2.506-.338,4.169,4.169,0,0,1,2.258,1.6C930.935,190.868,932.129,194.6,933.424,198.685Z" transform="translate(4950.831 -1146.517)" fill="#2d293d"/>
    <g id="Group_1344" data-name="Group 1344" transform="translate(5867.322 -986.449)" opacity="0.1">
      <path id="Path_3347" data-name="Path 3347" d="M957.26,189.533a6.54,6.54,0,0,1-2.57,1.821c-5.321,2.461-11.406,2.442-17.263,2.3a3.016,3.016,0,0,1-3.4-2.575,2.83,2.83,0,0,1-.026-.286c-1.285-4.09-2.487-7.825-5.321-11.15a4.187,4.187,0,0,0-2.25-1.6,6.637,6.637,0,0,0-2.514.338,2.491,2.491,0,0,1-2.388-.474,2.584,2.584,0,0,1-.491-1.687c0-1.722.254-3.644-.912-4.973-.627-.728-1.6-1.093-2.25-1.823a3.785,3.785,0,0,1-.518-3.834c-.957,1.666-1.322,3.77-.074,5.146.646.711,1.623,1.075,2.25,1.823,1.13,1.3.848,3.252.912,4.983a2.515,2.515,0,0,0,.491,1.675,2.458,2.458,0,0,0,2.387.474,6.632,6.632,0,0,1,2.514-.336,4.23,4.23,0,0,1,2.25,1.6c2.834,3.335,4.026,7.06,5.321,11.15A4.048,4.048,0,0,0,935,194.634a4.121,4.121,0,0,0,1.823.338c5.858.136,11.952.154,17.31-2.306a6.6,6.6,0,0,0,2.568-1.821,5.2,5.2,0,0,0,.765-1.586A2.464,2.464,0,0,1,957.26,189.533Z" transform="translate(-916.485 -153.692)"/>
      <path id="Path_3348" data-name="Path 3348" d="M918.042,167.5a2.757,2.757,0,0,0,.547-.992,3.463,3.463,0,0,0,0-1.258,17.839,17.839,0,0,1,.637-6.969l-.119-.128a17.9,17.9,0,0,0-1.11,8.409A5.4,5.4,0,0,1,918.042,167.5Z" transform="translate(-915.64 -158.152)"/>
    </g>
    <path id="Path_3349" data-name="Path 3349" d="M925.211,190.166s24.069,2.26,26.082-1.431" transform="translate(4956.074 -1126.245)" opacity="0.1" style="isolation: isolate"/>
    <path id="Path_3350" data-name="Path 3350" d="M954.063,182.324s13.3-.491,16.4,4.383" transform="translate(4973.392 -1130.102)" opacity="0.1" style="isolation: isolate"/>
  </g>
</svg>
