<svg xmlns="http://www.w3.org/2000/svg" xmlns:xlink="http://www.w3.org/1999/xlink" width="239.989" height="403.352" viewBox="0 0 239.989 403.352">
  <defs>
    <linearGradient id="linear-gradient" x1="0.813" y1="0.779" x2="0.813" y2="1.779" gradientUnits="objectBoundingBox">
      <stop offset="0" stop-color="gray" stop-opacity="0.251"/>
      <stop offset="0.54" stop-color="gray" stop-opacity="0.122"/>
      <stop offset="1" stop-color="gray" stop-opacity="0.102"/>
    </linearGradient>
  </defs>
  <g id="Group_1403" data-name="Group 1403" transform="translate(-4840.559 1045.854)">
    <path id="Path_3374" data-name="Path 3374" d="M595.03,284.99l.291,3.08s-15.489-5.047-14.722-11.251,0-5.466,0-5.466l12.463,1.056Z" transform="translate(4461.215 -1129.672)" fill="#4c4981"/>
    <path id="Path_3375" data-name="Path 3375" d="M595.03,284.99l.291,3.08s-15.489-5.047-14.722-11.251,0-5.466,0-5.466l12.463,1.056Z" transform="translate(4461.215 -1129.672)" opacity="0.1" style="isolation: isolate"/>
    <path id="Path_3391" data-name="Path 3391" d="M592.638,282.261c-.155.338-.811.629-1.675.912-3.49-4.665-8.355-10.651-10.733-11.179,0,0,.274-.264.72-.666,1.33-.118,2.26-.1,2.26-.1S593.221,281.013,592.638,282.261Z" transform="translate(4461.01 -1129.73)" opacity="0.1" style="isolation: isolate"/>
    <path id="Path_3392" data-name="Path 3392" d="M589.042,226.236l3.945.574a67.633,67.633,0,0,0,4.719,7.215,7.841,7.841,0,0,1,1.73,4.618s5.777,8.564,7.6,9.529,4.618,7.507,4.618,7.507,4.554,2.98,4.554,6.377a55.766,55.766,0,0,0,.866,8.364c.091.482-.674,6.449-2.605,9.428s-3.844,9.621-3.745,10.778-5.393,7.289-6.932,9.238a38.877,38.877,0,0,0-3.362,5.676l-5.1,9.621s-10.777-15.871-14.722-16.737c0,0,4.428-4.236,6.641-5s4.327-7.124,4.428-8.564,2.013-6.258,4.036-7.124,3.079-1.73,2.213-3.079,0-3.945,0-3.945-5.674-7.507-6.449-11.843-5.959-7.215-5.959-7.215l-2.988-7.289Z" transform="translate(4461.235 -1156.736)" fill="#2dbfbd"/>
    <path id="Path_3394" data-name="Path 3394" d="M589.379,251.586a3.315,3.315,0,0,0,2.733-1.941,10.964,10.964,0,0,0,.856-3.417,50.743,50.743,0,0,1,1.194-5.839,3.726,3.726,0,0,0,.19-1.221,3.4,3.4,0,0,0-.355-1.175,8.294,8.294,0,0,0-.837-1.749c-.72.81-.912,2.623-1.213,3.644q-.528,1.968-1.011,3.935C590.782,244.517,589.443,251.586,589.379,251.586Z" transform="translate(4466.501 -1150.729)" opacity="0.1" style="isolation: isolate"/>
    <g id="Group_1401" data-name="Group 1401" transform="translate(-288 -53)">
      <path id="Path_3351" data-name="Path 3351" d="M602.162,157.219v51.018c0,1.522-2.852,2.733-6.377,2.733H461.2c-3.517,0-6.377-1.231-6.377-2.733V157.219c0-1.52,2.842-3.069,6.377-3.069H595.8C599.311,154.15,602.162,155.7,602.162,157.219Z" transform="translate(4673.737 -1147.004)" fill="#fff"/>
      <g id="Group_1345" data-name="Group 1345" transform="translate(5128.559 -992.854)" opacity="0.2">
        <path id="Path_3352" data-name="Path 3352" d="M602.162,157.219v51.018c0,1.522-2.852,2.733-6.377,2.733H461.2c-3.517,0-6.377-1.231-6.377-2.733V157.219c0-1.52,2.842-3.069,6.377-3.069H595.8C599.311,154.15,602.162,155.7,602.162,157.219Z" transform="translate(-454.822 -154.15)" fill="#6c63ff"/>
      </g>
      <rect id="Rectangle_915" data-name="Rectangle 915" width="70.113" height="2.478" transform="translate(5193.232 -974.634)" fill="#6c63ff"/>
      <rect id="Rectangle_916" data-name="Rectangle 916" width="70.113" height="2.478" transform="translate(5193.232 -968.603)" fill="#6c63ff" opacity="0.2" style="isolation: isolate"/>
      <rect id="Rectangle_917" data-name="Rectangle 917" width="70.113" height="2.478" transform="translate(5193.232 -962.572)" fill="#6c63ff" opacity="0.2" style="isolation: isolate"/>
      <rect id="Rectangle_918" data-name="Rectangle 918" width="70.113" height="2.478" transform="translate(5193.232 -956.54)" fill="#6c63ff" opacity="0.2" style="isolation: isolate"/>
      <path id="Path_3353" data-name="Path 3353" d="M674.941,300.261a55.089,55.089,0,0,1-.911-8.39c0-3.372-4.556-6.377-4.556-6.377s-2.832-6.559-4.692-7.516-7.716-9.547-7.716-9.547a7.774,7.774,0,0,0-1.759-4.629,66.313,66.313,0,0,1-4.773-7.206h0c-.783-.965-.392-1.64-1.567-7.233-.067-.291-.139-.574-.219-.848a1.257,1.257,0,0,0-.118-.355,9.455,9.455,0,0,0,2.224-9.784,4.031,4.031,0,0,0-1.122-1.731c-1.33-1.083-3.452-.637-4.818-1.667l1.448-6.431c.355-1.567.538-3.572-.848-4.418a6.961,6.961,0,0,0-1.621-.547c-2.388-.755-3.725-3.271-4.337-5.676a19.465,19.465,0,0,1-.474-7.1c.264-2.277.911-4.5,1.184-6.788a18.734,18.734,0,0,0-2.888-12.08,9.411,9.411,0,0,0-3.817-3.6c-1.467-.656-3.17-.739-4.556-1.6-2.933-1.823-2.788-6.278-5.119-8.838s-6.478-2.532-9.885-1.658-6.788,2.378-10.286,1.986c-2.25-.246-4.364-1.266-6.614-1.5a6.585,6.585,0,0,0-1.941.091l.046-.082a4.189,4.189,0,0,0-3.6,2.815,4.391,4.391,0,0,0-.109,1.147c0,.911.218,1.877.237,2.733a2.66,2.66,0,0,1-.638,1.941c-.446.482-1.111.738-1.547,1.229a2,2,0,0,0-.574,1.448c0,1.4,1.749,2.634,2.924,3.2h0c-.318.318-.627.646-.91.984a20.7,20.7,0,0,0-5.129,13.783,21,21,0,0,0,12.754,19.231c-.054.174-.1.338-.163.51a27.191,27.191,0,0,1-1.149,2.98,5.909,5.909,0,0,0-4.946.546c-2.25,1.541-6.641,1.45-7.817,1.157s-13.383-1.821-14.357-1.448-2.933-1.347-4.2.967-1.821,3.57-3.124,4.145-3.517,2.415-3.226,2.8-3.224,2.733-3.224,2.733-3.024,3.18-4.783,3.572-5.466,2.8-5.466,2.8l-4.3,3.372s-3.224.483-2.25-1.731-1.759-5.02-1.759-5.02-5.466-11.086-5.466-13.392-4.492-12.053-4.492-12.053l-.555-.054c-.082-.237-.163-.474-.254-.72a68.426,68.426,0,0,0-2.733-6.841c-1.549-3.18-2.551-3.544-2.551-3.544s-18.95-14.229-31.257-9.893,22.466,17.254,25.591,18.612c1.093.464,1.875,1.994,2.432,3.772a16.173,16.173,0,0,0-6.7,6.094s7.516,16.673,7.708,20.817,5.183,15.716,5.183,15.716,1.823,8.582,11.917,8.1c0,0,13.866,2.541,16.89,0s5.766-4.556,7.233-4.837a5.7,5.7,0,0,0,2.733-1.931s-4.556,28.916-6.833,31.43-22.174,34.992-15.05,40.769A142.948,142.948,0,0,0,559.523,346.5c.61.3,2.423-2.733,5.02-4.874v1.667c.045,11.552,1.549,29.153,3.69,33.088,3.124,5.786,1.821,16.974,1.821,16.974a13.49,13.49,0,0,0,5.284,1.266c.091.373.2.765.311,1.175,1.722,6.5,4.509,16.564,5.93,19.241,2.159,4.055,3.717,16.873,3.717,16.873s1.266,12.627.782,14.367c-.19.666.639,5.9,1.932,12.554h0c-.792,9.038-2.277,26.466-2.532,32.8h0v1.056h0a6.974,6.974,0,0,0,0,1.184,3.726,3.726,0,0,1-.128,1.823,29.328,29.328,0,0,1-2.124,5.047,24.443,24.443,0,0,0-.91,2.45c-.775.338-1.74,1.184-2.277,3.234-.975,3.762-2.442,14.176-2.442,14.176s-.583,6.377-1.759,7.807-2.341,10.5,5.959,11.661,11.915-4.41,11.915-4.41l-.291-25.236h0a3.665,3.665,0,0,0,.429-.691v-.054c.054-.128.118-.246.173-.392s0-.118.072-.182.083-.2.118-.31a.611.611,0,0,1,0-.109,16.564,16.564,0,0,0,.7-7.516v-.518a1.568,1.568,0,0,0,0-.174,1.66,1.66,0,0,1,0-.218V500.1a1.663,1.663,0,0,1,.054-.51.342.342,0,0,1,0-.1v-.3a.665.665,0,0,0,0-.138,2.069,2.069,0,0,1,.064-.318v-.072c.072-.374.173-.747.274-1.139v-.082l.109-.382h0c.128-.411.264-.811.4-1.213v-.082l.138-.373v-.046c.136-.382.282-.755.427-1.111v-.1l.138-.318v-.091l.3-.711h0l2.3,7.115s1.266,5.3.583,6.55.784,6.47,1.759,6.561l-.91,6.559a100.383,100.383,0,0,0-.912,10.931c-.062.411-.126.767-.173,1.039-.629,3.352.912,8.564.912,8.564,7.716,9.11,16.9.711,16.9.711s1.075-4.828,0-5.785-.583-4.437-.583-4.437.483-8.582.583-14.848-5.129-11.781-5.129-11.781l-.291.264c-.911-2.45-2.032-5.319-1.823-6.6.392-2.215-1.074-25.637-1.074-25.637a139.92,139.92,0,0,0,.336-18.839h0c.128-1.066.246-2.114.365-3.125.592-5.037,1.066-9.347,1.258-11.6h0v-.264c.045-.611.072-1.039.062-1.248,0-.747,0-1.685.074-2.669.192-2.733.61-5.721.61-5.721l2.05-12.437s1.559-6.066,3.809-9.446l.264-.429h0c.091-.146.182-.309.274-.483v-.072l.274-.52v-.072c.318-.619.656-1.339,1-2.123l.082-.173.264-.6.1-.237.264-.6c0-.083.064-.155.1-.237.1-.246.2-.493.309-.739l.146-.355c.083-.182.155-.363.229-.555l.2-.474.136-.355.219-.538c0-.082.074-.163.1-.246.555-1.394,1.1-2.733,1.576-4.026h0c.154-.392.3-.765.437-1.13,5,.31,8.4.592,8.4.592s1.567-11.278,1.075-18.7a68.876,68.876,0,0,1,1.229-14.968c.074-.39.138-.738.192-1.047l.136.109c2.452,1.922,4.2-4.437,4.2-4.437s-.656-5.948-1.539-13.136a6.507,6.507,0,0,0-.091-.72,37.742,37.742,0,0,0,4.273.656s.783-.074,1.821-.21a51.806,51.806,0,0,0,9.275,4.154l5.175-9.638a39.226,39.226,0,0,1,3.417-5.686c1.567-1.931,7.132-8.1,7.033-9.256s1.821-7.807,3.807-10.8S675.05,300.754,674.941,300.261ZM653.26,307.55c-2.05.866-4.009,5.684-4.1,7.134s-2.252,7.807-4.5,8.58c-2.058.712-6.012,4.337-6.641,4.921-.646.064-1.376.146-2.141.274-.856-6.086-1.7-11.115-2.25-12.136-1.559-2.9,1.722-12.144,1.722-12.144s.328-9.347,2.378-11.57,1.567-7.807,1.567-7.807.483-2.314.683-3.37,2.906,0,2.924,0h0s5.276,2.887,6.058,7.223S655.5,300.5,655.5,300.5s-.91,2.6,0,3.954-.182,2.269-2.232,3.135Z" transform="translate(4693.6 -1134.069)" fill="url(#linear-gradient)"/>
      <path id="Path_3354" data-name="Path 3354" d="M502.969,209.478a15.75,15.75,0,0,1,15.778-7.407v11.261h-6.806l-5.393-1.394Z" transform="translate(4702.636 -1118.344)" fill="#4c4981"/>
      <path id="Path_3355" data-name="Path 3355" d="M502.969,209.478a15.75,15.75,0,0,1,15.778-7.407v11.261h-6.806l-5.393-1.394Z" transform="translate(4702.636 -1118.344)" opacity="0.1" style="isolation: isolate"/>
      <path id="Path_3356" data-name="Path 3356" d="M528.071,213.159l-8.372,5.876s-.074-1.184-.283-2.788c-.419-3.034-1.357-7.59-3.38-8.473-3.079-1.347-37.352-14.239-25.2-18.566s30.783,9.865,30.783,9.865.967.328,2.5,3.508c.811,1.667,1.823,4.509,2.679,6.823C527.533,211.5,528.071,213.159,528.071,213.159Z" transform="translate(4693.795 -1126.453)" fill="#fbbebe"/>
      <path id="Path_3357" data-name="Path 3357" d="M555.822,209.692l.947-.456,2.678,3.052-2.186,4.664-3.726-1.494.865-3.726Z" transform="translate(4732.986 -1113.939)" fill="#4c4981"/>
      <path id="Path_3358" data-name="Path 3358" d="M550.159,380.277s-2.405-.282-3.37,3.461-2.405,14.149-2.405,14.149-.574,6.377-1.731,7.788-2.3,10.486,5.866,11.643,11.744-4.4,11.744-4.4l-.291-25.234Z" transform="translate(4725.967 -1011.28)" fill="#2f2e41"/>
      <path id="Path_3359" data-name="Path 3359" d="M569.6,380.987s5.148,5.466,5.057,11.752-.583,14.823-.583,14.823-.474,3.461.583,4.426,0,5.767,0,5.767-9.046,8.4-16.644-.7c0,0-1.485-5.2-.912-8.555s2.306-18.449,2.306-18.449Z" transform="translate(4735.049 -1010.852)" fill="#2f2e41"/>
      <path id="Path_3360" data-name="Path 3360" d="M590.684,311.063s-5.2,14.576-7.417,17.892-3.743,9.438-3.743,9.438L577.5,350.811a68.229,68.229,0,0,0-.675,8.372c.091,2.788-5,43.483-5,43.483l-8.081,10.3s-3.562,7.215-2.988,10.2-.382,7.79-1.539,9.228c0,0-.192,9.429-.483,11.552s1.066,8.081,0,9.11-15.2.574-15.588-1.157,1.74-10.1,1.74-10.1l1.248-8.08s2.5-4.428,1.924-5.868,1.056-4.81,1.157-5.1,2.732-5,2.213-6.823,2.98-40.6,2.98-40.6l9.912-69.566Z" transform="translate(4726.722 -1056.009)" fill="#ae6e79"/>
      <path id="Path_3361" data-name="Path 3361" d="M590.68,311.057s-.784,2.186-1.877,5.065c-1.712,4.556-4.181,10.77-5.54,12.827-2.213,3.372-3.753,9.43-3.753,9.43L577.5,350.795a68.089,68.089,0,0,0-.675,8.364c0,1.1-.738,8.135-1.685,16.225-1.458,12.381-3.316,27.268-3.316,27.268l-8.091,10.294s-.41.829-.911,2.032c-1.011,2.359-2.442,6.194-2.059,8.2.574,2.989-.382,7.8-1.539,9.238,0,0-.19,9.438-.482,11.542s1.066,8.091,0,9.11-15.2.584-15.588-1.157,1.73-10.094,1.73-10.094l1.258-8.089s2.5-4.428,1.922-5.866,1.058-4.81,1.157-5.1,2.733-5,2.215-6.831c-.375-1.394,1.547-24.179,2.477-34.984.3-3.407.5-5.612.5-5.612l8.528-59.845.683-4.828.7-4.893Z" transform="translate(4726.726 -1056.003)" fill="#fbbebe"/>
      <path id="Path_3362" data-name="Path 3362" d="M583.064,454c.091,1.056-13.565,2.6-15.487,1.439s0-15.487,0-15.487l.911-6.542c-.965-.1-2.4-5.292-1.73-6.55s-.584-6.542-.584-6.542l-2.268-7.1-1.386-4.337c-2.24-4.966-5.465-19.132-7.524-29.7-1.275-6.641-2.087-11.843-1.9-12.544.483-1.731-.775-14.332-.775-14.332s-1.53-12.754-3.644-16.834c-1.4-2.679-4.145-12.755-5.849-19.214-.866-3.325-1.467-5.713-1.467-5.713s14.576-1.221,23.36-1.648c4.063-.192,6.9-.219,6.567.118s-.41,2.095-.392,4.637c0,6.6.957,18.22,1.931,21.336,1.349,4.327,2.733,17.31,2.114,18.566s-.382,9.62-.382,9.62a43.25,43.25,0,0,1,1.685,10.449,141.01,141.01,0,0,1-.336,18.8s1.448,23.376,1.056,25.591,3.079,9.11,3.079,10.486.875,10.486.875,10.486S582.974,452.941,583.064,454Z" transform="translate(4725.677 -1054.21)" fill="#fbbebe"/>
      <path id="Path_3363" data-name="Path 3363" d="M585.7,239.185l-1.659,1.821-1.074,1.157-6.3,6.7L560.4,250.681l-8.636-2.314-2.141-.565s0-4.345.392-9.557c.546-6.678,1.867-14.794,5-17a12.406,12.406,0,0,0,3.644-4.637,25.768,25.768,0,0,0,1.576-3.89c.064-.173.11-.338.165-.5a42.534,42.534,0,0,0,1.53-7.143s2.077-1.147,4.956-2.487c7.534-3.516,20.544-8.363,16.017,2.487a40.9,40.9,0,0,0-1.695,4.884c-.074.237-.138.483-.192.72-1.512,6.049-.51,9.712.619,11.733h0a8.391,8.391,0,0,0,.656.994,5.04,5.04,0,0,0,1.093,1.112l1.877,11.888.155.984Z" transform="translate(4730.639 -1120.438)" fill="#fbbebe"/>
      <path id="Path_3364" data-name="Path 3364" d="M578.928,205.471c-.856,2.059.419-1.685,0,0-3.424,2.442-11.506,9.384-16.052,9.384-3.061,0-3.981-.555-6.614-1.739a42.813,42.813,0,0,0,1.695-7.644S585.178,190.458,578.928,205.471Z" transform="translate(4734.623 -1120.205)" opacity="0.1" style="isolation: isolate"/>
      <path id="Path_3365" data-name="Path 3365" d="M590.474,202.919A20.955,20.955,0,0,1,571.7,223.773a19.748,19.748,0,0,1-2.2.118,20.954,20.954,0,1,1,20.953-20.953h0Z" transform="translate(4729.993 -1130.298)" fill="#fbbebe"/>
      <path id="Path_3366" data-name="Path 3366" d="M596.1,272.648l-2.98,7.8s-2.442.109-6.231.227c-12.755.41-41,.911-42.263-2.351a7.91,7.91,0,0,1-.437-2.588c-.173-5.01,2.168-12.709,2.168-12.709s1.349-15.4,1.349-16.061-1.157-11.5-1.157-11.5l2.3-8.656,6.451-4.554s2.887,4.426,4.618,4.81,4.045,2.5,4.045,2.5,5.666,3.463,7.5,1.531,16.071-10.387,16.071-10.387l7.507,8.273Z" transform="translate(4727.369 -1107.048)" opacity="0.1" style="isolation: isolate"/>
      <path id="Path_3367" data-name="Path 3367" d="M596.1,273.371l-2.98,7.8s-2.442.109-6.231.218h-.374l-5.529.146c-10.168.229-24.189.293-31.5-.774-2.733-.4-4.556-.911-4.857-1.73a6.394,6.394,0,0,1-.346-1.431q-.075-.576-.091-1.157c-.173-5.01,2.168-12.755,2.168-12.755s1.349-15.4,1.349-16.069-1.157-11.451-1.157-11.451l2.3-8.656,4.438-3.106,2.013-1.413a28.669,28.669,0,0,0,2.213,2.906,5.794,5.794,0,0,0,2.405,1.9c1.731.39,4.045,2.5,4.045,2.5s5.666,3.471,7.5,1.539c1.4-1.475,10.022-6.769,14.048-9.182l2.023-1.213,1.011,1.122,6.5,7.161Z" transform="translate(4727.369 -1106.613)" fill="#fff"/>
      <path id="Path_3368" data-name="Path 3368" d="M516.378,205.276l-8.372,5.876s-.074-1.184-.283-2.788a16.946,16.946,0,0,0,7.38-6.843C515.84,203.618,516.378,205.276,516.378,205.276Z" transform="translate(4705.488 -1118.57)" opacity="0.1" style="isolation: isolate"/>
      <path id="Path_3369" data-name="Path 3369" d="M548.665,224.9l-1.821-.474s-2.989,3.17-4.719,3.552-5.385,2.8-5.385,2.8l-4.236,3.362s-3.18.483-2.215-1.731-1.73-5-1.73-5-5.385-11.07-5.385-13.375-4.428-12.026-4.428-12.026-5.585,10.869-15.778,7.407c0,0,7.406,16.644,7.6,20.78s5.1,15.687,5.1,15.687,1.821,8.564,11.734,8.081c0,0,13.664,2.541,16.644,0s5.676-4.556,7.124-4.828a5.633,5.633,0,0,0,2.687-1.923V235.769Z" transform="translate(4702.636 -1118.279)" fill="#2dbfbd"/>
      <path id="Path_3370" data-name="Path 3370" d="M520.822,223.1s2.405,8.947.912,9.912Z" transform="translate(4713.352 -1105.615)" opacity="0.1" style="isolation: isolate"/>
      <path id="Path_3371" data-name="Path 3371" d="M586.881,260.752c-12.755.41-41,.912-42.263-2.341a7.91,7.91,0,0,1-.437-2.588l41.807,2.205Z" transform="translate(4727.372 -1085.978)" opacity="0.1" style="isolation: isolate"/>
      <path id="Path_3372" data-name="Path 3372" d="M591.759,311.057s-.784,2.186-1.867,5.065c-5.313-.326-12.346-.664-19.023-.711-2.368,0-4.682,0-6.86.074a51.349,51.349,0,0,0-11.214,1.248,29.626,29.626,0,0,1-10.021,1.285c-.866-3.325-1.467-5.713-1.467-5.713s14.576-1.221,23.358-1.648l.7-4.893Z" transform="translate(4725.646 -1056.003)" opacity="0.1" style="isolation: isolate"/>
      <path id="Path_3373" data-name="Path 3373" d="M606.561,305.454l-1.631,3.463s-.229,1.029-.52,2.669a69.862,69.862,0,0,0-1.221,14.94c.493,7.407-1.056,18.659-1.056,18.659s-35.4-2.98-45.789,0-15.487,0-15.487,0,1.248-11.16-1.823-16.927c-2.114-3.954-3.589-21.5-3.644-33.024,0-5.33.264-9.366.911-10.177,2.114-2.605,11.16-28.578,11.16-28.578l2.06.109,5.466.291,31.331,1.65,4.909.254.52,1.6Z" transform="translate(4722.096 -1085.584)" fill="#2f2e41"/>
      <path id="Path_3376" data-name="Path 3376" d="M528.186,225.585a13.793,13.793,0,0,0,5.466,2.842,3.55,3.55,0,0,1-1.613-.755c-1.112-.792-2.168-1.65-3.234-2.487-.856-.675-1.941-1.823-3.007-2.069A16.518,16.518,0,0,0,528.186,225.585Z" transform="translate(4716.338 -1105.609)" opacity="0.1" style="isolation: isolate"/>
      <path id="Path_3377" data-name="Path 3377" d="M529.053,228.634a6.651,6.651,0,0,1,1.192,1.9,7.641,7.641,0,0,1,.347,2.461,7.751,7.751,0,0,1-.429,3.488L527.64,230.5c-.427-1.021-.91-2.042-1.384-3.026-.227-.418-1.658-2.149-1.495-2.514C525.235,223.913,528.587,228.059,529.053,228.634Z" transform="translate(4715.708 -1104.603)" opacity="0.1" style="isolation: isolate"/>
      <path id="Path_3378" data-name="Path 3378" d="M574.509,248.727a8.059,8.059,0,0,0,4.556-2.1c-2.56.318-4.975,1.322-7.5,1.823a11.134,11.134,0,0,1-6.987-.638C567.449,249.247,571.394,249.292,574.509,248.727Z" transform="translate(4739.616 -1091.5)" opacity="0.1" style="isolation: isolate"/>
      <path id="Path_3379" data-name="Path 3379" d="M570.975,239.789a1.726,1.726,0,0,1-1.3-.326q-2.878-1.642-5.684-3.444a34.478,34.478,0,0,1-5.557-3.845C562.247,235.627,565.8,238.543,570.975,239.789Z" transform="translate(4735.925 -1100.172)" opacity="0.1" style="isolation: isolate"/>
      <path id="Path_3380" data-name="Path 3380" d="M571.572,250.4a12.237,12.237,0,0,0,3-.237,4.064,4.064,0,0,0,2.469-1.621,1.39,1.39,0,0,0-1.048.163,17.687,17.687,0,0,1-9.657,1.157C567.892,250.525,569.9,250.388,571.572,250.4Z" transform="translate(4740.668 -1090.372)" opacity="0.1" style="isolation: isolate"/>
      <path id="Path_3381" data-name="Path 3381" d="M567.415,277.9a30.858,30.858,0,0,1-6.15,1.213,37.956,37.956,0,0,1-4.865-.091l-7.881-.5-3.945-.256c-.464,0-2.368,0-1.431-.911.474-.446,3.108-.165,3.781-.182,1.312,0,2.615-.064,3.917-.074,2.605,0,5.22,0,7.825.165Q563.06,277.436,567.415,277.9Z" transform="translate(4726.596 -1073.208)" opacity="0.1" style="isolation: isolate"/>
      <path id="Path_3382" data-name="Path 3382" d="M559.279,280.306c-1.339-.054-3.061.747-4.437.911a29.155,29.155,0,0,1-4.636.192,26.078,26.078,0,0,1-8.956-1.823C547.271,279.887,553.275,280.069,559.279,280.306Z" transform="translate(4725.612 -1071.715)" opacity="0.1" style="isolation: isolate"/>
      <path id="Path_3383" data-name="Path 3383" d="M543.023,282.707a14.327,14.327,0,0,1,1.722.464c3.316.957,6.851.12,10.193-.711a6.034,6.034,0,0,1-3.871,2.151,18.242,18.242,0,0,1-7.553.274c-.792-.155-2.733-.437-3.17-1.258C539.743,282.416,542.284,282.589,543.023,282.707Z" transform="translate(4725.015 -1069.989)" opacity="0.1" style="isolation: isolate"/>
      <path id="Path_3384" data-name="Path 3384" d="M555.481,287.15a28.275,28.275,0,0,1,2.943.765c3.735.912,7.615-.346,11.37-1.2a52.592,52.592,0,0,1,13.765-1.275,13.456,13.456,0,0,0-2.951.975c-1.066.318-2.141.61-3.216.911a64.648,64.648,0,0,1-6.431,1.258,66.018,66.018,0,0,1-13.192.574c-2.013-.11-5.466.1-7.233-.912A8.007,8.007,0,0,1,555.481,287.15Z" transform="translate(4731.186 -1068.227)" opacity="0.1" style="isolation: isolate"/>
      <path id="Path_3385" data-name="Path 3385" d="M565.948,214.047s.192,8.865-1.258,12.9c-.446,1.256-1.157,3.58-1.922,6.185-.847,2.888-1.767,6.122-2.477,8.628S559.115,246,559.115,246s-3.252,26.474-4.1,39.082v.656c-.045.711-.126,1.45-.237,2.215-1.876,12.527-12.682,31.84-16.306,33.389a10.931,10.931,0,0,0-3.053,2.1c0-5.33.266-9.366.912-10.177,2.114-2.605,11.16-28.578,11.16-28.578l2.058.109a11.183,11.183,0,0,1-.09-1.157c-.174-5.01,2.168-12.754,2.168-12.754s1.348-15.4,1.348-16.071-1.157-11.451-1.157-11.451l2.3-8.656,4.437-3.106c.547-6.678,1.867-14.794,5-17a12.425,12.425,0,0,0,3.645-4.637c.629.082-.51-.464-.51-.464Z" transform="translate(4722.113 -1113.786)" opacity="0.1" style="isolation: isolate"/>
      <path id="Path_3386" data-name="Path 3386" d="M576.683,209.35a5.761,5.761,0,0,0-4.874.557c-2.213,1.53-6.54,1.439-7.7,1.147s-13.183-1.823-14.14-1.439-2.888-1.349-4.137.955-1.823,3.562-3.079,4.146-3.471,2.405-3.18,2.788-3.17,2.733-3.17,2.733l7.014,22.776s-4.554,28.86-6.732,31.356-21.864,34.93-14.813,40.7a142.039,142.039,0,0,0,17.6,11.843c.775.383,3.562-4.81,7.416-6.451s15.78-23.331,16.564-35.611,4.135-39.738,4.135-39.738,4.136-15.015,5.585-19.051,1.211-12.909,1.211-12.909Z" transform="translate(4713.073 -1114.054)" fill="#2dbfbd"/>
      <path id="Path_3387" data-name="Path 3387" d="M587.556,331.072l-1.631,3.463s-.229,1.029-.52,2.669a1.517,1.517,0,0,1-.829-.355c-2.405-1.931-16.553-16.453-17.218-29.354-.5-9.51-.264-17.7-.109-21.353.054-1.149.091-1.823.1-2h0s10.933-13.283,9.712-17.993-4.135-29.927-4.135-29.927l-.429-3.308-.73-5.583L570.044,213.8l1.823.418a5,5,0,0,0,1.093,1.112l1.877,11.89,6.5,7.159,1.058,43.584-2.98,7.8s-2.442.109-6.231.218H572.8Z" transform="translate(4741.102 -1111.202)" opacity="0.1" style="isolation: isolate"/>
      <path id="Path_3388" data-name="Path 3388" d="M593.19,259.325s-2.733-1.058-2.887,0-.675,3.36-.675,3.36.474,5.585-1.539,7.8-2.341,11.542-2.341,11.542-3.234,9.238-1.7,12.125c.557,1.048,1.423,6.3,2.287,12.591.547,3.927,1.095,8.254,1.586,12.2.911,7.188,1.522,13.119,1.522,13.119s-1.732,6.378-4.137,4.428-16.553-16.471-17.228-29.343c-.474-9.065-.282-16.927-.126-20.808.072-1.65.126-2.58.126-2.58s10.933-13.272,9.721-17.983-4.137-29.927-4.137-29.927l-.51-3.89-.536-4.189-.118-.912-1.741-13.427h0c.31.062,11.105,2.5,12.526,3.925s10.195,3.463,10.195,3.463a7.719,7.719,0,0,1,5.466,5.612c.082.264.146.546.21.837,1.157,5.585.775,6.25,1.547,7.215S593.19,259.325,593.19,259.325Z" transform="translate(4741.533 -1111.425)" fill="#2dbfbd"/>
      <path id="Path_3389" data-name="Path 3389" d="M583.981,283.94c-3.954-.765-9.776-2.6-9.648-6.6.128-3.762,4.645-5.111,8.062-5.594C582.987,275.668,583.489,279.995,583.981,283.94Z" transform="translate(4745.469 -1076.423)" opacity="0.1" style="isolation: isolate"/>
      <path id="Path_3390" data-name="Path 3390" d="M595.95,282.261c-.155.338-.811.629-1.675.912a44.3,44.3,0,0,1-6.378,1.039s-13.373-1.058-13.183-7.116c.138-4.354,6.177-5.466,9.576-5.766,1.33-.118,2.26-.1,2.26-.1S596.533,281.013,595.95,282.261Z" transform="translate(4745.697 -1076.73)" fill="#fbbebe"/>
      <path id="Path_3395" data-name="Path 3395" d="M608.563,245.249a8.609,8.609,0,0,1-1.331,1.367c-1.54,1.248-3.644,2.3-3.861,4.273a4.718,4.718,0,0,1-.229,1.9c-.5.856-1.74.792-2.733.619a4.809,4.809,0,0,1-2.3-.846c-1.029-.912-1.13-2.461-1.914-3.562a4.862,4.862,0,0,0-3.9-1.749c-1.477-.046-2.943.282-4.41.355a12.292,12.292,0,0,1-2.824-.192c-.309-.054-.61-.118-.91-.192a11.98,11.98,0,0,1-1.922-.654,9.73,9.73,0,0,1-.911-.438,12.3,12.3,0,0,1-2.733-1.885,6.752,6.752,0,0,1-2.516-5.111,31.175,31.175,0,0,1,.821-3.5c.592-3.4-1.667-6.614-4.119-9.046-.974-.957-2.013-1.9-2.988-2.888a14.42,14.42,0,0,1-3.525-5.01,15.262,15.262,0,0,1-.629-6.268,42.7,42.7,0,0,0,.192-6.46c-.73-7.652-7.289-13.511-13.794-16.708l-.282-.146a20.953,20.953,0,1,1,28.241,30.683c-.072.237-.136.483-.19.72-1.512,6.049-.51,9.712.619,11.734h0c.309.064,11.105,2.506,12.526,3.927s10.195,3.461,10.195,3.461A7.72,7.72,0,0,1,608.563,245.249Z" transform="translate(4731.91 -1130.229)" opacity="0.1" style="isolation: isolate"/>
      <path id="Path_3396" data-name="Path 3396" d="M551.05,187.111c.429-.493,1.085-.747,1.522-1.231,1.357-1.475,0-3.89.5-5.839.538-2.168,3.189-3.116,5.412-2.879s4.3,1.248,6.514,1.495c3.444.39,6.777-1.1,10.139-1.978s7.416-.911,9.739,1.65,2.151,6.959,5.03,8.827c1.33.856,3.005.912,4.445,1.6a9.215,9.215,0,0,1,3.762,3.6,18.854,18.854,0,0,1,2.834,12.053c-.237,2.279-.912,4.5-1.167,6.779a19.8,19.8,0,0,0,.464,7.087c.611,2.4,1.924,4.911,4.282,5.666a6.756,6.756,0,0,1,1.594.547c1.359.839,1.184,2.842.839,4.4L605.5,235.3c1.349,1.031,3.436.584,4.746,1.667a3.84,3.84,0,0,1,1.1,1.731,9.463,9.463,0,0,1-2.824,10.331c-1.539,1.258-3.644,2.3-3.863,4.282a4.535,4.535,0,0,1-.227,1.895c-.5.856-1.739.792-2.733.619a4.719,4.719,0,0,1-2.295-.847c-1.039-.912-1.13-2.461-1.914-3.562a4.864,4.864,0,0,0-3.9-1.751c-1.485-.045-2.943.283-4.418.357a13.015,13.015,0,0,1-9.3-3.362,6.749,6.749,0,0,1-2.524-5.1,33.686,33.686,0,0,1,.821-3.508c.592-3.389-1.667-6.614-4.109-9.038s-5.321-4.673-6.513-7.907c-1.495-4.009,0-8.473-.446-12.755-.73-7.652-7.289-13.511-13.784-16.7C551.834,190.937,549.355,189.033,551.05,187.111Z" transform="translate(4731.152 -1133.804)" fill="#3c2415"/>
      <path id="Path_3397" data-name="Path 3397" d="M602.5,252.781c-1.031-.911-1.122-2.45-1.9-3.562a4.9,4.9,0,0,0-3.909-1.739c-1.475-.046-2.933.282-4.409.355a13.049,13.049,0,0,1-9.3-3.316,6.783,6.783,0,0,1-2.523-5.111,33.523,33.523,0,0,1,.821-3.5c.592-3.4-1.667-6.615-4.119-9.048s-5.311-4.673-6.513-7.907c-1.485-4,0-8.473-.439-12.755-.728-7.652-7.287-13.519-13.792-16.708-1.522-.747-4-2.642-2.3-4.554.427-.493,1.074-.738,1.52-1.221,1.359-1.475,0-3.9.5-5.849a3.085,3.085,0,0,1,.493-1.066,4.162,4.162,0,0,0-3.544,2.8c-.482,1.951.856,4.373-.5,5.849-.437.483-1.093.73-1.522,1.221-1.695,1.931.784,3.826,2.314,4.556,6.532,3.2,13.056,9.056,13.784,16.708.4,4.245-1.048,8.718.446,12.754,1.194,3.236,4.063,5.466,6.514,7.908s4.7,5.649,4.108,9.046a34.053,34.053,0,0,0-.819,3.5,6.777,6.777,0,0,0,2.523,5.11,13,13,0,0,0,9.3,3.362c1.475-.072,2.933-.4,4.418-.355a4.879,4.879,0,0,1,3.9,1.739c.784,1.112.912,2.688,1.914,3.564a4.72,4.72,0,0,0,2.3.847c.984.182,2.223.246,2.733-.619a2.156,2.156,0,0,0,.218-1.13A4.429,4.429,0,0,1,602.5,252.781Z" transform="translate(4731.153 -1133.407)" opacity="0.1" style="isolation: isolate"/>
      <path id="Path_3296" data-name="Path 3296" d="M642.407,349.613a12.937,12.937,0,0,0,4.793,24.315L646.179,372a2.943,2.943,0,0,1,.911-3.789A5.129,5.129,0,0,0,655.052,364a2.95,2.95,0,0,1,3.644,1.367l1.048,1.986a12.936,12.936,0,0,0-17.354-17.738Zm12.418,11.306a.692.692,0,0,1-.046.274.749.749,0,0,1-.274.291l-.227.128a5.138,5.138,0,1,1-10.061,2.091,5.042,5.042,0,0,1-.106-1.181h-.064a1.721,1.721,0,0,1-.957-2.186,3.284,3.284,0,0,1,.755-.839,4.745,4.745,0,0,0,1.423-3.079,5.42,5.42,0,0,1,.336.7,1.148,1.148,0,0,1,1.4-.81,3.853,3.853,0,0,0,.656.245,1.477,1.477,0,0,0,.592-.118l1.211-.464a1.823,1.823,0,0,1,2.388.328,13.219,13.219,0,0,1,2.023,2.013,4.366,4.366,0,0,1,.947,2.605Z" transform="translate(4777.574 -1600.445) rotate(30)" fill="#6c63ff" opacity="0.2" style="isolation: isolate"/>
    </g>
  </g>
</svg>
