<svg xmlns="http://www.w3.org/2000/svg" xmlns:xlink="http://www.w3.org/1999/xlink" width="958" height="785" viewBox="0 0 958 785">
  <defs>
    <clipPath id="clip-path">
      <rect id="Rectangle_1231" data-name="Rectangle 1231" width="958" height="785" transform="translate(933 112)" fill="#fff" stroke="#707070" stroke-width="1" opacity="0.6"/>
    </clipPath>
    <linearGradient id="linear-gradient" x1="-1.791" y1="1" x2="-1.791" gradientUnits="objectBoundingBox">
      <stop offset="0" stop-color="gray" stop-opacity="0.251"/>
      <stop offset="0.54" stop-color="gray" stop-opacity="0.122"/>
      <stop offset="1" stop-color="gray" stop-opacity="0.102"/>
    </linearGradient>
  </defs>
  <g id="leader_ship" data-name="leader ship" transform="translate(-933 -112)" clip-path="url(#clip-path)">
    <path id="Path_3592" data-name="Path 3592" d="M933.785,496.312q-1.307.887-2.662,1.718a93.389,93.389,0,0,1-10.415,5.574c-18.934,8.753-42.248,13.029-64.957,15.933-50.952,6.518-102.969,7.785-154.761,9.027-139.949,3.364-280.262,6.736-419.84-1.033-55.147-3.065-111.529-8.2-161.513-23.927q-10.745-3.38-21.071-7.438C84.643,490.673,71.26,483.977,60.143,476c-10.487-7.486-18.934-16.086-24-25.863-10.56-20.362-4.969-43.232,7.091-63.2a195.087,195.087,0,0,1,16.941-23.2c9.277-11.205,19.547-22.152,28.913-33.35C122.422,290.413,144.171,239.937,113.4,199c-8.874-11.762-21.62-22.088-28.824-34.374-9.2-15.7-8.487-33.14-5.566-50.081.379-2.138.807-4.276,1.2-6.389,5.034-25.121,14.432-52.146,43.361-67.869,30.082-16.3,72.806-15.473,110.157-9.681,58.084,9.067,111.666,28,165.78,45.112s110.778,32.729,170.29,34.439c52.542,1.476,113.82-9.624,148.686-38.5,33.882-28.033,97.532-30.171,143.434-13.23,31.462,11.617,54.986,32.567,64.892,56.123a66.147,66.147,0,0,1,4.324,14.618,59.369,59.369,0,0,1,.807,13.779,60.67,60.67,0,0,1-.807,6.76c-7.672,46.483-62.851,83.14-96.4,124.67-16.392,20.281-27.961,44.636-16.691,66.514,17.191,33.325,76.969,45.176,113.094,69.975a80.266,80.266,0,0,1,17.748,15.973C966.328,448.877,959.866,478.725,933.785,496.312Z" transform="translate(914.436 121.527)" fill="#2dbfbd" opacity="0.1"/>
    <g id="flowers" transform="translate(974.773 139.013)">
      <path id="Path_3593" data-name="Path 3593" d="M285.2,302.038s-37.109-65.764-93.031-84.705a114.38,114.38,0,0,1-57.955-43.353,191.771,191.771,0,0,1-17.1-30.76" transform="translate(-77.065 -39.985)" fill="none" stroke="#535461" stroke-miterlimit="10" stroke-width="2"/>
      <path id="Path_3594" data-name="Path 3594" d="M72.351,121.534c6.373,6.179,36.044,12.577,36.044,12.577s-7.26-29.469-13.65-35.649a16.077,16.077,0,1,0-22.4,23.073Z" transform="translate(-67.47 -30.456)" fill="#6c63ff"/>
      <path id="Path_3595" data-name="Path 3595" d="M91.232,186.61c8.7,1.726,37.109-9.027,37.109-9.027s-22.12-20.781-30.833-22.507a16.076,16.076,0,1,0-6.253,31.538Z" transform="translate(-69.563 -42.217)" fill="#6c63ff"/>
      <path id="Path_3596" data-name="Path 3596" d="M164.844,258.307c8.39-2.9,27.428-26.517,27.428-26.517s-29.59-6.768-37.972-3.864a16.078,16.078,0,1,0,10.487,30.381Z" transform="translate(-82.067 -56.218)" fill="#6c63ff"/>
      <path id="Path_3597" data-name="Path 3597" d="M235.107,299.363c8.761-1.444,31.543-21.491,31.543-21.491s-27.985-11.705-36.778-10.261a16.091,16.091,0,1,0,5.236,31.752Z" transform="translate(-96.255 -64.004)" fill="#6c63ff"/>
      <path id="Path_3598" data-name="Path 3598" d="M163.3,150.575c0,8.874-16.054,34.624-16.054,34.624s-16.086-25.734-16.094-34.608a16.078,16.078,0,1,1,32.148,0Z" transform="translate(-79.777 -38.233)" fill="#6c63ff"/>
      <path id="Path_3599" data-name="Path 3599" d="M244.164,198.885c-2.654,8.471-25.686,28.235-25.686,28.235s-7.648-29.373-5-37.843a16.078,16.078,0,0,1,30.655,9.608Z" transform="translate(-95.583 -46.836)" fill="#6c63ff"/>
      <path id="Path_3600" data-name="Path 3600" d="M315.837,257.964c-1.2,8.793-20.563,32.172-20.563,32.172s-12.5-27.654-11.294-36.456a16.077,16.077,0,1,1,31.867,4.284Z" transform="translate(-109.302 -58.641)" fill="#6c63ff"/>
      <path id="Path_3601" data-name="Path 3601" d="M72.351,121.534c6.373,6.179,36.044,12.577,36.044,12.577s-7.26-29.469-13.65-35.649a16.077,16.077,0,1,0-22.4,23.073Z" transform="translate(-67.47 -30.456)" fill="#444584" opacity="0.25"/>
      <path id="Path_3602" data-name="Path 3602" d="M91.232,186.61c8.7,1.726,37.109-9.027,37.109-9.027s-22.12-20.781-30.833-22.507a16.076,16.076,0,1,0-6.253,31.538Z" transform="translate(-69.563 -42.217)" fill="#444584" opacity="0.25"/>
      <path id="Path_3603" data-name="Path 3603" d="M164.844,258.307c8.39-2.9,27.428-26.517,27.428-26.517s-29.59-6.768-37.972-3.864a16.078,16.078,0,1,0,10.487,30.381Z" transform="translate(-82.067 -56.218)" fill="#444584" opacity="0.25"/>
      <path id="Path_3604" data-name="Path 3604" d="M235.107,299.363c8.761-1.444,31.543-21.491,31.543-21.491s-27.985-11.705-36.778-10.261a16.091,16.091,0,1,0,5.236,31.752Z" transform="translate(-96.255 -64.004)" opacity="0.25"/>
      <path id="Path_3605" data-name="Path 3605" d="M163.3,150.575c0,8.874-16.054,34.624-16.054,34.624s-16.086-25.734-16.094-34.608a16.078,16.078,0,1,1,32.148,0Z" transform="translate(-79.777 -38.233)" fill="#444584" opacity="0.25"/>
      <path id="Path_3606" data-name="Path 3606" d="M244.164,198.885c-2.654,8.471-25.686,28.235-25.686,28.235s-7.648-29.373-5-37.843a16.078,16.078,0,0,1,30.655,9.608Z" transform="translate(-95.583 -46.836)" opacity="0.25"/>
      <path id="Path_3607" data-name="Path 3607" d="M315.837,257.964c-1.2,8.793-20.563,32.172-20.563,32.172s-12.5-27.654-11.294-36.456a16.077,16.077,0,1,1,31.867,4.284Z" transform="translate(-109.302 -58.641)" opacity="0.25"/>
      <path id="Path_3608" data-name="Path 3608" d="M301.424,287.362S294.163,212.2,250.7,172.219A114.481,114.481,0,0,1,215.282,109.1,192.186,192.186,0,0,1,212.12,74.05" transform="translate(-95.428 -26.616)" fill="none" stroke="#535461" stroke-miterlimit="10" stroke-width="2"/>
      <path id="Path_3609" data-name="Path 3609" d="M178.084,37.33c3.324,8.229,27.856,26.121,27.856,26.121s5.284-29.849,1.968-38.117a16.089,16.089,0,1,0-29.849,12.02Z" transform="translate(-88.619 -15.251)" fill="#2dbfbd"/>
      <path id="Path_3610" data-name="Path 3610" d="M168.974,104.467c7.26,5.107,37.569,6.776,37.569,6.776s-11.81-27.961-19.071-33.075a16.077,16.077,0,1,0-18.5,26.3Z" transform="translate(-85.769 -26.846)" fill="#2dbfbd"/>
      <path id="Path_3611" data-name="Path 3611" d="M207.276,199.853c8.874.742,35.85-13.117,35.85-13.117S218.82,168.56,209.97,167.818a16.078,16.078,0,1,0-2.694,32.035Z" transform="translate(-91.576 -44.722)" fill="#2dbfbd"/>
      <path id="Path_3612" data-name="Path 3612" d="M254.847,265.8c8.6,2.235,37.553-6.865,37.553-6.865s-20.886-22.023-29.477-24.25a16.072,16.072,0,0,0-8.067,31.115Z" transform="translate(-101.361 -57.564)" fill="#6c63ff"/>
      <path id="Path_3613" data-name="Path 3613" d="M249.393,100.788c-3.59,8.124-28.711,25.153-28.711,25.153s-4.276-30.05-.686-38.166a16.076,16.076,0,1,1,29.4,13.014Z" transform="translate(-96.673 -27.418)" fill="#2dbfbd"/>
      <path id="Path_3614" data-name="Path 3614" d="M302.223,177.5C296.366,184.168,267.3,192.9,267.3,192.9s4.9-29.953,10.77-36.625A16.076,16.076,0,1,1,302.226,177.5Z" transform="translate(-106.094 -41.452)" fill="#6c63ff"/>
      <path id="Path_3615" data-name="Path 3615" d="M344.906,260.709C340.26,268.276,313.09,281.8,313.09,281.8s-.226-30.349,4.421-37.916a16.09,16.09,0,0,1,27.428,16.828Z" transform="translate(-114.944 -57.957)" fill="#6c63ff"/>
    </g>
    <ellipse id="Ellipse_464" data-name="Ellipse 464" cx="270.266" cy="13.577" rx="270.266" ry="13.577" transform="translate(1191.021 810.846)" fill="#6c63ff" opacity="0.1"/>
    <path id="Path_3616" data-name="Path 3616" d="M289.442,832.609s-34.108-2.057-30.091,21.838a5.822,5.822,0,0,0,3.033,6.147s.056-1.775,3.493-1.17a16.135,16.135,0,0,0,3.711.177,7.713,7.713,0,0,0,4.526-1.872h0s9.592-3.961,13.319-19.635c0,0,2.759-3.412,2.646-4.292l-5.752,2.42s1.968,4.147.419,7.6c0,0-.186-7.454-1.291-7.26-.226.04-2.993,1.436-2.993,1.436s3.38,7.26.807,12.5c0,0,.968-8.914-1.888-11.972l-4.034,2.364s3.953,7.478,1.275,13.569c0,0,.686-9.35-2.13-12.988l-3.671,2.864s3.719,7.357,1.452,12.415c0,0-.3-10.883-2.251-11.706,0,0-3.227,2.832-3.695,4.034,0,0,2.541,5.34.96,8.164,0,0-.968-7.26-1.759-7.26,0,0-3.227,4.8-3.533,8.067a17.426,17.426,0,0,1,2.759-8.551,9.6,9.6,0,0,0-4.9,2.533s.5-3.4,5.7-3.695c0,0,2.646-3.638,3.348-3.864,0,0-5.163-.436-8.293.96,0,0,2.759-3.227,9.245-1.751l3.622-2.961s-6.8-.928-9.681.1c0,0,3.316-2.832,10.657-.766l3.921-2.372s-5.792-1.242-9.245-.807c0,0,3.638-1.96,10.407.169l2.815-1.267s-4.243-.807-5.486-.968-1.315-.476-1.315-.476a14.73,14.73,0,0,1,7.978.887S289.539,832.98,289.442,832.609Z" transform="translate(870.279 -34.211)" fill="#2dbfbd"/>
    <ellipse id="Ellipse_465" data-name="Ellipse 465" cx="24.137" cy="4.082" rx="24.137" ry="4.082" transform="translate(1112.084 824.382)" fill="#6c63ff" opacity="0.1"/>
    <path id="Path_3617" data-name="Path 3617" d="M218.546,834.194S199.322,833.032,201.6,846.5a3.283,3.283,0,0,0,1.71,3.461s0-.992,1.968-.653a8.983,8.983,0,0,0,2.089.1,4.307,4.307,0,0,0,2.557-1.057h0s5.4-2.227,7.5-11.068c0,0,1.557-1.92,1.492-2.42l-3.227,1.387a5.823,5.823,0,0,1,.234,4.284s-.1-4.195-.726-4.1c-.129,0-1.686.807-1.686.807s1.912,4.082.468,7.043c0,0,.549-5.026-1.065-6.744l-2.315,1.331s2.227,4.211.718,7.648c0,0,.387-5.268-1.194-7.317l-2.073,1.613s2.1,4.146.807,6.994c0,0-.161-6.131-1.267-6.6a12.468,12.468,0,0,0-2.081,2.259s1.428,3.009.54,4.6c0,0-.54-4.082-.992-4.106,0,0-1.807,2.711-1.993,4.566a9.874,9.874,0,0,1,1.557-4.84,5.462,5.462,0,0,0-2.767,1.428s.282-1.912,3.227-2.081a12.862,12.862,0,0,1,1.888-2.178,11.84,11.84,0,0,0-4.671.541s1.549-1.807,5.2-.984l2.049-1.67s-3.832-.524-5.461.057c0,0,1.872-1.613,6.01-.436l2.227-1.331a20.347,20.347,0,0,0-5.219-.452s2.057-1.105,5.873.1l1.613-.718s-2.42-.468-3.1-.54-.734-.266-.734-.266a8.206,8.206,0,0,1,4.493.5S218.61,834.4,218.546,834.194Z" transform="translate(881.413 -34.521)" fill="#2dbfbd"/>
    <ellipse id="Ellipse_466" data-name="Ellipse 466" cx="13.609" cy="2.299" rx="13.609" ry="2.299" transform="translate(1073.104 814.323)" fill="#6c63ff" opacity="0.1"/>
    <path id="Path_3618" data-name="Path 3618" d="M263.039,798.773s-23.217-1.4-20.483,14.876a3.969,3.969,0,0,0,2.065,4.179s.04-1.21,2.42-.807a10.6,10.6,0,0,0,2.525.121,5.211,5.211,0,0,0,3.066-1.25h0s6.526-2.694,9.067-13.359c0,0,1.872-2.323,1.8-2.928l-3.913,1.678s1.331,2.823.282,5.171c0,0-.129-5.066-.879-4.953-.153,0-2.033.984-2.033.984s2.3,4.921.565,8.5c0,0,.653-6.067-1.291-8.148l-2.751,1.613s2.686,5.09.863,9.237c0,0,.468-6.365-1.444-8.874l-2.5,1.952s2.525,5.01.984,8.446c0,0-.2-7.406-1.525-7.962a15.472,15.472,0,0,0-2.525,2.719s1.734,3.638.662,5.558c0,0-.662-4.937-1.2-4.961,0,0-2.178,3.275-2.42,5.51a11.916,11.916,0,0,1,1.88-5.825,6.575,6.575,0,0,0-3.34,1.734s.339-2.315,3.88-2.517c0,0,1.8-2.485,2.275-2.63a14.306,14.306,0,0,0-5.647.645s1.88-2.178,6.292-1.186l2.469-2.017s-4.631-.629-6.591.065c0,0,2.259-1.928,7.26-.516l2.686-1.613a26.464,26.464,0,0,0-6.292-.541s2.477-1.339,7.083.113l1.92-.863s-2.888-.565-3.735-.653-.9-.331-.9-.331a10.027,10.027,0,0,1,5.429.605S263.136,799.031,263.039,798.773Z" transform="translate(873.505 -27.674)" fill="#2dbfbd"/>
    <ellipse id="Ellipse_467" data-name="Ellipse 467" cx="16.433" cy="2.775" rx="16.433" ry="2.775" transform="translate(1104.138 788.798)" fill="#6c63ff" opacity="0.1"/>
    <path id="Path_3619" data-name="Path 3619" d="M662.841,815.2v6.309H476.28v-5.123A61.31,61.31,0,0,0,480.5,703.15H661.6A61.364,61.364,0,0,0,662.841,815.2Z" transform="translate(828.287 -9.198)" fill="#c8cad7"/>
    <path id="Path_3620" data-name="Path 3620" d="M662.614,703.15A61.383,61.383,0,0,0,628.732,743.8H515.412a61.383,61.383,0,0,0-33.882-40.65Z" transform="translate(827.272 -9.198)" opacity="0.1"/>
    <path id="Path_3621" data-name="Path 3621" d="M211.48,663.31v35.415c0,19.555,14.311,35.407,31.97,35.407H792.324c17.659,0,31.97-15.852,31.97-35.407V663.31Z" transform="translate(879.468 -1.497)" fill="#c8cad7"/>
    <path id="Path_3622" data-name="Path 3622" d="M662.841,840.5v6.309H476.28v-5.123a61.4,61.4,0,0,0,14.392-7.664H651.4A61.365,61.365,0,0,0,662.841,840.5Z" transform="translate(828.287 -34.493)" opacity="0.1"/>
    <rect id="Rectangle_1190" data-name="Rectangle 1190" width="309.852" height="18.692" rx="9.346" transform="translate(1242.917 801.496)" fill="#c8cad7"/>
    <path id="Path_3623" data-name="Path 3623" d="M824.294,174.62a31.97,31.97,0,0,0-31.97-31.97H243.45a31.97,31.97,0,0,0-31.97,31.97V569.565H824.294Z" transform="translate(879.468 99.138)" fill="#444584"/>
    <path id="Path_3624" data-name="Path 3624" d="M811.576,196.229V535.558A15.731,15.731,0,0,1,795.837,551.3h-547.9A15.731,15.731,0,0,1,232.2,535.558V196.229a15.739,15.739,0,0,1,15.739-15.739h547.9A15.739,15.739,0,0,1,811.576,196.229Z" transform="translate(875.463 91.824)" fill="#f4f4f7"/>
    <circle id="Ellipse_468" data-name="Ellipse 468" cx="7.381" cy="7.381" r="7.381" transform="translate(1389.974 249.661)" fill="#fff"/>
    <circle id="Ellipse_469" data-name="Ellipse 469" cx="18.2" cy="18.2" r="18.2" transform="translate(1379.156 680.504)" fill="#fff"/>
    <path id="Path_3625" data-name="Path 3625" d="M811.578,196.229H232.21a15.731,15.731,0,0,1,15.731-15.739h547.9a15.731,15.731,0,0,1,15.739,15.739Z" transform="translate(875.461 91.824)" fill="#fff"/>
    <circle id="Ellipse_470" data-name="Ellipse 470" cx="3.937" cy="3.937" r="3.937" transform="translate(1119.466 276.218)" fill="#ededf4"/>
    <circle id="Ellipse_471" data-name="Ellipse 471" cx="3.937" cy="3.937" r="3.937" transform="translate(1131.268 276.218)" fill="#ededf4"/>
    <circle id="Ellipse_472" data-name="Ellipse 472" cx="3.937" cy="3.937" r="3.937" transform="translate(1143.078 276.218)" fill="#ededf4"/>
    <rect id="Rectangle_1191" data-name="Rectangle 1191" width="467.589" height="273.251" transform="translate(1162.214 331.616)" fill="#fff"/>
    <path id="Path_3626" data-name="Path 3626" d="M398.85,536.364h17.24v3.227H398.85Zm8.624-8.624a2.154,2.154,0,1,0-.6-4.227l-4.493-3.283-.266.242,3.291,4.485a2.284,2.284,0,0,0-.089.629,2.146,2.146,0,0,0,2.154,2.154Z" transform="translate(843.253 26.158)" fill="#65617d"/>
    <path id="Path_3627" data-name="Path 3627" d="M406.183,509.5a14.013,14.013,0,0,0-11.044,22.636H399.1l.274-.274,1.484-1.484-1.565-1.541-1.484,1.476a10.7,10.7,0,0,1-2.372-5.72h2.1v-2.162h-2.1a10.7,10.7,0,0,1,2.372-5.72l1.484,1.476,1.541-1.541-1.476-1.484a10.706,10.706,0,0,1,5.72-2.372v2.1h2.154v-2.1a10.762,10.762,0,0,1,5.728,2.372l-1.484,1.484,1.549,1.541,1.484-1.476a10.761,10.761,0,0,1,2.372,5.72h-2.106v2.162h2.106a10.762,10.762,0,0,1-2.372,5.72l-1.484-1.476-1.549,1.541,1.492,1.484.266.274h3.961A14.013,14.013,0,0,0,406.159,509.5Z" transform="translate(844.544 28.232)" fill="#65617d"/>
    <path id="Path_3628" data-name="Path 3628" d="M408.662,436.472a7.26,7.26,0,0,1-2.888-.734.516.516,0,0,0-.734.508l.234,3.437a.266.266,0,0,0,.428.186l.976-.742a.266.266,0,0,1,.379.073l1.379,2.162a.266.266,0,0,0,.444,0l1.388-2.162a.266.266,0,0,1,.387-.032l.976.742a.266.266,0,0,0,.428-.186l.234-3.437a.524.524,0,0,0-.734-.508,7.316,7.316,0,0,1-2.888.734Z" transform="translate(842.057 42.498)" fill="#65617d"/>
    <path id="Path_3629" data-name="Path 3629" d="M416.753,421.465l-3.227-3.308c0-10.641-6.276-15.328-6.276-15.328s-6.341,4.719-6.341,15.328l-3.227,3.308a.565.565,0,0,0-.153.476l1.242,7.527a.516.516,0,0,0,.807.371l4.526-3.066a5.115,5.115,0,0,0,3.17,1.347,4.84,4.84,0,0,0,3.106-1.347l4.518,3.065a.516.516,0,0,0,.807-.371l1.25-7.535A.589.589,0,0,0,416.753,421.465Zm-9.511-6.809a2.162,2.162,0,1,1,2.065-2.154,2.114,2.114,0,0,1-2.065,2.154Z" transform="translate(843.509 48.849)" fill="#65617d"/>
    <path id="Path_3630" data-name="Path 3630" d="M417.477,328.337h-.339c-.444,0-.807-.056-.855-.5h0c-.984-9.148-6.752-9.326-6.752-11.48s5.776-2.331,6.752-11.48h0c.048-.444.411-.5.855-.5h.339a.968.968,0,0,0,.976-.9.952.952,0,0,0-.944-.992H395.978a.968.968,0,0,0-.968.9.944.944,0,0,0,.944.992h.371c.436,0,.807.056.855.5h0c.984,9.148,6.752,9.326,6.752,11.48s-5.776,2.331-6.752,11.48h0c-.048.444-.419.5-.855.5h-.347a.968.968,0,0,0-.968.9.944.944,0,0,0,.944.992h21.555a.944.944,0,0,0,.944-.992A.976.976,0,0,0,417.477,328.337Zm-16.989-2.3c1.936-5.381,5.357-4.727,5.357-6.849v-3.743c0-1.307-2.477-2.218-4.034-4.34a.524.524,0,0,1,.436-.807H411.2a.524.524,0,0,1,.452.807c-1.525,2.13-4.034,3.041-4.034,4.348V319.2c0,2.106,3.291,1.533,5.373,6.849.194.476.048,1.073-.46,1.073H400.955C400.431,327.1,400.31,326.522,400.487,326.038Z" transform="translate(843.995 68.243)" fill="#65617d"/>
    <path id="Path_3631" data-name="Path 3631" d="M727.5,317.516a8.979,8.979,0,0,1-8.955,8.995H488.03a8.995,8.995,0,1,1,0-17.982H718.55a8.987,8.987,0,0,1,8.955,8.987Z" transform="translate(827.806 67.077)" fill="#5a5773" opacity="0.2"/>
    <path id="Path_3632" data-name="Path 3632" d="M727.633,420.689a8.979,8.979,0,0,1-8.955,9H488.159a8.995,8.995,0,0,1,0-17.982H718.679A8.995,8.995,0,0,1,727.633,420.689Z" transform="translate(827.677 47.133)" fill="#5a5773" opacity="0.2"/>
    <path id="Path_3633" data-name="Path 3633" d="M727.5,524.712a8.979,8.979,0,0,1-8.955,8.979H488.03a8.995,8.995,0,1,1,0-17.982H718.55A8.987,8.987,0,0,1,727.5,524.712Z" transform="translate(827.806 27.032)" fill="#5a5773" opacity="0.2"/>
    <path id="Path_3634" data-name="Path 3634" d="M681.239,308.529v17.982H488.03a8.995,8.995,0,1,1,0-17.982Z" transform="translate(827.806 67.077)" fill="#2dbfbd"/>
    <path id="Path_3635" data-name="Path 3635" d="M715.654,411.69v18H488.159a8.995,8.995,0,0,1,0-17.982Z" transform="translate(827.677 47.137)" fill="#2dbfbd"/>
    <path id="Path_3636" data-name="Path 3636" d="M631.223,515.725v17.966H488.03a8.995,8.995,0,1,1,0-17.982Z" transform="translate(827.806 27.032)" fill="#2dbfbd"/>
    <path id="Path_3637" data-name="Path 3637" d="M1015.508,450.4c.444-1.2-2.864-7.89-2.864-8.22s-3.429-4.034-3.429-6.139-4.526-6.583-4.526-6.583-6.075-2.525-6.736-8-7.26-5.591-7.26-5.591h0v-1.258c0-1.71-.048-4.743-.807-6.413a6.454,6.454,0,0,0-3.759-3.178s-.661-4.284-1.984-5.6A6.292,6.292,0,0,1,982.6,393.5c.662-2.073-.879-7.341-4.09-8.067s-6.841-1.976-6.841-1.976-.363.073-.887.145l-.444-.145a19.058,19.058,0,0,1-2.315.29,2.856,2.856,0,0,1-1.872-.621c-1.129-1.25-10-3.566-11.7-3.566s-6.413-2.2-6.413-2.2l-4.744-3.614c-1.331-1.016-3.792-5.131-4.147-5.728l-.048-.081h0a20.646,20.646,0,0,1-1-2.888h0a26.283,26.283,0,0,0,4.106-5.647c.113-.21.21-.428.323-.645a2.33,2.33,0,0,0,.71-.113l.3-.113a4.84,4.84,0,0,0,2.339-2.8h0c.089-.242.153-.484.218-.726l.048-.242a2.629,2.629,0,0,1,.1-.5l.048-.282c0-.169.057-.331.073-.5a1.478,1.478,0,0,0,0-.274c0-.089.048-.419.081-.621h0a22.068,22.068,0,0,1,.347-2.307h0c.661-2.977,2.42-5.494,3.719-8.245h0c.177-.4.355-.807.508-1.2s.307-.879.436-1.331a1.927,1.927,0,0,1,.1-.411c.089-.331.161-.653.226-.992a2.758,2.758,0,0,1,.081-.436c.073-.452.137-.912.177-1.371a16.942,16.942,0,0,0-1.137-7.7c-.807-2.057-2.057-3.913-2.9-5.97-1.267-3.122-1.613-6.655-3.154-9.624-2.6-4.986-8.721-7.486-13.714-5.607-2.42.9-4.477,2.63-6.914,3.4-3.227,1.041-6.76.258-10.132-.21s-7.115-.508-9.826,1.694c-3.13,2.541-3.985,7.309-6.922,10.1-1.234,1.17-2.759,1.92-4.034,3a6.567,6.567,0,0,0-2.041,2.791,2,2,0,0,0-.073.234,1.624,1.624,0,0,0-.073.282,2.357,2.357,0,0,1-.056.331,1.036,1.036,0,0,0,0,.226,4.775,4.775,0,0,0,0,.589h0a4.085,4.085,0,0,0,.089.549v.153a3.079,3.079,0,0,0,.137.46v.089c.057.169.129.331.194.5a2.137,2.137,0,0,0,.113.25,2.187,2.187,0,0,0,.089.2,13.584,13.584,0,0,1,1.025,2.549,2.815,2.815,0,0,1-.1,1.686,5.138,5.138,0,0,1-1.218,1.613,22.783,22.783,0,0,0-4.986,7.978c-.129.339-.25.678-.355,1.025h0l.145.04a5.937,5.937,0,0,0,.968.21c.186,0,.371.048.557.056a8.478,8.478,0,0,0,2.251-.169l.565-.129a14.4,14.4,0,0,0,2.235-.807c0,.226,0,.444,0,.67v.379A26.081,26.081,0,0,0,907.3,370.449l.1.71.073.6-.3-.282s-1.993-.992-3.864,1.863A12.5,12.5,0,0,1,897.9,377.5s-20.1,3.178-20.87,5.816l-9.382.549s-3.316.436-3.646,7.341-2.1,7.567-2.1,7.567-3.864,6.8-3.533,10.31-3.057,5.244-3.057,5.244l-.444,6.252s-3.646-.549-4.639,3.727a15,15,0,0,1-2.759,6.252s-6.075,5.042-6.405,9.318l-3.751,2.307s-8.729-1.976-10.713-5.486l-.613-.573a.429.429,0,0,1-.048-.081h0c-1.307-1.226-4.074-3.808-3.654-3.227a2.679,2.679,0,0,1,.177,1.767l-.645-.726-1.734-1.864s-12.98-14.916-21.241-15.965h0a5.252,5.252,0,0,0-3.711,3.6c-1.049,3.566-2.146,9.471.581,12.375l13.053,13.948.339.25,2.84,3.646c-.476,1.146-.879,2.259-1.218,3.267v.1c-.073.218-.137.436-.2.637l-.073.218c-.065.21-.121.411-.186.605s-.065.242-.1.363,0,.137-.057.21c-.315,1.1-.508,1.944-.613,2.42l-.734-.226.718.307a.712.712,0,0,0,0,.113,1.709,1.709,0,0,0-.048.234c.218.1.444.2.678.29,3.864,1.686,23.169,10.157,24.2,11.439,1.105,1.428,8.4,5.591,15.021,2.081s8.067-8.874,8.067-8.874,6.405-8.874,6.623-10.2,5.187-2.848,5.187-2.848.444,14.69-2.1,20.063-7.26,29.171-7.26,29.171a3.358,3.358,0,0,1,.944-.056l-.282,1.371a3.284,3.284,0,0,1,1.17,0c-.355,2.7-2.42,15.263-2.42,15.263s-.67,5.7-1.767,7.68-1.218,12.278-1.218,12.278l-1.767,7.454s.234.516.67,1.291h0a19.079,19.079,0,0,0,5.09,6.567,13.466,13.466,0,0,1-.9,3.4,11.923,11.923,0,0,0-.879,5.268s-1.88,8.438-1.654,10.858-1.218,8.333-1.218,8.333l-1.985,19.079s-1.323,16.554-.661,21.055-.444,10.633-.444,10.633,1.323,13.053.992,14.472-1.985,7.567-.992,10.963.444,12.722.444,12.722.661,12.286,1.428,16.231a28.166,28.166,0,0,1-.218,8.995s-.807,8.438-1.105,8.438-3.227,5.808,2.646,11.512,2.219,4.84,2.219,4.84-4.639-2.3-4.09,2.42c.524,4.493,1.25,3.316,1.315,3.227l-1.1,3.606.807.1c-.21.25-.419.508-.645.807a17.49,17.49,0,0,1-2.219,2.315,4.728,4.728,0,0,0-1.444,3.17s-8.164,8.874-15.787,13.375c-4.034,2.372-7.462,4.372-8.971,6.034-1.363,1.484-1.137,2.686,1.686,3.622,5.962,1.976,16.449,2.961,23.959.444a28.049,28.049,0,0,0,11.706-7.567s4.743-2.42,9.382-1.541,13.916-5.155,13.916-5.155l-.169-1.549L885.8,736.7a3.55,3.55,0,0,1-.807-2.735,14.035,14.035,0,0,0-.387-3.945c-.081-.436-.161-.863-.242-1.275l.847-.153s-1.105-5.591.887-6.7,1.428-15.457,1.428-15.457-2.533-3.291-3.864-3.84-.113-7.349.113-8.22,1.9-17.949,1.9-17.949-.661-5.365.218-7.672-1.105-11.181-1.105-11.181a2.047,2.047,0,0,1,.557-2.42c1.218-1.323.766-13.045.766-13.045s-.1-5.921-.1-7.462,1.323-7.123,2.533-8.987.444-7.672.444-7.672h0l.065-.444a4.879,4.879,0,0,1,.1-.613l.1-.589a84.233,84.233,0,0,1,2.154-9.519c1.436-4.606,3.09-12.714,3.09-12.714l10.278-26.831.113-.315s4.744,8.769,4.744,16.893c0,0,1.218,9.753.887,12.383s1,15.021,1,15.021,1.428,17.748,1.428,18.554,1.767,14.473,2.872,16.554-1.105,8.446-1.767,9.1.218,16.78.218,16.78-1.654,12.714-1.985,15.328-1.654,12.722-.549,16.667.661,4.493.661,4.493,3.977,4.034,1.613,4.389a6.083,6.083,0,0,0-4.421,8,104.362,104.362,0,0,0,4.84,11.738l1.831-.387v1.307l.129,6.534s.807,6.252.339,7.68a81.4,81.4,0,0,0-.9,8.527c-.081.936-.129,1.565-.129,1.565s0,5.808,12.262,4.034,14.489-6.559,14.489-6.559a2.72,2.72,0,0,1,.1-.605c.177-1.105.573-3.461.9-4.768.444-1.759-3.533-9.681-3.533-9.681s-.661-5.373-1.767-6.583a5.589,5.589,0,0,1-.887-2.3c-.1-.444-.194-.9-.266-1.355q.436.065.807.145s-.67-3.832,1.88-5.042,1.872-3.727,1.541-4.84.992-7.26.992-7.26a3.582,3.582,0,0,1,.887-3.509c1.549-1.533,2.759-12.278,2.759-12.278l.218-41.449s.807-7.349-.1-10.31-1.767-8.656-.557-10.2.113-8.664.113-8.664,0-15.021,1.654-18.748,1.105-27.3,1.105-27.3l.444-15.465s3.606-3.412,2.751-21.209c3.848-.242,8.188-.379,8.874.153,1.218.984,9.051,6.034,13.714,2.848a60.929,60.929,0,0,0,5.518-4.276L977.632,510c1.21,1.831,1.952,3.049,1.952,3.049,0-4.606,13.029-19.514,13.029-19.514s12.141-15.683,14.8-17.546,7.833-11.738,7.833-11.738a47.8,47.8,0,0,1,2.654-5.478C1019.073,456.873,1015.04,451.613,1015.508,450.4Zm-28.485,11.512c-3.308.331-10.27,7.9-10.374,9.543a6.913,6.913,0,0,1-1.468,2.945c-.056-.662-.113-1.331-.161-2.017-.807-9.681-1.613-21.5-1.242-22.645.661-1.968.436-10.85.436-10.85h0l.121-.169c2.227,6.881,9.14,15,9.14,15s1.218,3.509,2.654,3.614.9,4.582.9,4.582Z" transform="translate(766.877 67.419)" fill="url(#linear-gradient)"/>
    <path id="Path_3638" data-name="Path 3638" d="M813.82,490.917s4.034-21.112,16.941-21.217l9.463,19.474-6.309,4.356S820.241,493.958,813.82,490.917Z" transform="translate(763.046 35.924)" fill="#65617d"/>
    <path id="Path_3639" data-name="Path 3639" d="M840.264,489.168l-6.317,4.356s-9.681.307-16.538-1.4a18.7,18.7,0,0,1-3.59-1.218,1.206,1.206,0,0,1,.073-.339.429.429,0,0,1,0-.081,47.751,47.751,0,0,1,2.42-7.753,29.809,29.809,0,0,1,1.339-2.9c1.9-3.646,4.558-7.26,8.2-8.995a11.2,11.2,0,0,1,4.316-1.129h.581l.2.428,3.227,6.583Z" transform="translate(763.046 35.922)" fill="#2dbfbd" opacity="0.7"/>
    <path id="Path_3640" data-name="Path 3640" d="M977.506,588.089s13.6-1.307,14.8-.331,8.922,5.986,13.5,2.832,1.525-14.15,1.525-14.585-.436-16-.436-16l-8.164-10.987-10.229-19.264L967.6,527.69l.541,30.575-.1,15.658Z" transform="translate(733.323 24.716)" fill="#65617d"/>
    <path id="Path_3641" data-name="Path 3641" d="M977.506,588.089s13.6-1.307,14.8-.331,8.922,5.986,13.5,2.832,1.525-14.15,1.525-14.585-.436-16-.436-16l-8.164-10.987-10.229-19.264L967.6,527.69l.541,30.575-.1,15.658Z" transform="translate(733.323 24.716)" fill="#2dbfbd" opacity="0.7"/>
    <path id="Path_3642" data-name="Path 3642" d="M824.061,464.2s-1.081,13.279-9.358,13.5c0,0-2.339-1.412-5.494-3.767-7.26-5.445-18.8-15.892-15.61-25.621,4.566-13.924,26.767,11.754,26.767,11.754l1.71,1.912Z" transform="translate(767.059 40.859)" fill="#fbbebe"/>
    <path id="Path_3643" data-name="Path 3643" d="M827.762,468.469s-1.081,13.279-9.358,13.5c0,0-2.339-1.412-5.494-3.767l-.71-.912a10.722,10.722,0,0,0,4.534,1.218,6.107,6.107,0,0,0,5.913-3.727,46.289,46.289,0,0,0,2.3-5.26,15.334,15.334,0,0,0,.807-3.267Z" transform="translate(763.359 36.591)" opacity="0.1"/>
    <path id="Path_3644" data-name="Path 3644" d="M824.281,492.253l-1.864-2.42-6.26-8.067-3.227-4.122a10.722,10.722,0,0,0,4.534,1.218,6.115,6.115,0,0,0,5.913-3.727,46.3,46.3,0,0,0,2.291-5.268c1.033-2.936,1.016-4.445.645-4.953s2.315,1.968,3.6,3.187l.048.048.605.573.218.444,3.154,6.3v.266C834.276,477.757,835.341,490.454,824.281,492.253Z" transform="translate(763.218 36.863)" fill="#e7effd"/>
    <path id="Path_3645" data-name="Path 3645" d="M893.337,841.835s-9.148,5.986-13.714,5.107-9.253,1.533-9.253,1.533a27.55,27.55,0,0,1-11.536,7.511c-7.4,2.5-17.748,1.517-23.613-.444-2.783-.928-3-2.122-1.662-3.6,1.484-1.613,4.9-3.63,8.874-5.978,7.462-4.429,15.529-13.238,15.529-13.238a4.738,4.738,0,0,1,1.42-3.154,18.2,18.2,0,0,0,2.194-2.291c1.17-1.388,2.267-2.832,2.267-2.832l26.88.879s.452,1.936.807,3.913a14.111,14.111,0,0,1,.379,3.921,3.525,3.525,0,0,0,.766,2.719l.476,4.445Z" transform="translate(759.385 -32.643)" fill="#65617d"/>
    <path id="Path_3646" data-name="Path 3646" d="M971.032,849.87c-.323,1.3-.71,3.63-.887,4.727-.057.371-.089.6-.089.6s-2.178,4.784-14.255,6.526-12.1-4.034-12.1-4.034.048-.621.129-1.557a83.336,83.336,0,0,1,.968-8.454c.428-1.42-.331-7.623-.331-7.623l-.129-6.454-.089-4.51,20.039-2.1a37.314,37.314,0,0,0,.645,4.461,5.945,5.945,0,0,0,.871,2.283c1.1,1.2,1.75,6.526,1.75,6.526S971.467,848.12,971.032,849.87Z" transform="translate(737.942 -33.136)" fill="#65617d"/>
    <path id="Path_3647" data-name="Path 3647" d="M897.6,825.329s.452,1.936.807,3.913c-2.9.54-15.6,2.735-18.772,1.194-3.59-1.742-11.294-2.719-11.294-2.719l.129-.436c1.17-1.388,2.267-2.832,2.267-2.832Z" transform="translate(752.508 -32.643)" opacity="0.1"/>
    <path id="Path_3648" data-name="Path 3648" d="M965.048,831.477c-5.074-.863-16.2,1.218-20.579,2.114l-.089-4.51L964.419,827A37.3,37.3,0,0,0,965.048,831.477Z" transform="translate(737.811 -33.136)" opacity="0.1"/>
    <path id="Path_3649" data-name="Path 3649" d="M961.223,612.251l-.428,15.328s.541,23.395-1.089,27.1-1.613,18.611-1.613,18.611,1.089,7.067-.113,8.592-.331,7.18.549,10.116.1,10.237.1,10.237l-.218,41.143s-1.194,10.657-2.719,12.19a3.558,3.558,0,0,0-.887,3.469s-1.307,6.091-.984,7.18.984,3.6-1.517,4.792-1.855,5-1.855,5c-5.978-1.412-22.959,2.42-22.959,2.42a103.446,103.446,0,0,1-4.792-11.641,6.034,6.034,0,0,1,4.356-7.946c2.283-.323-1.614-4.348-1.614-4.348s.436-.549-.653-4.461.218-13.932.541-16.546,1.968-15.239,1.968-15.239-.871-16-.218-16.651,2.832-6.97,1.742-9.035-2.832-15.666-2.832-16.433-1.412-18.393-1.412-18.393-1.315-12.294-1-14.868-.879-12.3-.879-12.3c0-8.067-4.671-16.756-4.671-16.756l-.121.315-10.116,26.565s-1.614,8.067-3.041,12.617a82.841,82.841,0,0,0-2.13,9.455l-.1.581a3.5,3.5,0,0,1-.1.613l-.065.436h0s.758,5.768-.436,7.623-2.5,7.4-2.5,8.922.1,7.4.1,7.4.436,11.641-.758,12.907a2.033,2.033,0,0,0-.548,2.42s1.96,8.817,1.089,11.1-.21,7.615-.21,7.615-1.743,16.868-1.96,17.748-1.42,7.615-.113,8.164,3.808,3.808,3.808,3.808.549,14.255-1.412,15.328-.871,6.639-.871,6.639-15.779,3.049-19.361,1.307-11.294-2.727-11.294-2.727l1.081-3.582c-.064.129-.807,1.291-1.3-3.162-.541-4.679,4.034-2.42,4.034-2.42s3.59.871-2.178-4.784-2.936-11.431-2.614-11.431,1.089-8.374,1.089-8.374a27.758,27.758,0,0,0,.218-8.93c-.766-3.921-1.436-16.1-1.436-16.1s.541-9.245-.436-12.625.653-9.463.976-10.883-.976-14.368-.976-14.368a40.175,40.175,0,0,0,.436-10.544c-.653-4.453.653-20.894.653-20.894l1.96-18.942s1.412-5.873,1.194-8.269,1.613-10.77,1.613-10.77a11.947,11.947,0,0,1,.871-5.227c1.089-2.17,1.533-9.358,1.533-9.358l10.439-23.943,5.131-21.071,69.1-.653s.25,1.823.67,5.155,1.008,8.253,1.662,14.335c.605,5.518,1.267,12.02,1.912,19.248C965.579,608.113,961.223,612.251,961.223,612.251Z" transform="translate(752.97 21.117)" fill="#2dbfbd"/>
    <path id="Path_3650" data-name="Path 3650" d="M967.277,387.589l-16.134,17.2s-20.668-8.277-18.5-11.1c.807-1.1.71-4.55.226-8.366-.807-6.026-2.42-12.964-2.42-12.964s36.125-5.881,33.075.21a10.043,10.043,0,0,0-.226,7.26,27.12,27.12,0,0,0,3.977,7.761Z" transform="translate(740.503 55.232)" fill="#fbbebe"/>
    <path id="Path_3651" data-name="Path 3651" d="M963.58,372.566c-1.113,2.227-1.613,2.42-.952,4.84-4.719,5.066-10.729,10.608-18.2,10.608a25.693,25.693,0,0,1-11.528-2.727c-.807-6.026-2.42-12.964-2.42-12.964S966.629,366.475,963.58,372.566Z" transform="translate(740.497 55.234)" opacity="0.1"/>
    <path id="Path_3652" data-name="Path 3652" d="M967.467,353.219a25.9,25.9,0,1,1-51.807,0v-.371a25.9,25.9,0,1,1,51.8.371Z" transform="translate(743.362 63.481)" fill="#fbbebe"/>
    <path id="Path_3653" data-name="Path 3653" d="M967.067,567.845c-3.429,0-14.852.121-27.614.323h-.161l-4.211.073h-.137c-15.142.242-30.058-2.719-36.044-2.154-12.73,1.194,4.566-11.754,4.566-11.754a106.351,106.351,0,0,0,29.042,2.928l3.662-.186c11.568-.653,23.193-1.742,29.268-3.566C965.841,556.874,966.414,561.763,967.067,567.845Z" transform="translate(747.505 19.725)" opacity="0.1"/>
    <path id="Path_3654" data-name="Path 3654" d="M967.067,567.035c-3.429,0-14.852.121-27.614.323h-.161l-4.211.073h-.137c-15.142.242-30.058-2.719-36.044-2.154-12.73,1.194,4.566-11.754,4.566-11.754a106.533,106.533,0,0,0,29.042,2.936l3.662-.194c11.568-.653,23.193-1.742,29.268-3.566C965.841,556.064,966.414,560.953,967.067,567.035Z" transform="translate(747.505 19.882)" fill="#e3a79f"/>
    <path id="Path_3655" data-name="Path 3655" d="M930.639,399.823l-20.023,9.358L895.16,528.663s9.14-4.138,14.368-1.525,21.33.218,21.33.218,11.754-.653,13.488.653,22.2-5.445,22.2-5.445,3.7-8.269.871-9.576.871-14.142.871-14.142l-1.742-86.19-3.477-11.1-9.358-5.647-9.584,7.615-4.566.653Z" transform="translate(747.324 50.187)" opacity="0.1"/>
    <path id="Path_3656" data-name="Path 3656" d="M930.639,398.21l-20.023,9.358L895.16,527.051s9.14-4.138,14.392-1.492,21.33.218,21.33.218,11.754-.653,13.488.653,22.2-5.437,22.2-5.437,3.7-8.277.871-9.576.871-14.15.871-14.15l-1.742-86.19-3.477-11.1-9.358-5.647-9.584,7.615-4.566.653Z" transform="translate(747.324 50.492)" fill="#e7effd"/>
    <path id="Path_3657" data-name="Path 3657" d="M935,405.59s5.768,6.849,5.647,8.269-.331,4.784-.331,4.784l-4.292,8.834s-2.42,10.987-2.42,13.279-3.824,22.112-3.824,22.112l-4.574,30.47-5.768,39.941,5.881,10.116,6.962-5.873,9.253-71.169,1.952-14.037s2.073-25.25,2.073-27.864a88.328,88.328,0,0,0-1.2-9.463s1.42-6.534,7.26-8.067-.436-.323-.436-.323l-3.372-2.719-2.912,1.178S936.744,402.557,935,405.59Z" transform="translate(742.631 48.646)" opacity="0.1"/>
    <path id="Path_3658" data-name="Path 3658" d="M934.182,404.789s5.768,6.849,5.647,8.269-.331,4.784-.331,4.784l-4.348,8.817s-2.42,10.987-2.42,13.279-3.808,22.088-3.808,22.088l-4.574,30.47-5.768,39.941,5.921,10.132,6.962-5.873L940.7,465.51l1.96-14.037s2.065-25.25,2.065-27.864a88.325,88.325,0,0,0-1.2-9.463s1.42-6.534,7.26-8.067-.436-.331-.436-.331l-3.372-2.719-2.936,1.194S935.924,401.739,934.182,404.789Z" transform="translate(742.797 48.811)" fill="#444584"/>
    <path id="Path_3659" data-name="Path 3659" d="M932.166,391s-.871.653-1.089,5.01-3.227,14.142-3.227,14.142,11.294-7.833,16.941-6.962Z" transform="translate(741.006 51.136)" opacity="0.1"/>
    <path id="Path_3660" data-name="Path 3660" d="M932.166,389.42s-.871.653-1.089,5.01-3.227,14.15-3.227,14.15,11.294-7.841,16.941-6.97Z" transform="translate(741.006 51.441)" fill="#e7effd"/>
    <path id="Path_3661" data-name="Path 3661" d="M967.235,386.73,949.39,402.4s15.021,8.922,16.941,11.1,3.921-21.33,3.921-21.33Z" transform="translate(736.843 51.961)" opacity="0.1"/>
    <path id="Path_3662" data-name="Path 3662" d="M968.045,385.11,950.2,400.776s15.013,8.922,16.941,11.1,3.921-21.33,3.921-21.33Z" transform="translate(736.686 52.274)" fill="#e7effd"/>
    <path id="Path_3663" data-name="Path 3663" d="M921.56,390.961s-1.96-.976-3.808,1.855a12.311,12.311,0,0,1-5.332,4.13s-19.8,3.154-20.563,5.768l-9.253.549s-3.267.436-3.59,7.26-2.065,7.511-2.065,7.511-3.792,6.809-3.477,10.286-2.936,5.228-2.936,5.228l13.6,35.366s.436,14.577-2.065,19.91-7.188,28.945-7.188,28.945,1.96-.436,1.855.871-2.42,15.562-2.42,15.562-.653,5.647-1.742,7.615-1.194,12.189-1.194,12.189l-1.742,7.406s4.13,9.245,10.487,7.938,17.748-26.009,17.748-26.009l7.26-26.622,5.647-26.331,1.613-17.845,2.614-39.529,3.808-26.113S923.093,392.849,921.56,390.961Z" transform="translate(752.257 51.175)" opacity="0.1"/>
    <path id="Path_3664" data-name="Path 3664" d="M920.758,389.381s-1.96-.976-3.808,1.855a12.31,12.31,0,0,1-5.332,4.13s-19.8,3.162-20.563,5.768l-9.253.549s-3.227.436-3.59,7.26-2.065,7.527-2.065,7.527-3.808,6.752-3.485,10.229-2.936,5.228-2.936,5.228l13.6,35.366s.436,14.577-2.065,19.91-7.188,28.945-7.188,28.945,1.96-.428,1.855.871-2.42,15.562-2.42,15.562-.653,5.647-1.742,7.623-1.194,12.181-1.194,12.181l-1.742,7.406s4.13,9.245,10.447,7.938,17.748-26.009,17.748-26.009l7.26-26.622,5.647-26.339,1.613-17.845,2.614-39.529,3.808-26.113S922.283,391.237,920.758,389.381Z" transform="translate(752.413 51.48)" fill="#2dbfbd"/>
    <path id="Path_3665" data-name="Path 3665" d="M840.113,489.015l-6.317,4.356s-9.681.307-16.538-1.4l-3.517-1.557-.7-.307.726.226c3.63,1.081,6.454,1.057,8.7.307,8.93-3,7.946-17.748,7.6-21.088a2.923,2.923,0,0,0-.073-.637h0a.425.425,0,0,0,.048.081,4.661,4.661,0,0,0,.411.573c.121.145.258.29.4.428h0l3.154,6.3v.266Z" transform="translate(763.197 36.075)" opacity="0.1"/>
    <path id="Path_3666" data-name="Path 3666" d="M862.154,441.09l-3.041.871-.436,6.2s-3.59-.549-4.574,3.695a15.023,15.023,0,0,1-2.719,6.2s-5.986,5.01-6.309,9.253l-3.663,2.283s-8.6-1.96-10.552-5.437c0,0,3.913,28.074-16.941,21.217,0,0,23.395,10.229,24.484,11.641s8.269,5.55,14.8,2.073,7.946-8.817,7.946-8.817,6.309-8.817,6.526-10.124,5.115-2.823,5.115-2.823l9.277-22.6Z" transform="translate(763.027 41.454)" fill="#2dbfbd"/>
    <path id="Path_3667" data-name="Path 3667" d="M967.888,399.47l3.154-14.36s1.42,4.679,2.832,5.768l4.679,3.59s4.679,2.178,6.309,2.178,10.447,2.283,11.536,3.477,5.445.331,5.445.331,3.59,1.194,6.744,1.96,4.679,5.978,4.034,8.067a6.268,6.268,0,0,0,1.525,5.873c1.307,1.307,1.96,5.55,1.96,5.55a6.405,6.405,0,0,1,3.695,3.154c1.089,2.42.807,7.623.807,7.623l-16.215,22.846s.218,8.817-.436,10.778,2.283,35.254,2.283,35.254l3.372,57.277a60.935,60.935,0,0,1-5.437,4.243c-.976.436-1.96-20.241-1.96-20.975s-25.186-37.69-25.186-37.69-3.372-5.437-3.372-6.639-3.154-12.189-3.154-12.189L965.71,464.37Z" transform="translate(733.688 52.274)" opacity="0.1"/>
    <path id="Path_3668" data-name="Path 3668" d="M1022.219,431.425v1.242l-16.207,22.838h0s.218,8.817-.436,10.778c-.379,1.129.452,12.843,1.218,22.467.549,6.938,1.065,12.786,1.065,12.786l1.436,24.282,1.936,32.962a60.937,60.937,0,0,1-5.437,4.243c-.976.436-1.96-20.241-1.96-20.975s-25.186-37.625-25.186-37.625-3.372-5.445-3.372-6.639-3.154-12.189-3.154-12.189L967.33,464.38l2.178-64.86,1.847-14.36s2.719,4.679,4.138,5.76,4.679,3.6,4.679,3.6,4.679,2.178,6.309,2.178,10.447,2.283,11.536,3.477,5.445.331,5.445.331,3.59,1.194,6.744,1.96,4.679,5.986,4.034,8.067a6.277,6.277,0,0,0,1.525,5.881c1.3,1.307,1.952,5.55,1.952,5.55a6.405,6.405,0,0,1,3.7,3.162C1022.171,426.706,1022.243,429.723,1022.219,431.425Z" transform="translate(733.375 52.265)" fill="#2dbfbd"/>
    <path id="Path_3669" data-name="Path 3669" d="M870.48,801.93c.54,0,23.395.871,22.959,4.566S870.48,801.93,870.48,801.93Z" transform="translate(752.094 -28.29)" opacity="0.1"/>
    <path id="Path_3670" data-name="Path 3670" d="M876.82,809.62s15.328,2.5,11.294,4.784S876.82,809.62,876.82,809.62Z" transform="translate(750.869 -29.776)" opacity="0.1"/>
    <path id="Path_3671" data-name="Path 3671" d="M947.5,799s25.468,2.178,21.66,5-12.843,3.267-13.279,3.38S947.5,799,947.5,799Z" transform="translate(737.208 -27.724)" opacity="0.1"/>
    <path id="Path_3672" data-name="Path 3672" d="M943.72,812.85s14.15,2.42,14.585,5.115S943.72,812.85,943.72,812.85Z" transform="translate(737.938 -30.401)" opacity="0.1"/>
    <path id="Path_3673" data-name="Path 3673" d="M953.44,731.65s12.907,3.049,13.714,5.115Z" transform="translate(736.06 -14.706)" opacity="0.1"/>
    <path id="Path_3674" data-name="Path 3674" d="M890.786,743.25s-6.744,1.96-.218,5.873S890.786,743.25,890.786,743.25Z" transform="translate(748.762 -16.948)" opacity="0.1"/>
    <path id="Path_3675" data-name="Path 3675" d="M928.62,612.991c.758,0,12.617-3.921,16.755-2.178a27.633,27.633,0,0,0,9.253,1.742Z" transform="translate(740.857 8.736)" opacity="0.1"/>
    <path id="Path_3676" data-name="Path 3676" d="M926.818,627.576l-.121,1.081-10.116,26.565s-1.613,8.067-3.041,12.617a82.841,82.841,0,0,0-2.13,9.455l8.979-55.664Z" transform="translate(744.183 6.559)" opacity="0.1"/>
    <path id="Path_3677" data-name="Path 3677" d="M948.457,568.212l-4.211.073h-.137l-2.469-10.971,3.662-.194Z" transform="translate(738.34 19.028)" fill="#3f3d56"/>
    <path id="Path_3678" data-name="Path 3678" d="M1003.233,551.9l-2.7,2.235-9.043,7.446s-24.492,13.061-31.236.653c-5.945-10.931,21.781-18.732,28.5-20.434l1.428-.347Z" transform="translate(734.904 22.056)" fill="#fbbebe"/>
    <path id="Path_3679" data-name="Path 3679" d="M884.1,421.8s4.792,2.178,5.881,5.219S884.1,421.8,884.1,421.8Z" transform="translate(749.462 45.183)" opacity="0.1"/>
    <path id="Path_3680" data-name="Path 3680" d="M864.606,462.27s-6.97,8.487-4.138,11.746S864.606,462.27,864.606,462.27Z" transform="translate(754.16 37.36)" opacity="0.1"/>
    <path id="Path_3681" data-name="Path 3681" d="M1018.454,427.73s-6.526.653-6.744,6.317Z" transform="translate(724.797 44.036)" opacity="0.1"/>
    <path id="Path_3682" data-name="Path 3682" d="M945.07,533.315c.653-.653,15.674-22.854,19.151-20.894Z" transform="translate(737.677 27.691)" opacity="0.1"/>
    <path id="Path_3683" data-name="Path 3683" d="M967.469,353.231a25.815,25.815,0,0,1-3.065,12.23h-.194c-1.613-.347-2.493-2.259-3.751-3.461a5.1,5.1,0,0,0-5.873-.807,5.97,5.97,0,0,0-2.888,5.582c-.807-3.485-.565-7.188-1.379-10.681s-3.227-7.026-6.575-7.083c-1.436,0-3.114.532-4.155-.549-.629-.645-.758-1.67-1.226-2.46-2.42-3.856-9.64-1.9-12.6.073s-6.405,5.139-10.092,6.833a25.9,25.9,0,1,1,51.8.371Z" transform="translate(743.36 63.469)" opacity="0.1"/>
    <path id="Path_3684" data-name="Path 3684" d="M936.786,341.94c.468.807.6,1.815,1.226,2.46,1.033,1.081,2.711.524,4.155.549,3.332.056,5.768,3.59,6.575,7.083s.549,7.2,1.38,10.689a5.953,5.953,0,0,1,2.888-5.583,5.115,5.115,0,0,1,5.873.807c1.259,1.2,2.114,3.114,3.751,3.453s3.227-1.226,3.816-2.953.557-3.63.944-5.421c.734-3.4,2.953-6.179,4.179-9.406a17.021,17.021,0,0,0-.113-12.157c-.807-2.041-2.033-3.88-2.856-5.921-1.25-3.106-1.613-6.607-3.106-9.56-2.557-4.945-8.6-7.422-13.553-5.558-2.372.887-4.421,2.606-6.825,3.38-3.227,1.033-6.655.258-9.979-.21s-7.01-.508-9.681,1.686c-3.082,2.517-3.921,7.26-6.817,10.019-1.218,1.162-2.727,1.9-4.034,2.977a5.311,5.311,0,0,0-2.235,4.421c.186,2.251,2.42,4.3,1.613,6.389a5.071,5.071,0,0,1-1.21,1.613,22.742,22.742,0,0,0-5.268,8.963c5.824,1.823,12.1-4.6,16.683-7.632C927.146,340.036,934.4,338.084,936.786,341.94Z" transform="translate(744.937 66.83)" fill="#4d4545"/>
    <path id="Path_3685" data-name="Path 3685" d="M1010.16,551.9l-2.7,2.235c-2.42-3.977-12.2-11.923-12.2-11.923l.42-.411,1.428-.347Z" transform="translate(727.977 22.056)" opacity="0.1"/>
    <path id="Path_3686" data-name="Path 3686" d="M1012.96,547.031s-.968,2.42-1.976,4.518-2.106,4.034-2.154,2.42c-.113-3.049-12.73-13.279-12.73-13.279l1.71-1.662,1.985-1.928Z" transform="translate(727.814 22.897)" fill="#e7effd"/>
    <path id="Path_3687" data-name="Path 3687" d="M1013.391,526.376l1.436,24.282c-3.388-5.252-12.665-18.732-18.627-18.3l14.472-16.651a19.248,19.248,0,0,0,1.654-2.122C1012.875,520.528,1013.391,526.376,1013.391,526.376Z" transform="translate(727.795 27.441)" opacity="0.1"/>
    <path id="Path_3688" data-name="Path 3688" d="M1013.37,547.036s-.968,2.42-1.976,4.518c-3.792-5.2-9.011-11.351-13.174-12.5l1.985-1.928Z" transform="translate(727.404 22.891)" opacity="0.1"/>
    <path id="Path_3689" data-name="Path 3689" d="M1023.995,440.28l3.921,3.049s6.526.1,7.18,5.55,6.639,7.938,6.639,7.938,4.461,4.461,4.461,6.534,3.372,5.768,3.372,6.091,3.227,6.962,2.832,8.164,3.477,6.454,2.283,8.374a49.069,49.069,0,0,0-2.614,5.445s-5.115,9.794-7.72,11.641-14.585,17.417-14.585,17.417-12.843,14.8-12.843,19.361c0,0-12.512-20.894-19.91-20.353l14.513-16.643s2.5-2.719,2.614-4.348,6.962-9.14,10.229-9.471c0,0,.541-4.461-.871-4.566s-2.614-3.6-2.614-3.6-9.576-11.294-9.681-18.5S1023.995,440.28,1023.995,440.28Z" transform="translate(727.638 41.611)" fill="#2dbfbd"/>
    <path id="Path_3690" data-name="Path 3690" d="M1035.824,453.09s-9.14,6.752-7.18,8.922S1035.824,453.09,1035.824,453.09Z" transform="translate(721.577 39.135)" opacity="0.1"/>
    <path id="Path_3691" data-name="Path 3691" d="M1038.15,487.05s16.941-5.445,18.716,0Z" transform="translate(719.687 33.039)" opacity="0.1"/>
    <path id="Path_3692" data-name="Path 3692" d="M893.337,845.648s-9.148,5.986-13.714,5.107-9.253,1.533-9.253,1.533a27.55,27.55,0,0,1-11.536,7.511c-7.4,2.5-17.748,1.517-23.613-.444-2.783-.928-3-2.122-1.662-3.6,6.381,1.275,20.66,3.808,24.516,1.968a105.378,105.378,0,0,0,12.181-7.615s9.366-1.234,10.673-1.234c.928,0,8.156-2.985,12.23-4.7Z" transform="translate(759.385 -36.456)" opacity="0.1"/>
    <path id="Path_3693" data-name="Path 3693" d="M970.144,861.21c-.056.371-.089.605-.089.605s-2.178,4.784-14.255,6.526-12.1-4.034-12.1-4.034.048-.621.129-1.557C947.661,864.211,956.043,865.833,970.144,861.21Z" transform="translate(737.942 -39.748)" opacity="0.1"/>
    <path id="Path_3694" data-name="Path 3694" d="M889.049,451.47s0,24.815-2.122,27.267S889.049,451.47,889.049,451.47Z" transform="translate(749.03 39.448)" opacity="0.1"/>
    <path id="Path_3695" data-name="Path 3695" d="M1011.31,461.39l3.154,8.874S1015.715,461.551,1011.31,461.39Z" transform="translate(724.874 37.531)" opacity="0.1"/>
    <g id="Group_1631" data-name="Group 1631" transform="translate(1652.431 397.565)" opacity="0.1">
      <path id="Path_3696" data-name="Path 3696" d="M915.461,341.986c.807-2.041-1.283-4.034-1.557-6.236a4.034,4.034,0,0,0-.347,1.968c.137,1.654,1.355,3.187,1.678,4.711a2.858,2.858,0,0,0,.226-.444Z" transform="translate(-908.661 -335.75)"/>
      <path id="Path_3697" data-name="Path 3697" d="M950.407,367.079c-.807-3.437-.549-7.067-1.339-10.487s-3.227-7.027-6.583-7.083c-1.436,0-3.114.532-4.155-.549-.629-.645-.75-1.67-1.226-2.46-2.42-3.856-9.632-1.9-12.6.073-4.453,2.961-10.568,9.148-16.271,7.744-.274.661-.532,1.323-.742,2.009,5.824,1.823,12.1-4.6,16.683-7.632,2.969-1.976,10.221-3.929,12.609-.073.468.807.6,1.815,1.226,2.46,1.033,1.081,2.711.524,4.155.549,3.332.056,5.768,3.59,6.575,7.083s.549,7.2,1.38,10.689a6.178,6.178,0,0,1,.29-2.323Z" transform="translate(-907.49 -337.4)"/>
      <path id="Path_3698" data-name="Path 3698" d="M977.087,367.027c-.6,1.726-2.146,3.308-3.824,2.953s-2.493-2.251-3.743-3.453a5.115,5.115,0,0,0-5.873-.807,5.905,5.905,0,0,0-2.888,5.268,5.648,5.648,0,0,1,2.557-3.146,5.115,5.115,0,0,1,5.873.807c1.258,1.2,2.114,3.114,3.751,3.453s3.227-1.226,3.816-2.953a14.6,14.6,0,0,0,.6-3.13,8.859,8.859,0,0,1-.266,1.008Z" transform="translate(-917.786 -341.43)"/>
      <path id="Path_3699" data-name="Path 3699" d="M986.243,348.526c-1.226,3.227-3.437,6.01-4.179,9.406-.145.686-.234,1.388-.315,2.089.742-3.38,2.945-6.163,4.171-9.374a16.941,16.941,0,0,0,1.008-4.518A17.322,17.322,0,0,1,986.243,348.526Z" transform="translate(-921.843 -337.756)"/>
    </g>
  </g>
</svg>
